%TF.GenerationSoftware,KiCad,Pcbnew,8.0.1*%
%TF.CreationDate,2024-04-28T15:40:33+08:00*%
%TF.ProjectId,pinban,70696e62-616e-42e6-9b69-6361645f7063,rev?*%
%TF.SameCoordinates,Original*%
%TF.FileFunction,Legend,Top*%
%TF.FilePolarity,Positive*%
%FSLAX46Y46*%
G04 Gerber Fmt 4.6, Leading zero omitted, Abs format (unit mm)*
G04 Created by KiCad (PCBNEW 8.0.1) date 2024-04-28 15:40:33*
%MOMM*%
%LPD*%
G01*
G04 APERTURE LIST*
%ADD10C,0.120000*%
G04 APERTURE END LIST*
D10*
X153420000Y-116270000D02*
X153420000Y-113670000D01*
X156080000Y-113670000D02*
X153420000Y-113670000D01*
X156080000Y-116270000D02*
X153420000Y-116270000D01*
X156080000Y-116270000D02*
X156080000Y-113670000D01*
X156080000Y-117540000D02*
X156080000Y-118870000D01*
X156080000Y-118870000D02*
X154750000Y-118870000D01*
X141250000Y-113440000D02*
X139300000Y-113440000D01*
X141250000Y-113440000D02*
X143200000Y-113440000D01*
X141250000Y-118560000D02*
X139300000Y-118560000D01*
X141250000Y-118560000D02*
X143200000Y-118560000D01*
X138550000Y-113535000D02*
X138310000Y-113205000D01*
X138790000Y-113205000D01*
X138550000Y-113535000D01*
G36*
X138550000Y-113535000D02*
G01*
X138310000Y-113205000D01*
X138790000Y-113205000D01*
X138550000Y-113535000D01*
G37*
X128380000Y-112670000D02*
X129710000Y-112670000D01*
X128380000Y-114000000D02*
X128380000Y-112670000D01*
X128380000Y-115270000D02*
X128380000Y-120410000D01*
X128380000Y-115270000D02*
X130980000Y-115270000D01*
X128380000Y-120410000D02*
X133580000Y-120410000D01*
X130980000Y-112670000D02*
X133580000Y-112670000D01*
X130980000Y-115270000D02*
X130980000Y-112670000D01*
X133580000Y-112670000D02*
X133580000Y-120410000D01*
X119920000Y-116270000D02*
X119920000Y-113670000D01*
X122580000Y-113670000D02*
X119920000Y-113670000D01*
X122580000Y-116270000D02*
X119920000Y-116270000D01*
X122580000Y-116270000D02*
X122580000Y-113670000D01*
X122580000Y-117540000D02*
X122580000Y-118870000D01*
X122580000Y-118870000D02*
X121250000Y-118870000D01*
X107750000Y-113440000D02*
X105800000Y-113440000D01*
X107750000Y-113440000D02*
X109700000Y-113440000D01*
X107750000Y-118560000D02*
X105800000Y-118560000D01*
X107750000Y-118560000D02*
X109700000Y-118560000D01*
X105050000Y-113535000D02*
X104810000Y-113205000D01*
X105290000Y-113205000D01*
X105050000Y-113535000D01*
G36*
X105050000Y-113535000D02*
G01*
X104810000Y-113205000D01*
X105290000Y-113205000D01*
X105050000Y-113535000D01*
G37*
X94880000Y-112670000D02*
X96210000Y-112670000D01*
X94880000Y-114000000D02*
X94880000Y-112670000D01*
X94880000Y-115270000D02*
X94880000Y-120410000D01*
X94880000Y-115270000D02*
X97480000Y-115270000D01*
X94880000Y-120410000D02*
X100080000Y-120410000D01*
X97480000Y-112670000D02*
X100080000Y-112670000D01*
X97480000Y-115270000D02*
X97480000Y-112670000D01*
X100080000Y-112670000D02*
X100080000Y-120410000D01*
X86420000Y-116270000D02*
X86420000Y-113670000D01*
X89080000Y-113670000D02*
X86420000Y-113670000D01*
X89080000Y-116270000D02*
X86420000Y-116270000D01*
X89080000Y-116270000D02*
X89080000Y-113670000D01*
X89080000Y-117540000D02*
X89080000Y-118870000D01*
X89080000Y-118870000D02*
X87750000Y-118870000D01*
X74250000Y-113440000D02*
X72300000Y-113440000D01*
X74250000Y-113440000D02*
X76200000Y-113440000D01*
X74250000Y-118560000D02*
X72300000Y-118560000D01*
X74250000Y-118560000D02*
X76200000Y-118560000D01*
X71550000Y-113535000D02*
X71310000Y-113205000D01*
X71790000Y-113205000D01*
X71550000Y-113535000D01*
G36*
X71550000Y-113535000D02*
G01*
X71310000Y-113205000D01*
X71790000Y-113205000D01*
X71550000Y-113535000D01*
G37*
X61380000Y-112670000D02*
X62710000Y-112670000D01*
X61380000Y-114000000D02*
X61380000Y-112670000D01*
X61380000Y-115270000D02*
X61380000Y-120410000D01*
X61380000Y-115270000D02*
X63980000Y-115270000D01*
X61380000Y-120410000D02*
X66580000Y-120410000D01*
X63980000Y-112670000D02*
X66580000Y-112670000D01*
X63980000Y-115270000D02*
X63980000Y-112670000D01*
X66580000Y-112670000D02*
X66580000Y-120410000D01*
X153420000Y-100270000D02*
X153420000Y-97670000D01*
X156080000Y-97670000D02*
X153420000Y-97670000D01*
X156080000Y-100270000D02*
X153420000Y-100270000D01*
X156080000Y-100270000D02*
X156080000Y-97670000D01*
X156080000Y-101540000D02*
X156080000Y-102870000D01*
X156080000Y-102870000D02*
X154750000Y-102870000D01*
X141250000Y-97440000D02*
X139300000Y-97440000D01*
X141250000Y-97440000D02*
X143200000Y-97440000D01*
X141250000Y-102560000D02*
X139300000Y-102560000D01*
X141250000Y-102560000D02*
X143200000Y-102560000D01*
X138550000Y-97535000D02*
X138310000Y-97205000D01*
X138790000Y-97205000D01*
X138550000Y-97535000D01*
G36*
X138550000Y-97535000D02*
G01*
X138310000Y-97205000D01*
X138790000Y-97205000D01*
X138550000Y-97535000D01*
G37*
X128380000Y-96670000D02*
X129710000Y-96670000D01*
X128380000Y-98000000D02*
X128380000Y-96670000D01*
X128380000Y-99270000D02*
X128380000Y-104410000D01*
X128380000Y-99270000D02*
X130980000Y-99270000D01*
X128380000Y-104410000D02*
X133580000Y-104410000D01*
X130980000Y-96670000D02*
X133580000Y-96670000D01*
X130980000Y-99270000D02*
X130980000Y-96670000D01*
X133580000Y-96670000D02*
X133580000Y-104410000D01*
X119920000Y-100270000D02*
X119920000Y-97670000D01*
X122580000Y-97670000D02*
X119920000Y-97670000D01*
X122580000Y-100270000D02*
X119920000Y-100270000D01*
X122580000Y-100270000D02*
X122580000Y-97670000D01*
X122580000Y-101540000D02*
X122580000Y-102870000D01*
X122580000Y-102870000D02*
X121250000Y-102870000D01*
X107750000Y-97440000D02*
X105800000Y-97440000D01*
X107750000Y-97440000D02*
X109700000Y-97440000D01*
X107750000Y-102560000D02*
X105800000Y-102560000D01*
X107750000Y-102560000D02*
X109700000Y-102560000D01*
X105050000Y-97535000D02*
X104810000Y-97205000D01*
X105290000Y-97205000D01*
X105050000Y-97535000D01*
G36*
X105050000Y-97535000D02*
G01*
X104810000Y-97205000D01*
X105290000Y-97205000D01*
X105050000Y-97535000D01*
G37*
X94880000Y-96670000D02*
X96210000Y-96670000D01*
X94880000Y-98000000D02*
X94880000Y-96670000D01*
X94880000Y-99270000D02*
X94880000Y-104410000D01*
X94880000Y-99270000D02*
X97480000Y-99270000D01*
X94880000Y-104410000D02*
X100080000Y-104410000D01*
X97480000Y-96670000D02*
X100080000Y-96670000D01*
X97480000Y-99270000D02*
X97480000Y-96670000D01*
X100080000Y-96670000D02*
X100080000Y-104410000D01*
X86420000Y-100270000D02*
X86420000Y-97670000D01*
X89080000Y-97670000D02*
X86420000Y-97670000D01*
X89080000Y-100270000D02*
X86420000Y-100270000D01*
X89080000Y-100270000D02*
X89080000Y-97670000D01*
X89080000Y-101540000D02*
X89080000Y-102870000D01*
X89080000Y-102870000D02*
X87750000Y-102870000D01*
X74250000Y-97440000D02*
X72300000Y-97440000D01*
X74250000Y-97440000D02*
X76200000Y-97440000D01*
X74250000Y-102560000D02*
X72300000Y-102560000D01*
X74250000Y-102560000D02*
X76200000Y-102560000D01*
X71550000Y-97535000D02*
X71310000Y-97205000D01*
X71790000Y-97205000D01*
X71550000Y-97535000D01*
G36*
X71550000Y-97535000D02*
G01*
X71310000Y-97205000D01*
X71790000Y-97205000D01*
X71550000Y-97535000D01*
G37*
X61380000Y-96670000D02*
X62710000Y-96670000D01*
X61380000Y-98000000D02*
X61380000Y-96670000D01*
X61380000Y-99270000D02*
X61380000Y-104410000D01*
X61380000Y-99270000D02*
X63980000Y-99270000D01*
X61380000Y-104410000D02*
X66580000Y-104410000D01*
X63980000Y-96670000D02*
X66580000Y-96670000D01*
X63980000Y-99270000D02*
X63980000Y-96670000D01*
X66580000Y-96670000D02*
X66580000Y-104410000D01*
X153420000Y-84270000D02*
X153420000Y-81670000D01*
X156080000Y-81670000D02*
X153420000Y-81670000D01*
X156080000Y-84270000D02*
X153420000Y-84270000D01*
X156080000Y-84270000D02*
X156080000Y-81670000D01*
X156080000Y-85540000D02*
X156080000Y-86870000D01*
X156080000Y-86870000D02*
X154750000Y-86870000D01*
X141250000Y-81440000D02*
X139300000Y-81440000D01*
X141250000Y-81440000D02*
X143200000Y-81440000D01*
X141250000Y-86560000D02*
X139300000Y-86560000D01*
X141250000Y-86560000D02*
X143200000Y-86560000D01*
X138550000Y-81535000D02*
X138310000Y-81205000D01*
X138790000Y-81205000D01*
X138550000Y-81535000D01*
G36*
X138550000Y-81535000D02*
G01*
X138310000Y-81205000D01*
X138790000Y-81205000D01*
X138550000Y-81535000D01*
G37*
X128380000Y-80670000D02*
X129710000Y-80670000D01*
X128380000Y-82000000D02*
X128380000Y-80670000D01*
X128380000Y-83270000D02*
X128380000Y-88410000D01*
X128380000Y-83270000D02*
X130980000Y-83270000D01*
X128380000Y-88410000D02*
X133580000Y-88410000D01*
X130980000Y-80670000D02*
X133580000Y-80670000D01*
X130980000Y-83270000D02*
X130980000Y-80670000D01*
X133580000Y-80670000D02*
X133580000Y-88410000D01*
X119920000Y-84270000D02*
X119920000Y-81670000D01*
X122580000Y-81670000D02*
X119920000Y-81670000D01*
X122580000Y-84270000D02*
X119920000Y-84270000D01*
X122580000Y-84270000D02*
X122580000Y-81670000D01*
X122580000Y-85540000D02*
X122580000Y-86870000D01*
X122580000Y-86870000D02*
X121250000Y-86870000D01*
X107750000Y-81440000D02*
X105800000Y-81440000D01*
X107750000Y-81440000D02*
X109700000Y-81440000D01*
X107750000Y-86560000D02*
X105800000Y-86560000D01*
X107750000Y-86560000D02*
X109700000Y-86560000D01*
X105050000Y-81535000D02*
X104810000Y-81205000D01*
X105290000Y-81205000D01*
X105050000Y-81535000D01*
G36*
X105050000Y-81535000D02*
G01*
X104810000Y-81205000D01*
X105290000Y-81205000D01*
X105050000Y-81535000D01*
G37*
X94880000Y-80670000D02*
X96210000Y-80670000D01*
X94880000Y-82000000D02*
X94880000Y-80670000D01*
X94880000Y-83270000D02*
X94880000Y-88410000D01*
X94880000Y-83270000D02*
X97480000Y-83270000D01*
X94880000Y-88410000D02*
X100080000Y-88410000D01*
X97480000Y-80670000D02*
X100080000Y-80670000D01*
X97480000Y-83270000D02*
X97480000Y-80670000D01*
X100080000Y-80670000D02*
X100080000Y-88410000D01*
X86420000Y-84270000D02*
X86420000Y-81670000D01*
X89080000Y-81670000D02*
X86420000Y-81670000D01*
X89080000Y-84270000D02*
X86420000Y-84270000D01*
X89080000Y-84270000D02*
X89080000Y-81670000D01*
X89080000Y-85540000D02*
X89080000Y-86870000D01*
X89080000Y-86870000D02*
X87750000Y-86870000D01*
X74250000Y-81440000D02*
X72300000Y-81440000D01*
X74250000Y-81440000D02*
X76200000Y-81440000D01*
X74250000Y-86560000D02*
X72300000Y-86560000D01*
X74250000Y-86560000D02*
X76200000Y-86560000D01*
X71550000Y-81535000D02*
X71310000Y-81205000D01*
X71790000Y-81205000D01*
X71550000Y-81535000D01*
G36*
X71550000Y-81535000D02*
G01*
X71310000Y-81205000D01*
X71790000Y-81205000D01*
X71550000Y-81535000D01*
G37*
X61380000Y-80670000D02*
X62710000Y-80670000D01*
X61380000Y-82000000D02*
X61380000Y-80670000D01*
X61380000Y-83270000D02*
X61380000Y-88410000D01*
X61380000Y-83270000D02*
X63980000Y-83270000D01*
X61380000Y-88410000D02*
X66580000Y-88410000D01*
X63980000Y-80670000D02*
X66580000Y-80670000D01*
X63980000Y-83270000D02*
X63980000Y-80670000D01*
X66580000Y-80670000D02*
X66580000Y-88410000D01*
X153420000Y-68270000D02*
X153420000Y-65670000D01*
X156080000Y-65670000D02*
X153420000Y-65670000D01*
X156080000Y-68270000D02*
X153420000Y-68270000D01*
X156080000Y-68270000D02*
X156080000Y-65670000D01*
X156080000Y-69540000D02*
X156080000Y-70870000D01*
X156080000Y-70870000D02*
X154750000Y-70870000D01*
X141250000Y-65440000D02*
X139300000Y-65440000D01*
X141250000Y-65440000D02*
X143200000Y-65440000D01*
X141250000Y-70560000D02*
X139300000Y-70560000D01*
X141250000Y-70560000D02*
X143200000Y-70560000D01*
X138550000Y-65535000D02*
X138310000Y-65205000D01*
X138790000Y-65205000D01*
X138550000Y-65535000D01*
G36*
X138550000Y-65535000D02*
G01*
X138310000Y-65205000D01*
X138790000Y-65205000D01*
X138550000Y-65535000D01*
G37*
X128380000Y-64670000D02*
X129710000Y-64670000D01*
X128380000Y-66000000D02*
X128380000Y-64670000D01*
X128380000Y-67270000D02*
X128380000Y-72410000D01*
X128380000Y-67270000D02*
X130980000Y-67270000D01*
X128380000Y-72410000D02*
X133580000Y-72410000D01*
X130980000Y-64670000D02*
X133580000Y-64670000D01*
X130980000Y-67270000D02*
X130980000Y-64670000D01*
X133580000Y-64670000D02*
X133580000Y-72410000D01*
X119920000Y-68270000D02*
X119920000Y-65670000D01*
X122580000Y-65670000D02*
X119920000Y-65670000D01*
X122580000Y-68270000D02*
X119920000Y-68270000D01*
X122580000Y-68270000D02*
X122580000Y-65670000D01*
X122580000Y-69540000D02*
X122580000Y-70870000D01*
X122580000Y-70870000D02*
X121250000Y-70870000D01*
X107750000Y-65440000D02*
X105800000Y-65440000D01*
X107750000Y-65440000D02*
X109700000Y-65440000D01*
X107750000Y-70560000D02*
X105800000Y-70560000D01*
X107750000Y-70560000D02*
X109700000Y-70560000D01*
X105050000Y-65535000D02*
X104810000Y-65205000D01*
X105290000Y-65205000D01*
X105050000Y-65535000D01*
G36*
X105050000Y-65535000D02*
G01*
X104810000Y-65205000D01*
X105290000Y-65205000D01*
X105050000Y-65535000D01*
G37*
X94880000Y-64670000D02*
X96210000Y-64670000D01*
X94880000Y-66000000D02*
X94880000Y-64670000D01*
X94880000Y-67270000D02*
X94880000Y-72410000D01*
X94880000Y-67270000D02*
X97480000Y-67270000D01*
X94880000Y-72410000D02*
X100080000Y-72410000D01*
X97480000Y-64670000D02*
X100080000Y-64670000D01*
X97480000Y-67270000D02*
X97480000Y-64670000D01*
X100080000Y-64670000D02*
X100080000Y-72410000D01*
X86420000Y-68270000D02*
X86420000Y-65670000D01*
X89080000Y-65670000D02*
X86420000Y-65670000D01*
X89080000Y-68270000D02*
X86420000Y-68270000D01*
X89080000Y-68270000D02*
X89080000Y-65670000D01*
X89080000Y-69540000D02*
X89080000Y-70870000D01*
X89080000Y-70870000D02*
X87750000Y-70870000D01*
X74250000Y-65440000D02*
X72300000Y-65440000D01*
X74250000Y-65440000D02*
X76200000Y-65440000D01*
X74250000Y-70560000D02*
X72300000Y-70560000D01*
X74250000Y-70560000D02*
X76200000Y-70560000D01*
X71550000Y-65535000D02*
X71310000Y-65205000D01*
X71790000Y-65205000D01*
X71550000Y-65535000D01*
G36*
X71550000Y-65535000D02*
G01*
X71310000Y-65205000D01*
X71790000Y-65205000D01*
X71550000Y-65535000D01*
G37*
X61380000Y-64670000D02*
X62710000Y-64670000D01*
X61380000Y-66000000D02*
X61380000Y-64670000D01*
X61380000Y-67270000D02*
X61380000Y-72410000D01*
X61380000Y-67270000D02*
X63980000Y-67270000D01*
X61380000Y-72410000D02*
X66580000Y-72410000D01*
X63980000Y-64670000D02*
X66580000Y-64670000D01*
X63980000Y-67270000D02*
X63980000Y-64670000D01*
X66580000Y-64670000D02*
X66580000Y-72410000D01*
X153420000Y-52270000D02*
X153420000Y-49670000D01*
X156080000Y-49670000D02*
X153420000Y-49670000D01*
X156080000Y-52270000D02*
X153420000Y-52270000D01*
X156080000Y-52270000D02*
X156080000Y-49670000D01*
X156080000Y-53540000D02*
X156080000Y-54870000D01*
X156080000Y-54870000D02*
X154750000Y-54870000D01*
X141250000Y-49440000D02*
X139300000Y-49440000D01*
X141250000Y-49440000D02*
X143200000Y-49440000D01*
X141250000Y-54560000D02*
X139300000Y-54560000D01*
X141250000Y-54560000D02*
X143200000Y-54560000D01*
X138550000Y-49535000D02*
X138310000Y-49205000D01*
X138790000Y-49205000D01*
X138550000Y-49535000D01*
G36*
X138550000Y-49535000D02*
G01*
X138310000Y-49205000D01*
X138790000Y-49205000D01*
X138550000Y-49535000D01*
G37*
X128380000Y-48670000D02*
X129710000Y-48670000D01*
X128380000Y-50000000D02*
X128380000Y-48670000D01*
X128380000Y-51270000D02*
X128380000Y-56410000D01*
X128380000Y-51270000D02*
X130980000Y-51270000D01*
X128380000Y-56410000D02*
X133580000Y-56410000D01*
X130980000Y-48670000D02*
X133580000Y-48670000D01*
X130980000Y-51270000D02*
X130980000Y-48670000D01*
X133580000Y-48670000D02*
X133580000Y-56410000D01*
X119920000Y-52270000D02*
X119920000Y-49670000D01*
X122580000Y-49670000D02*
X119920000Y-49670000D01*
X122580000Y-52270000D02*
X119920000Y-52270000D01*
X122580000Y-52270000D02*
X122580000Y-49670000D01*
X122580000Y-53540000D02*
X122580000Y-54870000D01*
X122580000Y-54870000D02*
X121250000Y-54870000D01*
X107750000Y-49440000D02*
X105800000Y-49440000D01*
X107750000Y-49440000D02*
X109700000Y-49440000D01*
X107750000Y-54560000D02*
X105800000Y-54560000D01*
X107750000Y-54560000D02*
X109700000Y-54560000D01*
X105050000Y-49535000D02*
X104810000Y-49205000D01*
X105290000Y-49205000D01*
X105050000Y-49535000D01*
G36*
X105050000Y-49535000D02*
G01*
X104810000Y-49205000D01*
X105290000Y-49205000D01*
X105050000Y-49535000D01*
G37*
X94880000Y-48670000D02*
X96210000Y-48670000D01*
X94880000Y-50000000D02*
X94880000Y-48670000D01*
X94880000Y-51270000D02*
X94880000Y-56410000D01*
X94880000Y-51270000D02*
X97480000Y-51270000D01*
X94880000Y-56410000D02*
X100080000Y-56410000D01*
X97480000Y-48670000D02*
X100080000Y-48670000D01*
X97480000Y-51270000D02*
X97480000Y-48670000D01*
X100080000Y-48670000D02*
X100080000Y-56410000D01*
X86420000Y-52270000D02*
X86420000Y-49670000D01*
X89080000Y-49670000D02*
X86420000Y-49670000D01*
X89080000Y-52270000D02*
X86420000Y-52270000D01*
X89080000Y-52270000D02*
X89080000Y-49670000D01*
X89080000Y-53540000D02*
X89080000Y-54870000D01*
X89080000Y-54870000D02*
X87750000Y-54870000D01*
X74250000Y-49440000D02*
X72300000Y-49440000D01*
X74250000Y-49440000D02*
X76200000Y-49440000D01*
X74250000Y-54560000D02*
X72300000Y-54560000D01*
X74250000Y-54560000D02*
X76200000Y-54560000D01*
X71550000Y-49535000D02*
X71310000Y-49205000D01*
X71790000Y-49205000D01*
X71550000Y-49535000D01*
G36*
X71550000Y-49535000D02*
G01*
X71310000Y-49205000D01*
X71790000Y-49205000D01*
X71550000Y-49535000D01*
G37*
X61380000Y-48670000D02*
X62710000Y-48670000D01*
X61380000Y-50000000D02*
X61380000Y-48670000D01*
X61380000Y-51270000D02*
X61380000Y-56410000D01*
X61380000Y-51270000D02*
X63980000Y-51270000D01*
X61380000Y-56410000D02*
X66580000Y-56410000D01*
X63980000Y-48670000D02*
X66580000Y-48670000D01*
X63980000Y-51270000D02*
X63980000Y-48670000D01*
X66580000Y-48670000D02*
X66580000Y-56410000D01*
X153420000Y-36270000D02*
X153420000Y-33670000D01*
X156080000Y-33670000D02*
X153420000Y-33670000D01*
X156080000Y-36270000D02*
X153420000Y-36270000D01*
X156080000Y-36270000D02*
X156080000Y-33670000D01*
X156080000Y-37540000D02*
X156080000Y-38870000D01*
X156080000Y-38870000D02*
X154750000Y-38870000D01*
X141250000Y-33440000D02*
X139300000Y-33440000D01*
X141250000Y-33440000D02*
X143200000Y-33440000D01*
X141250000Y-38560000D02*
X139300000Y-38560000D01*
X141250000Y-38560000D02*
X143200000Y-38560000D01*
X138550000Y-33535000D02*
X138310000Y-33205000D01*
X138790000Y-33205000D01*
X138550000Y-33535000D01*
G36*
X138550000Y-33535000D02*
G01*
X138310000Y-33205000D01*
X138790000Y-33205000D01*
X138550000Y-33535000D01*
G37*
X128380000Y-32670000D02*
X129710000Y-32670000D01*
X128380000Y-34000000D02*
X128380000Y-32670000D01*
X128380000Y-35270000D02*
X128380000Y-40410000D01*
X128380000Y-35270000D02*
X130980000Y-35270000D01*
X128380000Y-40410000D02*
X133580000Y-40410000D01*
X130980000Y-32670000D02*
X133580000Y-32670000D01*
X130980000Y-35270000D02*
X130980000Y-32670000D01*
X133580000Y-32670000D02*
X133580000Y-40410000D01*
X119920000Y-36270000D02*
X119920000Y-33670000D01*
X122580000Y-33670000D02*
X119920000Y-33670000D01*
X122580000Y-36270000D02*
X119920000Y-36270000D01*
X122580000Y-36270000D02*
X122580000Y-33670000D01*
X122580000Y-37540000D02*
X122580000Y-38870000D01*
X122580000Y-38870000D02*
X121250000Y-38870000D01*
X107750000Y-33440000D02*
X105800000Y-33440000D01*
X107750000Y-33440000D02*
X109700000Y-33440000D01*
X107750000Y-38560000D02*
X105800000Y-38560000D01*
X107750000Y-38560000D02*
X109700000Y-38560000D01*
X105050000Y-33535000D02*
X104810000Y-33205000D01*
X105290000Y-33205000D01*
X105050000Y-33535000D01*
G36*
X105050000Y-33535000D02*
G01*
X104810000Y-33205000D01*
X105290000Y-33205000D01*
X105050000Y-33535000D01*
G37*
X94880000Y-32670000D02*
X96210000Y-32670000D01*
X94880000Y-34000000D02*
X94880000Y-32670000D01*
X94880000Y-35270000D02*
X94880000Y-40410000D01*
X94880000Y-35270000D02*
X97480000Y-35270000D01*
X94880000Y-40410000D02*
X100080000Y-40410000D01*
X97480000Y-32670000D02*
X100080000Y-32670000D01*
X97480000Y-35270000D02*
X97480000Y-32670000D01*
X100080000Y-32670000D02*
X100080000Y-40410000D01*
X74250000Y-33440000D02*
X72300000Y-33440000D01*
X74250000Y-33440000D02*
X76200000Y-33440000D01*
X74250000Y-38560000D02*
X72300000Y-38560000D01*
X74250000Y-38560000D02*
X76200000Y-38560000D01*
X71550000Y-33535000D02*
X71310000Y-33205000D01*
X71790000Y-33205000D01*
X71550000Y-33535000D01*
G36*
X71550000Y-33535000D02*
G01*
X71310000Y-33205000D01*
X71790000Y-33205000D01*
X71550000Y-33535000D01*
G37*
X61380000Y-32670000D02*
X62710000Y-32670000D01*
X61380000Y-34000000D02*
X61380000Y-32670000D01*
X61380000Y-35270000D02*
X61380000Y-40410000D01*
X61380000Y-35270000D02*
X63980000Y-35270000D01*
X61380000Y-40410000D02*
X66580000Y-40410000D01*
X63980000Y-32670000D02*
X66580000Y-32670000D01*
X63980000Y-35270000D02*
X63980000Y-32670000D01*
X66580000Y-32670000D02*
X66580000Y-40410000D01*
X86420000Y-36270000D02*
X86420000Y-33670000D01*
X89080000Y-33670000D02*
X86420000Y-33670000D01*
X89080000Y-36270000D02*
X86420000Y-36270000D01*
X89080000Y-36270000D02*
X89080000Y-33670000D01*
X89080000Y-37540000D02*
X89080000Y-38870000D01*
X89080000Y-38870000D02*
X87750000Y-38870000D01*
M02*
