%TF.GenerationSoftware,KiCad,Pcbnew,8.0.1*%
%TF.CreationDate,2024-04-28T15:40:34+08:00*%
%TF.ProjectId,pinban,70696e62-616e-42e6-9b69-6361645f7063,rev?*%
%TF.SameCoordinates,Original*%
%TF.FileFunction,Soldermask,Bot*%
%TF.FilePolarity,Negative*%
%FSLAX46Y46*%
G04 Gerber Fmt 4.6, Leading zero omitted, Abs format (unit mm)*
G04 Created by KiCad (PCBNEW 8.0.1) date 2024-04-28 15:40:34*
%MOMM*%
%LPD*%
G01*
G04 APERTURE LIST*
%ADD10R,1.700000X1.700000*%
%ADD11O,1.700000X1.700000*%
G04 APERTURE END LIST*
D10*
X154750000Y-117540000D03*
D11*
X154750000Y-115000000D03*
D10*
X129710000Y-114000000D03*
D11*
X132250000Y-114000000D03*
X129710000Y-116540000D03*
X132250000Y-116540000D03*
X129710000Y-119080000D03*
X132250000Y-119080000D03*
D10*
X121250000Y-117540000D03*
D11*
X121250000Y-115000000D03*
D10*
X96210000Y-114000000D03*
D11*
X98750000Y-114000000D03*
X96210000Y-116540000D03*
X98750000Y-116540000D03*
X96210000Y-119080000D03*
X98750000Y-119080000D03*
D10*
X87750000Y-117540000D03*
D11*
X87750000Y-115000000D03*
D10*
X62710000Y-114000000D03*
D11*
X65250000Y-114000000D03*
X62710000Y-116540000D03*
X65250000Y-116540000D03*
X62710000Y-119080000D03*
X65250000Y-119080000D03*
D10*
X154750000Y-101540000D03*
D11*
X154750000Y-99000000D03*
D10*
X129710000Y-98000000D03*
D11*
X132250000Y-98000000D03*
X129710000Y-100540000D03*
X132250000Y-100540000D03*
X129710000Y-103080000D03*
X132250000Y-103080000D03*
D10*
X121250000Y-101540000D03*
D11*
X121250000Y-99000000D03*
D10*
X96210000Y-98000000D03*
D11*
X98750000Y-98000000D03*
X96210000Y-100540000D03*
X98750000Y-100540000D03*
X96210000Y-103080000D03*
X98750000Y-103080000D03*
D10*
X87750000Y-101540000D03*
D11*
X87750000Y-99000000D03*
D10*
X62710000Y-98000000D03*
D11*
X65250000Y-98000000D03*
X62710000Y-100540000D03*
X65250000Y-100540000D03*
X62710000Y-103080000D03*
X65250000Y-103080000D03*
D10*
X154750000Y-85540000D03*
D11*
X154750000Y-83000000D03*
D10*
X129710000Y-82000000D03*
D11*
X132250000Y-82000000D03*
X129710000Y-84540000D03*
X132250000Y-84540000D03*
X129710000Y-87080000D03*
X132250000Y-87080000D03*
D10*
X121250000Y-85540000D03*
D11*
X121250000Y-83000000D03*
D10*
X96210000Y-82000000D03*
D11*
X98750000Y-82000000D03*
X96210000Y-84540000D03*
X98750000Y-84540000D03*
X96210000Y-87080000D03*
X98750000Y-87080000D03*
D10*
X87750000Y-85540000D03*
D11*
X87750000Y-83000000D03*
D10*
X62710000Y-82000000D03*
D11*
X65250000Y-82000000D03*
X62710000Y-84540000D03*
X65250000Y-84540000D03*
X62710000Y-87080000D03*
X65250000Y-87080000D03*
D10*
X154750000Y-69540000D03*
D11*
X154750000Y-67000000D03*
D10*
X129710000Y-66000000D03*
D11*
X132250000Y-66000000D03*
X129710000Y-68540000D03*
X132250000Y-68540000D03*
X129710000Y-71080000D03*
X132250000Y-71080000D03*
D10*
X121250000Y-69540000D03*
D11*
X121250000Y-67000000D03*
D10*
X96210000Y-66000000D03*
D11*
X98750000Y-66000000D03*
X96210000Y-68540000D03*
X98750000Y-68540000D03*
X96210000Y-71080000D03*
X98750000Y-71080000D03*
D10*
X87750000Y-69540000D03*
D11*
X87750000Y-67000000D03*
D10*
X62710000Y-66000000D03*
D11*
X65250000Y-66000000D03*
X62710000Y-68540000D03*
X65250000Y-68540000D03*
X62710000Y-71080000D03*
X65250000Y-71080000D03*
D10*
X154750000Y-53540000D03*
D11*
X154750000Y-51000000D03*
D10*
X129710000Y-50000000D03*
D11*
X132250000Y-50000000D03*
X129710000Y-52540000D03*
X132250000Y-52540000D03*
X129710000Y-55080000D03*
X132250000Y-55080000D03*
D10*
X121250000Y-53540000D03*
D11*
X121250000Y-51000000D03*
D10*
X96210000Y-50000000D03*
D11*
X98750000Y-50000000D03*
X96210000Y-52540000D03*
X98750000Y-52540000D03*
X96210000Y-55080000D03*
X98750000Y-55080000D03*
D10*
X87750000Y-53540000D03*
D11*
X87750000Y-51000000D03*
D10*
X62710000Y-50000000D03*
D11*
X65250000Y-50000000D03*
X62710000Y-52540000D03*
X65250000Y-52540000D03*
X62710000Y-55080000D03*
X65250000Y-55080000D03*
D10*
X154750000Y-37540000D03*
D11*
X154750000Y-35000000D03*
D10*
X129710000Y-34000000D03*
D11*
X132250000Y-34000000D03*
X129710000Y-36540000D03*
X132250000Y-36540000D03*
X129710000Y-39080000D03*
X132250000Y-39080000D03*
D10*
X121250000Y-37540000D03*
D11*
X121250000Y-35000000D03*
D10*
X96210000Y-34000000D03*
D11*
X98750000Y-34000000D03*
X96210000Y-36540000D03*
X98750000Y-36540000D03*
X96210000Y-39080000D03*
X98750000Y-39080000D03*
D10*
X62710000Y-34000000D03*
D11*
X65250000Y-34000000D03*
X62710000Y-36540000D03*
X65250000Y-36540000D03*
X62710000Y-39080000D03*
X65250000Y-39080000D03*
D10*
X87750000Y-37540000D03*
D11*
X87750000Y-35000000D03*
M02*
