%TF.GenerationSoftware,KiCad,Pcbnew,8.0.1*%
%TF.CreationDate,2024-04-28T15:40:34+08:00*%
%TF.ProjectId,pinban,70696e62-616e-42e6-9b69-6361645f7063,rev?*%
%TF.SameCoordinates,Original*%
%TF.FileFunction,Profile,NP*%
%FSLAX46Y46*%
G04 Gerber Fmt 4.6, Leading zero omitted, Abs format (unit mm)*
G04 Created by KiCad (PCBNEW 8.0.1) date 2024-04-28 15:40:34*
%MOMM*%
%LPD*%
G01*
G04 APERTURE LIST*
%TA.AperFunction,Profile*%
%ADD10C,0.050000*%
%TD*%
G04 APERTURE END LIST*
D10*
X60000000Y-126000000D02*
X160500000Y-126000000D01*
X160500000Y-131000000D01*
X60000000Y-131000000D01*
X60000000Y-126000000D01*
X60000000Y-25000000D02*
X160500000Y-25000000D01*
X160500000Y-30000000D01*
X60000000Y-30000000D01*
X60000000Y-25000000D01*
X127000000Y-110000000D02*
X160500000Y-110000000D01*
X160500000Y-126000000D01*
X127000000Y-126000000D01*
X127000000Y-110000000D01*
X93500000Y-110000000D02*
X127000000Y-110000000D01*
X127000000Y-126000000D01*
X93500000Y-126000000D01*
X93500000Y-110000000D01*
X60000000Y-110000000D02*
X93500000Y-110000000D01*
X93500000Y-126000000D01*
X60000000Y-126000000D01*
X60000000Y-110000000D01*
X127000000Y-94000000D02*
X160500000Y-94000000D01*
X160500000Y-110000000D01*
X127000000Y-110000000D01*
X127000000Y-94000000D01*
X93500000Y-94000000D02*
X127000000Y-94000000D01*
X127000000Y-110000000D01*
X93500000Y-110000000D01*
X93500000Y-94000000D01*
X60000000Y-94000000D02*
X93500000Y-94000000D01*
X93500000Y-110000000D01*
X60000000Y-110000000D01*
X60000000Y-94000000D01*
X127000000Y-78000000D02*
X160500000Y-78000000D01*
X160500000Y-94000000D01*
X127000000Y-94000000D01*
X127000000Y-78000000D01*
X93500000Y-78000000D02*
X127000000Y-78000000D01*
X127000000Y-94000000D01*
X93500000Y-94000000D01*
X93500000Y-78000000D01*
X60000000Y-78000000D02*
X93500000Y-78000000D01*
X93500000Y-94000000D01*
X60000000Y-94000000D01*
X60000000Y-78000000D01*
X127000000Y-62000000D02*
X160500000Y-62000000D01*
X160500000Y-78000000D01*
X127000000Y-78000000D01*
X127000000Y-62000000D01*
X93500000Y-62000000D02*
X127000000Y-62000000D01*
X127000000Y-78000000D01*
X93500000Y-78000000D01*
X93500000Y-62000000D01*
X60000000Y-62000000D02*
X93500000Y-62000000D01*
X93500000Y-78000000D01*
X60000000Y-78000000D01*
X60000000Y-62000000D01*
X127000000Y-46000000D02*
X160500000Y-46000000D01*
X160500000Y-62000000D01*
X127000000Y-62000000D01*
X127000000Y-46000000D01*
X93500000Y-46000000D02*
X127000000Y-46000000D01*
X127000000Y-62000000D01*
X93500000Y-62000000D01*
X93500000Y-46000000D01*
X60000000Y-46000000D02*
X93500000Y-46000000D01*
X93500000Y-62000000D01*
X60000000Y-62000000D01*
X60000000Y-46000000D01*
X127000000Y-30000000D02*
X160500000Y-30000000D01*
X160500000Y-46000000D01*
X127000000Y-46000000D01*
X127000000Y-30000000D01*
X93500000Y-30000000D02*
X127000000Y-30000000D01*
X127000000Y-46000000D01*
X93500000Y-46000000D01*
X93500000Y-30000000D01*
X60000000Y-30000000D02*
X93500000Y-30000000D01*
X93500000Y-46000000D01*
X60000000Y-46000000D01*
X60000000Y-30000000D01*
M02*
