%TF.GenerationSoftware,KiCad,Pcbnew,8.0.1*%
%TF.CreationDate,2024-04-28T15:40:54+08:00*%
%TF.ProjectId,pinban,70696e62-616e-42e6-9b69-6361645f7063,rev?*%
%TF.SameCoordinates,Original*%
%TF.FileFunction,Drillmap*%
%TF.FilePolarity,Positive*%
%FSLAX45Y45*%
G04 Gerber Fmt 4.5, Leading zero omitted, Abs format (unit mm)*
G04 Created by KiCad (PCBNEW 8.0.1) date 2024-04-28 15:40:54*
%MOMM*%
%LPD*%
G01*
G04 APERTURE LIST*
%ADD10C,0.050000*%
%ADD11C,0.200000*%
%ADD12C,0.100000*%
G04 APERTURE END LIST*
D10*
X6000000Y-12600000D02*
X16050000Y-12600000D01*
X16050000Y-13100000D01*
X6000000Y-13100000D01*
X6000000Y-12600000D01*
X6000000Y-2500000D02*
X16050000Y-2500000D01*
X16050000Y-3000000D01*
X6000000Y-3000000D01*
X6000000Y-2500000D01*
X12700000Y-11000000D02*
X16050000Y-11000000D01*
X16050000Y-12600000D01*
X12700000Y-12600000D01*
X12700000Y-11000000D01*
X9350000Y-11000000D02*
X12700000Y-11000000D01*
X12700000Y-12600000D01*
X9350000Y-12600000D01*
X9350000Y-11000000D01*
X6000000Y-11000000D02*
X9350000Y-11000000D01*
X9350000Y-12600000D01*
X6000000Y-12600000D01*
X6000000Y-11000000D01*
X12700000Y-9400000D02*
X16050000Y-9400000D01*
X16050000Y-11000000D01*
X12700000Y-11000000D01*
X12700000Y-9400000D01*
X9350000Y-9400000D02*
X12700000Y-9400000D01*
X12700000Y-11000000D01*
X9350000Y-11000000D01*
X9350000Y-9400000D01*
X6000000Y-9400000D02*
X9350000Y-9400000D01*
X9350000Y-11000000D01*
X6000000Y-11000000D01*
X6000000Y-9400000D01*
X12700000Y-7800000D02*
X16050000Y-7800000D01*
X16050000Y-9400000D01*
X12700000Y-9400000D01*
X12700000Y-7800000D01*
X9350000Y-7800000D02*
X12700000Y-7800000D01*
X12700000Y-9400000D01*
X9350000Y-9400000D01*
X9350000Y-7800000D01*
X6000000Y-7800000D02*
X9350000Y-7800000D01*
X9350000Y-9400000D01*
X6000000Y-9400000D01*
X6000000Y-7800000D01*
X12700000Y-6200000D02*
X16050000Y-6200000D01*
X16050000Y-7800000D01*
X12700000Y-7800000D01*
X12700000Y-6200000D01*
X9350000Y-6200000D02*
X12700000Y-6200000D01*
X12700000Y-7800000D01*
X9350000Y-7800000D01*
X9350000Y-6200000D01*
X6000000Y-6200000D02*
X9350000Y-6200000D01*
X9350000Y-7800000D01*
X6000000Y-7800000D01*
X6000000Y-6200000D01*
X12700000Y-4600000D02*
X16050000Y-4600000D01*
X16050000Y-6200000D01*
X12700000Y-6200000D01*
X12700000Y-4600000D01*
X9350000Y-4600000D02*
X12700000Y-4600000D01*
X12700000Y-6200000D01*
X9350000Y-6200000D01*
X9350000Y-4600000D01*
X6000000Y-4600000D02*
X9350000Y-4600000D01*
X9350000Y-6200000D01*
X6000000Y-6200000D01*
X6000000Y-4600000D01*
X12700000Y-3000000D02*
X16050000Y-3000000D01*
X16050000Y-4600000D01*
X12700000Y-4600000D01*
X12700000Y-3000000D01*
X9350000Y-3000000D02*
X12700000Y-3000000D01*
X12700000Y-4600000D01*
X9350000Y-4600000D01*
X9350000Y-3000000D01*
X6000000Y-3000000D02*
X9350000Y-3000000D01*
X9350000Y-4600000D01*
X6000000Y-4600000D01*
X6000000Y-3000000D01*
D11*
D12*
X7358327Y-3768467D02*
X7388327Y-3798467D01*
X7388327Y-3768467D02*
X7358327Y-3798467D01*
X7358327Y-5368468D02*
X7388327Y-5398468D01*
X7388327Y-5368468D02*
X7358327Y-5398468D01*
X7358327Y-6968467D02*
X7388327Y-6998467D01*
X7388327Y-6968467D02*
X7358327Y-6998467D01*
X7358327Y-8568468D02*
X7388327Y-8598468D01*
X7388327Y-8568468D02*
X7358327Y-8598468D01*
X7358327Y-10168468D02*
X7388327Y-10198468D01*
X7388327Y-10168468D02*
X7358327Y-10198468D01*
X7358327Y-11768467D02*
X7388327Y-11798467D01*
X7388327Y-11768467D02*
X7358327Y-11798467D01*
X7481678Y-3771870D02*
X7511678Y-3801870D01*
X7511678Y-3771870D02*
X7481678Y-3801870D01*
X7481678Y-5371870D02*
X7511678Y-5401870D01*
X7511678Y-5371870D02*
X7481678Y-5401870D01*
X7481678Y-6971870D02*
X7511678Y-7001870D01*
X7511678Y-6971870D02*
X7481678Y-7001870D01*
X7481678Y-8571870D02*
X7511678Y-8601870D01*
X7511678Y-8571870D02*
X7481678Y-8601870D01*
X7481678Y-10171870D02*
X7511678Y-10201870D01*
X7511678Y-10171870D02*
X7481678Y-10201870D01*
X7481678Y-11771870D02*
X7511678Y-11801870D01*
X7511678Y-11771870D02*
X7481678Y-11801870D01*
X10708327Y-3768467D02*
X10738327Y-3798467D01*
X10738327Y-3768467D02*
X10708327Y-3798467D01*
X10708327Y-5368468D02*
X10738327Y-5398468D01*
X10738327Y-5368468D02*
X10708327Y-5398468D01*
X10708327Y-6968467D02*
X10738327Y-6998467D01*
X10738327Y-6968467D02*
X10708327Y-6998467D01*
X10708327Y-8568468D02*
X10738327Y-8598468D01*
X10738327Y-8568468D02*
X10708327Y-8598468D01*
X10708327Y-10168468D02*
X10738327Y-10198468D01*
X10738327Y-10168468D02*
X10708327Y-10198468D01*
X10708327Y-11768467D02*
X10738327Y-11798467D01*
X10738327Y-11768467D02*
X10708327Y-11798467D01*
X10831678Y-3771870D02*
X10861678Y-3801870D01*
X10861678Y-3771870D02*
X10831678Y-3801870D01*
X10831678Y-5371870D02*
X10861678Y-5401870D01*
X10861678Y-5371870D02*
X10831678Y-5401870D01*
X10831678Y-6971870D02*
X10861678Y-7001870D01*
X10861678Y-6971870D02*
X10831678Y-7001870D01*
X10831678Y-8571870D02*
X10861678Y-8601870D01*
X10861678Y-8571870D02*
X10831678Y-8601870D01*
X10831678Y-10171870D02*
X10861678Y-10201870D01*
X10861678Y-10171870D02*
X10831678Y-10201870D01*
X10831678Y-11771870D02*
X10861678Y-11801870D01*
X10861678Y-11771870D02*
X10831678Y-11801870D01*
X14058327Y-3768467D02*
X14088327Y-3798467D01*
X14088327Y-3768467D02*
X14058327Y-3798467D01*
X14058327Y-5368468D02*
X14088327Y-5398468D01*
X14088327Y-5368468D02*
X14058327Y-5398468D01*
X14058327Y-6968467D02*
X14088327Y-6998467D01*
X14088327Y-6968467D02*
X14058327Y-6998467D01*
X14058327Y-8568468D02*
X14088327Y-8598468D01*
X14088327Y-8568468D02*
X14058327Y-8598468D01*
X14058327Y-10168468D02*
X14088327Y-10198468D01*
X14088327Y-10168468D02*
X14058327Y-10198468D01*
X14058327Y-11768467D02*
X14088327Y-11798467D01*
X14088327Y-11768467D02*
X14058327Y-11798467D01*
X14181678Y-3771870D02*
X14211678Y-3801870D01*
X14211678Y-3771870D02*
X14181678Y-3801870D01*
X14181678Y-5371870D02*
X14211678Y-5401870D01*
X14211678Y-5371870D02*
X14181678Y-5401870D01*
X14181678Y-6971870D02*
X14211678Y-7001870D01*
X14211678Y-6971870D02*
X14181678Y-7001870D01*
X14181678Y-8571870D02*
X14211678Y-8601870D01*
X14211678Y-8571870D02*
X14181678Y-8601870D01*
X14181678Y-10171870D02*
X14211678Y-10201870D01*
X14211678Y-10171870D02*
X14181678Y-10201870D01*
X14181678Y-11771870D02*
X14211678Y-11801870D01*
X14211678Y-11771870D02*
X14181678Y-11801870D01*
X6321000Y-3400000D02*
G75*
G02*
X6221000Y-3400000I-50000J0D01*
G01*
X6221000Y-3400000D02*
G75*
G02*
X6321000Y-3400000I50000J0D01*
G01*
X6321000Y-3654000D02*
G75*
G02*
X6221000Y-3654000I-50000J0D01*
G01*
X6221000Y-3654000D02*
G75*
G02*
X6321000Y-3654000I50000J0D01*
G01*
X6321000Y-3908000D02*
G75*
G02*
X6221000Y-3908000I-50000J0D01*
G01*
X6221000Y-3908000D02*
G75*
G02*
X6321000Y-3908000I50000J0D01*
G01*
X6321000Y-5000000D02*
G75*
G02*
X6221000Y-5000000I-50000J0D01*
G01*
X6221000Y-5000000D02*
G75*
G02*
X6321000Y-5000000I50000J0D01*
G01*
X6321000Y-5254000D02*
G75*
G02*
X6221000Y-5254000I-50000J0D01*
G01*
X6221000Y-5254000D02*
G75*
G02*
X6321000Y-5254000I50000J0D01*
G01*
X6321000Y-5508000D02*
G75*
G02*
X6221000Y-5508000I-50000J0D01*
G01*
X6221000Y-5508000D02*
G75*
G02*
X6321000Y-5508000I50000J0D01*
G01*
X6321000Y-6600000D02*
G75*
G02*
X6221000Y-6600000I-50000J0D01*
G01*
X6221000Y-6600000D02*
G75*
G02*
X6321000Y-6600000I50000J0D01*
G01*
X6321000Y-6854000D02*
G75*
G02*
X6221000Y-6854000I-50000J0D01*
G01*
X6221000Y-6854000D02*
G75*
G02*
X6321000Y-6854000I50000J0D01*
G01*
X6321000Y-7108000D02*
G75*
G02*
X6221000Y-7108000I-50000J0D01*
G01*
X6221000Y-7108000D02*
G75*
G02*
X6321000Y-7108000I50000J0D01*
G01*
X6321000Y-8200000D02*
G75*
G02*
X6221000Y-8200000I-50000J0D01*
G01*
X6221000Y-8200000D02*
G75*
G02*
X6321000Y-8200000I50000J0D01*
G01*
X6321000Y-8454000D02*
G75*
G02*
X6221000Y-8454000I-50000J0D01*
G01*
X6221000Y-8454000D02*
G75*
G02*
X6321000Y-8454000I50000J0D01*
G01*
X6321000Y-8708000D02*
G75*
G02*
X6221000Y-8708000I-50000J0D01*
G01*
X6221000Y-8708000D02*
G75*
G02*
X6321000Y-8708000I50000J0D01*
G01*
X6321000Y-9800000D02*
G75*
G02*
X6221000Y-9800000I-50000J0D01*
G01*
X6221000Y-9800000D02*
G75*
G02*
X6321000Y-9800000I50000J0D01*
G01*
X6321000Y-10054000D02*
G75*
G02*
X6221000Y-10054000I-50000J0D01*
G01*
X6221000Y-10054000D02*
G75*
G02*
X6321000Y-10054000I50000J0D01*
G01*
X6321000Y-10308000D02*
G75*
G02*
X6221000Y-10308000I-50000J0D01*
G01*
X6221000Y-10308000D02*
G75*
G02*
X6321000Y-10308000I50000J0D01*
G01*
X6321000Y-11400000D02*
G75*
G02*
X6221000Y-11400000I-50000J0D01*
G01*
X6221000Y-11400000D02*
G75*
G02*
X6321000Y-11400000I50000J0D01*
G01*
X6321000Y-11654000D02*
G75*
G02*
X6221000Y-11654000I-50000J0D01*
G01*
X6221000Y-11654000D02*
G75*
G02*
X6321000Y-11654000I50000J0D01*
G01*
X6321000Y-11908000D02*
G75*
G02*
X6221000Y-11908000I-50000J0D01*
G01*
X6221000Y-11908000D02*
G75*
G02*
X6321000Y-11908000I50000J0D01*
G01*
X6575000Y-3400000D02*
G75*
G02*
X6475000Y-3400000I-50000J0D01*
G01*
X6475000Y-3400000D02*
G75*
G02*
X6575000Y-3400000I50000J0D01*
G01*
X6575000Y-3654000D02*
G75*
G02*
X6475000Y-3654000I-50000J0D01*
G01*
X6475000Y-3654000D02*
G75*
G02*
X6575000Y-3654000I50000J0D01*
G01*
X6575000Y-3908000D02*
G75*
G02*
X6475000Y-3908000I-50000J0D01*
G01*
X6475000Y-3908000D02*
G75*
G02*
X6575000Y-3908000I50000J0D01*
G01*
X6575000Y-5000000D02*
G75*
G02*
X6475000Y-5000000I-50000J0D01*
G01*
X6475000Y-5000000D02*
G75*
G02*
X6575000Y-5000000I50000J0D01*
G01*
X6575000Y-5254000D02*
G75*
G02*
X6475000Y-5254000I-50000J0D01*
G01*
X6475000Y-5254000D02*
G75*
G02*
X6575000Y-5254000I50000J0D01*
G01*
X6575000Y-5508000D02*
G75*
G02*
X6475000Y-5508000I-50000J0D01*
G01*
X6475000Y-5508000D02*
G75*
G02*
X6575000Y-5508000I50000J0D01*
G01*
X6575000Y-6600000D02*
G75*
G02*
X6475000Y-6600000I-50000J0D01*
G01*
X6475000Y-6600000D02*
G75*
G02*
X6575000Y-6600000I50000J0D01*
G01*
X6575000Y-6854000D02*
G75*
G02*
X6475000Y-6854000I-50000J0D01*
G01*
X6475000Y-6854000D02*
G75*
G02*
X6575000Y-6854000I50000J0D01*
G01*
X6575000Y-7108000D02*
G75*
G02*
X6475000Y-7108000I-50000J0D01*
G01*
X6475000Y-7108000D02*
G75*
G02*
X6575000Y-7108000I50000J0D01*
G01*
X6575000Y-8200000D02*
G75*
G02*
X6475000Y-8200000I-50000J0D01*
G01*
X6475000Y-8200000D02*
G75*
G02*
X6575000Y-8200000I50000J0D01*
G01*
X6575000Y-8454000D02*
G75*
G02*
X6475000Y-8454000I-50000J0D01*
G01*
X6475000Y-8454000D02*
G75*
G02*
X6575000Y-8454000I50000J0D01*
G01*
X6575000Y-8708000D02*
G75*
G02*
X6475000Y-8708000I-50000J0D01*
G01*
X6475000Y-8708000D02*
G75*
G02*
X6575000Y-8708000I50000J0D01*
G01*
X6575000Y-9800000D02*
G75*
G02*
X6475000Y-9800000I-50000J0D01*
G01*
X6475000Y-9800000D02*
G75*
G02*
X6575000Y-9800000I50000J0D01*
G01*
X6575000Y-10054000D02*
G75*
G02*
X6475000Y-10054000I-50000J0D01*
G01*
X6475000Y-10054000D02*
G75*
G02*
X6575000Y-10054000I50000J0D01*
G01*
X6575000Y-10308000D02*
G75*
G02*
X6475000Y-10308000I-50000J0D01*
G01*
X6475000Y-10308000D02*
G75*
G02*
X6575000Y-10308000I50000J0D01*
G01*
X6575000Y-11400000D02*
G75*
G02*
X6475000Y-11400000I-50000J0D01*
G01*
X6475000Y-11400000D02*
G75*
G02*
X6575000Y-11400000I50000J0D01*
G01*
X6575000Y-11654000D02*
G75*
G02*
X6475000Y-11654000I-50000J0D01*
G01*
X6475000Y-11654000D02*
G75*
G02*
X6575000Y-11654000I50000J0D01*
G01*
X6575000Y-11908000D02*
G75*
G02*
X6475000Y-11908000I-50000J0D01*
G01*
X6475000Y-11908000D02*
G75*
G02*
X6575000Y-11908000I50000J0D01*
G01*
X8825000Y-3500000D02*
G75*
G02*
X8725000Y-3500000I-50000J0D01*
G01*
X8725000Y-3500000D02*
G75*
G02*
X8825000Y-3500000I50000J0D01*
G01*
X8825000Y-3754000D02*
G75*
G02*
X8725000Y-3754000I-50000J0D01*
G01*
X8725000Y-3754000D02*
G75*
G02*
X8825000Y-3754000I50000J0D01*
G01*
X8825000Y-5100000D02*
G75*
G02*
X8725000Y-5100000I-50000J0D01*
G01*
X8725000Y-5100000D02*
G75*
G02*
X8825000Y-5100000I50000J0D01*
G01*
X8825000Y-5354000D02*
G75*
G02*
X8725000Y-5354000I-50000J0D01*
G01*
X8725000Y-5354000D02*
G75*
G02*
X8825000Y-5354000I50000J0D01*
G01*
X8825000Y-6700000D02*
G75*
G02*
X8725000Y-6700000I-50000J0D01*
G01*
X8725000Y-6700000D02*
G75*
G02*
X8825000Y-6700000I50000J0D01*
G01*
X8825000Y-6954000D02*
G75*
G02*
X8725000Y-6954000I-50000J0D01*
G01*
X8725000Y-6954000D02*
G75*
G02*
X8825000Y-6954000I50000J0D01*
G01*
X8825000Y-8300000D02*
G75*
G02*
X8725000Y-8300000I-50000J0D01*
G01*
X8725000Y-8300000D02*
G75*
G02*
X8825000Y-8300000I50000J0D01*
G01*
X8825000Y-8554000D02*
G75*
G02*
X8725000Y-8554000I-50000J0D01*
G01*
X8725000Y-8554000D02*
G75*
G02*
X8825000Y-8554000I50000J0D01*
G01*
X8825000Y-9900000D02*
G75*
G02*
X8725000Y-9900000I-50000J0D01*
G01*
X8725000Y-9900000D02*
G75*
G02*
X8825000Y-9900000I50000J0D01*
G01*
X8825000Y-10154000D02*
G75*
G02*
X8725000Y-10154000I-50000J0D01*
G01*
X8725000Y-10154000D02*
G75*
G02*
X8825000Y-10154000I50000J0D01*
G01*
X8825000Y-11500000D02*
G75*
G02*
X8725000Y-11500000I-50000J0D01*
G01*
X8725000Y-11500000D02*
G75*
G02*
X8825000Y-11500000I50000J0D01*
G01*
X8825000Y-11754000D02*
G75*
G02*
X8725000Y-11754000I-50000J0D01*
G01*
X8725000Y-11754000D02*
G75*
G02*
X8825000Y-11754000I50000J0D01*
G01*
X9671000Y-3400000D02*
G75*
G02*
X9571000Y-3400000I-50000J0D01*
G01*
X9571000Y-3400000D02*
G75*
G02*
X9671000Y-3400000I50000J0D01*
G01*
X9671000Y-3654000D02*
G75*
G02*
X9571000Y-3654000I-50000J0D01*
G01*
X9571000Y-3654000D02*
G75*
G02*
X9671000Y-3654000I50000J0D01*
G01*
X9671000Y-3908000D02*
G75*
G02*
X9571000Y-3908000I-50000J0D01*
G01*
X9571000Y-3908000D02*
G75*
G02*
X9671000Y-3908000I50000J0D01*
G01*
X9671000Y-5000000D02*
G75*
G02*
X9571000Y-5000000I-50000J0D01*
G01*
X9571000Y-5000000D02*
G75*
G02*
X9671000Y-5000000I50000J0D01*
G01*
X9671000Y-5254000D02*
G75*
G02*
X9571000Y-5254000I-50000J0D01*
G01*
X9571000Y-5254000D02*
G75*
G02*
X9671000Y-5254000I50000J0D01*
G01*
X9671000Y-5508000D02*
G75*
G02*
X9571000Y-5508000I-50000J0D01*
G01*
X9571000Y-5508000D02*
G75*
G02*
X9671000Y-5508000I50000J0D01*
G01*
X9671000Y-6600000D02*
G75*
G02*
X9571000Y-6600000I-50000J0D01*
G01*
X9571000Y-6600000D02*
G75*
G02*
X9671000Y-6600000I50000J0D01*
G01*
X9671000Y-6854000D02*
G75*
G02*
X9571000Y-6854000I-50000J0D01*
G01*
X9571000Y-6854000D02*
G75*
G02*
X9671000Y-6854000I50000J0D01*
G01*
X9671000Y-7108000D02*
G75*
G02*
X9571000Y-7108000I-50000J0D01*
G01*
X9571000Y-7108000D02*
G75*
G02*
X9671000Y-7108000I50000J0D01*
G01*
X9671000Y-8200000D02*
G75*
G02*
X9571000Y-8200000I-50000J0D01*
G01*
X9571000Y-8200000D02*
G75*
G02*
X9671000Y-8200000I50000J0D01*
G01*
X9671000Y-8454000D02*
G75*
G02*
X9571000Y-8454000I-50000J0D01*
G01*
X9571000Y-8454000D02*
G75*
G02*
X9671000Y-8454000I50000J0D01*
G01*
X9671000Y-8708000D02*
G75*
G02*
X9571000Y-8708000I-50000J0D01*
G01*
X9571000Y-8708000D02*
G75*
G02*
X9671000Y-8708000I50000J0D01*
G01*
X9671000Y-9800000D02*
G75*
G02*
X9571000Y-9800000I-50000J0D01*
G01*
X9571000Y-9800000D02*
G75*
G02*
X9671000Y-9800000I50000J0D01*
G01*
X9671000Y-10054000D02*
G75*
G02*
X9571000Y-10054000I-50000J0D01*
G01*
X9571000Y-10054000D02*
G75*
G02*
X9671000Y-10054000I50000J0D01*
G01*
X9671000Y-10308000D02*
G75*
G02*
X9571000Y-10308000I-50000J0D01*
G01*
X9571000Y-10308000D02*
G75*
G02*
X9671000Y-10308000I50000J0D01*
G01*
X9671000Y-11400000D02*
G75*
G02*
X9571000Y-11400000I-50000J0D01*
G01*
X9571000Y-11400000D02*
G75*
G02*
X9671000Y-11400000I50000J0D01*
G01*
X9671000Y-11654000D02*
G75*
G02*
X9571000Y-11654000I-50000J0D01*
G01*
X9571000Y-11654000D02*
G75*
G02*
X9671000Y-11654000I50000J0D01*
G01*
X9671000Y-11908000D02*
G75*
G02*
X9571000Y-11908000I-50000J0D01*
G01*
X9571000Y-11908000D02*
G75*
G02*
X9671000Y-11908000I50000J0D01*
G01*
X9925000Y-3400000D02*
G75*
G02*
X9825000Y-3400000I-50000J0D01*
G01*
X9825000Y-3400000D02*
G75*
G02*
X9925000Y-3400000I50000J0D01*
G01*
X9925000Y-3654000D02*
G75*
G02*
X9825000Y-3654000I-50000J0D01*
G01*
X9825000Y-3654000D02*
G75*
G02*
X9925000Y-3654000I50000J0D01*
G01*
X9925000Y-3908000D02*
G75*
G02*
X9825000Y-3908000I-50000J0D01*
G01*
X9825000Y-3908000D02*
G75*
G02*
X9925000Y-3908000I50000J0D01*
G01*
X9925000Y-5000000D02*
G75*
G02*
X9825000Y-5000000I-50000J0D01*
G01*
X9825000Y-5000000D02*
G75*
G02*
X9925000Y-5000000I50000J0D01*
G01*
X9925000Y-5254000D02*
G75*
G02*
X9825000Y-5254000I-50000J0D01*
G01*
X9825000Y-5254000D02*
G75*
G02*
X9925000Y-5254000I50000J0D01*
G01*
X9925000Y-5508000D02*
G75*
G02*
X9825000Y-5508000I-50000J0D01*
G01*
X9825000Y-5508000D02*
G75*
G02*
X9925000Y-5508000I50000J0D01*
G01*
X9925000Y-6600000D02*
G75*
G02*
X9825000Y-6600000I-50000J0D01*
G01*
X9825000Y-6600000D02*
G75*
G02*
X9925000Y-6600000I50000J0D01*
G01*
X9925000Y-6854000D02*
G75*
G02*
X9825000Y-6854000I-50000J0D01*
G01*
X9825000Y-6854000D02*
G75*
G02*
X9925000Y-6854000I50000J0D01*
G01*
X9925000Y-7108000D02*
G75*
G02*
X9825000Y-7108000I-50000J0D01*
G01*
X9825000Y-7108000D02*
G75*
G02*
X9925000Y-7108000I50000J0D01*
G01*
X9925000Y-8200000D02*
G75*
G02*
X9825000Y-8200000I-50000J0D01*
G01*
X9825000Y-8200000D02*
G75*
G02*
X9925000Y-8200000I50000J0D01*
G01*
X9925000Y-8454000D02*
G75*
G02*
X9825000Y-8454000I-50000J0D01*
G01*
X9825000Y-8454000D02*
G75*
G02*
X9925000Y-8454000I50000J0D01*
G01*
X9925000Y-8708000D02*
G75*
G02*
X9825000Y-8708000I-50000J0D01*
G01*
X9825000Y-8708000D02*
G75*
G02*
X9925000Y-8708000I50000J0D01*
G01*
X9925000Y-9800000D02*
G75*
G02*
X9825000Y-9800000I-50000J0D01*
G01*
X9825000Y-9800000D02*
G75*
G02*
X9925000Y-9800000I50000J0D01*
G01*
X9925000Y-10054000D02*
G75*
G02*
X9825000Y-10054000I-50000J0D01*
G01*
X9825000Y-10054000D02*
G75*
G02*
X9925000Y-10054000I50000J0D01*
G01*
X9925000Y-10308000D02*
G75*
G02*
X9825000Y-10308000I-50000J0D01*
G01*
X9825000Y-10308000D02*
G75*
G02*
X9925000Y-10308000I50000J0D01*
G01*
X9925000Y-11400000D02*
G75*
G02*
X9825000Y-11400000I-50000J0D01*
G01*
X9825000Y-11400000D02*
G75*
G02*
X9925000Y-11400000I50000J0D01*
G01*
X9925000Y-11654000D02*
G75*
G02*
X9825000Y-11654000I-50000J0D01*
G01*
X9825000Y-11654000D02*
G75*
G02*
X9925000Y-11654000I50000J0D01*
G01*
X9925000Y-11908000D02*
G75*
G02*
X9825000Y-11908000I-50000J0D01*
G01*
X9825000Y-11908000D02*
G75*
G02*
X9925000Y-11908000I50000J0D01*
G01*
X12175000Y-3500000D02*
G75*
G02*
X12075000Y-3500000I-50000J0D01*
G01*
X12075000Y-3500000D02*
G75*
G02*
X12175000Y-3500000I50000J0D01*
G01*
X12175000Y-3754000D02*
G75*
G02*
X12075000Y-3754000I-50000J0D01*
G01*
X12075000Y-3754000D02*
G75*
G02*
X12175000Y-3754000I50000J0D01*
G01*
X12175000Y-5100000D02*
G75*
G02*
X12075000Y-5100000I-50000J0D01*
G01*
X12075000Y-5100000D02*
G75*
G02*
X12175000Y-5100000I50000J0D01*
G01*
X12175000Y-5354000D02*
G75*
G02*
X12075000Y-5354000I-50000J0D01*
G01*
X12075000Y-5354000D02*
G75*
G02*
X12175000Y-5354000I50000J0D01*
G01*
X12175000Y-6700000D02*
G75*
G02*
X12075000Y-6700000I-50000J0D01*
G01*
X12075000Y-6700000D02*
G75*
G02*
X12175000Y-6700000I50000J0D01*
G01*
X12175000Y-6954000D02*
G75*
G02*
X12075000Y-6954000I-50000J0D01*
G01*
X12075000Y-6954000D02*
G75*
G02*
X12175000Y-6954000I50000J0D01*
G01*
X12175000Y-8300000D02*
G75*
G02*
X12075000Y-8300000I-50000J0D01*
G01*
X12075000Y-8300000D02*
G75*
G02*
X12175000Y-8300000I50000J0D01*
G01*
X12175000Y-8554000D02*
G75*
G02*
X12075000Y-8554000I-50000J0D01*
G01*
X12075000Y-8554000D02*
G75*
G02*
X12175000Y-8554000I50000J0D01*
G01*
X12175000Y-9900000D02*
G75*
G02*
X12075000Y-9900000I-50000J0D01*
G01*
X12075000Y-9900000D02*
G75*
G02*
X12175000Y-9900000I50000J0D01*
G01*
X12175000Y-10154000D02*
G75*
G02*
X12075000Y-10154000I-50000J0D01*
G01*
X12075000Y-10154000D02*
G75*
G02*
X12175000Y-10154000I50000J0D01*
G01*
X12175000Y-11500000D02*
G75*
G02*
X12075000Y-11500000I-50000J0D01*
G01*
X12075000Y-11500000D02*
G75*
G02*
X12175000Y-11500000I50000J0D01*
G01*
X12175000Y-11754000D02*
G75*
G02*
X12075000Y-11754000I-50000J0D01*
G01*
X12075000Y-11754000D02*
G75*
G02*
X12175000Y-11754000I50000J0D01*
G01*
X13021000Y-3400000D02*
G75*
G02*
X12921000Y-3400000I-50000J0D01*
G01*
X12921000Y-3400000D02*
G75*
G02*
X13021000Y-3400000I50000J0D01*
G01*
X13021000Y-3654000D02*
G75*
G02*
X12921000Y-3654000I-50000J0D01*
G01*
X12921000Y-3654000D02*
G75*
G02*
X13021000Y-3654000I50000J0D01*
G01*
X13021000Y-3908000D02*
G75*
G02*
X12921000Y-3908000I-50000J0D01*
G01*
X12921000Y-3908000D02*
G75*
G02*
X13021000Y-3908000I50000J0D01*
G01*
X13021000Y-5000000D02*
G75*
G02*
X12921000Y-5000000I-50000J0D01*
G01*
X12921000Y-5000000D02*
G75*
G02*
X13021000Y-5000000I50000J0D01*
G01*
X13021000Y-5254000D02*
G75*
G02*
X12921000Y-5254000I-50000J0D01*
G01*
X12921000Y-5254000D02*
G75*
G02*
X13021000Y-5254000I50000J0D01*
G01*
X13021000Y-5508000D02*
G75*
G02*
X12921000Y-5508000I-50000J0D01*
G01*
X12921000Y-5508000D02*
G75*
G02*
X13021000Y-5508000I50000J0D01*
G01*
X13021000Y-6600000D02*
G75*
G02*
X12921000Y-6600000I-50000J0D01*
G01*
X12921000Y-6600000D02*
G75*
G02*
X13021000Y-6600000I50000J0D01*
G01*
X13021000Y-6854000D02*
G75*
G02*
X12921000Y-6854000I-50000J0D01*
G01*
X12921000Y-6854000D02*
G75*
G02*
X13021000Y-6854000I50000J0D01*
G01*
X13021000Y-7108000D02*
G75*
G02*
X12921000Y-7108000I-50000J0D01*
G01*
X12921000Y-7108000D02*
G75*
G02*
X13021000Y-7108000I50000J0D01*
G01*
X13021000Y-8200000D02*
G75*
G02*
X12921000Y-8200000I-50000J0D01*
G01*
X12921000Y-8200000D02*
G75*
G02*
X13021000Y-8200000I50000J0D01*
G01*
X13021000Y-8454000D02*
G75*
G02*
X12921000Y-8454000I-50000J0D01*
G01*
X12921000Y-8454000D02*
G75*
G02*
X13021000Y-8454000I50000J0D01*
G01*
X13021000Y-8708000D02*
G75*
G02*
X12921000Y-8708000I-50000J0D01*
G01*
X12921000Y-8708000D02*
G75*
G02*
X13021000Y-8708000I50000J0D01*
G01*
X13021000Y-9800000D02*
G75*
G02*
X12921000Y-9800000I-50000J0D01*
G01*
X12921000Y-9800000D02*
G75*
G02*
X13021000Y-9800000I50000J0D01*
G01*
X13021000Y-10054000D02*
G75*
G02*
X12921000Y-10054000I-50000J0D01*
G01*
X12921000Y-10054000D02*
G75*
G02*
X13021000Y-10054000I50000J0D01*
G01*
X13021000Y-10308000D02*
G75*
G02*
X12921000Y-10308000I-50000J0D01*
G01*
X12921000Y-10308000D02*
G75*
G02*
X13021000Y-10308000I50000J0D01*
G01*
X13021000Y-11400000D02*
G75*
G02*
X12921000Y-11400000I-50000J0D01*
G01*
X12921000Y-11400000D02*
G75*
G02*
X13021000Y-11400000I50000J0D01*
G01*
X13021000Y-11654000D02*
G75*
G02*
X12921000Y-11654000I-50000J0D01*
G01*
X12921000Y-11654000D02*
G75*
G02*
X13021000Y-11654000I50000J0D01*
G01*
X13021000Y-11908000D02*
G75*
G02*
X12921000Y-11908000I-50000J0D01*
G01*
X12921000Y-11908000D02*
G75*
G02*
X13021000Y-11908000I50000J0D01*
G01*
X13275000Y-3400000D02*
G75*
G02*
X13175000Y-3400000I-50000J0D01*
G01*
X13175000Y-3400000D02*
G75*
G02*
X13275000Y-3400000I50000J0D01*
G01*
X13275000Y-3654000D02*
G75*
G02*
X13175000Y-3654000I-50000J0D01*
G01*
X13175000Y-3654000D02*
G75*
G02*
X13275000Y-3654000I50000J0D01*
G01*
X13275000Y-3908000D02*
G75*
G02*
X13175000Y-3908000I-50000J0D01*
G01*
X13175000Y-3908000D02*
G75*
G02*
X13275000Y-3908000I50000J0D01*
G01*
X13275000Y-5000000D02*
G75*
G02*
X13175000Y-5000000I-50000J0D01*
G01*
X13175000Y-5000000D02*
G75*
G02*
X13275000Y-5000000I50000J0D01*
G01*
X13275000Y-5254000D02*
G75*
G02*
X13175000Y-5254000I-50000J0D01*
G01*
X13175000Y-5254000D02*
G75*
G02*
X13275000Y-5254000I50000J0D01*
G01*
X13275000Y-5508000D02*
G75*
G02*
X13175000Y-5508000I-50000J0D01*
G01*
X13175000Y-5508000D02*
G75*
G02*
X13275000Y-5508000I50000J0D01*
G01*
X13275000Y-6600000D02*
G75*
G02*
X13175000Y-6600000I-50000J0D01*
G01*
X13175000Y-6600000D02*
G75*
G02*
X13275000Y-6600000I50000J0D01*
G01*
X13275000Y-6854000D02*
G75*
G02*
X13175000Y-6854000I-50000J0D01*
G01*
X13175000Y-6854000D02*
G75*
G02*
X13275000Y-6854000I50000J0D01*
G01*
X13275000Y-7108000D02*
G75*
G02*
X13175000Y-7108000I-50000J0D01*
G01*
X13175000Y-7108000D02*
G75*
G02*
X13275000Y-7108000I50000J0D01*
G01*
X13275000Y-8200000D02*
G75*
G02*
X13175000Y-8200000I-50000J0D01*
G01*
X13175000Y-8200000D02*
G75*
G02*
X13275000Y-8200000I50000J0D01*
G01*
X13275000Y-8454000D02*
G75*
G02*
X13175000Y-8454000I-50000J0D01*
G01*
X13175000Y-8454000D02*
G75*
G02*
X13275000Y-8454000I50000J0D01*
G01*
X13275000Y-8708000D02*
G75*
G02*
X13175000Y-8708000I-50000J0D01*
G01*
X13175000Y-8708000D02*
G75*
G02*
X13275000Y-8708000I50000J0D01*
G01*
X13275000Y-9800000D02*
G75*
G02*
X13175000Y-9800000I-50000J0D01*
G01*
X13175000Y-9800000D02*
G75*
G02*
X13275000Y-9800000I50000J0D01*
G01*
X13275000Y-10054000D02*
G75*
G02*
X13175000Y-10054000I-50000J0D01*
G01*
X13175000Y-10054000D02*
G75*
G02*
X13275000Y-10054000I50000J0D01*
G01*
X13275000Y-10308000D02*
G75*
G02*
X13175000Y-10308000I-50000J0D01*
G01*
X13175000Y-10308000D02*
G75*
G02*
X13275000Y-10308000I50000J0D01*
G01*
X13275000Y-11400000D02*
G75*
G02*
X13175000Y-11400000I-50000J0D01*
G01*
X13175000Y-11400000D02*
G75*
G02*
X13275000Y-11400000I50000J0D01*
G01*
X13275000Y-11654000D02*
G75*
G02*
X13175000Y-11654000I-50000J0D01*
G01*
X13175000Y-11654000D02*
G75*
G02*
X13275000Y-11654000I50000J0D01*
G01*
X13275000Y-11908000D02*
G75*
G02*
X13175000Y-11908000I-50000J0D01*
G01*
X13175000Y-11908000D02*
G75*
G02*
X13275000Y-11908000I50000J0D01*
G01*
X15525000Y-3500000D02*
G75*
G02*
X15425000Y-3500000I-50000J0D01*
G01*
X15425000Y-3500000D02*
G75*
G02*
X15525000Y-3500000I50000J0D01*
G01*
X15525000Y-3754000D02*
G75*
G02*
X15425000Y-3754000I-50000J0D01*
G01*
X15425000Y-3754000D02*
G75*
G02*
X15525000Y-3754000I50000J0D01*
G01*
X15525000Y-5100000D02*
G75*
G02*
X15425000Y-5100000I-50000J0D01*
G01*
X15425000Y-5100000D02*
G75*
G02*
X15525000Y-5100000I50000J0D01*
G01*
X15525000Y-5354000D02*
G75*
G02*
X15425000Y-5354000I-50000J0D01*
G01*
X15425000Y-5354000D02*
G75*
G02*
X15525000Y-5354000I50000J0D01*
G01*
X15525000Y-6700000D02*
G75*
G02*
X15425000Y-6700000I-50000J0D01*
G01*
X15425000Y-6700000D02*
G75*
G02*
X15525000Y-6700000I50000J0D01*
G01*
X15525000Y-6954000D02*
G75*
G02*
X15425000Y-6954000I-50000J0D01*
G01*
X15425000Y-6954000D02*
G75*
G02*
X15525000Y-6954000I50000J0D01*
G01*
X15525000Y-8300000D02*
G75*
G02*
X15425000Y-8300000I-50000J0D01*
G01*
X15425000Y-8300000D02*
G75*
G02*
X15525000Y-8300000I50000J0D01*
G01*
X15525000Y-8554000D02*
G75*
G02*
X15425000Y-8554000I-50000J0D01*
G01*
X15425000Y-8554000D02*
G75*
G02*
X15525000Y-8554000I50000J0D01*
G01*
X15525000Y-9900000D02*
G75*
G02*
X15425000Y-9900000I-50000J0D01*
G01*
X15425000Y-9900000D02*
G75*
G02*
X15525000Y-9900000I50000J0D01*
G01*
X15525000Y-10154000D02*
G75*
G02*
X15425000Y-10154000I-50000J0D01*
G01*
X15425000Y-10154000D02*
G75*
G02*
X15525000Y-10154000I50000J0D01*
G01*
X15525000Y-11500000D02*
G75*
G02*
X15425000Y-11500000I-50000J0D01*
G01*
X15425000Y-11500000D02*
G75*
G02*
X15525000Y-11500000I50000J0D01*
G01*
X15525000Y-11754000D02*
G75*
G02*
X15425000Y-11754000I-50000J0D01*
G01*
X15425000Y-11754000D02*
G75*
G02*
X15525000Y-11754000I50000J0D01*
G01*
D11*
X6258277Y-13413984D02*
X6258277Y-13213984D01*
X6258277Y-13213984D02*
X6305896Y-13213984D01*
X6305896Y-13213984D02*
X6334467Y-13223508D01*
X6334467Y-13223508D02*
X6353515Y-13242555D01*
X6353515Y-13242555D02*
X6363039Y-13261603D01*
X6363039Y-13261603D02*
X6372562Y-13299698D01*
X6372562Y-13299698D02*
X6372562Y-13328269D01*
X6372562Y-13328269D02*
X6363039Y-13366365D01*
X6363039Y-13366365D02*
X6353515Y-13385412D01*
X6353515Y-13385412D02*
X6334467Y-13404460D01*
X6334467Y-13404460D02*
X6305896Y-13413984D01*
X6305896Y-13413984D02*
X6258277Y-13413984D01*
X6458277Y-13413984D02*
X6458277Y-13280650D01*
X6458277Y-13318746D02*
X6467801Y-13299698D01*
X6467801Y-13299698D02*
X6477324Y-13290174D01*
X6477324Y-13290174D02*
X6496372Y-13280650D01*
X6496372Y-13280650D02*
X6515420Y-13280650D01*
X6582086Y-13413984D02*
X6582086Y-13280650D01*
X6582086Y-13213984D02*
X6572562Y-13223508D01*
X6572562Y-13223508D02*
X6582086Y-13233031D01*
X6582086Y-13233031D02*
X6591610Y-13223508D01*
X6591610Y-13223508D02*
X6582086Y-13213984D01*
X6582086Y-13213984D02*
X6582086Y-13233031D01*
X6705896Y-13413984D02*
X6686848Y-13404460D01*
X6686848Y-13404460D02*
X6677324Y-13385412D01*
X6677324Y-13385412D02*
X6677324Y-13213984D01*
X6810658Y-13413984D02*
X6791610Y-13404460D01*
X6791610Y-13404460D02*
X6782086Y-13385412D01*
X6782086Y-13385412D02*
X6782086Y-13213984D01*
X7039229Y-13413984D02*
X7039229Y-13213984D01*
X7039229Y-13213984D02*
X7105896Y-13356841D01*
X7105896Y-13356841D02*
X7172562Y-13213984D01*
X7172562Y-13213984D02*
X7172562Y-13413984D01*
X7353515Y-13413984D02*
X7353515Y-13309222D01*
X7353515Y-13309222D02*
X7343991Y-13290174D01*
X7343991Y-13290174D02*
X7324943Y-13280650D01*
X7324943Y-13280650D02*
X7286848Y-13280650D01*
X7286848Y-13280650D02*
X7267801Y-13290174D01*
X7353515Y-13404460D02*
X7334467Y-13413984D01*
X7334467Y-13413984D02*
X7286848Y-13413984D01*
X7286848Y-13413984D02*
X7267801Y-13404460D01*
X7267801Y-13404460D02*
X7258277Y-13385412D01*
X7258277Y-13385412D02*
X7258277Y-13366365D01*
X7258277Y-13366365D02*
X7267801Y-13347317D01*
X7267801Y-13347317D02*
X7286848Y-13337793D01*
X7286848Y-13337793D02*
X7334467Y-13337793D01*
X7334467Y-13337793D02*
X7353515Y-13328269D01*
X7448753Y-13280650D02*
X7448753Y-13480650D01*
X7448753Y-13290174D02*
X7467801Y-13280650D01*
X7467801Y-13280650D02*
X7505896Y-13280650D01*
X7505896Y-13280650D02*
X7524943Y-13290174D01*
X7524943Y-13290174D02*
X7534467Y-13299698D01*
X7534467Y-13299698D02*
X7543991Y-13318746D01*
X7543991Y-13318746D02*
X7543991Y-13375888D01*
X7543991Y-13375888D02*
X7534467Y-13394936D01*
X7534467Y-13394936D02*
X7524943Y-13404460D01*
X7524943Y-13404460D02*
X7505896Y-13413984D01*
X7505896Y-13413984D02*
X7467801Y-13413984D01*
X7467801Y-13413984D02*
X7448753Y-13404460D01*
X7629705Y-13394936D02*
X7639229Y-13404460D01*
X7639229Y-13404460D02*
X7629705Y-13413984D01*
X7629705Y-13413984D02*
X7620182Y-13404460D01*
X7620182Y-13404460D02*
X7629705Y-13394936D01*
X7629705Y-13394936D02*
X7629705Y-13413984D01*
X7629705Y-13290174D02*
X7639229Y-13299698D01*
X7639229Y-13299698D02*
X7629705Y-13309222D01*
X7629705Y-13309222D02*
X7620182Y-13299698D01*
X7620182Y-13299698D02*
X7629705Y-13290174D01*
X7629705Y-13290174D02*
X7629705Y-13309222D01*
D12*
X5967500Y-13727500D02*
X5997500Y-13757500D01*
X5997500Y-13727500D02*
X5967500Y-13757500D01*
D11*
X6296372Y-13633984D02*
X6315420Y-13633984D01*
X6315420Y-13633984D02*
X6334467Y-13643508D01*
X6334467Y-13643508D02*
X6343991Y-13653031D01*
X6343991Y-13653031D02*
X6353515Y-13672079D01*
X6353515Y-13672079D02*
X6363039Y-13710174D01*
X6363039Y-13710174D02*
X6363039Y-13757793D01*
X6363039Y-13757793D02*
X6353515Y-13795888D01*
X6353515Y-13795888D02*
X6343991Y-13814936D01*
X6343991Y-13814936D02*
X6334467Y-13824460D01*
X6334467Y-13824460D02*
X6315420Y-13833984D01*
X6315420Y-13833984D02*
X6296372Y-13833984D01*
X6296372Y-13833984D02*
X6277324Y-13824460D01*
X6277324Y-13824460D02*
X6267801Y-13814936D01*
X6267801Y-13814936D02*
X6258277Y-13795888D01*
X6258277Y-13795888D02*
X6248753Y-13757793D01*
X6248753Y-13757793D02*
X6248753Y-13710174D01*
X6248753Y-13710174D02*
X6258277Y-13672079D01*
X6258277Y-13672079D02*
X6267801Y-13653031D01*
X6267801Y-13653031D02*
X6277324Y-13643508D01*
X6277324Y-13643508D02*
X6296372Y-13633984D01*
X6448753Y-13814936D02*
X6458277Y-13824460D01*
X6458277Y-13824460D02*
X6448753Y-13833984D01*
X6448753Y-13833984D02*
X6439229Y-13824460D01*
X6439229Y-13824460D02*
X6448753Y-13814936D01*
X6448753Y-13814936D02*
X6448753Y-13833984D01*
X6524943Y-13633984D02*
X6648753Y-13633984D01*
X6648753Y-13633984D02*
X6582086Y-13710174D01*
X6582086Y-13710174D02*
X6610658Y-13710174D01*
X6610658Y-13710174D02*
X6629705Y-13719698D01*
X6629705Y-13719698D02*
X6639229Y-13729222D01*
X6639229Y-13729222D02*
X6648753Y-13748269D01*
X6648753Y-13748269D02*
X6648753Y-13795888D01*
X6648753Y-13795888D02*
X6639229Y-13814936D01*
X6639229Y-13814936D02*
X6629705Y-13824460D01*
X6629705Y-13824460D02*
X6610658Y-13833984D01*
X6610658Y-13833984D02*
X6553515Y-13833984D01*
X6553515Y-13833984D02*
X6534467Y-13824460D01*
X6534467Y-13824460D02*
X6524943Y-13814936D01*
X6772562Y-13633984D02*
X6791610Y-13633984D01*
X6791610Y-13633984D02*
X6810658Y-13643508D01*
X6810658Y-13643508D02*
X6820182Y-13653031D01*
X6820182Y-13653031D02*
X6829705Y-13672079D01*
X6829705Y-13672079D02*
X6839229Y-13710174D01*
X6839229Y-13710174D02*
X6839229Y-13757793D01*
X6839229Y-13757793D02*
X6829705Y-13795888D01*
X6829705Y-13795888D02*
X6820182Y-13814936D01*
X6820182Y-13814936D02*
X6810658Y-13824460D01*
X6810658Y-13824460D02*
X6791610Y-13833984D01*
X6791610Y-13833984D02*
X6772562Y-13833984D01*
X6772562Y-13833984D02*
X6753515Y-13824460D01*
X6753515Y-13824460D02*
X6743991Y-13814936D01*
X6743991Y-13814936D02*
X6734467Y-13795888D01*
X6734467Y-13795888D02*
X6724943Y-13757793D01*
X6724943Y-13757793D02*
X6724943Y-13710174D01*
X6724943Y-13710174D02*
X6734467Y-13672079D01*
X6734467Y-13672079D02*
X6743991Y-13653031D01*
X6743991Y-13653031D02*
X6753515Y-13643508D01*
X6753515Y-13643508D02*
X6772562Y-13633984D01*
X6963039Y-13633984D02*
X6982086Y-13633984D01*
X6982086Y-13633984D02*
X7001134Y-13643508D01*
X7001134Y-13643508D02*
X7010658Y-13653031D01*
X7010658Y-13653031D02*
X7020182Y-13672079D01*
X7020182Y-13672079D02*
X7029705Y-13710174D01*
X7029705Y-13710174D02*
X7029705Y-13757793D01*
X7029705Y-13757793D02*
X7020182Y-13795888D01*
X7020182Y-13795888D02*
X7010658Y-13814936D01*
X7010658Y-13814936D02*
X7001134Y-13824460D01*
X7001134Y-13824460D02*
X6982086Y-13833984D01*
X6982086Y-13833984D02*
X6963039Y-13833984D01*
X6963039Y-13833984D02*
X6943991Y-13824460D01*
X6943991Y-13824460D02*
X6934467Y-13814936D01*
X6934467Y-13814936D02*
X6924943Y-13795888D01*
X6924943Y-13795888D02*
X6915420Y-13757793D01*
X6915420Y-13757793D02*
X6915420Y-13710174D01*
X6915420Y-13710174D02*
X6924943Y-13672079D01*
X6924943Y-13672079D02*
X6934467Y-13653031D01*
X6934467Y-13653031D02*
X6943991Y-13643508D01*
X6943991Y-13643508D02*
X6963039Y-13633984D01*
X7115420Y-13833984D02*
X7115420Y-13700650D01*
X7115420Y-13719698D02*
X7124943Y-13710174D01*
X7124943Y-13710174D02*
X7143991Y-13700650D01*
X7143991Y-13700650D02*
X7172563Y-13700650D01*
X7172563Y-13700650D02*
X7191610Y-13710174D01*
X7191610Y-13710174D02*
X7201134Y-13729222D01*
X7201134Y-13729222D02*
X7201134Y-13833984D01*
X7201134Y-13729222D02*
X7210658Y-13710174D01*
X7210658Y-13710174D02*
X7229705Y-13700650D01*
X7229705Y-13700650D02*
X7258277Y-13700650D01*
X7258277Y-13700650D02*
X7277324Y-13710174D01*
X7277324Y-13710174D02*
X7286848Y-13729222D01*
X7286848Y-13729222D02*
X7286848Y-13833984D01*
X7382086Y-13833984D02*
X7382086Y-13700650D01*
X7382086Y-13719698D02*
X7391610Y-13710174D01*
X7391610Y-13710174D02*
X7410658Y-13700650D01*
X7410658Y-13700650D02*
X7439229Y-13700650D01*
X7439229Y-13700650D02*
X7458277Y-13710174D01*
X7458277Y-13710174D02*
X7467801Y-13729222D01*
X7467801Y-13729222D02*
X7467801Y-13833984D01*
X7467801Y-13729222D02*
X7477324Y-13710174D01*
X7477324Y-13710174D02*
X7496372Y-13700650D01*
X7496372Y-13700650D02*
X7524943Y-13700650D01*
X7524943Y-13700650D02*
X7543991Y-13710174D01*
X7543991Y-13710174D02*
X7553515Y-13729222D01*
X7553515Y-13729222D02*
X7553515Y-13833984D01*
X7943991Y-13624460D02*
X7772563Y-13881603D01*
X8201134Y-13633984D02*
X8220182Y-13633984D01*
X8220182Y-13633984D02*
X8239229Y-13643508D01*
X8239229Y-13643508D02*
X8248753Y-13653031D01*
X8248753Y-13653031D02*
X8258277Y-13672079D01*
X8258277Y-13672079D02*
X8267801Y-13710174D01*
X8267801Y-13710174D02*
X8267801Y-13757793D01*
X8267801Y-13757793D02*
X8258277Y-13795888D01*
X8258277Y-13795888D02*
X8248753Y-13814936D01*
X8248753Y-13814936D02*
X8239229Y-13824460D01*
X8239229Y-13824460D02*
X8220182Y-13833984D01*
X8220182Y-13833984D02*
X8201134Y-13833984D01*
X8201134Y-13833984D02*
X8182086Y-13824460D01*
X8182086Y-13824460D02*
X8172563Y-13814936D01*
X8172563Y-13814936D02*
X8163039Y-13795888D01*
X8163039Y-13795888D02*
X8153515Y-13757793D01*
X8153515Y-13757793D02*
X8153515Y-13710174D01*
X8153515Y-13710174D02*
X8163039Y-13672079D01*
X8163039Y-13672079D02*
X8172563Y-13653031D01*
X8172563Y-13653031D02*
X8182086Y-13643508D01*
X8182086Y-13643508D02*
X8201134Y-13633984D01*
X8353515Y-13814936D02*
X8363039Y-13824460D01*
X8363039Y-13824460D02*
X8353515Y-13833984D01*
X8353515Y-13833984D02*
X8343991Y-13824460D01*
X8343991Y-13824460D02*
X8353515Y-13814936D01*
X8353515Y-13814936D02*
X8353515Y-13833984D01*
X8486848Y-13633984D02*
X8505896Y-13633984D01*
X8505896Y-13633984D02*
X8524944Y-13643508D01*
X8524944Y-13643508D02*
X8534468Y-13653031D01*
X8534468Y-13653031D02*
X8543991Y-13672079D01*
X8543991Y-13672079D02*
X8553515Y-13710174D01*
X8553515Y-13710174D02*
X8553515Y-13757793D01*
X8553515Y-13757793D02*
X8543991Y-13795888D01*
X8543991Y-13795888D02*
X8534468Y-13814936D01*
X8534468Y-13814936D02*
X8524944Y-13824460D01*
X8524944Y-13824460D02*
X8505896Y-13833984D01*
X8505896Y-13833984D02*
X8486848Y-13833984D01*
X8486848Y-13833984D02*
X8467801Y-13824460D01*
X8467801Y-13824460D02*
X8458277Y-13814936D01*
X8458277Y-13814936D02*
X8448753Y-13795888D01*
X8448753Y-13795888D02*
X8439229Y-13757793D01*
X8439229Y-13757793D02*
X8439229Y-13710174D01*
X8439229Y-13710174D02*
X8448753Y-13672079D01*
X8448753Y-13672079D02*
X8458277Y-13653031D01*
X8458277Y-13653031D02*
X8467801Y-13643508D01*
X8467801Y-13643508D02*
X8486848Y-13633984D01*
X8743991Y-13833984D02*
X8629706Y-13833984D01*
X8686848Y-13833984D02*
X8686848Y-13633984D01*
X8686848Y-13633984D02*
X8667801Y-13662555D01*
X8667801Y-13662555D02*
X8648753Y-13681603D01*
X8648753Y-13681603D02*
X8629706Y-13691127D01*
X8934468Y-13833984D02*
X8820182Y-13833984D01*
X8877325Y-13833984D02*
X8877325Y-13633984D01*
X8877325Y-13633984D02*
X8858277Y-13662555D01*
X8858277Y-13662555D02*
X8839229Y-13681603D01*
X8839229Y-13681603D02*
X8820182Y-13691127D01*
X9048753Y-13719698D02*
X9029706Y-13710174D01*
X9029706Y-13710174D02*
X9020182Y-13700650D01*
X9020182Y-13700650D02*
X9010658Y-13681603D01*
X9010658Y-13681603D02*
X9010658Y-13672079D01*
X9010658Y-13672079D02*
X9020182Y-13653031D01*
X9020182Y-13653031D02*
X9029706Y-13643508D01*
X9029706Y-13643508D02*
X9048753Y-13633984D01*
X9048753Y-13633984D02*
X9086849Y-13633984D01*
X9086849Y-13633984D02*
X9105896Y-13643508D01*
X9105896Y-13643508D02*
X9115420Y-13653031D01*
X9115420Y-13653031D02*
X9124944Y-13672079D01*
X9124944Y-13672079D02*
X9124944Y-13681603D01*
X9124944Y-13681603D02*
X9115420Y-13700650D01*
X9115420Y-13700650D02*
X9105896Y-13710174D01*
X9105896Y-13710174D02*
X9086849Y-13719698D01*
X9086849Y-13719698D02*
X9048753Y-13719698D01*
X9048753Y-13719698D02*
X9029706Y-13729222D01*
X9029706Y-13729222D02*
X9020182Y-13738746D01*
X9020182Y-13738746D02*
X9010658Y-13757793D01*
X9010658Y-13757793D02*
X9010658Y-13795888D01*
X9010658Y-13795888D02*
X9020182Y-13814936D01*
X9020182Y-13814936D02*
X9029706Y-13824460D01*
X9029706Y-13824460D02*
X9048753Y-13833984D01*
X9048753Y-13833984D02*
X9086849Y-13833984D01*
X9086849Y-13833984D02*
X9105896Y-13824460D01*
X9105896Y-13824460D02*
X9115420Y-13814936D01*
X9115420Y-13814936D02*
X9124944Y-13795888D01*
X9124944Y-13795888D02*
X9124944Y-13757793D01*
X9124944Y-13757793D02*
X9115420Y-13738746D01*
X9115420Y-13738746D02*
X9105896Y-13729222D01*
X9105896Y-13729222D02*
X9086849Y-13719698D01*
X9201134Y-13633984D02*
X9201134Y-13672079D01*
X9277325Y-13633984D02*
X9277325Y-13672079D01*
X9572563Y-13910174D02*
X9563039Y-13900650D01*
X9563039Y-13900650D02*
X9543991Y-13872079D01*
X9543991Y-13872079D02*
X9534468Y-13853031D01*
X9534468Y-13853031D02*
X9524944Y-13824460D01*
X9524944Y-13824460D02*
X9515420Y-13776841D01*
X9515420Y-13776841D02*
X9515420Y-13738746D01*
X9515420Y-13738746D02*
X9524944Y-13691127D01*
X9524944Y-13691127D02*
X9534468Y-13662555D01*
X9534468Y-13662555D02*
X9543991Y-13643508D01*
X9543991Y-13643508D02*
X9563039Y-13614936D01*
X9563039Y-13614936D02*
X9572563Y-13605412D01*
X9629706Y-13633984D02*
X9753515Y-13633984D01*
X9753515Y-13633984D02*
X9686849Y-13710174D01*
X9686849Y-13710174D02*
X9715420Y-13710174D01*
X9715420Y-13710174D02*
X9734468Y-13719698D01*
X9734468Y-13719698D02*
X9743991Y-13729222D01*
X9743991Y-13729222D02*
X9753515Y-13748269D01*
X9753515Y-13748269D02*
X9753515Y-13795888D01*
X9753515Y-13795888D02*
X9743991Y-13814936D01*
X9743991Y-13814936D02*
X9734468Y-13824460D01*
X9734468Y-13824460D02*
X9715420Y-13833984D01*
X9715420Y-13833984D02*
X9658277Y-13833984D01*
X9658277Y-13833984D02*
X9639230Y-13824460D01*
X9639230Y-13824460D02*
X9629706Y-13814936D01*
X9924944Y-13633984D02*
X9886849Y-13633984D01*
X9886849Y-13633984D02*
X9867801Y-13643508D01*
X9867801Y-13643508D02*
X9858277Y-13653031D01*
X9858277Y-13653031D02*
X9839230Y-13681603D01*
X9839230Y-13681603D02*
X9829706Y-13719698D01*
X9829706Y-13719698D02*
X9829706Y-13795888D01*
X9829706Y-13795888D02*
X9839230Y-13814936D01*
X9839230Y-13814936D02*
X9848753Y-13824460D01*
X9848753Y-13824460D02*
X9867801Y-13833984D01*
X9867801Y-13833984D02*
X9905896Y-13833984D01*
X9905896Y-13833984D02*
X9924944Y-13824460D01*
X9924944Y-13824460D02*
X9934468Y-13814936D01*
X9934468Y-13814936D02*
X9943991Y-13795888D01*
X9943991Y-13795888D02*
X9943991Y-13748269D01*
X9943991Y-13748269D02*
X9934468Y-13729222D01*
X9934468Y-13729222D02*
X9924944Y-13719698D01*
X9924944Y-13719698D02*
X9905896Y-13710174D01*
X9905896Y-13710174D02*
X9867801Y-13710174D01*
X9867801Y-13710174D02*
X9848753Y-13719698D01*
X9848753Y-13719698D02*
X9839230Y-13729222D01*
X9839230Y-13729222D02*
X9829706Y-13748269D01*
X10182087Y-13833984D02*
X10182087Y-13633984D01*
X10267801Y-13833984D02*
X10267801Y-13729222D01*
X10267801Y-13729222D02*
X10258277Y-13710174D01*
X10258277Y-13710174D02*
X10239230Y-13700650D01*
X10239230Y-13700650D02*
X10210658Y-13700650D01*
X10210658Y-13700650D02*
X10191611Y-13710174D01*
X10191611Y-13710174D02*
X10182087Y-13719698D01*
X10391611Y-13833984D02*
X10372563Y-13824460D01*
X10372563Y-13824460D02*
X10363039Y-13814936D01*
X10363039Y-13814936D02*
X10353515Y-13795888D01*
X10353515Y-13795888D02*
X10353515Y-13738746D01*
X10353515Y-13738746D02*
X10363039Y-13719698D01*
X10363039Y-13719698D02*
X10372563Y-13710174D01*
X10372563Y-13710174D02*
X10391611Y-13700650D01*
X10391611Y-13700650D02*
X10420182Y-13700650D01*
X10420182Y-13700650D02*
X10439230Y-13710174D01*
X10439230Y-13710174D02*
X10448753Y-13719698D01*
X10448753Y-13719698D02*
X10458277Y-13738746D01*
X10458277Y-13738746D02*
X10458277Y-13795888D01*
X10458277Y-13795888D02*
X10448753Y-13814936D01*
X10448753Y-13814936D02*
X10439230Y-13824460D01*
X10439230Y-13824460D02*
X10420182Y-13833984D01*
X10420182Y-13833984D02*
X10391611Y-13833984D01*
X10572563Y-13833984D02*
X10553515Y-13824460D01*
X10553515Y-13824460D02*
X10543992Y-13805412D01*
X10543992Y-13805412D02*
X10543992Y-13633984D01*
X10724944Y-13824460D02*
X10705896Y-13833984D01*
X10705896Y-13833984D02*
X10667801Y-13833984D01*
X10667801Y-13833984D02*
X10648753Y-13824460D01*
X10648753Y-13824460D02*
X10639230Y-13805412D01*
X10639230Y-13805412D02*
X10639230Y-13729222D01*
X10639230Y-13729222D02*
X10648753Y-13710174D01*
X10648753Y-13710174D02*
X10667801Y-13700650D01*
X10667801Y-13700650D02*
X10705896Y-13700650D01*
X10705896Y-13700650D02*
X10724944Y-13710174D01*
X10724944Y-13710174D02*
X10734468Y-13729222D01*
X10734468Y-13729222D02*
X10734468Y-13748269D01*
X10734468Y-13748269D02*
X10639230Y-13767317D01*
X10810658Y-13824460D02*
X10829706Y-13833984D01*
X10829706Y-13833984D02*
X10867801Y-13833984D01*
X10867801Y-13833984D02*
X10886849Y-13824460D01*
X10886849Y-13824460D02*
X10896373Y-13805412D01*
X10896373Y-13805412D02*
X10896373Y-13795888D01*
X10896373Y-13795888D02*
X10886849Y-13776841D01*
X10886849Y-13776841D02*
X10867801Y-13767317D01*
X10867801Y-13767317D02*
X10839230Y-13767317D01*
X10839230Y-13767317D02*
X10820182Y-13757793D01*
X10820182Y-13757793D02*
X10810658Y-13738746D01*
X10810658Y-13738746D02*
X10810658Y-13729222D01*
X10810658Y-13729222D02*
X10820182Y-13710174D01*
X10820182Y-13710174D02*
X10839230Y-13700650D01*
X10839230Y-13700650D02*
X10867801Y-13700650D01*
X10867801Y-13700650D02*
X10886849Y-13710174D01*
X10963039Y-13910174D02*
X10972563Y-13900650D01*
X10972563Y-13900650D02*
X10991611Y-13872079D01*
X10991611Y-13872079D02*
X11001134Y-13853031D01*
X11001134Y-13853031D02*
X11010658Y-13824460D01*
X11010658Y-13824460D02*
X11020182Y-13776841D01*
X11020182Y-13776841D02*
X11020182Y-13738746D01*
X11020182Y-13738746D02*
X11010658Y-13691127D01*
X11010658Y-13691127D02*
X11001134Y-13662555D01*
X11001134Y-13662555D02*
X10991611Y-13643508D01*
X10991611Y-13643508D02*
X10972563Y-13614936D01*
X10972563Y-13614936D02*
X10963039Y-13605412D01*
D12*
X5997500Y-14006500D02*
G75*
G02*
X5897500Y-14006500I-50000J0D01*
G01*
X5897500Y-14006500D02*
G75*
G02*
X5997500Y-14006500I50000J0D01*
G01*
D11*
X6363039Y-14097984D02*
X6248753Y-14097984D01*
X6305896Y-14097984D02*
X6305896Y-13897984D01*
X6305896Y-13897984D02*
X6286848Y-13926555D01*
X6286848Y-13926555D02*
X6267801Y-13945603D01*
X6267801Y-13945603D02*
X6248753Y-13955127D01*
X6448753Y-14078936D02*
X6458277Y-14088460D01*
X6458277Y-14088460D02*
X6448753Y-14097984D01*
X6448753Y-14097984D02*
X6439229Y-14088460D01*
X6439229Y-14088460D02*
X6448753Y-14078936D01*
X6448753Y-14078936D02*
X6448753Y-14097984D01*
X6582086Y-13897984D02*
X6601134Y-13897984D01*
X6601134Y-13897984D02*
X6620182Y-13907508D01*
X6620182Y-13907508D02*
X6629705Y-13917031D01*
X6629705Y-13917031D02*
X6639229Y-13936079D01*
X6639229Y-13936079D02*
X6648753Y-13974174D01*
X6648753Y-13974174D02*
X6648753Y-14021793D01*
X6648753Y-14021793D02*
X6639229Y-14059888D01*
X6639229Y-14059888D02*
X6629705Y-14078936D01*
X6629705Y-14078936D02*
X6620182Y-14088460D01*
X6620182Y-14088460D02*
X6601134Y-14097984D01*
X6601134Y-14097984D02*
X6582086Y-14097984D01*
X6582086Y-14097984D02*
X6563039Y-14088460D01*
X6563039Y-14088460D02*
X6553515Y-14078936D01*
X6553515Y-14078936D02*
X6543991Y-14059888D01*
X6543991Y-14059888D02*
X6534467Y-14021793D01*
X6534467Y-14021793D02*
X6534467Y-13974174D01*
X6534467Y-13974174D02*
X6543991Y-13936079D01*
X6543991Y-13936079D02*
X6553515Y-13917031D01*
X6553515Y-13917031D02*
X6563039Y-13907508D01*
X6563039Y-13907508D02*
X6582086Y-13897984D01*
X6772562Y-13897984D02*
X6791610Y-13897984D01*
X6791610Y-13897984D02*
X6810658Y-13907508D01*
X6810658Y-13907508D02*
X6820182Y-13917031D01*
X6820182Y-13917031D02*
X6829705Y-13936079D01*
X6829705Y-13936079D02*
X6839229Y-13974174D01*
X6839229Y-13974174D02*
X6839229Y-14021793D01*
X6839229Y-14021793D02*
X6829705Y-14059888D01*
X6829705Y-14059888D02*
X6820182Y-14078936D01*
X6820182Y-14078936D02*
X6810658Y-14088460D01*
X6810658Y-14088460D02*
X6791610Y-14097984D01*
X6791610Y-14097984D02*
X6772562Y-14097984D01*
X6772562Y-14097984D02*
X6753515Y-14088460D01*
X6753515Y-14088460D02*
X6743991Y-14078936D01*
X6743991Y-14078936D02*
X6734467Y-14059888D01*
X6734467Y-14059888D02*
X6724943Y-14021793D01*
X6724943Y-14021793D02*
X6724943Y-13974174D01*
X6724943Y-13974174D02*
X6734467Y-13936079D01*
X6734467Y-13936079D02*
X6743991Y-13917031D01*
X6743991Y-13917031D02*
X6753515Y-13907508D01*
X6753515Y-13907508D02*
X6772562Y-13897984D01*
X6963039Y-13897984D02*
X6982086Y-13897984D01*
X6982086Y-13897984D02*
X7001134Y-13907508D01*
X7001134Y-13907508D02*
X7010658Y-13917031D01*
X7010658Y-13917031D02*
X7020182Y-13936079D01*
X7020182Y-13936079D02*
X7029705Y-13974174D01*
X7029705Y-13974174D02*
X7029705Y-14021793D01*
X7029705Y-14021793D02*
X7020182Y-14059888D01*
X7020182Y-14059888D02*
X7010658Y-14078936D01*
X7010658Y-14078936D02*
X7001134Y-14088460D01*
X7001134Y-14088460D02*
X6982086Y-14097984D01*
X6982086Y-14097984D02*
X6963039Y-14097984D01*
X6963039Y-14097984D02*
X6943991Y-14088460D01*
X6943991Y-14088460D02*
X6934467Y-14078936D01*
X6934467Y-14078936D02*
X6924943Y-14059888D01*
X6924943Y-14059888D02*
X6915420Y-14021793D01*
X6915420Y-14021793D02*
X6915420Y-13974174D01*
X6915420Y-13974174D02*
X6924943Y-13936079D01*
X6924943Y-13936079D02*
X6934467Y-13917031D01*
X6934467Y-13917031D02*
X6943991Y-13907508D01*
X6943991Y-13907508D02*
X6963039Y-13897984D01*
X7115420Y-14097984D02*
X7115420Y-13964650D01*
X7115420Y-13983698D02*
X7124943Y-13974174D01*
X7124943Y-13974174D02*
X7143991Y-13964650D01*
X7143991Y-13964650D02*
X7172563Y-13964650D01*
X7172563Y-13964650D02*
X7191610Y-13974174D01*
X7191610Y-13974174D02*
X7201134Y-13993222D01*
X7201134Y-13993222D02*
X7201134Y-14097984D01*
X7201134Y-13993222D02*
X7210658Y-13974174D01*
X7210658Y-13974174D02*
X7229705Y-13964650D01*
X7229705Y-13964650D02*
X7258277Y-13964650D01*
X7258277Y-13964650D02*
X7277324Y-13974174D01*
X7277324Y-13974174D02*
X7286848Y-13993222D01*
X7286848Y-13993222D02*
X7286848Y-14097984D01*
X7382086Y-14097984D02*
X7382086Y-13964650D01*
X7382086Y-13983698D02*
X7391610Y-13974174D01*
X7391610Y-13974174D02*
X7410658Y-13964650D01*
X7410658Y-13964650D02*
X7439229Y-13964650D01*
X7439229Y-13964650D02*
X7458277Y-13974174D01*
X7458277Y-13974174D02*
X7467801Y-13993222D01*
X7467801Y-13993222D02*
X7467801Y-14097984D01*
X7467801Y-13993222D02*
X7477324Y-13974174D01*
X7477324Y-13974174D02*
X7496372Y-13964650D01*
X7496372Y-13964650D02*
X7524943Y-13964650D01*
X7524943Y-13964650D02*
X7543991Y-13974174D01*
X7543991Y-13974174D02*
X7553515Y-13993222D01*
X7553515Y-13993222D02*
X7553515Y-14097984D01*
X7943991Y-13888460D02*
X7772563Y-14145603D01*
X8201134Y-13897984D02*
X8220182Y-13897984D01*
X8220182Y-13897984D02*
X8239229Y-13907508D01*
X8239229Y-13907508D02*
X8248753Y-13917031D01*
X8248753Y-13917031D02*
X8258277Y-13936079D01*
X8258277Y-13936079D02*
X8267801Y-13974174D01*
X8267801Y-13974174D02*
X8267801Y-14021793D01*
X8267801Y-14021793D02*
X8258277Y-14059888D01*
X8258277Y-14059888D02*
X8248753Y-14078936D01*
X8248753Y-14078936D02*
X8239229Y-14088460D01*
X8239229Y-14088460D02*
X8220182Y-14097984D01*
X8220182Y-14097984D02*
X8201134Y-14097984D01*
X8201134Y-14097984D02*
X8182086Y-14088460D01*
X8182086Y-14088460D02*
X8172563Y-14078936D01*
X8172563Y-14078936D02*
X8163039Y-14059888D01*
X8163039Y-14059888D02*
X8153515Y-14021793D01*
X8153515Y-14021793D02*
X8153515Y-13974174D01*
X8153515Y-13974174D02*
X8163039Y-13936079D01*
X8163039Y-13936079D02*
X8172563Y-13917031D01*
X8172563Y-13917031D02*
X8182086Y-13907508D01*
X8182086Y-13907508D02*
X8201134Y-13897984D01*
X8353515Y-14078936D02*
X8363039Y-14088460D01*
X8363039Y-14088460D02*
X8353515Y-14097984D01*
X8353515Y-14097984D02*
X8343991Y-14088460D01*
X8343991Y-14088460D02*
X8353515Y-14078936D01*
X8353515Y-14078936D02*
X8353515Y-14097984D01*
X8486848Y-13897984D02*
X8505896Y-13897984D01*
X8505896Y-13897984D02*
X8524944Y-13907508D01*
X8524944Y-13907508D02*
X8534468Y-13917031D01*
X8534468Y-13917031D02*
X8543991Y-13936079D01*
X8543991Y-13936079D02*
X8553515Y-13974174D01*
X8553515Y-13974174D02*
X8553515Y-14021793D01*
X8553515Y-14021793D02*
X8543991Y-14059888D01*
X8543991Y-14059888D02*
X8534468Y-14078936D01*
X8534468Y-14078936D02*
X8524944Y-14088460D01*
X8524944Y-14088460D02*
X8505896Y-14097984D01*
X8505896Y-14097984D02*
X8486848Y-14097984D01*
X8486848Y-14097984D02*
X8467801Y-14088460D01*
X8467801Y-14088460D02*
X8458277Y-14078936D01*
X8458277Y-14078936D02*
X8448753Y-14059888D01*
X8448753Y-14059888D02*
X8439229Y-14021793D01*
X8439229Y-14021793D02*
X8439229Y-13974174D01*
X8439229Y-13974174D02*
X8448753Y-13936079D01*
X8448753Y-13936079D02*
X8458277Y-13917031D01*
X8458277Y-13917031D02*
X8467801Y-13907508D01*
X8467801Y-13907508D02*
X8486848Y-13897984D01*
X8620182Y-13897984D02*
X8743991Y-13897984D01*
X8743991Y-13897984D02*
X8677325Y-13974174D01*
X8677325Y-13974174D02*
X8705896Y-13974174D01*
X8705896Y-13974174D02*
X8724944Y-13983698D01*
X8724944Y-13983698D02*
X8734468Y-13993222D01*
X8734468Y-13993222D02*
X8743991Y-14012269D01*
X8743991Y-14012269D02*
X8743991Y-14059888D01*
X8743991Y-14059888D02*
X8734468Y-14078936D01*
X8734468Y-14078936D02*
X8724944Y-14088460D01*
X8724944Y-14088460D02*
X8705896Y-14097984D01*
X8705896Y-14097984D02*
X8648753Y-14097984D01*
X8648753Y-14097984D02*
X8629706Y-14088460D01*
X8629706Y-14088460D02*
X8620182Y-14078936D01*
X8839229Y-14097984D02*
X8877325Y-14097984D01*
X8877325Y-14097984D02*
X8896372Y-14088460D01*
X8896372Y-14088460D02*
X8905896Y-14078936D01*
X8905896Y-14078936D02*
X8924944Y-14050365D01*
X8924944Y-14050365D02*
X8934468Y-14012269D01*
X8934468Y-14012269D02*
X8934468Y-13936079D01*
X8934468Y-13936079D02*
X8924944Y-13917031D01*
X8924944Y-13917031D02*
X8915420Y-13907508D01*
X8915420Y-13907508D02*
X8896372Y-13897984D01*
X8896372Y-13897984D02*
X8858277Y-13897984D01*
X8858277Y-13897984D02*
X8839229Y-13907508D01*
X8839229Y-13907508D02*
X8829706Y-13917031D01*
X8829706Y-13917031D02*
X8820182Y-13936079D01*
X8820182Y-13936079D02*
X8820182Y-13983698D01*
X8820182Y-13983698D02*
X8829706Y-14002746D01*
X8829706Y-14002746D02*
X8839229Y-14012269D01*
X8839229Y-14012269D02*
X8858277Y-14021793D01*
X8858277Y-14021793D02*
X8896372Y-14021793D01*
X8896372Y-14021793D02*
X8915420Y-14012269D01*
X8915420Y-14012269D02*
X8924944Y-14002746D01*
X8924944Y-14002746D02*
X8934468Y-13983698D01*
X9105896Y-13964650D02*
X9105896Y-14097984D01*
X9058277Y-13888460D02*
X9010658Y-14031317D01*
X9010658Y-14031317D02*
X9134468Y-14031317D01*
X9201134Y-13897984D02*
X9201134Y-13936079D01*
X9277325Y-13897984D02*
X9277325Y-13936079D01*
X9572563Y-14174174D02*
X9563039Y-14164650D01*
X9563039Y-14164650D02*
X9543991Y-14136079D01*
X9543991Y-14136079D02*
X9534468Y-14117031D01*
X9534468Y-14117031D02*
X9524944Y-14088460D01*
X9524944Y-14088460D02*
X9515420Y-14040841D01*
X9515420Y-14040841D02*
X9515420Y-14002746D01*
X9515420Y-14002746D02*
X9524944Y-13955127D01*
X9524944Y-13955127D02*
X9534468Y-13926555D01*
X9534468Y-13926555D02*
X9543991Y-13907508D01*
X9543991Y-13907508D02*
X9563039Y-13878936D01*
X9563039Y-13878936D02*
X9572563Y-13869412D01*
X9753515Y-14097984D02*
X9639230Y-14097984D01*
X9696372Y-14097984D02*
X9696372Y-13897984D01*
X9696372Y-13897984D02*
X9677325Y-13926555D01*
X9677325Y-13926555D02*
X9658277Y-13945603D01*
X9658277Y-13945603D02*
X9639230Y-13955127D01*
X9924944Y-13964650D02*
X9924944Y-14097984D01*
X9877325Y-13888460D02*
X9829706Y-14031317D01*
X9829706Y-14031317D02*
X9953515Y-14031317D01*
X10115420Y-13964650D02*
X10115420Y-14097984D01*
X10067801Y-13888460D02*
X10020182Y-14031317D01*
X10020182Y-14031317D02*
X10143991Y-14031317D01*
X10372563Y-14097984D02*
X10372563Y-13897984D01*
X10458277Y-14097984D02*
X10458277Y-13993222D01*
X10458277Y-13993222D02*
X10448753Y-13974174D01*
X10448753Y-13974174D02*
X10429706Y-13964650D01*
X10429706Y-13964650D02*
X10401134Y-13964650D01*
X10401134Y-13964650D02*
X10382087Y-13974174D01*
X10382087Y-13974174D02*
X10372563Y-13983698D01*
X10582087Y-14097984D02*
X10563039Y-14088460D01*
X10563039Y-14088460D02*
X10553515Y-14078936D01*
X10553515Y-14078936D02*
X10543992Y-14059888D01*
X10543992Y-14059888D02*
X10543992Y-14002746D01*
X10543992Y-14002746D02*
X10553515Y-13983698D01*
X10553515Y-13983698D02*
X10563039Y-13974174D01*
X10563039Y-13974174D02*
X10582087Y-13964650D01*
X10582087Y-13964650D02*
X10610658Y-13964650D01*
X10610658Y-13964650D02*
X10629706Y-13974174D01*
X10629706Y-13974174D02*
X10639230Y-13983698D01*
X10639230Y-13983698D02*
X10648753Y-14002746D01*
X10648753Y-14002746D02*
X10648753Y-14059888D01*
X10648753Y-14059888D02*
X10639230Y-14078936D01*
X10639230Y-14078936D02*
X10629706Y-14088460D01*
X10629706Y-14088460D02*
X10610658Y-14097984D01*
X10610658Y-14097984D02*
X10582087Y-14097984D01*
X10763039Y-14097984D02*
X10743992Y-14088460D01*
X10743992Y-14088460D02*
X10734468Y-14069412D01*
X10734468Y-14069412D02*
X10734468Y-13897984D01*
X10915420Y-14088460D02*
X10896373Y-14097984D01*
X10896373Y-14097984D02*
X10858277Y-14097984D01*
X10858277Y-14097984D02*
X10839230Y-14088460D01*
X10839230Y-14088460D02*
X10829706Y-14069412D01*
X10829706Y-14069412D02*
X10829706Y-13993222D01*
X10829706Y-13993222D02*
X10839230Y-13974174D01*
X10839230Y-13974174D02*
X10858277Y-13964650D01*
X10858277Y-13964650D02*
X10896373Y-13964650D01*
X10896373Y-13964650D02*
X10915420Y-13974174D01*
X10915420Y-13974174D02*
X10924944Y-13993222D01*
X10924944Y-13993222D02*
X10924944Y-14012269D01*
X10924944Y-14012269D02*
X10829706Y-14031317D01*
X11001134Y-14088460D02*
X11020182Y-14097984D01*
X11020182Y-14097984D02*
X11058277Y-14097984D01*
X11058277Y-14097984D02*
X11077325Y-14088460D01*
X11077325Y-14088460D02*
X11086849Y-14069412D01*
X11086849Y-14069412D02*
X11086849Y-14059888D01*
X11086849Y-14059888D02*
X11077325Y-14040841D01*
X11077325Y-14040841D02*
X11058277Y-14031317D01*
X11058277Y-14031317D02*
X11029706Y-14031317D01*
X11029706Y-14031317D02*
X11010658Y-14021793D01*
X11010658Y-14021793D02*
X11001134Y-14002746D01*
X11001134Y-14002746D02*
X11001134Y-13993222D01*
X11001134Y-13993222D02*
X11010658Y-13974174D01*
X11010658Y-13974174D02*
X11029706Y-13964650D01*
X11029706Y-13964650D02*
X11058277Y-13964650D01*
X11058277Y-13964650D02*
X11077325Y-13974174D01*
X11153515Y-14174174D02*
X11163039Y-14164650D01*
X11163039Y-14164650D02*
X11182087Y-14136079D01*
X11182087Y-14136079D02*
X11191611Y-14117031D01*
X11191611Y-14117031D02*
X11201134Y-14088460D01*
X11201134Y-14088460D02*
X11210658Y-14040841D01*
X11210658Y-14040841D02*
X11210658Y-14002746D01*
X11210658Y-14002746D02*
X11201134Y-13955127D01*
X11201134Y-13955127D02*
X11191611Y-13926555D01*
X11191611Y-13926555D02*
X11182087Y-13907508D01*
X11182087Y-13907508D02*
X11163039Y-13878936D01*
X11163039Y-13878936D02*
X11153515Y-13869412D01*
M02*
