%TF.GenerationSoftware,KiCad,Pcbnew,8.0.1*%
%TF.CreationDate,2024-04-28T15:40:33+08:00*%
%TF.ProjectId,pinban,70696e62-616e-42e6-9b69-6361645f7063,rev?*%
%TF.SameCoordinates,Original*%
%TF.FileFunction,Soldermask,Top*%
%TF.FilePolarity,Negative*%
%FSLAX46Y46*%
G04 Gerber Fmt 4.6, Leading zero omitted, Abs format (unit mm)*
G04 Created by KiCad (PCBNEW 8.0.1) date 2024-04-28 15:40:33*
%MOMM*%
%LPD*%
G01*
G04 APERTURE LIST*
G04 Aperture macros list*
%AMRoundRect*
0 Rectangle with rounded corners*
0 $1 Rounding radius*
0 $2 $3 $4 $5 $6 $7 $8 $9 X,Y pos of 4 corners*
0 Add a 4 corners polygon primitive as box body*
4,1,4,$2,$3,$4,$5,$6,$7,$8,$9,$2,$3,0*
0 Add four circle primitives for the rounded corners*
1,1,$1+$1,$2,$3*
1,1,$1+$1,$4,$5*
1,1,$1+$1,$6,$7*
1,1,$1+$1,$8,$9*
0 Add four rect primitives between the rounded corners*
20,1,$1+$1,$2,$3,$4,$5,0*
20,1,$1+$1,$4,$5,$6,$7,0*
20,1,$1+$1,$6,$7,$8,$9,0*
20,1,$1+$1,$8,$9,$2,$3,0*%
G04 Aperture macros list end*
%ADD10C,2.000000*%
%ADD11RoundRect,0.100000X-0.100000X0.217500X-0.100000X-0.217500X0.100000X-0.217500X0.100000X0.217500X0*%
%ADD12R,1.700000X1.700000*%
%ADD13O,1.700000X1.700000*%
%ADD14RoundRect,0.150000X-0.825000X-0.150000X0.825000X-0.150000X0.825000X0.150000X-0.825000X0.150000X0*%
G04 APERTURE END LIST*
D10*
X156400000Y-128800000D03*
X64700000Y-129100000D03*
X156900000Y-27600000D03*
X63200000Y-27800000D03*
D11*
X135750000Y-114092500D03*
X135750000Y-114907500D03*
D12*
X154750000Y-117540000D03*
D13*
X154750000Y-115000000D03*
D14*
X138775000Y-114095000D03*
X138775000Y-115365000D03*
X138775000Y-116635000D03*
X138775000Y-117905000D03*
X143725000Y-117905000D03*
X143725000Y-116635000D03*
X143725000Y-115365000D03*
X143725000Y-114095000D03*
D12*
X129710000Y-114000000D03*
D13*
X132250000Y-114000000D03*
X129710000Y-116540000D03*
X132250000Y-116540000D03*
X129710000Y-119080000D03*
X132250000Y-119080000D03*
D11*
X102250000Y-114092500D03*
X102250000Y-114907500D03*
D12*
X121250000Y-117540000D03*
D13*
X121250000Y-115000000D03*
D14*
X105275000Y-114095000D03*
X105275000Y-115365000D03*
X105275000Y-116635000D03*
X105275000Y-117905000D03*
X110225000Y-117905000D03*
X110225000Y-116635000D03*
X110225000Y-115365000D03*
X110225000Y-114095000D03*
D12*
X96210000Y-114000000D03*
D13*
X98750000Y-114000000D03*
X96210000Y-116540000D03*
X98750000Y-116540000D03*
X96210000Y-119080000D03*
X98750000Y-119080000D03*
D11*
X68750000Y-114092500D03*
X68750000Y-114907500D03*
D12*
X87750000Y-117540000D03*
D13*
X87750000Y-115000000D03*
D14*
X71775000Y-114095000D03*
X71775000Y-115365000D03*
X71775000Y-116635000D03*
X71775000Y-117905000D03*
X76725000Y-117905000D03*
X76725000Y-116635000D03*
X76725000Y-115365000D03*
X76725000Y-114095000D03*
D12*
X62710000Y-114000000D03*
D13*
X65250000Y-114000000D03*
X62710000Y-116540000D03*
X65250000Y-116540000D03*
X62710000Y-119080000D03*
X65250000Y-119080000D03*
D11*
X135750000Y-98092500D03*
X135750000Y-98907500D03*
D12*
X154750000Y-101540000D03*
D13*
X154750000Y-99000000D03*
D14*
X138775000Y-98095000D03*
X138775000Y-99365000D03*
X138775000Y-100635000D03*
X138775000Y-101905000D03*
X143725000Y-101905000D03*
X143725000Y-100635000D03*
X143725000Y-99365000D03*
X143725000Y-98095000D03*
D12*
X129710000Y-98000000D03*
D13*
X132250000Y-98000000D03*
X129710000Y-100540000D03*
X132250000Y-100540000D03*
X129710000Y-103080000D03*
X132250000Y-103080000D03*
D11*
X102250000Y-98092500D03*
X102250000Y-98907500D03*
D12*
X121250000Y-101540000D03*
D13*
X121250000Y-99000000D03*
D14*
X105275000Y-98095000D03*
X105275000Y-99365000D03*
X105275000Y-100635000D03*
X105275000Y-101905000D03*
X110225000Y-101905000D03*
X110225000Y-100635000D03*
X110225000Y-99365000D03*
X110225000Y-98095000D03*
D12*
X96210000Y-98000000D03*
D13*
X98750000Y-98000000D03*
X96210000Y-100540000D03*
X98750000Y-100540000D03*
X96210000Y-103080000D03*
X98750000Y-103080000D03*
D11*
X68750000Y-98092500D03*
X68750000Y-98907500D03*
D12*
X87750000Y-101540000D03*
D13*
X87750000Y-99000000D03*
D14*
X71775000Y-98095000D03*
X71775000Y-99365000D03*
X71775000Y-100635000D03*
X71775000Y-101905000D03*
X76725000Y-101905000D03*
X76725000Y-100635000D03*
X76725000Y-99365000D03*
X76725000Y-98095000D03*
D12*
X62710000Y-98000000D03*
D13*
X65250000Y-98000000D03*
X62710000Y-100540000D03*
X65250000Y-100540000D03*
X62710000Y-103080000D03*
X65250000Y-103080000D03*
D11*
X135750000Y-82092500D03*
X135750000Y-82907500D03*
D12*
X154750000Y-85540000D03*
D13*
X154750000Y-83000000D03*
D14*
X138775000Y-82095000D03*
X138775000Y-83365000D03*
X138775000Y-84635000D03*
X138775000Y-85905000D03*
X143725000Y-85905000D03*
X143725000Y-84635000D03*
X143725000Y-83365000D03*
X143725000Y-82095000D03*
D12*
X129710000Y-82000000D03*
D13*
X132250000Y-82000000D03*
X129710000Y-84540000D03*
X132250000Y-84540000D03*
X129710000Y-87080000D03*
X132250000Y-87080000D03*
D11*
X102250000Y-82092500D03*
X102250000Y-82907500D03*
D12*
X121250000Y-85540000D03*
D13*
X121250000Y-83000000D03*
D14*
X105275000Y-82095000D03*
X105275000Y-83365000D03*
X105275000Y-84635000D03*
X105275000Y-85905000D03*
X110225000Y-85905000D03*
X110225000Y-84635000D03*
X110225000Y-83365000D03*
X110225000Y-82095000D03*
D12*
X96210000Y-82000000D03*
D13*
X98750000Y-82000000D03*
X96210000Y-84540000D03*
X98750000Y-84540000D03*
X96210000Y-87080000D03*
X98750000Y-87080000D03*
D11*
X68750000Y-82092500D03*
X68750000Y-82907500D03*
D12*
X87750000Y-85540000D03*
D13*
X87750000Y-83000000D03*
D14*
X71775000Y-82095000D03*
X71775000Y-83365000D03*
X71775000Y-84635000D03*
X71775000Y-85905000D03*
X76725000Y-85905000D03*
X76725000Y-84635000D03*
X76725000Y-83365000D03*
X76725000Y-82095000D03*
D12*
X62710000Y-82000000D03*
D13*
X65250000Y-82000000D03*
X62710000Y-84540000D03*
X65250000Y-84540000D03*
X62710000Y-87080000D03*
X65250000Y-87080000D03*
D11*
X135750000Y-66092500D03*
X135750000Y-66907500D03*
D12*
X154750000Y-69540000D03*
D13*
X154750000Y-67000000D03*
D14*
X138775000Y-66095000D03*
X138775000Y-67365000D03*
X138775000Y-68635000D03*
X138775000Y-69905000D03*
X143725000Y-69905000D03*
X143725000Y-68635000D03*
X143725000Y-67365000D03*
X143725000Y-66095000D03*
D12*
X129710000Y-66000000D03*
D13*
X132250000Y-66000000D03*
X129710000Y-68540000D03*
X132250000Y-68540000D03*
X129710000Y-71080000D03*
X132250000Y-71080000D03*
D11*
X102250000Y-66092500D03*
X102250000Y-66907500D03*
D12*
X121250000Y-69540000D03*
D13*
X121250000Y-67000000D03*
D14*
X105275000Y-66095000D03*
X105275000Y-67365000D03*
X105275000Y-68635000D03*
X105275000Y-69905000D03*
X110225000Y-69905000D03*
X110225000Y-68635000D03*
X110225000Y-67365000D03*
X110225000Y-66095000D03*
D12*
X96210000Y-66000000D03*
D13*
X98750000Y-66000000D03*
X96210000Y-68540000D03*
X98750000Y-68540000D03*
X96210000Y-71080000D03*
X98750000Y-71080000D03*
D11*
X68750000Y-66092500D03*
X68750000Y-66907500D03*
D12*
X87750000Y-69540000D03*
D13*
X87750000Y-67000000D03*
D14*
X71775000Y-66095000D03*
X71775000Y-67365000D03*
X71775000Y-68635000D03*
X71775000Y-69905000D03*
X76725000Y-69905000D03*
X76725000Y-68635000D03*
X76725000Y-67365000D03*
X76725000Y-66095000D03*
D12*
X62710000Y-66000000D03*
D13*
X65250000Y-66000000D03*
X62710000Y-68540000D03*
X65250000Y-68540000D03*
X62710000Y-71080000D03*
X65250000Y-71080000D03*
D11*
X135750000Y-50092500D03*
X135750000Y-50907500D03*
D12*
X154750000Y-53540000D03*
D13*
X154750000Y-51000000D03*
D14*
X138775000Y-50095000D03*
X138775000Y-51365000D03*
X138775000Y-52635000D03*
X138775000Y-53905000D03*
X143725000Y-53905000D03*
X143725000Y-52635000D03*
X143725000Y-51365000D03*
X143725000Y-50095000D03*
D12*
X129710000Y-50000000D03*
D13*
X132250000Y-50000000D03*
X129710000Y-52540000D03*
X132250000Y-52540000D03*
X129710000Y-55080000D03*
X132250000Y-55080000D03*
D11*
X102250000Y-50092500D03*
X102250000Y-50907500D03*
D12*
X121250000Y-53540000D03*
D13*
X121250000Y-51000000D03*
D14*
X105275000Y-50095000D03*
X105275000Y-51365000D03*
X105275000Y-52635000D03*
X105275000Y-53905000D03*
X110225000Y-53905000D03*
X110225000Y-52635000D03*
X110225000Y-51365000D03*
X110225000Y-50095000D03*
D12*
X96210000Y-50000000D03*
D13*
X98750000Y-50000000D03*
X96210000Y-52540000D03*
X98750000Y-52540000D03*
X96210000Y-55080000D03*
X98750000Y-55080000D03*
D11*
X68750000Y-50092500D03*
X68750000Y-50907500D03*
D12*
X87750000Y-53540000D03*
D13*
X87750000Y-51000000D03*
D14*
X71775000Y-50095000D03*
X71775000Y-51365000D03*
X71775000Y-52635000D03*
X71775000Y-53905000D03*
X76725000Y-53905000D03*
X76725000Y-52635000D03*
X76725000Y-51365000D03*
X76725000Y-50095000D03*
D12*
X62710000Y-50000000D03*
D13*
X65250000Y-50000000D03*
X62710000Y-52540000D03*
X65250000Y-52540000D03*
X62710000Y-55080000D03*
X65250000Y-55080000D03*
D11*
X135750000Y-34092500D03*
X135750000Y-34907500D03*
D12*
X154750000Y-37540000D03*
D13*
X154750000Y-35000000D03*
D14*
X138775000Y-34095000D03*
X138775000Y-35365000D03*
X138775000Y-36635000D03*
X138775000Y-37905000D03*
X143725000Y-37905000D03*
X143725000Y-36635000D03*
X143725000Y-35365000D03*
X143725000Y-34095000D03*
D12*
X129710000Y-34000000D03*
D13*
X132250000Y-34000000D03*
X129710000Y-36540000D03*
X132250000Y-36540000D03*
X129710000Y-39080000D03*
X132250000Y-39080000D03*
D11*
X102250000Y-34092500D03*
X102250000Y-34907500D03*
D12*
X121250000Y-37540000D03*
D13*
X121250000Y-35000000D03*
D14*
X105275000Y-34095000D03*
X105275000Y-35365000D03*
X105275000Y-36635000D03*
X105275000Y-37905000D03*
X110225000Y-37905000D03*
X110225000Y-36635000D03*
X110225000Y-35365000D03*
X110225000Y-34095000D03*
D12*
X96210000Y-34000000D03*
D13*
X98750000Y-34000000D03*
X96210000Y-36540000D03*
X98750000Y-36540000D03*
X96210000Y-39080000D03*
X98750000Y-39080000D03*
D14*
X71775000Y-34095000D03*
X71775000Y-35365000D03*
X71775000Y-36635000D03*
X71775000Y-37905000D03*
X76725000Y-37905000D03*
X76725000Y-36635000D03*
X76725000Y-35365000D03*
X76725000Y-34095000D03*
D12*
X62710000Y-34000000D03*
D13*
X65250000Y-34000000D03*
X62710000Y-36540000D03*
X65250000Y-36540000D03*
X62710000Y-39080000D03*
X65250000Y-39080000D03*
D12*
X87750000Y-37540000D03*
D13*
X87750000Y-35000000D03*
D11*
X68750000Y-34092500D03*
X68750000Y-34907500D03*
M02*
