%TF.GenerationSoftware,KiCad,Pcbnew,8.0.1*%
%TF.CreationDate,2024-04-28T15:40:34+08:00*%
%TF.ProjectId,pinban,70696e62-616e-42e6-9b69-6361645f7063,rev?*%
%TF.SameCoordinates,Original*%
%TF.FileFunction,Other,ECO2*%
%FSLAX46Y46*%
G04 Gerber Fmt 4.6, Leading zero omitted, Abs format (unit mm)*
G04 Created by KiCad (PCBNEW 8.0.1) date 2024-04-28 15:40:34*
%MOMM*%
%LPD*%
G01*
G04 APERTURE LIST*
%ADD10C,0.150000*%
%ADD11C,0.100000*%
G04 APERTURE END LIST*
D10*
X171795238Y-136188152D02*
X172033333Y-136854819D01*
X172033333Y-136854819D02*
X172271428Y-136188152D01*
X173080952Y-136807200D02*
X172985714Y-136854819D01*
X172985714Y-136854819D02*
X172795238Y-136854819D01*
X172795238Y-136854819D02*
X172700000Y-136807200D01*
X172700000Y-136807200D02*
X172652381Y-136759580D01*
X172652381Y-136759580D02*
X172604762Y-136664342D01*
X172604762Y-136664342D02*
X172604762Y-136378628D01*
X172604762Y-136378628D02*
X172652381Y-136283390D01*
X172652381Y-136283390D02*
X172700000Y-136235771D01*
X172700000Y-136235771D02*
X172795238Y-136188152D01*
X172795238Y-136188152D02*
X172985714Y-136188152D01*
X172985714Y-136188152D02*
X173080952Y-136235771D01*
X173938095Y-136188152D02*
X173938095Y-136854819D01*
X173509524Y-136188152D02*
X173509524Y-136711961D01*
X173509524Y-136711961D02*
X173557143Y-136807200D01*
X173557143Y-136807200D02*
X173652381Y-136854819D01*
X173652381Y-136854819D02*
X173795238Y-136854819D01*
X173795238Y-136854819D02*
X173890476Y-136807200D01*
X173890476Y-136807200D02*
X173938095Y-136759580D01*
X174271429Y-136188152D02*
X174652381Y-136188152D01*
X174414286Y-135854819D02*
X174414286Y-136711961D01*
X174414286Y-136711961D02*
X174461905Y-136807200D01*
X174461905Y-136807200D02*
X174557143Y-136854819D01*
X174557143Y-136854819D02*
X174652381Y-136854819D01*
D11*
X160500000Y-126500000D02*
X160500000Y-136400000D01*
X160500000Y-126500000D02*
X161086421Y-127626504D01*
X160500000Y-126500000D02*
X159913579Y-127626504D01*
X160500000Y-136400000D02*
X171027381Y-136400000D01*
X160500000Y-126500000D02*
X160500000Y-136400000D01*
X160500000Y-126500000D02*
X161086421Y-127626504D01*
X160500000Y-126500000D02*
X159913579Y-127626504D01*
X160500000Y-136400000D02*
X171027381Y-136400000D01*
D10*
X71295238Y-137088152D02*
X71533333Y-137754819D01*
X71533333Y-137754819D02*
X71771428Y-137088152D01*
X72580952Y-137707200D02*
X72485714Y-137754819D01*
X72485714Y-137754819D02*
X72295238Y-137754819D01*
X72295238Y-137754819D02*
X72200000Y-137707200D01*
X72200000Y-137707200D02*
X72152381Y-137659580D01*
X72152381Y-137659580D02*
X72104762Y-137564342D01*
X72104762Y-137564342D02*
X72104762Y-137278628D01*
X72104762Y-137278628D02*
X72152381Y-137183390D01*
X72152381Y-137183390D02*
X72200000Y-137135771D01*
X72200000Y-137135771D02*
X72295238Y-137088152D01*
X72295238Y-137088152D02*
X72485714Y-137088152D01*
X72485714Y-137088152D02*
X72580952Y-137135771D01*
X73438095Y-137088152D02*
X73438095Y-137754819D01*
X73009524Y-137088152D02*
X73009524Y-137611961D01*
X73009524Y-137611961D02*
X73057143Y-137707200D01*
X73057143Y-137707200D02*
X73152381Y-137754819D01*
X73152381Y-137754819D02*
X73295238Y-137754819D01*
X73295238Y-137754819D02*
X73390476Y-137707200D01*
X73390476Y-137707200D02*
X73438095Y-137659580D01*
X73771429Y-137088152D02*
X74152381Y-137088152D01*
X73914286Y-136754819D02*
X73914286Y-137611961D01*
X73914286Y-137611961D02*
X73961905Y-137707200D01*
X73961905Y-137707200D02*
X74057143Y-137754819D01*
X74057143Y-137754819D02*
X74152381Y-137754819D01*
D11*
X60000000Y-126500000D02*
X60000000Y-137300000D01*
X60000000Y-126500000D02*
X60586421Y-127626504D01*
X60000000Y-126500000D02*
X59413579Y-127626504D01*
X60000000Y-137300000D02*
X70527381Y-137300000D01*
X60000000Y-126500000D02*
X60000000Y-137300000D01*
X60000000Y-126500000D02*
X60586421Y-127626504D01*
X60000000Y-126500000D02*
X59413579Y-127626504D01*
X60000000Y-137300000D02*
X70527381Y-137300000D01*
D10*
X104795238Y-134688152D02*
X105033333Y-135354819D01*
X105033333Y-135354819D02*
X105271428Y-134688152D01*
X106080952Y-135307200D02*
X105985714Y-135354819D01*
X105985714Y-135354819D02*
X105795238Y-135354819D01*
X105795238Y-135354819D02*
X105700000Y-135307200D01*
X105700000Y-135307200D02*
X105652381Y-135259580D01*
X105652381Y-135259580D02*
X105604762Y-135164342D01*
X105604762Y-135164342D02*
X105604762Y-134878628D01*
X105604762Y-134878628D02*
X105652381Y-134783390D01*
X105652381Y-134783390D02*
X105700000Y-134735771D01*
X105700000Y-134735771D02*
X105795238Y-134688152D01*
X105795238Y-134688152D02*
X105985714Y-134688152D01*
X105985714Y-134688152D02*
X106080952Y-134735771D01*
X106938095Y-134688152D02*
X106938095Y-135354819D01*
X106509524Y-134688152D02*
X106509524Y-135211961D01*
X106509524Y-135211961D02*
X106557143Y-135307200D01*
X106557143Y-135307200D02*
X106652381Y-135354819D01*
X106652381Y-135354819D02*
X106795238Y-135354819D01*
X106795238Y-135354819D02*
X106890476Y-135307200D01*
X106890476Y-135307200D02*
X106938095Y-135259580D01*
X107271429Y-134688152D02*
X107652381Y-134688152D01*
X107414286Y-134354819D02*
X107414286Y-135211961D01*
X107414286Y-135211961D02*
X107461905Y-135307200D01*
X107461905Y-135307200D02*
X107557143Y-135354819D01*
X107557143Y-135354819D02*
X107652381Y-135354819D01*
D11*
X93500000Y-127500000D02*
X93500000Y-134900000D01*
X93500000Y-127500000D02*
X94086421Y-128626504D01*
X93500000Y-127500000D02*
X92913579Y-128626504D01*
X93500000Y-134900000D02*
X104027381Y-134900000D01*
X93500000Y-127500000D02*
X93500000Y-134900000D01*
X93500000Y-127500000D02*
X94086421Y-128626504D01*
X93500000Y-127500000D02*
X92913579Y-128626504D01*
X93500000Y-134900000D02*
X104027381Y-134900000D01*
D10*
X138295238Y-135888152D02*
X138533333Y-136554819D01*
X138533333Y-136554819D02*
X138771428Y-135888152D01*
X139580952Y-136507200D02*
X139485714Y-136554819D01*
X139485714Y-136554819D02*
X139295238Y-136554819D01*
X139295238Y-136554819D02*
X139200000Y-136507200D01*
X139200000Y-136507200D02*
X139152381Y-136459580D01*
X139152381Y-136459580D02*
X139104762Y-136364342D01*
X139104762Y-136364342D02*
X139104762Y-136078628D01*
X139104762Y-136078628D02*
X139152381Y-135983390D01*
X139152381Y-135983390D02*
X139200000Y-135935771D01*
X139200000Y-135935771D02*
X139295238Y-135888152D01*
X139295238Y-135888152D02*
X139485714Y-135888152D01*
X139485714Y-135888152D02*
X139580952Y-135935771D01*
X140438095Y-135888152D02*
X140438095Y-136554819D01*
X140009524Y-135888152D02*
X140009524Y-136411961D01*
X140009524Y-136411961D02*
X140057143Y-136507200D01*
X140057143Y-136507200D02*
X140152381Y-136554819D01*
X140152381Y-136554819D02*
X140295238Y-136554819D01*
X140295238Y-136554819D02*
X140390476Y-136507200D01*
X140390476Y-136507200D02*
X140438095Y-136459580D01*
X140771429Y-135888152D02*
X141152381Y-135888152D01*
X140914286Y-135554819D02*
X140914286Y-136411961D01*
X140914286Y-136411961D02*
X140961905Y-136507200D01*
X140961905Y-136507200D02*
X141057143Y-136554819D01*
X141057143Y-136554819D02*
X141152381Y-136554819D01*
D11*
X127000000Y-127600000D02*
X127000000Y-136100000D01*
X127000000Y-127600000D02*
X127586421Y-128726504D01*
X127000000Y-127600000D02*
X126413579Y-128726504D01*
X127000000Y-136100000D02*
X137527381Y-136100000D01*
X127000000Y-127600000D02*
X127000000Y-136100000D01*
X127000000Y-127600000D02*
X127586421Y-128726504D01*
X127000000Y-127600000D02*
X126413579Y-128726504D01*
X127000000Y-136100000D02*
X137527381Y-136100000D01*
D10*
X185695238Y-125788152D02*
X185933333Y-126454819D01*
X185933333Y-126454819D02*
X186171428Y-125788152D01*
X186980952Y-126407200D02*
X186885714Y-126454819D01*
X186885714Y-126454819D02*
X186695238Y-126454819D01*
X186695238Y-126454819D02*
X186600000Y-126407200D01*
X186600000Y-126407200D02*
X186552381Y-126359580D01*
X186552381Y-126359580D02*
X186504762Y-126264342D01*
X186504762Y-126264342D02*
X186504762Y-125978628D01*
X186504762Y-125978628D02*
X186552381Y-125883390D01*
X186552381Y-125883390D02*
X186600000Y-125835771D01*
X186600000Y-125835771D02*
X186695238Y-125788152D01*
X186695238Y-125788152D02*
X186885714Y-125788152D01*
X186885714Y-125788152D02*
X186980952Y-125835771D01*
X187838095Y-125788152D02*
X187838095Y-126454819D01*
X187409524Y-125788152D02*
X187409524Y-126311961D01*
X187409524Y-126311961D02*
X187457143Y-126407200D01*
X187457143Y-126407200D02*
X187552381Y-126454819D01*
X187552381Y-126454819D02*
X187695238Y-126454819D01*
X187695238Y-126454819D02*
X187790476Y-126407200D01*
X187790476Y-126407200D02*
X187838095Y-126359580D01*
X188171429Y-125788152D02*
X188552381Y-125788152D01*
X188314286Y-125454819D02*
X188314286Y-126311961D01*
X188314286Y-126311961D02*
X188361905Y-126407200D01*
X188361905Y-126407200D02*
X188457143Y-126454819D01*
X188457143Y-126454819D02*
X188552381Y-126454819D01*
D11*
X163500000Y-126000000D02*
X174400000Y-126000000D01*
X163500000Y-126000000D02*
X164626504Y-125413579D01*
X163500000Y-126000000D02*
X164626504Y-126586421D01*
X174400000Y-126000000D02*
X184927381Y-126000000D01*
X163500000Y-126000000D02*
X174400000Y-126000000D01*
X163500000Y-126000000D02*
X164626504Y-125413579D01*
X163500000Y-126000000D02*
X164626504Y-126586421D01*
X174400000Y-126000000D02*
X184927381Y-126000000D01*
D10*
X179295238Y-109788152D02*
X179533333Y-110454819D01*
X179533333Y-110454819D02*
X179771428Y-109788152D01*
X180580952Y-110407200D02*
X180485714Y-110454819D01*
X180485714Y-110454819D02*
X180295238Y-110454819D01*
X180295238Y-110454819D02*
X180200000Y-110407200D01*
X180200000Y-110407200D02*
X180152381Y-110359580D01*
X180152381Y-110359580D02*
X180104762Y-110264342D01*
X180104762Y-110264342D02*
X180104762Y-109978628D01*
X180104762Y-109978628D02*
X180152381Y-109883390D01*
X180152381Y-109883390D02*
X180200000Y-109835771D01*
X180200000Y-109835771D02*
X180295238Y-109788152D01*
X180295238Y-109788152D02*
X180485714Y-109788152D01*
X180485714Y-109788152D02*
X180580952Y-109835771D01*
X181438095Y-109788152D02*
X181438095Y-110454819D01*
X181009524Y-109788152D02*
X181009524Y-110311961D01*
X181009524Y-110311961D02*
X181057143Y-110407200D01*
X181057143Y-110407200D02*
X181152381Y-110454819D01*
X181152381Y-110454819D02*
X181295238Y-110454819D01*
X181295238Y-110454819D02*
X181390476Y-110407200D01*
X181390476Y-110407200D02*
X181438095Y-110359580D01*
X181771429Y-109788152D02*
X182152381Y-109788152D01*
X181914286Y-109454819D02*
X181914286Y-110311961D01*
X181914286Y-110311961D02*
X181961905Y-110407200D01*
X181961905Y-110407200D02*
X182057143Y-110454819D01*
X182057143Y-110454819D02*
X182152381Y-110454819D01*
D11*
X163500000Y-110000000D02*
X168000000Y-110000000D01*
X163500000Y-110000000D02*
X164626504Y-109413579D01*
X163500000Y-110000000D02*
X164626504Y-110586421D01*
X168000000Y-110000000D02*
X178527381Y-110000000D01*
X163500000Y-110000000D02*
X168000000Y-110000000D01*
X163500000Y-110000000D02*
X164626504Y-109413579D01*
X163500000Y-110000000D02*
X164626504Y-110586421D01*
X168000000Y-110000000D02*
X178527381Y-110000000D01*
D10*
X187595238Y-93688152D02*
X187833333Y-94354819D01*
X187833333Y-94354819D02*
X188071428Y-93688152D01*
X188880952Y-94307200D02*
X188785714Y-94354819D01*
X188785714Y-94354819D02*
X188595238Y-94354819D01*
X188595238Y-94354819D02*
X188500000Y-94307200D01*
X188500000Y-94307200D02*
X188452381Y-94259580D01*
X188452381Y-94259580D02*
X188404762Y-94164342D01*
X188404762Y-94164342D02*
X188404762Y-93878628D01*
X188404762Y-93878628D02*
X188452381Y-93783390D01*
X188452381Y-93783390D02*
X188500000Y-93735771D01*
X188500000Y-93735771D02*
X188595238Y-93688152D01*
X188595238Y-93688152D02*
X188785714Y-93688152D01*
X188785714Y-93688152D02*
X188880952Y-93735771D01*
X189738095Y-93688152D02*
X189738095Y-94354819D01*
X189309524Y-93688152D02*
X189309524Y-94211961D01*
X189309524Y-94211961D02*
X189357143Y-94307200D01*
X189357143Y-94307200D02*
X189452381Y-94354819D01*
X189452381Y-94354819D02*
X189595238Y-94354819D01*
X189595238Y-94354819D02*
X189690476Y-94307200D01*
X189690476Y-94307200D02*
X189738095Y-94259580D01*
X190071429Y-93688152D02*
X190452381Y-93688152D01*
X190214286Y-93354819D02*
X190214286Y-94211961D01*
X190214286Y-94211961D02*
X190261905Y-94307200D01*
X190261905Y-94307200D02*
X190357143Y-94354819D01*
X190357143Y-94354819D02*
X190452381Y-94354819D01*
D11*
X163400000Y-93900000D02*
X176300000Y-93900000D01*
X163400000Y-93900000D02*
X164526504Y-93313579D01*
X163400000Y-93900000D02*
X164526504Y-94486421D01*
X176300000Y-93900000D02*
X186827381Y-93900000D01*
X163400000Y-93900000D02*
X176300000Y-93900000D01*
X163400000Y-93900000D02*
X164526504Y-93313579D01*
X163400000Y-93900000D02*
X164526504Y-94486421D01*
X176300000Y-93900000D02*
X186827381Y-93900000D01*
D10*
X183195238Y-77788152D02*
X183433333Y-78454819D01*
X183433333Y-78454819D02*
X183671428Y-77788152D01*
X184480952Y-78407200D02*
X184385714Y-78454819D01*
X184385714Y-78454819D02*
X184195238Y-78454819D01*
X184195238Y-78454819D02*
X184100000Y-78407200D01*
X184100000Y-78407200D02*
X184052381Y-78359580D01*
X184052381Y-78359580D02*
X184004762Y-78264342D01*
X184004762Y-78264342D02*
X184004762Y-77978628D01*
X184004762Y-77978628D02*
X184052381Y-77883390D01*
X184052381Y-77883390D02*
X184100000Y-77835771D01*
X184100000Y-77835771D02*
X184195238Y-77788152D01*
X184195238Y-77788152D02*
X184385714Y-77788152D01*
X184385714Y-77788152D02*
X184480952Y-77835771D01*
X185338095Y-77788152D02*
X185338095Y-78454819D01*
X184909524Y-77788152D02*
X184909524Y-78311961D01*
X184909524Y-78311961D02*
X184957143Y-78407200D01*
X184957143Y-78407200D02*
X185052381Y-78454819D01*
X185052381Y-78454819D02*
X185195238Y-78454819D01*
X185195238Y-78454819D02*
X185290476Y-78407200D01*
X185290476Y-78407200D02*
X185338095Y-78359580D01*
X185671429Y-77788152D02*
X186052381Y-77788152D01*
X185814286Y-77454819D02*
X185814286Y-78311961D01*
X185814286Y-78311961D02*
X185861905Y-78407200D01*
X185861905Y-78407200D02*
X185957143Y-78454819D01*
X185957143Y-78454819D02*
X186052381Y-78454819D01*
D11*
X163500000Y-78000000D02*
X171900000Y-78000000D01*
X163500000Y-78000000D02*
X164626504Y-77413579D01*
X163500000Y-78000000D02*
X164626504Y-78586421D01*
X171900000Y-78000000D02*
X182427381Y-78000000D01*
X163500000Y-78000000D02*
X171900000Y-78000000D01*
X163500000Y-78000000D02*
X164626504Y-77413579D01*
X163500000Y-78000000D02*
X164626504Y-78586421D01*
X171900000Y-78000000D02*
X182427381Y-78000000D01*
D10*
X181695238Y-61788152D02*
X181933333Y-62454819D01*
X181933333Y-62454819D02*
X182171428Y-61788152D01*
X182980952Y-62407200D02*
X182885714Y-62454819D01*
X182885714Y-62454819D02*
X182695238Y-62454819D01*
X182695238Y-62454819D02*
X182600000Y-62407200D01*
X182600000Y-62407200D02*
X182552381Y-62359580D01*
X182552381Y-62359580D02*
X182504762Y-62264342D01*
X182504762Y-62264342D02*
X182504762Y-61978628D01*
X182504762Y-61978628D02*
X182552381Y-61883390D01*
X182552381Y-61883390D02*
X182600000Y-61835771D01*
X182600000Y-61835771D02*
X182695238Y-61788152D01*
X182695238Y-61788152D02*
X182885714Y-61788152D01*
X182885714Y-61788152D02*
X182980952Y-61835771D01*
X183838095Y-61788152D02*
X183838095Y-62454819D01*
X183409524Y-61788152D02*
X183409524Y-62311961D01*
X183409524Y-62311961D02*
X183457143Y-62407200D01*
X183457143Y-62407200D02*
X183552381Y-62454819D01*
X183552381Y-62454819D02*
X183695238Y-62454819D01*
X183695238Y-62454819D02*
X183790476Y-62407200D01*
X183790476Y-62407200D02*
X183838095Y-62359580D01*
X184171429Y-61788152D02*
X184552381Y-61788152D01*
X184314286Y-61454819D02*
X184314286Y-62311961D01*
X184314286Y-62311961D02*
X184361905Y-62407200D01*
X184361905Y-62407200D02*
X184457143Y-62454819D01*
X184457143Y-62454819D02*
X184552381Y-62454819D01*
D11*
X163500000Y-62000000D02*
X170400000Y-62000000D01*
X163500000Y-62000000D02*
X164626504Y-61413579D01*
X163500000Y-62000000D02*
X164626504Y-62586421D01*
X170400000Y-62000000D02*
X180927381Y-62000000D01*
X163500000Y-62000000D02*
X170400000Y-62000000D01*
X163500000Y-62000000D02*
X164626504Y-61413579D01*
X163500000Y-62000000D02*
X164626504Y-62586421D01*
X170400000Y-62000000D02*
X180927381Y-62000000D01*
D10*
X185795238Y-45788152D02*
X186033333Y-46454819D01*
X186033333Y-46454819D02*
X186271428Y-45788152D01*
X187080952Y-46407200D02*
X186985714Y-46454819D01*
X186985714Y-46454819D02*
X186795238Y-46454819D01*
X186795238Y-46454819D02*
X186700000Y-46407200D01*
X186700000Y-46407200D02*
X186652381Y-46359580D01*
X186652381Y-46359580D02*
X186604762Y-46264342D01*
X186604762Y-46264342D02*
X186604762Y-45978628D01*
X186604762Y-45978628D02*
X186652381Y-45883390D01*
X186652381Y-45883390D02*
X186700000Y-45835771D01*
X186700000Y-45835771D02*
X186795238Y-45788152D01*
X186795238Y-45788152D02*
X186985714Y-45788152D01*
X186985714Y-45788152D02*
X187080952Y-45835771D01*
X187938095Y-45788152D02*
X187938095Y-46454819D01*
X187509524Y-45788152D02*
X187509524Y-46311961D01*
X187509524Y-46311961D02*
X187557143Y-46407200D01*
X187557143Y-46407200D02*
X187652381Y-46454819D01*
X187652381Y-46454819D02*
X187795238Y-46454819D01*
X187795238Y-46454819D02*
X187890476Y-46407200D01*
X187890476Y-46407200D02*
X187938095Y-46359580D01*
X188271429Y-45788152D02*
X188652381Y-45788152D01*
X188414286Y-45454819D02*
X188414286Y-46311961D01*
X188414286Y-46311961D02*
X188461905Y-46407200D01*
X188461905Y-46407200D02*
X188557143Y-46454819D01*
X188557143Y-46454819D02*
X188652381Y-46454819D01*
D11*
X162600000Y-46000000D02*
X174500000Y-46000000D01*
X162600000Y-46000000D02*
X163726504Y-45413579D01*
X162600000Y-46000000D02*
X163726504Y-46586421D01*
X174500000Y-46000000D02*
X185027381Y-46000000D01*
X162600000Y-46000000D02*
X174500000Y-46000000D01*
X162600000Y-46000000D02*
X163726504Y-45413579D01*
X162600000Y-46000000D02*
X163726504Y-46586421D01*
X174500000Y-46000000D02*
X185027381Y-46000000D01*
D10*
X181195238Y-29788152D02*
X181433333Y-30454819D01*
X181433333Y-30454819D02*
X181671428Y-29788152D01*
X182480952Y-30407200D02*
X182385714Y-30454819D01*
X182385714Y-30454819D02*
X182195238Y-30454819D01*
X182195238Y-30454819D02*
X182100000Y-30407200D01*
X182100000Y-30407200D02*
X182052381Y-30359580D01*
X182052381Y-30359580D02*
X182004762Y-30264342D01*
X182004762Y-30264342D02*
X182004762Y-29978628D01*
X182004762Y-29978628D02*
X182052381Y-29883390D01*
X182052381Y-29883390D02*
X182100000Y-29835771D01*
X182100000Y-29835771D02*
X182195238Y-29788152D01*
X182195238Y-29788152D02*
X182385714Y-29788152D01*
X182385714Y-29788152D02*
X182480952Y-29835771D01*
X183338095Y-29788152D02*
X183338095Y-30454819D01*
X182909524Y-29788152D02*
X182909524Y-30311961D01*
X182909524Y-30311961D02*
X182957143Y-30407200D01*
X182957143Y-30407200D02*
X183052381Y-30454819D01*
X183052381Y-30454819D02*
X183195238Y-30454819D01*
X183195238Y-30454819D02*
X183290476Y-30407200D01*
X183290476Y-30407200D02*
X183338095Y-30359580D01*
X183671429Y-29788152D02*
X184052381Y-29788152D01*
X183814286Y-29454819D02*
X183814286Y-30311961D01*
X183814286Y-30311961D02*
X183861905Y-30407200D01*
X183861905Y-30407200D02*
X183957143Y-30454819D01*
X183957143Y-30454819D02*
X184052381Y-30454819D01*
D11*
X162500000Y-30000000D02*
X169900000Y-30000000D01*
X162500000Y-30000000D02*
X163626504Y-29413579D01*
X162500000Y-30000000D02*
X163626504Y-30586421D01*
X169900000Y-30000000D02*
X180427381Y-30000000D01*
X162500000Y-30000000D02*
X169900000Y-30000000D01*
X162500000Y-30000000D02*
X163626504Y-29413579D01*
X162500000Y-30000000D02*
X163626504Y-30586421D01*
X169900000Y-30000000D02*
X180427381Y-30000000D01*
D10*
X181504819Y-49621428D02*
X181504819Y-50192856D01*
X181504819Y-49907142D02*
X180504819Y-49907142D01*
X180504819Y-49907142D02*
X180647676Y-50002380D01*
X180647676Y-50002380D02*
X180742914Y-50097618D01*
X180742914Y-50097618D02*
X180790533Y-50192856D01*
X181409580Y-49192856D02*
X181457200Y-49145237D01*
X181457200Y-49145237D02*
X181504819Y-49192856D01*
X181504819Y-49192856D02*
X181457200Y-49240475D01*
X181457200Y-49240475D02*
X181409580Y-49192856D01*
X181409580Y-49192856D02*
X181504819Y-49192856D01*
X181504819Y-48669047D02*
X181504819Y-48478571D01*
X181504819Y-48478571D02*
X181457200Y-48383333D01*
X181457200Y-48383333D02*
X181409580Y-48335714D01*
X181409580Y-48335714D02*
X181266723Y-48240476D01*
X181266723Y-48240476D02*
X181076247Y-48192857D01*
X181076247Y-48192857D02*
X180695295Y-48192857D01*
X180695295Y-48192857D02*
X180600057Y-48240476D01*
X180600057Y-48240476D02*
X180552438Y-48288095D01*
X180552438Y-48288095D02*
X180504819Y-48383333D01*
X180504819Y-48383333D02*
X180504819Y-48573809D01*
X180504819Y-48573809D02*
X180552438Y-48669047D01*
X180552438Y-48669047D02*
X180600057Y-48716666D01*
X180600057Y-48716666D02*
X180695295Y-48764285D01*
X180695295Y-48764285D02*
X180933390Y-48764285D01*
X180933390Y-48764285D02*
X181028628Y-48716666D01*
X181028628Y-48716666D02*
X181076247Y-48669047D01*
X181076247Y-48669047D02*
X181123866Y-48573809D01*
X181123866Y-48573809D02*
X181123866Y-48383333D01*
X181123866Y-48383333D02*
X181076247Y-48288095D01*
X181076247Y-48288095D02*
X181028628Y-48240476D01*
X181028628Y-48240476D02*
X180933390Y-48192857D01*
X180504819Y-47573809D02*
X180504819Y-47478571D01*
X180504819Y-47478571D02*
X180552438Y-47383333D01*
X180552438Y-47383333D02*
X180600057Y-47335714D01*
X180600057Y-47335714D02*
X180695295Y-47288095D01*
X180695295Y-47288095D02*
X180885771Y-47240476D01*
X180885771Y-47240476D02*
X181123866Y-47240476D01*
X181123866Y-47240476D02*
X181314342Y-47288095D01*
X181314342Y-47288095D02*
X181409580Y-47335714D01*
X181409580Y-47335714D02*
X181457200Y-47383333D01*
X181457200Y-47383333D02*
X181504819Y-47478571D01*
X181504819Y-47478571D02*
X181504819Y-47573809D01*
X181504819Y-47573809D02*
X181457200Y-47669047D01*
X181457200Y-47669047D02*
X181409580Y-47716666D01*
X181409580Y-47716666D02*
X181314342Y-47764285D01*
X181314342Y-47764285D02*
X181123866Y-47811904D01*
X181123866Y-47811904D02*
X180885771Y-47811904D01*
X180885771Y-47811904D02*
X180695295Y-47764285D01*
X180695295Y-47764285D02*
X180600057Y-47716666D01*
X180600057Y-47716666D02*
X180552438Y-47669047D01*
X180552438Y-47669047D02*
X180504819Y-47573809D01*
X180504819Y-46621428D02*
X180504819Y-46526190D01*
X180504819Y-46526190D02*
X180552438Y-46430952D01*
X180552438Y-46430952D02*
X180600057Y-46383333D01*
X180600057Y-46383333D02*
X180695295Y-46335714D01*
X180695295Y-46335714D02*
X180885771Y-46288095D01*
X180885771Y-46288095D02*
X181123866Y-46288095D01*
X181123866Y-46288095D02*
X181314342Y-46335714D01*
X181314342Y-46335714D02*
X181409580Y-46383333D01*
X181409580Y-46383333D02*
X181457200Y-46430952D01*
X181457200Y-46430952D02*
X181504819Y-46526190D01*
X181504819Y-46526190D02*
X181504819Y-46621428D01*
X181504819Y-46621428D02*
X181457200Y-46716666D01*
X181457200Y-46716666D02*
X181409580Y-46764285D01*
X181409580Y-46764285D02*
X181314342Y-46811904D01*
X181314342Y-46811904D02*
X181123866Y-46859523D01*
X181123866Y-46859523D02*
X180885771Y-46859523D01*
X180885771Y-46859523D02*
X180695295Y-46811904D01*
X180695295Y-46811904D02*
X180600057Y-46764285D01*
X180600057Y-46764285D02*
X180552438Y-46716666D01*
X180552438Y-46716666D02*
X180504819Y-46621428D01*
X180504819Y-45669047D02*
X180504819Y-45573809D01*
X180504819Y-45573809D02*
X180552438Y-45478571D01*
X180552438Y-45478571D02*
X180600057Y-45430952D01*
X180600057Y-45430952D02*
X180695295Y-45383333D01*
X180695295Y-45383333D02*
X180885771Y-45335714D01*
X180885771Y-45335714D02*
X181123866Y-45335714D01*
X181123866Y-45335714D02*
X181314342Y-45383333D01*
X181314342Y-45383333D02*
X181409580Y-45430952D01*
X181409580Y-45430952D02*
X181457200Y-45478571D01*
X181457200Y-45478571D02*
X181504819Y-45573809D01*
X181504819Y-45573809D02*
X181504819Y-45669047D01*
X181504819Y-45669047D02*
X181457200Y-45764285D01*
X181457200Y-45764285D02*
X181409580Y-45811904D01*
X181409580Y-45811904D02*
X181314342Y-45859523D01*
X181314342Y-45859523D02*
X181123866Y-45907142D01*
X181123866Y-45907142D02*
X180885771Y-45907142D01*
X180885771Y-45907142D02*
X180695295Y-45859523D01*
X180695295Y-45859523D02*
X180600057Y-45811904D01*
X180600057Y-45811904D02*
X180552438Y-45764285D01*
X180552438Y-45764285D02*
X180504819Y-45669047D01*
X181504819Y-44145237D02*
X180838152Y-44145237D01*
X180933390Y-44145237D02*
X180885771Y-44097618D01*
X180885771Y-44097618D02*
X180838152Y-44002380D01*
X180838152Y-44002380D02*
X180838152Y-43859523D01*
X180838152Y-43859523D02*
X180885771Y-43764285D01*
X180885771Y-43764285D02*
X180981009Y-43716666D01*
X180981009Y-43716666D02*
X181504819Y-43716666D01*
X180981009Y-43716666D02*
X180885771Y-43669047D01*
X180885771Y-43669047D02*
X180838152Y-43573809D01*
X180838152Y-43573809D02*
X180838152Y-43430952D01*
X180838152Y-43430952D02*
X180885771Y-43335713D01*
X180885771Y-43335713D02*
X180981009Y-43288094D01*
X180981009Y-43288094D02*
X181504819Y-43288094D01*
X181504819Y-42811904D02*
X180838152Y-42811904D01*
X180933390Y-42811904D02*
X180885771Y-42764285D01*
X180885771Y-42764285D02*
X180838152Y-42669047D01*
X180838152Y-42669047D02*
X180838152Y-42526190D01*
X180838152Y-42526190D02*
X180885771Y-42430952D01*
X180885771Y-42430952D02*
X180981009Y-42383333D01*
X180981009Y-42383333D02*
X181504819Y-42383333D01*
X180981009Y-42383333D02*
X180885771Y-42335714D01*
X180885771Y-42335714D02*
X180838152Y-42240476D01*
X180838152Y-42240476D02*
X180838152Y-42097619D01*
X180838152Y-42097619D02*
X180885771Y-42002380D01*
X180885771Y-42002380D02*
X180981009Y-41954761D01*
X180981009Y-41954761D02*
X181504819Y-41954761D01*
D11*
X159300000Y-45100000D02*
X182786420Y-45100000D01*
X159300000Y-47000000D02*
X182786420Y-47000000D01*
X182200000Y-45100000D02*
X182200000Y-47000000D01*
X182200000Y-45100000D02*
X182200000Y-47000000D01*
X182200000Y-45100000D02*
X182786421Y-46226504D01*
X182200000Y-45100000D02*
X181613579Y-46226504D01*
X182200000Y-47000000D02*
X181613579Y-45873496D01*
X182200000Y-47000000D02*
X182786421Y-45873496D01*
D10*
X49304819Y-42047618D02*
X49304819Y-42619046D01*
X49304819Y-42333332D02*
X48304819Y-42333332D01*
X48304819Y-42333332D02*
X48447676Y-42428570D01*
X48447676Y-42428570D02*
X48542914Y-42523808D01*
X48542914Y-42523808D02*
X48590533Y-42619046D01*
X48304819Y-41190475D02*
X48304819Y-41380951D01*
X48304819Y-41380951D02*
X48352438Y-41476189D01*
X48352438Y-41476189D02*
X48400057Y-41523808D01*
X48400057Y-41523808D02*
X48542914Y-41619046D01*
X48542914Y-41619046D02*
X48733390Y-41666665D01*
X48733390Y-41666665D02*
X49114342Y-41666665D01*
X49114342Y-41666665D02*
X49209580Y-41619046D01*
X49209580Y-41619046D02*
X49257200Y-41571427D01*
X49257200Y-41571427D02*
X49304819Y-41476189D01*
X49304819Y-41476189D02*
X49304819Y-41285713D01*
X49304819Y-41285713D02*
X49257200Y-41190475D01*
X49257200Y-41190475D02*
X49209580Y-41142856D01*
X49209580Y-41142856D02*
X49114342Y-41095237D01*
X49114342Y-41095237D02*
X48876247Y-41095237D01*
X48876247Y-41095237D02*
X48781009Y-41142856D01*
X48781009Y-41142856D02*
X48733390Y-41190475D01*
X48733390Y-41190475D02*
X48685771Y-41285713D01*
X48685771Y-41285713D02*
X48685771Y-41476189D01*
X48685771Y-41476189D02*
X48733390Y-41571427D01*
X48733390Y-41571427D02*
X48781009Y-41619046D01*
X48781009Y-41619046D02*
X48876247Y-41666665D01*
X49209580Y-40666665D02*
X49257200Y-40619046D01*
X49257200Y-40619046D02*
X49304819Y-40666665D01*
X49304819Y-40666665D02*
X49257200Y-40714284D01*
X49257200Y-40714284D02*
X49209580Y-40666665D01*
X49209580Y-40666665D02*
X49304819Y-40666665D01*
X48304819Y-39999999D02*
X48304819Y-39904761D01*
X48304819Y-39904761D02*
X48352438Y-39809523D01*
X48352438Y-39809523D02*
X48400057Y-39761904D01*
X48400057Y-39761904D02*
X48495295Y-39714285D01*
X48495295Y-39714285D02*
X48685771Y-39666666D01*
X48685771Y-39666666D02*
X48923866Y-39666666D01*
X48923866Y-39666666D02*
X49114342Y-39714285D01*
X49114342Y-39714285D02*
X49209580Y-39761904D01*
X49209580Y-39761904D02*
X49257200Y-39809523D01*
X49257200Y-39809523D02*
X49304819Y-39904761D01*
X49304819Y-39904761D02*
X49304819Y-39999999D01*
X49304819Y-39999999D02*
X49257200Y-40095237D01*
X49257200Y-40095237D02*
X49209580Y-40142856D01*
X49209580Y-40142856D02*
X49114342Y-40190475D01*
X49114342Y-40190475D02*
X48923866Y-40238094D01*
X48923866Y-40238094D02*
X48685771Y-40238094D01*
X48685771Y-40238094D02*
X48495295Y-40190475D01*
X48495295Y-40190475D02*
X48400057Y-40142856D01*
X48400057Y-40142856D02*
X48352438Y-40095237D01*
X48352438Y-40095237D02*
X48304819Y-39999999D01*
X48304819Y-39047618D02*
X48304819Y-38952380D01*
X48304819Y-38952380D02*
X48352438Y-38857142D01*
X48352438Y-38857142D02*
X48400057Y-38809523D01*
X48400057Y-38809523D02*
X48495295Y-38761904D01*
X48495295Y-38761904D02*
X48685771Y-38714285D01*
X48685771Y-38714285D02*
X48923866Y-38714285D01*
X48923866Y-38714285D02*
X49114342Y-38761904D01*
X49114342Y-38761904D02*
X49209580Y-38809523D01*
X49209580Y-38809523D02*
X49257200Y-38857142D01*
X49257200Y-38857142D02*
X49304819Y-38952380D01*
X49304819Y-38952380D02*
X49304819Y-39047618D01*
X49304819Y-39047618D02*
X49257200Y-39142856D01*
X49257200Y-39142856D02*
X49209580Y-39190475D01*
X49209580Y-39190475D02*
X49114342Y-39238094D01*
X49114342Y-39238094D02*
X48923866Y-39285713D01*
X48923866Y-39285713D02*
X48685771Y-39285713D01*
X48685771Y-39285713D02*
X48495295Y-39238094D01*
X48495295Y-39238094D02*
X48400057Y-39190475D01*
X48400057Y-39190475D02*
X48352438Y-39142856D01*
X48352438Y-39142856D02*
X48304819Y-39047618D01*
X48304819Y-38095237D02*
X48304819Y-37999999D01*
X48304819Y-37999999D02*
X48352438Y-37904761D01*
X48352438Y-37904761D02*
X48400057Y-37857142D01*
X48400057Y-37857142D02*
X48495295Y-37809523D01*
X48495295Y-37809523D02*
X48685771Y-37761904D01*
X48685771Y-37761904D02*
X48923866Y-37761904D01*
X48923866Y-37761904D02*
X49114342Y-37809523D01*
X49114342Y-37809523D02*
X49209580Y-37857142D01*
X49209580Y-37857142D02*
X49257200Y-37904761D01*
X49257200Y-37904761D02*
X49304819Y-37999999D01*
X49304819Y-37999999D02*
X49304819Y-38095237D01*
X49304819Y-38095237D02*
X49257200Y-38190475D01*
X49257200Y-38190475D02*
X49209580Y-38238094D01*
X49209580Y-38238094D02*
X49114342Y-38285713D01*
X49114342Y-38285713D02*
X48923866Y-38333332D01*
X48923866Y-38333332D02*
X48685771Y-38333332D01*
X48685771Y-38333332D02*
X48495295Y-38285713D01*
X48495295Y-38285713D02*
X48400057Y-38238094D01*
X48400057Y-38238094D02*
X48352438Y-38190475D01*
X48352438Y-38190475D02*
X48304819Y-38095237D01*
X48304819Y-37142856D02*
X48304819Y-37047618D01*
X48304819Y-37047618D02*
X48352438Y-36952380D01*
X48352438Y-36952380D02*
X48400057Y-36904761D01*
X48400057Y-36904761D02*
X48495295Y-36857142D01*
X48495295Y-36857142D02*
X48685771Y-36809523D01*
X48685771Y-36809523D02*
X48923866Y-36809523D01*
X48923866Y-36809523D02*
X49114342Y-36857142D01*
X49114342Y-36857142D02*
X49209580Y-36904761D01*
X49209580Y-36904761D02*
X49257200Y-36952380D01*
X49257200Y-36952380D02*
X49304819Y-37047618D01*
X49304819Y-37047618D02*
X49304819Y-37142856D01*
X49304819Y-37142856D02*
X49257200Y-37238094D01*
X49257200Y-37238094D02*
X49209580Y-37285713D01*
X49209580Y-37285713D02*
X49114342Y-37333332D01*
X49114342Y-37333332D02*
X48923866Y-37380951D01*
X48923866Y-37380951D02*
X48685771Y-37380951D01*
X48685771Y-37380951D02*
X48495295Y-37333332D01*
X48495295Y-37333332D02*
X48400057Y-37285713D01*
X48400057Y-37285713D02*
X48352438Y-37238094D01*
X48352438Y-37238094D02*
X48304819Y-37142856D01*
X49304819Y-35619046D02*
X48638152Y-35619046D01*
X48733390Y-35619046D02*
X48685771Y-35571427D01*
X48685771Y-35571427D02*
X48638152Y-35476189D01*
X48638152Y-35476189D02*
X48638152Y-35333332D01*
X48638152Y-35333332D02*
X48685771Y-35238094D01*
X48685771Y-35238094D02*
X48781009Y-35190475D01*
X48781009Y-35190475D02*
X49304819Y-35190475D01*
X48781009Y-35190475D02*
X48685771Y-35142856D01*
X48685771Y-35142856D02*
X48638152Y-35047618D01*
X48638152Y-35047618D02*
X48638152Y-34904761D01*
X48638152Y-34904761D02*
X48685771Y-34809522D01*
X48685771Y-34809522D02*
X48781009Y-34761903D01*
X48781009Y-34761903D02*
X49304819Y-34761903D01*
X49304819Y-34285713D02*
X48638152Y-34285713D01*
X48733390Y-34285713D02*
X48685771Y-34238094D01*
X48685771Y-34238094D02*
X48638152Y-34142856D01*
X48638152Y-34142856D02*
X48638152Y-33999999D01*
X48638152Y-33999999D02*
X48685771Y-33904761D01*
X48685771Y-33904761D02*
X48781009Y-33857142D01*
X48781009Y-33857142D02*
X49304819Y-33857142D01*
X48781009Y-33857142D02*
X48685771Y-33809523D01*
X48685771Y-33809523D02*
X48638152Y-33714285D01*
X48638152Y-33714285D02*
X48638152Y-33571428D01*
X48638152Y-33571428D02*
X48685771Y-33476189D01*
X48685771Y-33476189D02*
X48781009Y-33428570D01*
X48781009Y-33428570D02*
X49304819Y-33428570D01*
D11*
X59500000Y-30000000D02*
X49413580Y-30000000D01*
X59500000Y-46000000D02*
X49413580Y-46000000D01*
X50000000Y-30000000D02*
X50000000Y-46000000D01*
X50000000Y-30000000D02*
X50000000Y-46000000D01*
X50000000Y-30000000D02*
X50586421Y-31126504D01*
X50000000Y-30000000D02*
X49413579Y-31126504D01*
X50000000Y-46000000D02*
X49413579Y-44873496D01*
X50000000Y-46000000D02*
X50586421Y-44873496D01*
D10*
X72083334Y-18304819D02*
X72702381Y-18304819D01*
X72702381Y-18304819D02*
X72369048Y-18685771D01*
X72369048Y-18685771D02*
X72511905Y-18685771D01*
X72511905Y-18685771D02*
X72607143Y-18733390D01*
X72607143Y-18733390D02*
X72654762Y-18781009D01*
X72654762Y-18781009D02*
X72702381Y-18876247D01*
X72702381Y-18876247D02*
X72702381Y-19114342D01*
X72702381Y-19114342D02*
X72654762Y-19209580D01*
X72654762Y-19209580D02*
X72607143Y-19257200D01*
X72607143Y-19257200D02*
X72511905Y-19304819D01*
X72511905Y-19304819D02*
X72226191Y-19304819D01*
X72226191Y-19304819D02*
X72130953Y-19257200D01*
X72130953Y-19257200D02*
X72083334Y-19209580D01*
X73035715Y-18304819D02*
X73654762Y-18304819D01*
X73654762Y-18304819D02*
X73321429Y-18685771D01*
X73321429Y-18685771D02*
X73464286Y-18685771D01*
X73464286Y-18685771D02*
X73559524Y-18733390D01*
X73559524Y-18733390D02*
X73607143Y-18781009D01*
X73607143Y-18781009D02*
X73654762Y-18876247D01*
X73654762Y-18876247D02*
X73654762Y-19114342D01*
X73654762Y-19114342D02*
X73607143Y-19209580D01*
X73607143Y-19209580D02*
X73559524Y-19257200D01*
X73559524Y-19257200D02*
X73464286Y-19304819D01*
X73464286Y-19304819D02*
X73178572Y-19304819D01*
X73178572Y-19304819D02*
X73083334Y-19257200D01*
X73083334Y-19257200D02*
X73035715Y-19209580D01*
X74083334Y-19209580D02*
X74130953Y-19257200D01*
X74130953Y-19257200D02*
X74083334Y-19304819D01*
X74083334Y-19304819D02*
X74035715Y-19257200D01*
X74035715Y-19257200D02*
X74083334Y-19209580D01*
X74083334Y-19209580D02*
X74083334Y-19304819D01*
X75035714Y-18304819D02*
X74559524Y-18304819D01*
X74559524Y-18304819D02*
X74511905Y-18781009D01*
X74511905Y-18781009D02*
X74559524Y-18733390D01*
X74559524Y-18733390D02*
X74654762Y-18685771D01*
X74654762Y-18685771D02*
X74892857Y-18685771D01*
X74892857Y-18685771D02*
X74988095Y-18733390D01*
X74988095Y-18733390D02*
X75035714Y-18781009D01*
X75035714Y-18781009D02*
X75083333Y-18876247D01*
X75083333Y-18876247D02*
X75083333Y-19114342D01*
X75083333Y-19114342D02*
X75035714Y-19209580D01*
X75035714Y-19209580D02*
X74988095Y-19257200D01*
X74988095Y-19257200D02*
X74892857Y-19304819D01*
X74892857Y-19304819D02*
X74654762Y-19304819D01*
X74654762Y-19304819D02*
X74559524Y-19257200D01*
X74559524Y-19257200D02*
X74511905Y-19209580D01*
X75702381Y-18304819D02*
X75797619Y-18304819D01*
X75797619Y-18304819D02*
X75892857Y-18352438D01*
X75892857Y-18352438D02*
X75940476Y-18400057D01*
X75940476Y-18400057D02*
X75988095Y-18495295D01*
X75988095Y-18495295D02*
X76035714Y-18685771D01*
X76035714Y-18685771D02*
X76035714Y-18923866D01*
X76035714Y-18923866D02*
X75988095Y-19114342D01*
X75988095Y-19114342D02*
X75940476Y-19209580D01*
X75940476Y-19209580D02*
X75892857Y-19257200D01*
X75892857Y-19257200D02*
X75797619Y-19304819D01*
X75797619Y-19304819D02*
X75702381Y-19304819D01*
X75702381Y-19304819D02*
X75607143Y-19257200D01*
X75607143Y-19257200D02*
X75559524Y-19209580D01*
X75559524Y-19209580D02*
X75511905Y-19114342D01*
X75511905Y-19114342D02*
X75464286Y-18923866D01*
X75464286Y-18923866D02*
X75464286Y-18685771D01*
X75464286Y-18685771D02*
X75511905Y-18495295D01*
X75511905Y-18495295D02*
X75559524Y-18400057D01*
X75559524Y-18400057D02*
X75607143Y-18352438D01*
X75607143Y-18352438D02*
X75702381Y-18304819D01*
X76654762Y-18304819D02*
X76750000Y-18304819D01*
X76750000Y-18304819D02*
X76845238Y-18352438D01*
X76845238Y-18352438D02*
X76892857Y-18400057D01*
X76892857Y-18400057D02*
X76940476Y-18495295D01*
X76940476Y-18495295D02*
X76988095Y-18685771D01*
X76988095Y-18685771D02*
X76988095Y-18923866D01*
X76988095Y-18923866D02*
X76940476Y-19114342D01*
X76940476Y-19114342D02*
X76892857Y-19209580D01*
X76892857Y-19209580D02*
X76845238Y-19257200D01*
X76845238Y-19257200D02*
X76750000Y-19304819D01*
X76750000Y-19304819D02*
X76654762Y-19304819D01*
X76654762Y-19304819D02*
X76559524Y-19257200D01*
X76559524Y-19257200D02*
X76511905Y-19209580D01*
X76511905Y-19209580D02*
X76464286Y-19114342D01*
X76464286Y-19114342D02*
X76416667Y-18923866D01*
X76416667Y-18923866D02*
X76416667Y-18685771D01*
X76416667Y-18685771D02*
X76464286Y-18495295D01*
X76464286Y-18495295D02*
X76511905Y-18400057D01*
X76511905Y-18400057D02*
X76559524Y-18352438D01*
X76559524Y-18352438D02*
X76654762Y-18304819D01*
X77607143Y-18304819D02*
X77702381Y-18304819D01*
X77702381Y-18304819D02*
X77797619Y-18352438D01*
X77797619Y-18352438D02*
X77845238Y-18400057D01*
X77845238Y-18400057D02*
X77892857Y-18495295D01*
X77892857Y-18495295D02*
X77940476Y-18685771D01*
X77940476Y-18685771D02*
X77940476Y-18923866D01*
X77940476Y-18923866D02*
X77892857Y-19114342D01*
X77892857Y-19114342D02*
X77845238Y-19209580D01*
X77845238Y-19209580D02*
X77797619Y-19257200D01*
X77797619Y-19257200D02*
X77702381Y-19304819D01*
X77702381Y-19304819D02*
X77607143Y-19304819D01*
X77607143Y-19304819D02*
X77511905Y-19257200D01*
X77511905Y-19257200D02*
X77464286Y-19209580D01*
X77464286Y-19209580D02*
X77416667Y-19114342D01*
X77416667Y-19114342D02*
X77369048Y-18923866D01*
X77369048Y-18923866D02*
X77369048Y-18685771D01*
X77369048Y-18685771D02*
X77416667Y-18495295D01*
X77416667Y-18495295D02*
X77464286Y-18400057D01*
X77464286Y-18400057D02*
X77511905Y-18352438D01*
X77511905Y-18352438D02*
X77607143Y-18304819D01*
X79130953Y-19304819D02*
X79130953Y-18638152D01*
X79130953Y-18733390D02*
X79178572Y-18685771D01*
X79178572Y-18685771D02*
X79273810Y-18638152D01*
X79273810Y-18638152D02*
X79416667Y-18638152D01*
X79416667Y-18638152D02*
X79511905Y-18685771D01*
X79511905Y-18685771D02*
X79559524Y-18781009D01*
X79559524Y-18781009D02*
X79559524Y-19304819D01*
X79559524Y-18781009D02*
X79607143Y-18685771D01*
X79607143Y-18685771D02*
X79702381Y-18638152D01*
X79702381Y-18638152D02*
X79845238Y-18638152D01*
X79845238Y-18638152D02*
X79940477Y-18685771D01*
X79940477Y-18685771D02*
X79988096Y-18781009D01*
X79988096Y-18781009D02*
X79988096Y-19304819D01*
X80464286Y-19304819D02*
X80464286Y-18638152D01*
X80464286Y-18733390D02*
X80511905Y-18685771D01*
X80511905Y-18685771D02*
X80607143Y-18638152D01*
X80607143Y-18638152D02*
X80750000Y-18638152D01*
X80750000Y-18638152D02*
X80845238Y-18685771D01*
X80845238Y-18685771D02*
X80892857Y-18781009D01*
X80892857Y-18781009D02*
X80892857Y-19304819D01*
X80892857Y-18781009D02*
X80940476Y-18685771D01*
X80940476Y-18685771D02*
X81035714Y-18638152D01*
X81035714Y-18638152D02*
X81178571Y-18638152D01*
X81178571Y-18638152D02*
X81273810Y-18685771D01*
X81273810Y-18685771D02*
X81321429Y-18781009D01*
X81321429Y-18781009D02*
X81321429Y-19304819D01*
D11*
X60000000Y-29500000D02*
X60000000Y-19413580D01*
X93500000Y-29500000D02*
X93500000Y-19413580D01*
X60000000Y-20000000D02*
X93500000Y-20000000D01*
X60000000Y-20000000D02*
X93500000Y-20000000D01*
X60000000Y-20000000D02*
X61126504Y-19413579D01*
X60000000Y-20000000D02*
X61126504Y-20586421D01*
X93500000Y-20000000D02*
X92373496Y-20586421D01*
X93500000Y-20000000D02*
X92373496Y-19413579D01*
M02*
