%TF.GenerationSoftware,KiCad,Pcbnew,8.0.1*%
%TF.CreationDate,2024-04-28T15:40:33+08:00*%
%TF.ProjectId,pinban,70696e62-616e-42e6-9b69-6361645f7063,rev?*%
%TF.SameCoordinates,Original*%
%TF.FileFunction,Copper,L2,Bot*%
%TF.FilePolarity,Positive*%
%FSLAX46Y46*%
G04 Gerber Fmt 4.6, Leading zero omitted, Abs format (unit mm)*
G04 Created by KiCad (PCBNEW 8.0.1) date 2024-04-28 15:40:33*
%MOMM*%
%LPD*%
G01*
G04 APERTURE LIST*
%TA.AperFunction,Conductor*%
%ADD10C,0.200000*%
%TD*%
%TA.AperFunction,ComponentPad*%
%ADD11R,1.700000X1.700000*%
%TD*%
%TA.AperFunction,ComponentPad*%
%ADD12O,1.700000X1.700000*%
%TD*%
%TA.AperFunction,ViaPad*%
%ADD13C,0.600000*%
%TD*%
G04 APERTURE END LIST*
D10*
X131132418Y-117849415D02*
X139750000Y-117849415D01*
X130871873Y-115355598D02*
X129750000Y-116500000D01*
X133813152Y-115355598D02*
X130871873Y-115355598D01*
X139930989Y-115353255D02*
X141922265Y-117863672D01*
X129750000Y-119000000D02*
X131132418Y-117849415D01*
X139750000Y-117849415D02*
X140614175Y-117847435D01*
X139930989Y-115353255D02*
X133813152Y-115355598D01*
X97632418Y-117849415D02*
X106250000Y-117849415D01*
X97371873Y-115355598D02*
X96250000Y-116500000D01*
X100313152Y-115355598D02*
X97371873Y-115355598D01*
X106430989Y-115353255D02*
X108422265Y-117863672D01*
X96250000Y-119000000D02*
X97632418Y-117849415D01*
X106250000Y-117849415D02*
X107114175Y-117847435D01*
X106430989Y-115353255D02*
X100313152Y-115355598D01*
X64132418Y-117849415D02*
X72750000Y-117849415D01*
X63871873Y-115355598D02*
X62750000Y-116500000D01*
X66813152Y-115355598D02*
X63871873Y-115355598D01*
X72930989Y-115353255D02*
X74922265Y-117863672D01*
X62750000Y-119000000D02*
X64132418Y-117849415D01*
X72750000Y-117849415D02*
X73614175Y-117847435D01*
X72930989Y-115353255D02*
X66813152Y-115355598D01*
X131132418Y-101849415D02*
X139750000Y-101849415D01*
X130871873Y-99355598D02*
X129750000Y-100500000D01*
X133813152Y-99355598D02*
X130871873Y-99355598D01*
X139930989Y-99353255D02*
X141922265Y-101863672D01*
X129750000Y-103000000D02*
X131132418Y-101849415D01*
X139750000Y-101849415D02*
X140614175Y-101847435D01*
X139930989Y-99353255D02*
X133813152Y-99355598D01*
X97632418Y-101849415D02*
X106250000Y-101849415D01*
X97371873Y-99355598D02*
X96250000Y-100500000D01*
X100313152Y-99355598D02*
X97371873Y-99355598D01*
X106430989Y-99353255D02*
X108422265Y-101863672D01*
X96250000Y-103000000D02*
X97632418Y-101849415D01*
X106250000Y-101849415D02*
X107114175Y-101847435D01*
X106430989Y-99353255D02*
X100313152Y-99355598D01*
X64132418Y-101849415D02*
X72750000Y-101849415D01*
X63871873Y-99355598D02*
X62750000Y-100500000D01*
X66813152Y-99355598D02*
X63871873Y-99355598D01*
X72930989Y-99353255D02*
X74922265Y-101863672D01*
X62750000Y-103000000D02*
X64132418Y-101849415D01*
X72750000Y-101849415D02*
X73614175Y-101847435D01*
X72930989Y-99353255D02*
X66813152Y-99355598D01*
X131132418Y-85849415D02*
X139750000Y-85849415D01*
X130871873Y-83355598D02*
X129750000Y-84500000D01*
X133813152Y-83355598D02*
X130871873Y-83355598D01*
X139930989Y-83353255D02*
X141922265Y-85863672D01*
X129750000Y-87000000D02*
X131132418Y-85849415D01*
X139750000Y-85849415D02*
X140614175Y-85847435D01*
X139930989Y-83353255D02*
X133813152Y-83355598D01*
X97632418Y-85849415D02*
X106250000Y-85849415D01*
X97371873Y-83355598D02*
X96250000Y-84500000D01*
X100313152Y-83355598D02*
X97371873Y-83355598D01*
X106430989Y-83353255D02*
X108422265Y-85863672D01*
X96250000Y-87000000D02*
X97632418Y-85849415D01*
X106250000Y-85849415D02*
X107114175Y-85847435D01*
X106430989Y-83353255D02*
X100313152Y-83355598D01*
X64132418Y-85849415D02*
X72750000Y-85849415D01*
X63871873Y-83355598D02*
X62750000Y-84500000D01*
X66813152Y-83355598D02*
X63871873Y-83355598D01*
X72930989Y-83353255D02*
X74922265Y-85863672D01*
X62750000Y-87000000D02*
X64132418Y-85849415D01*
X72750000Y-85849415D02*
X73614175Y-85847435D01*
X72930989Y-83353255D02*
X66813152Y-83355598D01*
X131132418Y-69849415D02*
X139750000Y-69849415D01*
X130871873Y-67355598D02*
X129750000Y-68500000D01*
X133813152Y-67355598D02*
X130871873Y-67355598D01*
X139930989Y-67353255D02*
X141922265Y-69863672D01*
X129750000Y-71000000D02*
X131132418Y-69849415D01*
X139750000Y-69849415D02*
X140614175Y-69847435D01*
X139930989Y-67353255D02*
X133813152Y-67355598D01*
X97632418Y-69849415D02*
X106250000Y-69849415D01*
X97371873Y-67355598D02*
X96250000Y-68500000D01*
X100313152Y-67355598D02*
X97371873Y-67355598D01*
X106430989Y-67353255D02*
X108422265Y-69863672D01*
X96250000Y-71000000D02*
X97632418Y-69849415D01*
X106250000Y-69849415D02*
X107114175Y-69847435D01*
X106430989Y-67353255D02*
X100313152Y-67355598D01*
X64132418Y-69849415D02*
X72750000Y-69849415D01*
X63871873Y-67355598D02*
X62750000Y-68500000D01*
X66813152Y-67355598D02*
X63871873Y-67355598D01*
X72930989Y-67353255D02*
X74922265Y-69863672D01*
X62750000Y-71000000D02*
X64132418Y-69849415D01*
X72750000Y-69849415D02*
X73614175Y-69847435D01*
X72930989Y-67353255D02*
X66813152Y-67355598D01*
X131132418Y-53849415D02*
X139750000Y-53849415D01*
X130871873Y-51355598D02*
X129750000Y-52500000D01*
X133813152Y-51355598D02*
X130871873Y-51355598D01*
X139930989Y-51353255D02*
X141922265Y-53863672D01*
X129750000Y-55000000D02*
X131132418Y-53849415D01*
X139750000Y-53849415D02*
X140614175Y-53847435D01*
X139930989Y-51353255D02*
X133813152Y-51355598D01*
X97632418Y-53849415D02*
X106250000Y-53849415D01*
X97371873Y-51355598D02*
X96250000Y-52500000D01*
X100313152Y-51355598D02*
X97371873Y-51355598D01*
X106430989Y-51353255D02*
X108422265Y-53863672D01*
X96250000Y-55000000D02*
X97632418Y-53849415D01*
X106250000Y-53849415D02*
X107114175Y-53847435D01*
X106430989Y-51353255D02*
X100313152Y-51355598D01*
X64132418Y-53849415D02*
X72750000Y-53849415D01*
X63871873Y-51355598D02*
X62750000Y-52500000D01*
X66813152Y-51355598D02*
X63871873Y-51355598D01*
X72930989Y-51353255D02*
X74922265Y-53863672D01*
X62750000Y-55000000D02*
X64132418Y-53849415D01*
X72750000Y-53849415D02*
X73614175Y-53847435D01*
X72930989Y-51353255D02*
X66813152Y-51355598D01*
X131132418Y-37849415D02*
X139750000Y-37849415D01*
X130871873Y-35355598D02*
X129750000Y-36500000D01*
X133813152Y-35355598D02*
X130871873Y-35355598D01*
X139930989Y-35353255D02*
X141922265Y-37863672D01*
X129750000Y-39000000D02*
X131132418Y-37849415D01*
X139750000Y-37849415D02*
X140614175Y-37847435D01*
X139930989Y-35353255D02*
X133813152Y-35355598D01*
X97632418Y-37849415D02*
X106250000Y-37849415D01*
X97371873Y-35355598D02*
X96250000Y-36500000D01*
X100313152Y-35355598D02*
X97371873Y-35355598D01*
X106430989Y-35353255D02*
X108422265Y-37863672D01*
X96250000Y-39000000D02*
X97632418Y-37849415D01*
X106250000Y-37849415D02*
X107114175Y-37847435D01*
X106430989Y-35353255D02*
X100313152Y-35355598D01*
X63871873Y-35355598D02*
X62750000Y-36500000D01*
X62750000Y-39000000D02*
X64132418Y-37849415D01*
X72750000Y-37849415D02*
X73614175Y-37847435D01*
X66813152Y-35355598D02*
X63871873Y-35355598D01*
X72930989Y-35353255D02*
X66813152Y-35355598D01*
X72930989Y-35353255D02*
X74922265Y-37863672D01*
X64132418Y-37849415D02*
X72750000Y-37849415D01*
D11*
X154750000Y-117540000D03*
D12*
X154750000Y-115000000D03*
D11*
X129710000Y-114000000D03*
D12*
X132250000Y-114000000D03*
X129710000Y-116540000D03*
X132250000Y-116540000D03*
X129710000Y-119080000D03*
X132250000Y-119080000D03*
D11*
X121250000Y-117540000D03*
D12*
X121250000Y-115000000D03*
D11*
X96210000Y-114000000D03*
D12*
X98750000Y-114000000D03*
X96210000Y-116540000D03*
X98750000Y-116540000D03*
X96210000Y-119080000D03*
X98750000Y-119080000D03*
D11*
X87750000Y-117540000D03*
D12*
X87750000Y-115000000D03*
D11*
X62710000Y-114000000D03*
D12*
X65250000Y-114000000D03*
X62710000Y-116540000D03*
X65250000Y-116540000D03*
X62710000Y-119080000D03*
X65250000Y-119080000D03*
D11*
X154750000Y-101540000D03*
D12*
X154750000Y-99000000D03*
D11*
X129710000Y-98000000D03*
D12*
X132250000Y-98000000D03*
X129710000Y-100540000D03*
X132250000Y-100540000D03*
X129710000Y-103080000D03*
X132250000Y-103080000D03*
D11*
X121250000Y-101540000D03*
D12*
X121250000Y-99000000D03*
D11*
X96210000Y-98000000D03*
D12*
X98750000Y-98000000D03*
X96210000Y-100540000D03*
X98750000Y-100540000D03*
X96210000Y-103080000D03*
X98750000Y-103080000D03*
D11*
X87750000Y-101540000D03*
D12*
X87750000Y-99000000D03*
D11*
X62710000Y-98000000D03*
D12*
X65250000Y-98000000D03*
X62710000Y-100540000D03*
X65250000Y-100540000D03*
X62710000Y-103080000D03*
X65250000Y-103080000D03*
D11*
X154750000Y-85540000D03*
D12*
X154750000Y-83000000D03*
D11*
X129710000Y-82000000D03*
D12*
X132250000Y-82000000D03*
X129710000Y-84540000D03*
X132250000Y-84540000D03*
X129710000Y-87080000D03*
X132250000Y-87080000D03*
D11*
X121250000Y-85540000D03*
D12*
X121250000Y-83000000D03*
D11*
X96210000Y-82000000D03*
D12*
X98750000Y-82000000D03*
X96210000Y-84540000D03*
X98750000Y-84540000D03*
X96210000Y-87080000D03*
X98750000Y-87080000D03*
D11*
X87750000Y-85540000D03*
D12*
X87750000Y-83000000D03*
D11*
X62710000Y-82000000D03*
D12*
X65250000Y-82000000D03*
X62710000Y-84540000D03*
X65250000Y-84540000D03*
X62710000Y-87080000D03*
X65250000Y-87080000D03*
D11*
X154750000Y-69540000D03*
D12*
X154750000Y-67000000D03*
D11*
X129710000Y-66000000D03*
D12*
X132250000Y-66000000D03*
X129710000Y-68540000D03*
X132250000Y-68540000D03*
X129710000Y-71080000D03*
X132250000Y-71080000D03*
D11*
X121250000Y-69540000D03*
D12*
X121250000Y-67000000D03*
D11*
X96210000Y-66000000D03*
D12*
X98750000Y-66000000D03*
X96210000Y-68540000D03*
X98750000Y-68540000D03*
X96210000Y-71080000D03*
X98750000Y-71080000D03*
D11*
X87750000Y-69540000D03*
D12*
X87750000Y-67000000D03*
D11*
X62710000Y-66000000D03*
D12*
X65250000Y-66000000D03*
X62710000Y-68540000D03*
X65250000Y-68540000D03*
X62710000Y-71080000D03*
X65250000Y-71080000D03*
D11*
X154750000Y-53540000D03*
D12*
X154750000Y-51000000D03*
D11*
X129710000Y-50000000D03*
D12*
X132250000Y-50000000D03*
X129710000Y-52540000D03*
X132250000Y-52540000D03*
X129710000Y-55080000D03*
X132250000Y-55080000D03*
D11*
X121250000Y-53540000D03*
D12*
X121250000Y-51000000D03*
D11*
X96210000Y-50000000D03*
D12*
X98750000Y-50000000D03*
X96210000Y-52540000D03*
X98750000Y-52540000D03*
X96210000Y-55080000D03*
X98750000Y-55080000D03*
D11*
X87750000Y-53540000D03*
D12*
X87750000Y-51000000D03*
D11*
X62710000Y-50000000D03*
D12*
X65250000Y-50000000D03*
X62710000Y-52540000D03*
X65250000Y-52540000D03*
X62710000Y-55080000D03*
X65250000Y-55080000D03*
D11*
X154750000Y-37540000D03*
D12*
X154750000Y-35000000D03*
D11*
X129710000Y-34000000D03*
D12*
X132250000Y-34000000D03*
X129710000Y-36540000D03*
X132250000Y-36540000D03*
X129710000Y-39080000D03*
X132250000Y-39080000D03*
D11*
X121250000Y-37540000D03*
D12*
X121250000Y-35000000D03*
D11*
X96210000Y-34000000D03*
D12*
X98750000Y-34000000D03*
X96210000Y-36540000D03*
X98750000Y-36540000D03*
X96210000Y-39080000D03*
X98750000Y-39080000D03*
D11*
X62710000Y-34000000D03*
D12*
X65250000Y-34000000D03*
X62710000Y-36540000D03*
X65250000Y-36540000D03*
X62710000Y-39080000D03*
X65250000Y-39080000D03*
D11*
X87750000Y-37540000D03*
D12*
X87750000Y-35000000D03*
D13*
X140733272Y-117834675D03*
X141966780Y-117868703D03*
X107233272Y-117834675D03*
X108466780Y-117868703D03*
X73733272Y-117834675D03*
X74966780Y-117868703D03*
X140733272Y-101834675D03*
X141966780Y-101868703D03*
X107233272Y-101834675D03*
X108466780Y-101868703D03*
X73733272Y-101834675D03*
X74966780Y-101868703D03*
X140733272Y-85834675D03*
X141966780Y-85868703D03*
X107233272Y-85834675D03*
X108466780Y-85868703D03*
X73733272Y-85834675D03*
X74966780Y-85868703D03*
X140733272Y-69834675D03*
X141966780Y-69868703D03*
X107233272Y-69834675D03*
X108466780Y-69868703D03*
X73733272Y-69834675D03*
X74966780Y-69868703D03*
X140733272Y-53834675D03*
X141966780Y-53868703D03*
X107233272Y-53834675D03*
X108466780Y-53868703D03*
X73733272Y-53834675D03*
X74966780Y-53868703D03*
X140733272Y-37834675D03*
X141966780Y-37868703D03*
X107233272Y-37834675D03*
X108466780Y-37868703D03*
X73733272Y-37834675D03*
X74966780Y-37868703D03*
%TA.AperFunction,Conductor*%
G36*
X92792152Y-31020185D02*
G01*
X92837907Y-31072989D01*
X92849110Y-31125379D01*
X92750877Y-44976379D01*
X92730717Y-45043278D01*
X92677590Y-45088657D01*
X92626880Y-45099500D01*
X60874887Y-45099500D01*
X60807848Y-45079815D01*
X60762093Y-45027011D01*
X60750890Y-44974621D01*
X60795532Y-38680000D01*
X61354341Y-38680000D01*
X61374936Y-38915403D01*
X61374938Y-38915413D01*
X61436094Y-39143655D01*
X61436096Y-39143659D01*
X61436097Y-39143663D01*
X61519155Y-39321781D01*
X61535965Y-39357830D01*
X61535967Y-39357834D01*
X61644281Y-39512521D01*
X61671505Y-39551401D01*
X61838599Y-39718495D01*
X61935384Y-39786265D01*
X62032165Y-39854032D01*
X62032167Y-39854033D01*
X62032170Y-39854035D01*
X62246337Y-39953903D01*
X62474592Y-40015063D01*
X62662918Y-40031539D01*
X62709999Y-40035659D01*
X62710000Y-40035659D01*
X62710001Y-40035659D01*
X62749234Y-40032226D01*
X62945408Y-40015063D01*
X63173663Y-39953903D01*
X63387830Y-39854035D01*
X63581401Y-39718495D01*
X63748495Y-39551401D01*
X63878730Y-39365405D01*
X63933307Y-39321781D01*
X64002805Y-39314587D01*
X64065160Y-39346110D01*
X64081879Y-39365405D01*
X64211890Y-39551078D01*
X64378917Y-39718105D01*
X64572421Y-39853600D01*
X64786507Y-39953429D01*
X64786516Y-39953433D01*
X65000000Y-40010634D01*
X65000000Y-39113012D01*
X65057007Y-39145925D01*
X65184174Y-39180000D01*
X65315826Y-39180000D01*
X65442993Y-39145925D01*
X65500000Y-39113012D01*
X65500000Y-40010633D01*
X65713483Y-39953433D01*
X65713492Y-39953429D01*
X65927578Y-39853600D01*
X66121082Y-39718105D01*
X66288105Y-39551082D01*
X66423600Y-39357578D01*
X66523429Y-39143492D01*
X66523432Y-39143486D01*
X66580636Y-38930000D01*
X65683012Y-38930000D01*
X65715925Y-38872993D01*
X65750000Y-38745826D01*
X65750000Y-38614174D01*
X65715925Y-38487007D01*
X65683012Y-38430000D01*
X66580636Y-38430000D01*
X66580635Y-38429999D01*
X66523427Y-38216497D01*
X66523361Y-38216316D01*
X66523355Y-38216230D01*
X66522029Y-38211280D01*
X66523024Y-38211013D01*
X66518935Y-38146587D01*
X66552910Y-38085534D01*
X66614500Y-38052541D01*
X66639886Y-38049915D01*
X72662944Y-38049915D01*
X72665957Y-38050108D01*
X72672313Y-38050093D01*
X72672319Y-38050095D01*
X72750734Y-38049915D01*
X72750857Y-38049915D01*
X72835435Y-38049915D01*
X72838439Y-38049714D01*
X73170275Y-38048953D01*
X73236528Y-38067958D01*
X73383750Y-38160464D01*
X73543120Y-38216230D01*
X73554017Y-38220043D01*
X73554022Y-38220044D01*
X73733268Y-38240240D01*
X73733272Y-38240240D01*
X73733276Y-38240240D01*
X73912521Y-38220044D01*
X73912524Y-38220043D01*
X73912527Y-38220043D01*
X74082794Y-38160464D01*
X74235534Y-38064491D01*
X74245328Y-38054697D01*
X74306650Y-38021210D01*
X74376342Y-38026192D01*
X74420693Y-38054694D01*
X74464518Y-38098519D01*
X74617258Y-38194492D01*
X74725387Y-38232328D01*
X74787525Y-38254071D01*
X74787530Y-38254072D01*
X74966776Y-38274268D01*
X74966780Y-38274268D01*
X74966784Y-38274268D01*
X75146029Y-38254072D01*
X75146032Y-38254071D01*
X75146035Y-38254071D01*
X75316302Y-38194492D01*
X75469042Y-38098519D01*
X75596596Y-37970965D01*
X75692569Y-37818225D01*
X75752148Y-37647958D01*
X75768147Y-37505965D01*
X75772345Y-37468706D01*
X75772345Y-37468699D01*
X75752149Y-37289453D01*
X75752148Y-37289448D01*
X75692568Y-37119179D01*
X75596595Y-36966440D01*
X75469042Y-36838887D01*
X75316301Y-36742913D01*
X75205613Y-36704182D01*
X75146035Y-36683335D01*
X75125242Y-36680992D01*
X75113510Y-36679670D01*
X75049097Y-36652602D01*
X75030248Y-36633509D01*
X73434512Y-34621752D01*
X73424301Y-34606738D01*
X73420407Y-34600000D01*
X86394341Y-34600000D01*
X86414936Y-34835403D01*
X86414938Y-34835413D01*
X86476094Y-35063655D01*
X86476096Y-35063659D01*
X86476097Y-35063663D01*
X86571661Y-35268599D01*
X86575965Y-35277830D01*
X86575967Y-35277834D01*
X86684281Y-35432521D01*
X86711501Y-35471396D01*
X86711506Y-35471402D01*
X86833430Y-35593326D01*
X86866915Y-35654649D01*
X86861931Y-35724341D01*
X86820059Y-35780274D01*
X86789083Y-35797189D01*
X86657669Y-35846203D01*
X86657664Y-35846206D01*
X86542455Y-35932452D01*
X86542452Y-35932455D01*
X86456206Y-36047664D01*
X86456202Y-36047671D01*
X86405908Y-36182517D01*
X86399501Y-36242116D01*
X86399501Y-36242123D01*
X86399500Y-36242135D01*
X86399500Y-38037870D01*
X86399501Y-38037876D01*
X86405908Y-38097483D01*
X86456202Y-38232328D01*
X86456206Y-38232335D01*
X86542452Y-38347544D01*
X86542455Y-38347547D01*
X86657664Y-38433793D01*
X86657671Y-38433797D01*
X86792517Y-38484091D01*
X86792516Y-38484091D01*
X86799444Y-38484835D01*
X86852127Y-38490500D01*
X88647872Y-38490499D01*
X88707483Y-38484091D01*
X88842331Y-38433796D01*
X88957546Y-38347546D01*
X89043796Y-38232331D01*
X89094091Y-38097483D01*
X89100500Y-38037873D01*
X89100499Y-36242128D01*
X89094091Y-36182517D01*
X89078233Y-36140000D01*
X89043797Y-36047671D01*
X89043793Y-36047664D01*
X88957547Y-35932455D01*
X88957544Y-35932452D01*
X88842335Y-35846206D01*
X88842328Y-35846202D01*
X88710917Y-35797189D01*
X88654983Y-35755318D01*
X88630566Y-35689853D01*
X88645418Y-35621580D01*
X88666563Y-35593332D01*
X88788495Y-35471401D01*
X88924035Y-35277830D01*
X89023903Y-35063663D01*
X89085063Y-34835408D01*
X89105659Y-34600000D01*
X89085063Y-34364592D01*
X89023903Y-34136337D01*
X88924035Y-33922171D01*
X88863284Y-33835408D01*
X88788494Y-33728597D01*
X88621402Y-33561506D01*
X88621395Y-33561501D01*
X88427834Y-33425967D01*
X88427830Y-33425965D01*
X88427828Y-33425964D01*
X88213663Y-33326097D01*
X88213659Y-33326096D01*
X88213655Y-33326094D01*
X87985413Y-33264938D01*
X87985403Y-33264936D01*
X87750001Y-33244341D01*
X87749999Y-33244341D01*
X87514596Y-33264936D01*
X87514586Y-33264938D01*
X87286344Y-33326094D01*
X87286335Y-33326098D01*
X87072171Y-33425964D01*
X87072169Y-33425965D01*
X86878597Y-33561505D01*
X86711505Y-33728597D01*
X86575965Y-33922169D01*
X86575964Y-33922171D01*
X86476098Y-34136335D01*
X86476094Y-34136344D01*
X86414938Y-34364586D01*
X86414936Y-34364596D01*
X86394341Y-34599999D01*
X86394341Y-34600000D01*
X73420407Y-34600000D01*
X73411367Y-34584355D01*
X73411364Y-34584352D01*
X73385001Y-34558009D01*
X73375500Y-34547354D01*
X73352325Y-34518138D01*
X73352322Y-34518135D01*
X73331560Y-34502728D01*
X73317807Y-34490867D01*
X73299519Y-34472593D01*
X73267225Y-34453965D01*
X73255297Y-34446136D01*
X73225354Y-34423916D01*
X73225353Y-34423915D01*
X73225351Y-34423914D01*
X73201303Y-34414403D01*
X73184951Y-34406506D01*
X73162558Y-34393589D01*
X73126539Y-34383952D01*
X73112991Y-34379477D01*
X73078325Y-34365767D01*
X73078320Y-34365765D01*
X73078317Y-34365764D01*
X73078315Y-34365764D01*
X73052623Y-34362801D01*
X73034790Y-34359406D01*
X73009816Y-34352725D01*
X73009815Y-34352725D01*
X72972544Y-34352739D01*
X72958293Y-34351923D01*
X72921247Y-34347651D01*
X72921244Y-34347651D01*
X72895662Y-34351438D01*
X72877551Y-34352775D01*
X66812216Y-34355098D01*
X66582645Y-34355098D01*
X66515606Y-34335413D01*
X66469851Y-34282609D01*
X66459907Y-34213451D01*
X66470263Y-34178693D01*
X66490015Y-34136335D01*
X66523903Y-34063663D01*
X66585063Y-33835408D01*
X66605659Y-33600000D01*
X66585063Y-33364592D01*
X66523903Y-33136337D01*
X66424035Y-32922171D01*
X66288495Y-32728599D01*
X66288494Y-32728597D01*
X66121402Y-32561506D01*
X66121395Y-32561501D01*
X65927834Y-32425967D01*
X65927830Y-32425965D01*
X65927828Y-32425964D01*
X65713663Y-32326097D01*
X65713659Y-32326096D01*
X65713655Y-32326094D01*
X65485413Y-32264938D01*
X65485403Y-32264936D01*
X65250001Y-32244341D01*
X65249999Y-32244341D01*
X65014596Y-32264936D01*
X65014586Y-32264938D01*
X64786344Y-32326094D01*
X64786335Y-32326098D01*
X64572171Y-32425964D01*
X64572169Y-32425965D01*
X64378600Y-32561503D01*
X64256673Y-32683430D01*
X64195350Y-32716914D01*
X64125658Y-32711930D01*
X64069725Y-32670058D01*
X64052810Y-32639081D01*
X64003797Y-32507671D01*
X64003793Y-32507664D01*
X63917547Y-32392455D01*
X63917544Y-32392452D01*
X63802335Y-32306206D01*
X63802328Y-32306202D01*
X63667482Y-32255908D01*
X63667483Y-32255908D01*
X63607883Y-32249501D01*
X63607881Y-32249500D01*
X63607873Y-32249500D01*
X63607864Y-32249500D01*
X61812129Y-32249500D01*
X61812123Y-32249501D01*
X61752516Y-32255908D01*
X61617671Y-32306202D01*
X61617664Y-32306206D01*
X61502455Y-32392452D01*
X61502452Y-32392455D01*
X61416206Y-32507664D01*
X61416202Y-32507671D01*
X61365908Y-32642517D01*
X61359501Y-32702116D01*
X61359500Y-32702135D01*
X61359500Y-34497870D01*
X61359501Y-34497876D01*
X61365908Y-34557483D01*
X61416202Y-34692328D01*
X61416206Y-34692335D01*
X61502452Y-34807544D01*
X61502455Y-34807547D01*
X61617664Y-34893793D01*
X61617671Y-34893797D01*
X61749081Y-34942810D01*
X61805015Y-34984681D01*
X61829432Y-35050145D01*
X61814580Y-35118418D01*
X61793430Y-35146673D01*
X61671503Y-35268600D01*
X61535965Y-35462169D01*
X61535964Y-35462171D01*
X61436098Y-35676335D01*
X61436094Y-35676344D01*
X61374938Y-35904586D01*
X61374936Y-35904596D01*
X61354341Y-36139999D01*
X61354341Y-36140000D01*
X61374936Y-36375403D01*
X61374938Y-36375413D01*
X61436094Y-36603655D01*
X61436096Y-36603659D01*
X61436097Y-36603663D01*
X61485601Y-36709824D01*
X61535965Y-36817830D01*
X61535967Y-36817834D01*
X61671501Y-37011395D01*
X61671506Y-37011402D01*
X61838597Y-37178493D01*
X61838603Y-37178498D01*
X62024158Y-37308425D01*
X62067783Y-37363002D01*
X62074977Y-37432500D01*
X62043454Y-37494855D01*
X62024158Y-37511575D01*
X61838597Y-37641505D01*
X61671505Y-37808597D01*
X61535965Y-38002169D01*
X61535964Y-38002171D01*
X61436098Y-38216335D01*
X61436094Y-38216344D01*
X61374938Y-38444586D01*
X61374936Y-38444596D01*
X61354341Y-38679999D01*
X61354341Y-38680000D01*
X60795532Y-38680000D01*
X60831833Y-33561501D01*
X60849123Y-31123620D01*
X60869283Y-31056722D01*
X60922410Y-31011343D01*
X60973120Y-31000500D01*
X92725113Y-31000500D01*
X92792152Y-31020185D01*
G37*
%TD.AperFunction*%
%TA.AperFunction,Conductor*%
G36*
X126292152Y-31020185D02*
G01*
X126337907Y-31072989D01*
X126349110Y-31125379D01*
X126250877Y-44976379D01*
X126230717Y-45043278D01*
X126177590Y-45088657D01*
X126126880Y-45099500D01*
X94374887Y-45099500D01*
X94307848Y-45079815D01*
X94262093Y-45027011D01*
X94250890Y-44974621D01*
X94295532Y-38680000D01*
X94854341Y-38680000D01*
X94874936Y-38915403D01*
X94874938Y-38915413D01*
X94936094Y-39143655D01*
X94936096Y-39143659D01*
X94936097Y-39143663D01*
X95019155Y-39321781D01*
X95035965Y-39357830D01*
X95035967Y-39357834D01*
X95144281Y-39512521D01*
X95171505Y-39551401D01*
X95338599Y-39718495D01*
X95435384Y-39786265D01*
X95532165Y-39854032D01*
X95532167Y-39854033D01*
X95532170Y-39854035D01*
X95746337Y-39953903D01*
X95974592Y-40015063D01*
X96162918Y-40031539D01*
X96209999Y-40035659D01*
X96210000Y-40035659D01*
X96210001Y-40035659D01*
X96249234Y-40032226D01*
X96445408Y-40015063D01*
X96673663Y-39953903D01*
X96887830Y-39854035D01*
X97081401Y-39718495D01*
X97248495Y-39551401D01*
X97378730Y-39365405D01*
X97433307Y-39321781D01*
X97502805Y-39314587D01*
X97565160Y-39346110D01*
X97581879Y-39365405D01*
X97711890Y-39551078D01*
X97878917Y-39718105D01*
X98072421Y-39853600D01*
X98286507Y-39953429D01*
X98286516Y-39953433D01*
X98500000Y-40010634D01*
X98500000Y-39113012D01*
X98557007Y-39145925D01*
X98684174Y-39180000D01*
X98815826Y-39180000D01*
X98942993Y-39145925D01*
X99000000Y-39113012D01*
X99000000Y-40010633D01*
X99213483Y-39953433D01*
X99213492Y-39953429D01*
X99427578Y-39853600D01*
X99621082Y-39718105D01*
X99788105Y-39551082D01*
X99923600Y-39357578D01*
X100023429Y-39143492D01*
X100023432Y-39143486D01*
X100080636Y-38930000D01*
X99183012Y-38930000D01*
X99215925Y-38872993D01*
X99250000Y-38745826D01*
X99250000Y-38614174D01*
X99215925Y-38487007D01*
X99183012Y-38430000D01*
X100080636Y-38430000D01*
X100080635Y-38429999D01*
X100023427Y-38216497D01*
X100023361Y-38216316D01*
X100023355Y-38216230D01*
X100022029Y-38211280D01*
X100023024Y-38211013D01*
X100018935Y-38146587D01*
X100052910Y-38085534D01*
X100114500Y-38052541D01*
X100139886Y-38049915D01*
X106162944Y-38049915D01*
X106165957Y-38050108D01*
X106172313Y-38050093D01*
X106172319Y-38050095D01*
X106250734Y-38049915D01*
X106250857Y-38049915D01*
X106335435Y-38049915D01*
X106338439Y-38049714D01*
X106670275Y-38048953D01*
X106736528Y-38067958D01*
X106883750Y-38160464D01*
X107043120Y-38216230D01*
X107054017Y-38220043D01*
X107054022Y-38220044D01*
X107233268Y-38240240D01*
X107233272Y-38240240D01*
X107233276Y-38240240D01*
X107412521Y-38220044D01*
X107412524Y-38220043D01*
X107412527Y-38220043D01*
X107582794Y-38160464D01*
X107735534Y-38064491D01*
X107745328Y-38054697D01*
X107806650Y-38021210D01*
X107876342Y-38026192D01*
X107920693Y-38054694D01*
X107964518Y-38098519D01*
X108117258Y-38194492D01*
X108225387Y-38232328D01*
X108287525Y-38254071D01*
X108287530Y-38254072D01*
X108466776Y-38274268D01*
X108466780Y-38274268D01*
X108466784Y-38274268D01*
X108646029Y-38254072D01*
X108646032Y-38254071D01*
X108646035Y-38254071D01*
X108816302Y-38194492D01*
X108969042Y-38098519D01*
X109096596Y-37970965D01*
X109192569Y-37818225D01*
X109252148Y-37647958D01*
X109268147Y-37505965D01*
X109272345Y-37468706D01*
X109272345Y-37468699D01*
X109252149Y-37289453D01*
X109252148Y-37289448D01*
X109192568Y-37119179D01*
X109096595Y-36966440D01*
X108969042Y-36838887D01*
X108816301Y-36742913D01*
X108705613Y-36704182D01*
X108646035Y-36683335D01*
X108625242Y-36680992D01*
X108613510Y-36679670D01*
X108549097Y-36652602D01*
X108530248Y-36633509D01*
X106934512Y-34621752D01*
X106924301Y-34606738D01*
X106920407Y-34600000D01*
X119894341Y-34600000D01*
X119914936Y-34835403D01*
X119914938Y-34835413D01*
X119976094Y-35063655D01*
X119976096Y-35063659D01*
X119976097Y-35063663D01*
X120071661Y-35268599D01*
X120075965Y-35277830D01*
X120075967Y-35277834D01*
X120184281Y-35432521D01*
X120211501Y-35471396D01*
X120211506Y-35471402D01*
X120333430Y-35593326D01*
X120366915Y-35654649D01*
X120361931Y-35724341D01*
X120320059Y-35780274D01*
X120289083Y-35797189D01*
X120157669Y-35846203D01*
X120157664Y-35846206D01*
X120042455Y-35932452D01*
X120042452Y-35932455D01*
X119956206Y-36047664D01*
X119956202Y-36047671D01*
X119905908Y-36182517D01*
X119899501Y-36242116D01*
X119899501Y-36242123D01*
X119899500Y-36242135D01*
X119899500Y-38037870D01*
X119899501Y-38037876D01*
X119905908Y-38097483D01*
X119956202Y-38232328D01*
X119956206Y-38232335D01*
X120042452Y-38347544D01*
X120042455Y-38347547D01*
X120157664Y-38433793D01*
X120157671Y-38433797D01*
X120292517Y-38484091D01*
X120292516Y-38484091D01*
X120299444Y-38484835D01*
X120352127Y-38490500D01*
X122147872Y-38490499D01*
X122207483Y-38484091D01*
X122342331Y-38433796D01*
X122457546Y-38347546D01*
X122543796Y-38232331D01*
X122594091Y-38097483D01*
X122600500Y-38037873D01*
X122600499Y-36242128D01*
X122594091Y-36182517D01*
X122578233Y-36140000D01*
X122543797Y-36047671D01*
X122543793Y-36047664D01*
X122457547Y-35932455D01*
X122457544Y-35932452D01*
X122342335Y-35846206D01*
X122342328Y-35846202D01*
X122210917Y-35797189D01*
X122154983Y-35755318D01*
X122130566Y-35689853D01*
X122145418Y-35621580D01*
X122166563Y-35593332D01*
X122288495Y-35471401D01*
X122424035Y-35277830D01*
X122523903Y-35063663D01*
X122585063Y-34835408D01*
X122605659Y-34600000D01*
X122585063Y-34364592D01*
X122523903Y-34136337D01*
X122424035Y-33922171D01*
X122363284Y-33835408D01*
X122288494Y-33728597D01*
X122121402Y-33561506D01*
X122121395Y-33561501D01*
X121927834Y-33425967D01*
X121927830Y-33425965D01*
X121927828Y-33425964D01*
X121713663Y-33326097D01*
X121713659Y-33326096D01*
X121713655Y-33326094D01*
X121485413Y-33264938D01*
X121485403Y-33264936D01*
X121250001Y-33244341D01*
X121249999Y-33244341D01*
X121014596Y-33264936D01*
X121014586Y-33264938D01*
X120786344Y-33326094D01*
X120786335Y-33326098D01*
X120572171Y-33425964D01*
X120572169Y-33425965D01*
X120378597Y-33561505D01*
X120211505Y-33728597D01*
X120075965Y-33922169D01*
X120075964Y-33922171D01*
X119976098Y-34136335D01*
X119976094Y-34136344D01*
X119914938Y-34364586D01*
X119914936Y-34364596D01*
X119894341Y-34599999D01*
X119894341Y-34600000D01*
X106920407Y-34600000D01*
X106911367Y-34584355D01*
X106911364Y-34584352D01*
X106885001Y-34558009D01*
X106875500Y-34547354D01*
X106852325Y-34518138D01*
X106852322Y-34518135D01*
X106831560Y-34502728D01*
X106817807Y-34490867D01*
X106799519Y-34472593D01*
X106767225Y-34453965D01*
X106755297Y-34446136D01*
X106725354Y-34423916D01*
X106725353Y-34423915D01*
X106725351Y-34423914D01*
X106701303Y-34414403D01*
X106684951Y-34406506D01*
X106662558Y-34393589D01*
X106626539Y-34383952D01*
X106612991Y-34379477D01*
X106578325Y-34365767D01*
X106578320Y-34365765D01*
X106578317Y-34365764D01*
X106578315Y-34365764D01*
X106552623Y-34362801D01*
X106534790Y-34359406D01*
X106509816Y-34352725D01*
X106509815Y-34352725D01*
X106472544Y-34352739D01*
X106458293Y-34351923D01*
X106421247Y-34347651D01*
X106421244Y-34347651D01*
X106395662Y-34351438D01*
X106377551Y-34352775D01*
X100312216Y-34355098D01*
X100082645Y-34355098D01*
X100015606Y-34335413D01*
X99969851Y-34282609D01*
X99959907Y-34213451D01*
X99970263Y-34178693D01*
X99990015Y-34136335D01*
X100023903Y-34063663D01*
X100085063Y-33835408D01*
X100105659Y-33600000D01*
X100085063Y-33364592D01*
X100023903Y-33136337D01*
X99924035Y-32922171D01*
X99788495Y-32728599D01*
X99788494Y-32728597D01*
X99621402Y-32561506D01*
X99621395Y-32561501D01*
X99427834Y-32425967D01*
X99427830Y-32425965D01*
X99427828Y-32425964D01*
X99213663Y-32326097D01*
X99213659Y-32326096D01*
X99213655Y-32326094D01*
X98985413Y-32264938D01*
X98985403Y-32264936D01*
X98750001Y-32244341D01*
X98749999Y-32244341D01*
X98514596Y-32264936D01*
X98514586Y-32264938D01*
X98286344Y-32326094D01*
X98286335Y-32326098D01*
X98072171Y-32425964D01*
X98072169Y-32425965D01*
X97878600Y-32561503D01*
X97756673Y-32683430D01*
X97695350Y-32716914D01*
X97625658Y-32711930D01*
X97569725Y-32670058D01*
X97552810Y-32639081D01*
X97503797Y-32507671D01*
X97503793Y-32507664D01*
X97417547Y-32392455D01*
X97417544Y-32392452D01*
X97302335Y-32306206D01*
X97302328Y-32306202D01*
X97167482Y-32255908D01*
X97167483Y-32255908D01*
X97107883Y-32249501D01*
X97107881Y-32249500D01*
X97107873Y-32249500D01*
X97107864Y-32249500D01*
X95312129Y-32249500D01*
X95312123Y-32249501D01*
X95252516Y-32255908D01*
X95117671Y-32306202D01*
X95117664Y-32306206D01*
X95002455Y-32392452D01*
X95002452Y-32392455D01*
X94916206Y-32507664D01*
X94916202Y-32507671D01*
X94865908Y-32642517D01*
X94859501Y-32702116D01*
X94859500Y-32702135D01*
X94859500Y-34497870D01*
X94859501Y-34497876D01*
X94865908Y-34557483D01*
X94916202Y-34692328D01*
X94916206Y-34692335D01*
X95002452Y-34807544D01*
X95002455Y-34807547D01*
X95117664Y-34893793D01*
X95117671Y-34893797D01*
X95249081Y-34942810D01*
X95305015Y-34984681D01*
X95329432Y-35050145D01*
X95314580Y-35118418D01*
X95293430Y-35146673D01*
X95171503Y-35268600D01*
X95035965Y-35462169D01*
X95035964Y-35462171D01*
X94936098Y-35676335D01*
X94936094Y-35676344D01*
X94874938Y-35904586D01*
X94874936Y-35904596D01*
X94854341Y-36139999D01*
X94854341Y-36140000D01*
X94874936Y-36375403D01*
X94874938Y-36375413D01*
X94936094Y-36603655D01*
X94936096Y-36603659D01*
X94936097Y-36603663D01*
X94985601Y-36709824D01*
X95035965Y-36817830D01*
X95035967Y-36817834D01*
X95171501Y-37011395D01*
X95171506Y-37011402D01*
X95338597Y-37178493D01*
X95338603Y-37178498D01*
X95524158Y-37308425D01*
X95567783Y-37363002D01*
X95574977Y-37432500D01*
X95543454Y-37494855D01*
X95524158Y-37511575D01*
X95338597Y-37641505D01*
X95171505Y-37808597D01*
X95035965Y-38002169D01*
X95035964Y-38002171D01*
X94936098Y-38216335D01*
X94936094Y-38216344D01*
X94874938Y-38444586D01*
X94874936Y-38444596D01*
X94854341Y-38679999D01*
X94854341Y-38680000D01*
X94295532Y-38680000D01*
X94331833Y-33561501D01*
X94349123Y-31123620D01*
X94369283Y-31056722D01*
X94422410Y-31011343D01*
X94473120Y-31000500D01*
X126225113Y-31000500D01*
X126292152Y-31020185D01*
G37*
%TD.AperFunction*%
%TA.AperFunction,Conductor*%
G36*
X159792152Y-31020185D02*
G01*
X159837907Y-31072989D01*
X159849110Y-31125379D01*
X159750877Y-44976379D01*
X159730717Y-45043278D01*
X159677590Y-45088657D01*
X159626880Y-45099500D01*
X127874887Y-45099500D01*
X127807848Y-45079815D01*
X127762093Y-45027011D01*
X127750890Y-44974621D01*
X127795532Y-38680000D01*
X128354341Y-38680000D01*
X128374936Y-38915403D01*
X128374938Y-38915413D01*
X128436094Y-39143655D01*
X128436096Y-39143659D01*
X128436097Y-39143663D01*
X128519155Y-39321781D01*
X128535965Y-39357830D01*
X128535967Y-39357834D01*
X128644281Y-39512521D01*
X128671505Y-39551401D01*
X128838599Y-39718495D01*
X128935384Y-39786265D01*
X129032165Y-39854032D01*
X129032167Y-39854033D01*
X129032170Y-39854035D01*
X129246337Y-39953903D01*
X129474592Y-40015063D01*
X129662918Y-40031539D01*
X129709999Y-40035659D01*
X129710000Y-40035659D01*
X129710001Y-40035659D01*
X129749234Y-40032226D01*
X129945408Y-40015063D01*
X130173663Y-39953903D01*
X130387830Y-39854035D01*
X130581401Y-39718495D01*
X130748495Y-39551401D01*
X130878730Y-39365405D01*
X130933307Y-39321781D01*
X131002805Y-39314587D01*
X131065160Y-39346110D01*
X131081879Y-39365405D01*
X131211890Y-39551078D01*
X131378917Y-39718105D01*
X131572421Y-39853600D01*
X131786507Y-39953429D01*
X131786516Y-39953433D01*
X132000000Y-40010634D01*
X132000000Y-39113012D01*
X132057007Y-39145925D01*
X132184174Y-39180000D01*
X132315826Y-39180000D01*
X132442993Y-39145925D01*
X132500000Y-39113012D01*
X132500000Y-40010633D01*
X132713483Y-39953433D01*
X132713492Y-39953429D01*
X132927578Y-39853600D01*
X133121082Y-39718105D01*
X133288105Y-39551082D01*
X133423600Y-39357578D01*
X133523429Y-39143492D01*
X133523432Y-39143486D01*
X133580636Y-38930000D01*
X132683012Y-38930000D01*
X132715925Y-38872993D01*
X132750000Y-38745826D01*
X132750000Y-38614174D01*
X132715925Y-38487007D01*
X132683012Y-38430000D01*
X133580636Y-38430000D01*
X133580635Y-38429999D01*
X133523427Y-38216497D01*
X133523361Y-38216316D01*
X133523355Y-38216230D01*
X133522029Y-38211280D01*
X133523024Y-38211013D01*
X133518935Y-38146587D01*
X133552910Y-38085534D01*
X133614500Y-38052541D01*
X133639886Y-38049915D01*
X139662944Y-38049915D01*
X139665957Y-38050108D01*
X139672313Y-38050093D01*
X139672319Y-38050095D01*
X139750734Y-38049915D01*
X139750857Y-38049915D01*
X139835435Y-38049915D01*
X139838439Y-38049714D01*
X140170275Y-38048953D01*
X140236528Y-38067958D01*
X140383750Y-38160464D01*
X140543120Y-38216230D01*
X140554017Y-38220043D01*
X140554022Y-38220044D01*
X140733268Y-38240240D01*
X140733272Y-38240240D01*
X140733276Y-38240240D01*
X140912521Y-38220044D01*
X140912524Y-38220043D01*
X140912527Y-38220043D01*
X141082794Y-38160464D01*
X141235534Y-38064491D01*
X141245328Y-38054697D01*
X141306650Y-38021210D01*
X141376342Y-38026192D01*
X141420693Y-38054694D01*
X141464518Y-38098519D01*
X141617258Y-38194492D01*
X141725387Y-38232328D01*
X141787525Y-38254071D01*
X141787530Y-38254072D01*
X141966776Y-38274268D01*
X141966780Y-38274268D01*
X141966784Y-38274268D01*
X142146029Y-38254072D01*
X142146032Y-38254071D01*
X142146035Y-38254071D01*
X142316302Y-38194492D01*
X142469042Y-38098519D01*
X142596596Y-37970965D01*
X142692569Y-37818225D01*
X142752148Y-37647958D01*
X142768147Y-37505965D01*
X142772345Y-37468706D01*
X142772345Y-37468699D01*
X142752149Y-37289453D01*
X142752148Y-37289448D01*
X142692568Y-37119179D01*
X142596595Y-36966440D01*
X142469042Y-36838887D01*
X142316301Y-36742913D01*
X142205613Y-36704182D01*
X142146035Y-36683335D01*
X142125242Y-36680992D01*
X142113510Y-36679670D01*
X142049097Y-36652602D01*
X142030248Y-36633509D01*
X140434512Y-34621752D01*
X140424301Y-34606738D01*
X140420407Y-34600000D01*
X153394341Y-34600000D01*
X153414936Y-34835403D01*
X153414938Y-34835413D01*
X153476094Y-35063655D01*
X153476096Y-35063659D01*
X153476097Y-35063663D01*
X153571661Y-35268599D01*
X153575965Y-35277830D01*
X153575967Y-35277834D01*
X153684281Y-35432521D01*
X153711501Y-35471396D01*
X153711506Y-35471402D01*
X153833430Y-35593326D01*
X153866915Y-35654649D01*
X153861931Y-35724341D01*
X153820059Y-35780274D01*
X153789083Y-35797189D01*
X153657669Y-35846203D01*
X153657664Y-35846206D01*
X153542455Y-35932452D01*
X153542452Y-35932455D01*
X153456206Y-36047664D01*
X153456202Y-36047671D01*
X153405908Y-36182517D01*
X153399501Y-36242116D01*
X153399501Y-36242123D01*
X153399500Y-36242135D01*
X153399500Y-38037870D01*
X153399501Y-38037876D01*
X153405908Y-38097483D01*
X153456202Y-38232328D01*
X153456206Y-38232335D01*
X153542452Y-38347544D01*
X153542455Y-38347547D01*
X153657664Y-38433793D01*
X153657671Y-38433797D01*
X153792517Y-38484091D01*
X153792516Y-38484091D01*
X153799444Y-38484835D01*
X153852127Y-38490500D01*
X155647872Y-38490499D01*
X155707483Y-38484091D01*
X155842331Y-38433796D01*
X155957546Y-38347546D01*
X156043796Y-38232331D01*
X156094091Y-38097483D01*
X156100500Y-38037873D01*
X156100499Y-36242128D01*
X156094091Y-36182517D01*
X156078233Y-36140000D01*
X156043797Y-36047671D01*
X156043793Y-36047664D01*
X155957547Y-35932455D01*
X155957544Y-35932452D01*
X155842335Y-35846206D01*
X155842328Y-35846202D01*
X155710917Y-35797189D01*
X155654983Y-35755318D01*
X155630566Y-35689853D01*
X155645418Y-35621580D01*
X155666563Y-35593332D01*
X155788495Y-35471401D01*
X155924035Y-35277830D01*
X156023903Y-35063663D01*
X156085063Y-34835408D01*
X156105659Y-34600000D01*
X156085063Y-34364592D01*
X156023903Y-34136337D01*
X155924035Y-33922171D01*
X155863284Y-33835408D01*
X155788494Y-33728597D01*
X155621402Y-33561506D01*
X155621395Y-33561501D01*
X155427834Y-33425967D01*
X155427830Y-33425965D01*
X155427828Y-33425964D01*
X155213663Y-33326097D01*
X155213659Y-33326096D01*
X155213655Y-33326094D01*
X154985413Y-33264938D01*
X154985403Y-33264936D01*
X154750001Y-33244341D01*
X154749999Y-33244341D01*
X154514596Y-33264936D01*
X154514586Y-33264938D01*
X154286344Y-33326094D01*
X154286335Y-33326098D01*
X154072171Y-33425964D01*
X154072169Y-33425965D01*
X153878597Y-33561505D01*
X153711505Y-33728597D01*
X153575965Y-33922169D01*
X153575964Y-33922171D01*
X153476098Y-34136335D01*
X153476094Y-34136344D01*
X153414938Y-34364586D01*
X153414936Y-34364596D01*
X153394341Y-34599999D01*
X153394341Y-34600000D01*
X140420407Y-34600000D01*
X140411367Y-34584355D01*
X140411364Y-34584352D01*
X140385001Y-34558009D01*
X140375500Y-34547354D01*
X140352325Y-34518138D01*
X140352322Y-34518135D01*
X140331560Y-34502728D01*
X140317807Y-34490867D01*
X140299519Y-34472593D01*
X140267225Y-34453965D01*
X140255297Y-34446136D01*
X140225354Y-34423916D01*
X140225353Y-34423915D01*
X140225351Y-34423914D01*
X140201303Y-34414403D01*
X140184951Y-34406506D01*
X140162558Y-34393589D01*
X140126539Y-34383952D01*
X140112991Y-34379477D01*
X140078325Y-34365767D01*
X140078320Y-34365765D01*
X140078317Y-34365764D01*
X140078315Y-34365764D01*
X140052623Y-34362801D01*
X140034790Y-34359406D01*
X140009816Y-34352725D01*
X140009815Y-34352725D01*
X139972544Y-34352739D01*
X139958293Y-34351923D01*
X139921247Y-34347651D01*
X139921244Y-34347651D01*
X139895662Y-34351438D01*
X139877551Y-34352775D01*
X133812216Y-34355098D01*
X133582645Y-34355098D01*
X133515606Y-34335413D01*
X133469851Y-34282609D01*
X133459907Y-34213451D01*
X133470263Y-34178693D01*
X133490015Y-34136335D01*
X133523903Y-34063663D01*
X133585063Y-33835408D01*
X133605659Y-33600000D01*
X133585063Y-33364592D01*
X133523903Y-33136337D01*
X133424035Y-32922171D01*
X133288495Y-32728599D01*
X133288494Y-32728597D01*
X133121402Y-32561506D01*
X133121395Y-32561501D01*
X132927834Y-32425967D01*
X132927830Y-32425965D01*
X132927828Y-32425964D01*
X132713663Y-32326097D01*
X132713659Y-32326096D01*
X132713655Y-32326094D01*
X132485413Y-32264938D01*
X132485403Y-32264936D01*
X132250001Y-32244341D01*
X132249999Y-32244341D01*
X132014596Y-32264936D01*
X132014586Y-32264938D01*
X131786344Y-32326094D01*
X131786335Y-32326098D01*
X131572171Y-32425964D01*
X131572169Y-32425965D01*
X131378600Y-32561503D01*
X131256673Y-32683430D01*
X131195350Y-32716914D01*
X131125658Y-32711930D01*
X131069725Y-32670058D01*
X131052810Y-32639081D01*
X131003797Y-32507671D01*
X131003793Y-32507664D01*
X130917547Y-32392455D01*
X130917544Y-32392452D01*
X130802335Y-32306206D01*
X130802328Y-32306202D01*
X130667482Y-32255908D01*
X130667483Y-32255908D01*
X130607883Y-32249501D01*
X130607881Y-32249500D01*
X130607873Y-32249500D01*
X130607864Y-32249500D01*
X128812129Y-32249500D01*
X128812123Y-32249501D01*
X128752516Y-32255908D01*
X128617671Y-32306202D01*
X128617664Y-32306206D01*
X128502455Y-32392452D01*
X128502452Y-32392455D01*
X128416206Y-32507664D01*
X128416202Y-32507671D01*
X128365908Y-32642517D01*
X128359501Y-32702116D01*
X128359500Y-32702135D01*
X128359500Y-34497870D01*
X128359501Y-34497876D01*
X128365908Y-34557483D01*
X128416202Y-34692328D01*
X128416206Y-34692335D01*
X128502452Y-34807544D01*
X128502455Y-34807547D01*
X128617664Y-34893793D01*
X128617671Y-34893797D01*
X128749081Y-34942810D01*
X128805015Y-34984681D01*
X128829432Y-35050145D01*
X128814580Y-35118418D01*
X128793430Y-35146673D01*
X128671503Y-35268600D01*
X128535965Y-35462169D01*
X128535964Y-35462171D01*
X128436098Y-35676335D01*
X128436094Y-35676344D01*
X128374938Y-35904586D01*
X128374936Y-35904596D01*
X128354341Y-36139999D01*
X128354341Y-36140000D01*
X128374936Y-36375403D01*
X128374938Y-36375413D01*
X128436094Y-36603655D01*
X128436096Y-36603659D01*
X128436097Y-36603663D01*
X128485601Y-36709824D01*
X128535965Y-36817830D01*
X128535967Y-36817834D01*
X128671501Y-37011395D01*
X128671506Y-37011402D01*
X128838597Y-37178493D01*
X128838603Y-37178498D01*
X129024158Y-37308425D01*
X129067783Y-37363002D01*
X129074977Y-37432500D01*
X129043454Y-37494855D01*
X129024158Y-37511575D01*
X128838597Y-37641505D01*
X128671505Y-37808597D01*
X128535965Y-38002169D01*
X128535964Y-38002171D01*
X128436098Y-38216335D01*
X128436094Y-38216344D01*
X128374938Y-38444586D01*
X128374936Y-38444596D01*
X128354341Y-38679999D01*
X128354341Y-38680000D01*
X127795532Y-38680000D01*
X127831833Y-33561501D01*
X127849123Y-31123620D01*
X127869283Y-31056722D01*
X127922410Y-31011343D01*
X127973120Y-31000500D01*
X159725113Y-31000500D01*
X159792152Y-31020185D01*
G37*
%TD.AperFunction*%
%TA.AperFunction,Conductor*%
G36*
X92792152Y-47020185D02*
G01*
X92837907Y-47072989D01*
X92849110Y-47125379D01*
X92750877Y-60976379D01*
X92730717Y-61043278D01*
X92677590Y-61088657D01*
X92626880Y-61099500D01*
X60874887Y-61099500D01*
X60807848Y-61079815D01*
X60762093Y-61027011D01*
X60750890Y-60974621D01*
X60795532Y-54680000D01*
X61354341Y-54680000D01*
X61374936Y-54915403D01*
X61374938Y-54915413D01*
X61436094Y-55143655D01*
X61436096Y-55143659D01*
X61436097Y-55143663D01*
X61519155Y-55321781D01*
X61535965Y-55357830D01*
X61535967Y-55357834D01*
X61644281Y-55512521D01*
X61671505Y-55551401D01*
X61838599Y-55718495D01*
X61935384Y-55786265D01*
X62032165Y-55854032D01*
X62032167Y-55854033D01*
X62032170Y-55854035D01*
X62246337Y-55953903D01*
X62474592Y-56015063D01*
X62662918Y-56031539D01*
X62709999Y-56035659D01*
X62710000Y-56035659D01*
X62710001Y-56035659D01*
X62749234Y-56032226D01*
X62945408Y-56015063D01*
X63173663Y-55953903D01*
X63387830Y-55854035D01*
X63581401Y-55718495D01*
X63748495Y-55551401D01*
X63878730Y-55365405D01*
X63933307Y-55321781D01*
X64002805Y-55314587D01*
X64065160Y-55346110D01*
X64081879Y-55365405D01*
X64211890Y-55551078D01*
X64378917Y-55718105D01*
X64572421Y-55853600D01*
X64786507Y-55953429D01*
X64786516Y-55953433D01*
X65000000Y-56010634D01*
X65000000Y-55113012D01*
X65057007Y-55145925D01*
X65184174Y-55180000D01*
X65315826Y-55180000D01*
X65442993Y-55145925D01*
X65500000Y-55113012D01*
X65500000Y-56010633D01*
X65713483Y-55953433D01*
X65713492Y-55953429D01*
X65927578Y-55853600D01*
X66121082Y-55718105D01*
X66288105Y-55551082D01*
X66423600Y-55357578D01*
X66523429Y-55143492D01*
X66523432Y-55143486D01*
X66580636Y-54930000D01*
X65683012Y-54930000D01*
X65715925Y-54872993D01*
X65750000Y-54745826D01*
X65750000Y-54614174D01*
X65715925Y-54487007D01*
X65683012Y-54430000D01*
X66580636Y-54430000D01*
X66580635Y-54429999D01*
X66523427Y-54216497D01*
X66523361Y-54216316D01*
X66523355Y-54216230D01*
X66522029Y-54211280D01*
X66523024Y-54211013D01*
X66518935Y-54146587D01*
X66552910Y-54085534D01*
X66614500Y-54052541D01*
X66639886Y-54049915D01*
X72662944Y-54049915D01*
X72665957Y-54050108D01*
X72672313Y-54050093D01*
X72672319Y-54050095D01*
X72750734Y-54049915D01*
X72750857Y-54049915D01*
X72835435Y-54049915D01*
X72838439Y-54049714D01*
X73170275Y-54048953D01*
X73236528Y-54067958D01*
X73383750Y-54160464D01*
X73543120Y-54216230D01*
X73554017Y-54220043D01*
X73554022Y-54220044D01*
X73733268Y-54240240D01*
X73733272Y-54240240D01*
X73733276Y-54240240D01*
X73912521Y-54220044D01*
X73912524Y-54220043D01*
X73912527Y-54220043D01*
X74082794Y-54160464D01*
X74235534Y-54064491D01*
X74245328Y-54054697D01*
X74306650Y-54021210D01*
X74376342Y-54026192D01*
X74420693Y-54054694D01*
X74464518Y-54098519D01*
X74617258Y-54194492D01*
X74725387Y-54232328D01*
X74787525Y-54254071D01*
X74787530Y-54254072D01*
X74966776Y-54274268D01*
X74966780Y-54274268D01*
X74966784Y-54274268D01*
X75146029Y-54254072D01*
X75146032Y-54254071D01*
X75146035Y-54254071D01*
X75316302Y-54194492D01*
X75469042Y-54098519D01*
X75596596Y-53970965D01*
X75692569Y-53818225D01*
X75752148Y-53647958D01*
X75768147Y-53505965D01*
X75772345Y-53468706D01*
X75772345Y-53468699D01*
X75752149Y-53289453D01*
X75752148Y-53289448D01*
X75692568Y-53119179D01*
X75596595Y-52966440D01*
X75469042Y-52838887D01*
X75316301Y-52742913D01*
X75205613Y-52704182D01*
X75146035Y-52683335D01*
X75125242Y-52680992D01*
X75113510Y-52679670D01*
X75049097Y-52652602D01*
X75030248Y-52633509D01*
X73434512Y-50621752D01*
X73424301Y-50606738D01*
X73420407Y-50600000D01*
X86394341Y-50600000D01*
X86414936Y-50835403D01*
X86414938Y-50835413D01*
X86476094Y-51063655D01*
X86476096Y-51063659D01*
X86476097Y-51063663D01*
X86571661Y-51268599D01*
X86575965Y-51277830D01*
X86575967Y-51277834D01*
X86684281Y-51432521D01*
X86711501Y-51471396D01*
X86711506Y-51471402D01*
X86833430Y-51593326D01*
X86866915Y-51654649D01*
X86861931Y-51724341D01*
X86820059Y-51780274D01*
X86789083Y-51797189D01*
X86657669Y-51846203D01*
X86657664Y-51846206D01*
X86542455Y-51932452D01*
X86542452Y-51932455D01*
X86456206Y-52047664D01*
X86456202Y-52047671D01*
X86405908Y-52182517D01*
X86399501Y-52242116D01*
X86399501Y-52242123D01*
X86399500Y-52242135D01*
X86399500Y-54037870D01*
X86399501Y-54037876D01*
X86405908Y-54097483D01*
X86456202Y-54232328D01*
X86456206Y-54232335D01*
X86542452Y-54347544D01*
X86542455Y-54347547D01*
X86657664Y-54433793D01*
X86657671Y-54433797D01*
X86792517Y-54484091D01*
X86792516Y-54484091D01*
X86799444Y-54484835D01*
X86852127Y-54490500D01*
X88647872Y-54490499D01*
X88707483Y-54484091D01*
X88842331Y-54433796D01*
X88957546Y-54347546D01*
X89043796Y-54232331D01*
X89094091Y-54097483D01*
X89100500Y-54037873D01*
X89100499Y-52242128D01*
X89094091Y-52182517D01*
X89078233Y-52140000D01*
X89043797Y-52047671D01*
X89043793Y-52047664D01*
X88957547Y-51932455D01*
X88957544Y-51932452D01*
X88842335Y-51846206D01*
X88842328Y-51846202D01*
X88710917Y-51797189D01*
X88654983Y-51755318D01*
X88630566Y-51689853D01*
X88645418Y-51621580D01*
X88666563Y-51593332D01*
X88788495Y-51471401D01*
X88924035Y-51277830D01*
X89023903Y-51063663D01*
X89085063Y-50835408D01*
X89105659Y-50600000D01*
X89085063Y-50364592D01*
X89023903Y-50136337D01*
X88924035Y-49922171D01*
X88863284Y-49835408D01*
X88788494Y-49728597D01*
X88621402Y-49561506D01*
X88621395Y-49561501D01*
X88427834Y-49425967D01*
X88427830Y-49425965D01*
X88427828Y-49425964D01*
X88213663Y-49326097D01*
X88213659Y-49326096D01*
X88213655Y-49326094D01*
X87985413Y-49264938D01*
X87985403Y-49264936D01*
X87750001Y-49244341D01*
X87749999Y-49244341D01*
X87514596Y-49264936D01*
X87514586Y-49264938D01*
X87286344Y-49326094D01*
X87286335Y-49326098D01*
X87072171Y-49425964D01*
X87072169Y-49425965D01*
X86878597Y-49561505D01*
X86711505Y-49728597D01*
X86575965Y-49922169D01*
X86575964Y-49922171D01*
X86476098Y-50136335D01*
X86476094Y-50136344D01*
X86414938Y-50364586D01*
X86414936Y-50364596D01*
X86394341Y-50599999D01*
X86394341Y-50600000D01*
X73420407Y-50600000D01*
X73411367Y-50584355D01*
X73411364Y-50584352D01*
X73385001Y-50558009D01*
X73375500Y-50547354D01*
X73352325Y-50518138D01*
X73352322Y-50518135D01*
X73331560Y-50502728D01*
X73317807Y-50490867D01*
X73299519Y-50472593D01*
X73267225Y-50453965D01*
X73255297Y-50446136D01*
X73225354Y-50423916D01*
X73225353Y-50423915D01*
X73225351Y-50423914D01*
X73201303Y-50414403D01*
X73184951Y-50406506D01*
X73162558Y-50393589D01*
X73126539Y-50383952D01*
X73112991Y-50379477D01*
X73078325Y-50365767D01*
X73078320Y-50365765D01*
X73078317Y-50365764D01*
X73078315Y-50365764D01*
X73052623Y-50362801D01*
X73034790Y-50359406D01*
X73009816Y-50352725D01*
X73009815Y-50352725D01*
X72972544Y-50352739D01*
X72958293Y-50351923D01*
X72921247Y-50347651D01*
X72921244Y-50347651D01*
X72895662Y-50351438D01*
X72877551Y-50352775D01*
X66812216Y-50355098D01*
X66582645Y-50355098D01*
X66515606Y-50335413D01*
X66469851Y-50282609D01*
X66459907Y-50213451D01*
X66470263Y-50178693D01*
X66490015Y-50136335D01*
X66523903Y-50063663D01*
X66585063Y-49835408D01*
X66605659Y-49600000D01*
X66585063Y-49364592D01*
X66523903Y-49136337D01*
X66424035Y-48922171D01*
X66288495Y-48728599D01*
X66288494Y-48728597D01*
X66121402Y-48561506D01*
X66121395Y-48561501D01*
X65927834Y-48425967D01*
X65927830Y-48425965D01*
X65927828Y-48425964D01*
X65713663Y-48326097D01*
X65713659Y-48326096D01*
X65713655Y-48326094D01*
X65485413Y-48264938D01*
X65485403Y-48264936D01*
X65250001Y-48244341D01*
X65249999Y-48244341D01*
X65014596Y-48264936D01*
X65014586Y-48264938D01*
X64786344Y-48326094D01*
X64786335Y-48326098D01*
X64572171Y-48425964D01*
X64572169Y-48425965D01*
X64378600Y-48561503D01*
X64256673Y-48683430D01*
X64195350Y-48716914D01*
X64125658Y-48711930D01*
X64069725Y-48670058D01*
X64052810Y-48639081D01*
X64003797Y-48507671D01*
X64003793Y-48507664D01*
X63917547Y-48392455D01*
X63917544Y-48392452D01*
X63802335Y-48306206D01*
X63802328Y-48306202D01*
X63667482Y-48255908D01*
X63667483Y-48255908D01*
X63607883Y-48249501D01*
X63607881Y-48249500D01*
X63607873Y-48249500D01*
X63607864Y-48249500D01*
X61812129Y-48249500D01*
X61812123Y-48249501D01*
X61752516Y-48255908D01*
X61617671Y-48306202D01*
X61617664Y-48306206D01*
X61502455Y-48392452D01*
X61502452Y-48392455D01*
X61416206Y-48507664D01*
X61416202Y-48507671D01*
X61365908Y-48642517D01*
X61359501Y-48702116D01*
X61359500Y-48702135D01*
X61359500Y-50497870D01*
X61359501Y-50497876D01*
X61365908Y-50557483D01*
X61416202Y-50692328D01*
X61416206Y-50692335D01*
X61502452Y-50807544D01*
X61502455Y-50807547D01*
X61617664Y-50893793D01*
X61617671Y-50893797D01*
X61749081Y-50942810D01*
X61805015Y-50984681D01*
X61829432Y-51050145D01*
X61814580Y-51118418D01*
X61793430Y-51146673D01*
X61671503Y-51268600D01*
X61535965Y-51462169D01*
X61535964Y-51462171D01*
X61436098Y-51676335D01*
X61436094Y-51676344D01*
X61374938Y-51904586D01*
X61374936Y-51904596D01*
X61354341Y-52139999D01*
X61354341Y-52140000D01*
X61374936Y-52375403D01*
X61374938Y-52375413D01*
X61436094Y-52603655D01*
X61436096Y-52603659D01*
X61436097Y-52603663D01*
X61485601Y-52709824D01*
X61535965Y-52817830D01*
X61535967Y-52817834D01*
X61671501Y-53011395D01*
X61671506Y-53011402D01*
X61838597Y-53178493D01*
X61838603Y-53178498D01*
X62024158Y-53308425D01*
X62067783Y-53363002D01*
X62074977Y-53432500D01*
X62043454Y-53494855D01*
X62024158Y-53511575D01*
X61838597Y-53641505D01*
X61671505Y-53808597D01*
X61535965Y-54002169D01*
X61535964Y-54002171D01*
X61436098Y-54216335D01*
X61436094Y-54216344D01*
X61374938Y-54444586D01*
X61374936Y-54444596D01*
X61354341Y-54679999D01*
X61354341Y-54680000D01*
X60795532Y-54680000D01*
X60831833Y-49561501D01*
X60849123Y-47123620D01*
X60869283Y-47056722D01*
X60922410Y-47011343D01*
X60973120Y-47000500D01*
X92725113Y-47000500D01*
X92792152Y-47020185D01*
G37*
%TD.AperFunction*%
%TA.AperFunction,Conductor*%
G36*
X126292152Y-47020185D02*
G01*
X126337907Y-47072989D01*
X126349110Y-47125379D01*
X126250877Y-60976379D01*
X126230717Y-61043278D01*
X126177590Y-61088657D01*
X126126880Y-61099500D01*
X94374887Y-61099500D01*
X94307848Y-61079815D01*
X94262093Y-61027011D01*
X94250890Y-60974621D01*
X94295532Y-54680000D01*
X94854341Y-54680000D01*
X94874936Y-54915403D01*
X94874938Y-54915413D01*
X94936094Y-55143655D01*
X94936096Y-55143659D01*
X94936097Y-55143663D01*
X95019155Y-55321781D01*
X95035965Y-55357830D01*
X95035967Y-55357834D01*
X95144281Y-55512521D01*
X95171505Y-55551401D01*
X95338599Y-55718495D01*
X95435384Y-55786265D01*
X95532165Y-55854032D01*
X95532167Y-55854033D01*
X95532170Y-55854035D01*
X95746337Y-55953903D01*
X95974592Y-56015063D01*
X96162918Y-56031539D01*
X96209999Y-56035659D01*
X96210000Y-56035659D01*
X96210001Y-56035659D01*
X96249234Y-56032226D01*
X96445408Y-56015063D01*
X96673663Y-55953903D01*
X96887830Y-55854035D01*
X97081401Y-55718495D01*
X97248495Y-55551401D01*
X97378730Y-55365405D01*
X97433307Y-55321781D01*
X97502805Y-55314587D01*
X97565160Y-55346110D01*
X97581879Y-55365405D01*
X97711890Y-55551078D01*
X97878917Y-55718105D01*
X98072421Y-55853600D01*
X98286507Y-55953429D01*
X98286516Y-55953433D01*
X98500000Y-56010634D01*
X98500000Y-55113012D01*
X98557007Y-55145925D01*
X98684174Y-55180000D01*
X98815826Y-55180000D01*
X98942993Y-55145925D01*
X99000000Y-55113012D01*
X99000000Y-56010633D01*
X99213483Y-55953433D01*
X99213492Y-55953429D01*
X99427578Y-55853600D01*
X99621082Y-55718105D01*
X99788105Y-55551082D01*
X99923600Y-55357578D01*
X100023429Y-55143492D01*
X100023432Y-55143486D01*
X100080636Y-54930000D01*
X99183012Y-54930000D01*
X99215925Y-54872993D01*
X99250000Y-54745826D01*
X99250000Y-54614174D01*
X99215925Y-54487007D01*
X99183012Y-54430000D01*
X100080636Y-54430000D01*
X100080635Y-54429999D01*
X100023427Y-54216497D01*
X100023361Y-54216316D01*
X100023355Y-54216230D01*
X100022029Y-54211280D01*
X100023024Y-54211013D01*
X100018935Y-54146587D01*
X100052910Y-54085534D01*
X100114500Y-54052541D01*
X100139886Y-54049915D01*
X106162944Y-54049915D01*
X106165957Y-54050108D01*
X106172313Y-54050093D01*
X106172319Y-54050095D01*
X106250734Y-54049915D01*
X106250857Y-54049915D01*
X106335435Y-54049915D01*
X106338439Y-54049714D01*
X106670275Y-54048953D01*
X106736528Y-54067958D01*
X106883750Y-54160464D01*
X107043120Y-54216230D01*
X107054017Y-54220043D01*
X107054022Y-54220044D01*
X107233268Y-54240240D01*
X107233272Y-54240240D01*
X107233276Y-54240240D01*
X107412521Y-54220044D01*
X107412524Y-54220043D01*
X107412527Y-54220043D01*
X107582794Y-54160464D01*
X107735534Y-54064491D01*
X107745328Y-54054697D01*
X107806650Y-54021210D01*
X107876342Y-54026192D01*
X107920693Y-54054694D01*
X107964518Y-54098519D01*
X108117258Y-54194492D01*
X108225387Y-54232328D01*
X108287525Y-54254071D01*
X108287530Y-54254072D01*
X108466776Y-54274268D01*
X108466780Y-54274268D01*
X108466784Y-54274268D01*
X108646029Y-54254072D01*
X108646032Y-54254071D01*
X108646035Y-54254071D01*
X108816302Y-54194492D01*
X108969042Y-54098519D01*
X109096596Y-53970965D01*
X109192569Y-53818225D01*
X109252148Y-53647958D01*
X109268147Y-53505965D01*
X109272345Y-53468706D01*
X109272345Y-53468699D01*
X109252149Y-53289453D01*
X109252148Y-53289448D01*
X109192568Y-53119179D01*
X109096595Y-52966440D01*
X108969042Y-52838887D01*
X108816301Y-52742913D01*
X108705613Y-52704182D01*
X108646035Y-52683335D01*
X108625242Y-52680992D01*
X108613510Y-52679670D01*
X108549097Y-52652602D01*
X108530248Y-52633509D01*
X106934512Y-50621752D01*
X106924301Y-50606738D01*
X106920407Y-50600000D01*
X119894341Y-50600000D01*
X119914936Y-50835403D01*
X119914938Y-50835413D01*
X119976094Y-51063655D01*
X119976096Y-51063659D01*
X119976097Y-51063663D01*
X120071661Y-51268599D01*
X120075965Y-51277830D01*
X120075967Y-51277834D01*
X120184281Y-51432521D01*
X120211501Y-51471396D01*
X120211506Y-51471402D01*
X120333430Y-51593326D01*
X120366915Y-51654649D01*
X120361931Y-51724341D01*
X120320059Y-51780274D01*
X120289083Y-51797189D01*
X120157669Y-51846203D01*
X120157664Y-51846206D01*
X120042455Y-51932452D01*
X120042452Y-51932455D01*
X119956206Y-52047664D01*
X119956202Y-52047671D01*
X119905908Y-52182517D01*
X119899501Y-52242116D01*
X119899501Y-52242123D01*
X119899500Y-52242135D01*
X119899500Y-54037870D01*
X119899501Y-54037876D01*
X119905908Y-54097483D01*
X119956202Y-54232328D01*
X119956206Y-54232335D01*
X120042452Y-54347544D01*
X120042455Y-54347547D01*
X120157664Y-54433793D01*
X120157671Y-54433797D01*
X120292517Y-54484091D01*
X120292516Y-54484091D01*
X120299444Y-54484835D01*
X120352127Y-54490500D01*
X122147872Y-54490499D01*
X122207483Y-54484091D01*
X122342331Y-54433796D01*
X122457546Y-54347546D01*
X122543796Y-54232331D01*
X122594091Y-54097483D01*
X122600500Y-54037873D01*
X122600499Y-52242128D01*
X122594091Y-52182517D01*
X122578233Y-52140000D01*
X122543797Y-52047671D01*
X122543793Y-52047664D01*
X122457547Y-51932455D01*
X122457544Y-51932452D01*
X122342335Y-51846206D01*
X122342328Y-51846202D01*
X122210917Y-51797189D01*
X122154983Y-51755318D01*
X122130566Y-51689853D01*
X122145418Y-51621580D01*
X122166563Y-51593332D01*
X122288495Y-51471401D01*
X122424035Y-51277830D01*
X122523903Y-51063663D01*
X122585063Y-50835408D01*
X122605659Y-50600000D01*
X122585063Y-50364592D01*
X122523903Y-50136337D01*
X122424035Y-49922171D01*
X122363284Y-49835408D01*
X122288494Y-49728597D01*
X122121402Y-49561506D01*
X122121395Y-49561501D01*
X121927834Y-49425967D01*
X121927830Y-49425965D01*
X121927828Y-49425964D01*
X121713663Y-49326097D01*
X121713659Y-49326096D01*
X121713655Y-49326094D01*
X121485413Y-49264938D01*
X121485403Y-49264936D01*
X121250001Y-49244341D01*
X121249999Y-49244341D01*
X121014596Y-49264936D01*
X121014586Y-49264938D01*
X120786344Y-49326094D01*
X120786335Y-49326098D01*
X120572171Y-49425964D01*
X120572169Y-49425965D01*
X120378597Y-49561505D01*
X120211505Y-49728597D01*
X120075965Y-49922169D01*
X120075964Y-49922171D01*
X119976098Y-50136335D01*
X119976094Y-50136344D01*
X119914938Y-50364586D01*
X119914936Y-50364596D01*
X119894341Y-50599999D01*
X119894341Y-50600000D01*
X106920407Y-50600000D01*
X106911367Y-50584355D01*
X106911364Y-50584352D01*
X106885001Y-50558009D01*
X106875500Y-50547354D01*
X106852325Y-50518138D01*
X106852322Y-50518135D01*
X106831560Y-50502728D01*
X106817807Y-50490867D01*
X106799519Y-50472593D01*
X106767225Y-50453965D01*
X106755297Y-50446136D01*
X106725354Y-50423916D01*
X106725353Y-50423915D01*
X106725351Y-50423914D01*
X106701303Y-50414403D01*
X106684951Y-50406506D01*
X106662558Y-50393589D01*
X106626539Y-50383952D01*
X106612991Y-50379477D01*
X106578325Y-50365767D01*
X106578320Y-50365765D01*
X106578317Y-50365764D01*
X106578315Y-50365764D01*
X106552623Y-50362801D01*
X106534790Y-50359406D01*
X106509816Y-50352725D01*
X106509815Y-50352725D01*
X106472544Y-50352739D01*
X106458293Y-50351923D01*
X106421247Y-50347651D01*
X106421244Y-50347651D01*
X106395662Y-50351438D01*
X106377551Y-50352775D01*
X100312216Y-50355098D01*
X100082645Y-50355098D01*
X100015606Y-50335413D01*
X99969851Y-50282609D01*
X99959907Y-50213451D01*
X99970263Y-50178693D01*
X99990015Y-50136335D01*
X100023903Y-50063663D01*
X100085063Y-49835408D01*
X100105659Y-49600000D01*
X100085063Y-49364592D01*
X100023903Y-49136337D01*
X99924035Y-48922171D01*
X99788495Y-48728599D01*
X99788494Y-48728597D01*
X99621402Y-48561506D01*
X99621395Y-48561501D01*
X99427834Y-48425967D01*
X99427830Y-48425965D01*
X99427828Y-48425964D01*
X99213663Y-48326097D01*
X99213659Y-48326096D01*
X99213655Y-48326094D01*
X98985413Y-48264938D01*
X98985403Y-48264936D01*
X98750001Y-48244341D01*
X98749999Y-48244341D01*
X98514596Y-48264936D01*
X98514586Y-48264938D01*
X98286344Y-48326094D01*
X98286335Y-48326098D01*
X98072171Y-48425964D01*
X98072169Y-48425965D01*
X97878600Y-48561503D01*
X97756673Y-48683430D01*
X97695350Y-48716914D01*
X97625658Y-48711930D01*
X97569725Y-48670058D01*
X97552810Y-48639081D01*
X97503797Y-48507671D01*
X97503793Y-48507664D01*
X97417547Y-48392455D01*
X97417544Y-48392452D01*
X97302335Y-48306206D01*
X97302328Y-48306202D01*
X97167482Y-48255908D01*
X97167483Y-48255908D01*
X97107883Y-48249501D01*
X97107881Y-48249500D01*
X97107873Y-48249500D01*
X97107864Y-48249500D01*
X95312129Y-48249500D01*
X95312123Y-48249501D01*
X95252516Y-48255908D01*
X95117671Y-48306202D01*
X95117664Y-48306206D01*
X95002455Y-48392452D01*
X95002452Y-48392455D01*
X94916206Y-48507664D01*
X94916202Y-48507671D01*
X94865908Y-48642517D01*
X94859501Y-48702116D01*
X94859500Y-48702135D01*
X94859500Y-50497870D01*
X94859501Y-50497876D01*
X94865908Y-50557483D01*
X94916202Y-50692328D01*
X94916206Y-50692335D01*
X95002452Y-50807544D01*
X95002455Y-50807547D01*
X95117664Y-50893793D01*
X95117671Y-50893797D01*
X95249081Y-50942810D01*
X95305015Y-50984681D01*
X95329432Y-51050145D01*
X95314580Y-51118418D01*
X95293430Y-51146673D01*
X95171503Y-51268600D01*
X95035965Y-51462169D01*
X95035964Y-51462171D01*
X94936098Y-51676335D01*
X94936094Y-51676344D01*
X94874938Y-51904586D01*
X94874936Y-51904596D01*
X94854341Y-52139999D01*
X94854341Y-52140000D01*
X94874936Y-52375403D01*
X94874938Y-52375413D01*
X94936094Y-52603655D01*
X94936096Y-52603659D01*
X94936097Y-52603663D01*
X94985601Y-52709824D01*
X95035965Y-52817830D01*
X95035967Y-52817834D01*
X95171501Y-53011395D01*
X95171506Y-53011402D01*
X95338597Y-53178493D01*
X95338603Y-53178498D01*
X95524158Y-53308425D01*
X95567783Y-53363002D01*
X95574977Y-53432500D01*
X95543454Y-53494855D01*
X95524158Y-53511575D01*
X95338597Y-53641505D01*
X95171505Y-53808597D01*
X95035965Y-54002169D01*
X95035964Y-54002171D01*
X94936098Y-54216335D01*
X94936094Y-54216344D01*
X94874938Y-54444586D01*
X94874936Y-54444596D01*
X94854341Y-54679999D01*
X94854341Y-54680000D01*
X94295532Y-54680000D01*
X94331833Y-49561501D01*
X94349123Y-47123620D01*
X94369283Y-47056722D01*
X94422410Y-47011343D01*
X94473120Y-47000500D01*
X126225113Y-47000500D01*
X126292152Y-47020185D01*
G37*
%TD.AperFunction*%
%TA.AperFunction,Conductor*%
G36*
X159792152Y-47020185D02*
G01*
X159837907Y-47072989D01*
X159849110Y-47125379D01*
X159750877Y-60976379D01*
X159730717Y-61043278D01*
X159677590Y-61088657D01*
X159626880Y-61099500D01*
X127874887Y-61099500D01*
X127807848Y-61079815D01*
X127762093Y-61027011D01*
X127750890Y-60974621D01*
X127795532Y-54680000D01*
X128354341Y-54680000D01*
X128374936Y-54915403D01*
X128374938Y-54915413D01*
X128436094Y-55143655D01*
X128436096Y-55143659D01*
X128436097Y-55143663D01*
X128519155Y-55321781D01*
X128535965Y-55357830D01*
X128535967Y-55357834D01*
X128644281Y-55512521D01*
X128671505Y-55551401D01*
X128838599Y-55718495D01*
X128935384Y-55786265D01*
X129032165Y-55854032D01*
X129032167Y-55854033D01*
X129032170Y-55854035D01*
X129246337Y-55953903D01*
X129474592Y-56015063D01*
X129662918Y-56031539D01*
X129709999Y-56035659D01*
X129710000Y-56035659D01*
X129710001Y-56035659D01*
X129749234Y-56032226D01*
X129945408Y-56015063D01*
X130173663Y-55953903D01*
X130387830Y-55854035D01*
X130581401Y-55718495D01*
X130748495Y-55551401D01*
X130878730Y-55365405D01*
X130933307Y-55321781D01*
X131002805Y-55314587D01*
X131065160Y-55346110D01*
X131081879Y-55365405D01*
X131211890Y-55551078D01*
X131378917Y-55718105D01*
X131572421Y-55853600D01*
X131786507Y-55953429D01*
X131786516Y-55953433D01*
X132000000Y-56010634D01*
X132000000Y-55113012D01*
X132057007Y-55145925D01*
X132184174Y-55180000D01*
X132315826Y-55180000D01*
X132442993Y-55145925D01*
X132500000Y-55113012D01*
X132500000Y-56010633D01*
X132713483Y-55953433D01*
X132713492Y-55953429D01*
X132927578Y-55853600D01*
X133121082Y-55718105D01*
X133288105Y-55551082D01*
X133423600Y-55357578D01*
X133523429Y-55143492D01*
X133523432Y-55143486D01*
X133580636Y-54930000D01*
X132683012Y-54930000D01*
X132715925Y-54872993D01*
X132750000Y-54745826D01*
X132750000Y-54614174D01*
X132715925Y-54487007D01*
X132683012Y-54430000D01*
X133580636Y-54430000D01*
X133580635Y-54429999D01*
X133523427Y-54216497D01*
X133523361Y-54216316D01*
X133523355Y-54216230D01*
X133522029Y-54211280D01*
X133523024Y-54211013D01*
X133518935Y-54146587D01*
X133552910Y-54085534D01*
X133614500Y-54052541D01*
X133639886Y-54049915D01*
X139662944Y-54049915D01*
X139665957Y-54050108D01*
X139672313Y-54050093D01*
X139672319Y-54050095D01*
X139750734Y-54049915D01*
X139750857Y-54049915D01*
X139835435Y-54049915D01*
X139838439Y-54049714D01*
X140170275Y-54048953D01*
X140236528Y-54067958D01*
X140383750Y-54160464D01*
X140543120Y-54216230D01*
X140554017Y-54220043D01*
X140554022Y-54220044D01*
X140733268Y-54240240D01*
X140733272Y-54240240D01*
X140733276Y-54240240D01*
X140912521Y-54220044D01*
X140912524Y-54220043D01*
X140912527Y-54220043D01*
X141082794Y-54160464D01*
X141235534Y-54064491D01*
X141245328Y-54054697D01*
X141306650Y-54021210D01*
X141376342Y-54026192D01*
X141420693Y-54054694D01*
X141464518Y-54098519D01*
X141617258Y-54194492D01*
X141725387Y-54232328D01*
X141787525Y-54254071D01*
X141787530Y-54254072D01*
X141966776Y-54274268D01*
X141966780Y-54274268D01*
X141966784Y-54274268D01*
X142146029Y-54254072D01*
X142146032Y-54254071D01*
X142146035Y-54254071D01*
X142316302Y-54194492D01*
X142469042Y-54098519D01*
X142596596Y-53970965D01*
X142692569Y-53818225D01*
X142752148Y-53647958D01*
X142768147Y-53505965D01*
X142772345Y-53468706D01*
X142772345Y-53468699D01*
X142752149Y-53289453D01*
X142752148Y-53289448D01*
X142692568Y-53119179D01*
X142596595Y-52966440D01*
X142469042Y-52838887D01*
X142316301Y-52742913D01*
X142205613Y-52704182D01*
X142146035Y-52683335D01*
X142125242Y-52680992D01*
X142113510Y-52679670D01*
X142049097Y-52652602D01*
X142030248Y-52633509D01*
X140434512Y-50621752D01*
X140424301Y-50606738D01*
X140420407Y-50600000D01*
X153394341Y-50600000D01*
X153414936Y-50835403D01*
X153414938Y-50835413D01*
X153476094Y-51063655D01*
X153476096Y-51063659D01*
X153476097Y-51063663D01*
X153571661Y-51268599D01*
X153575965Y-51277830D01*
X153575967Y-51277834D01*
X153684281Y-51432521D01*
X153711501Y-51471396D01*
X153711506Y-51471402D01*
X153833430Y-51593326D01*
X153866915Y-51654649D01*
X153861931Y-51724341D01*
X153820059Y-51780274D01*
X153789083Y-51797189D01*
X153657669Y-51846203D01*
X153657664Y-51846206D01*
X153542455Y-51932452D01*
X153542452Y-51932455D01*
X153456206Y-52047664D01*
X153456202Y-52047671D01*
X153405908Y-52182517D01*
X153399501Y-52242116D01*
X153399501Y-52242123D01*
X153399500Y-52242135D01*
X153399500Y-54037870D01*
X153399501Y-54037876D01*
X153405908Y-54097483D01*
X153456202Y-54232328D01*
X153456206Y-54232335D01*
X153542452Y-54347544D01*
X153542455Y-54347547D01*
X153657664Y-54433793D01*
X153657671Y-54433797D01*
X153792517Y-54484091D01*
X153792516Y-54484091D01*
X153799444Y-54484835D01*
X153852127Y-54490500D01*
X155647872Y-54490499D01*
X155707483Y-54484091D01*
X155842331Y-54433796D01*
X155957546Y-54347546D01*
X156043796Y-54232331D01*
X156094091Y-54097483D01*
X156100500Y-54037873D01*
X156100499Y-52242128D01*
X156094091Y-52182517D01*
X156078233Y-52140000D01*
X156043797Y-52047671D01*
X156043793Y-52047664D01*
X155957547Y-51932455D01*
X155957544Y-51932452D01*
X155842335Y-51846206D01*
X155842328Y-51846202D01*
X155710917Y-51797189D01*
X155654983Y-51755318D01*
X155630566Y-51689853D01*
X155645418Y-51621580D01*
X155666563Y-51593332D01*
X155788495Y-51471401D01*
X155924035Y-51277830D01*
X156023903Y-51063663D01*
X156085063Y-50835408D01*
X156105659Y-50600000D01*
X156085063Y-50364592D01*
X156023903Y-50136337D01*
X155924035Y-49922171D01*
X155863284Y-49835408D01*
X155788494Y-49728597D01*
X155621402Y-49561506D01*
X155621395Y-49561501D01*
X155427834Y-49425967D01*
X155427830Y-49425965D01*
X155427828Y-49425964D01*
X155213663Y-49326097D01*
X155213659Y-49326096D01*
X155213655Y-49326094D01*
X154985413Y-49264938D01*
X154985403Y-49264936D01*
X154750001Y-49244341D01*
X154749999Y-49244341D01*
X154514596Y-49264936D01*
X154514586Y-49264938D01*
X154286344Y-49326094D01*
X154286335Y-49326098D01*
X154072171Y-49425964D01*
X154072169Y-49425965D01*
X153878597Y-49561505D01*
X153711505Y-49728597D01*
X153575965Y-49922169D01*
X153575964Y-49922171D01*
X153476098Y-50136335D01*
X153476094Y-50136344D01*
X153414938Y-50364586D01*
X153414936Y-50364596D01*
X153394341Y-50599999D01*
X153394341Y-50600000D01*
X140420407Y-50600000D01*
X140411367Y-50584355D01*
X140411364Y-50584352D01*
X140385001Y-50558009D01*
X140375500Y-50547354D01*
X140352325Y-50518138D01*
X140352322Y-50518135D01*
X140331560Y-50502728D01*
X140317807Y-50490867D01*
X140299519Y-50472593D01*
X140267225Y-50453965D01*
X140255297Y-50446136D01*
X140225354Y-50423916D01*
X140225353Y-50423915D01*
X140225351Y-50423914D01*
X140201303Y-50414403D01*
X140184951Y-50406506D01*
X140162558Y-50393589D01*
X140126539Y-50383952D01*
X140112991Y-50379477D01*
X140078325Y-50365767D01*
X140078320Y-50365765D01*
X140078317Y-50365764D01*
X140078315Y-50365764D01*
X140052623Y-50362801D01*
X140034790Y-50359406D01*
X140009816Y-50352725D01*
X140009815Y-50352725D01*
X139972544Y-50352739D01*
X139958293Y-50351923D01*
X139921247Y-50347651D01*
X139921244Y-50347651D01*
X139895662Y-50351438D01*
X139877551Y-50352775D01*
X133812216Y-50355098D01*
X133582645Y-50355098D01*
X133515606Y-50335413D01*
X133469851Y-50282609D01*
X133459907Y-50213451D01*
X133470263Y-50178693D01*
X133490015Y-50136335D01*
X133523903Y-50063663D01*
X133585063Y-49835408D01*
X133605659Y-49600000D01*
X133585063Y-49364592D01*
X133523903Y-49136337D01*
X133424035Y-48922171D01*
X133288495Y-48728599D01*
X133288494Y-48728597D01*
X133121402Y-48561506D01*
X133121395Y-48561501D01*
X132927834Y-48425967D01*
X132927830Y-48425965D01*
X132927828Y-48425964D01*
X132713663Y-48326097D01*
X132713659Y-48326096D01*
X132713655Y-48326094D01*
X132485413Y-48264938D01*
X132485403Y-48264936D01*
X132250001Y-48244341D01*
X132249999Y-48244341D01*
X132014596Y-48264936D01*
X132014586Y-48264938D01*
X131786344Y-48326094D01*
X131786335Y-48326098D01*
X131572171Y-48425964D01*
X131572169Y-48425965D01*
X131378600Y-48561503D01*
X131256673Y-48683430D01*
X131195350Y-48716914D01*
X131125658Y-48711930D01*
X131069725Y-48670058D01*
X131052810Y-48639081D01*
X131003797Y-48507671D01*
X131003793Y-48507664D01*
X130917547Y-48392455D01*
X130917544Y-48392452D01*
X130802335Y-48306206D01*
X130802328Y-48306202D01*
X130667482Y-48255908D01*
X130667483Y-48255908D01*
X130607883Y-48249501D01*
X130607881Y-48249500D01*
X130607873Y-48249500D01*
X130607864Y-48249500D01*
X128812129Y-48249500D01*
X128812123Y-48249501D01*
X128752516Y-48255908D01*
X128617671Y-48306202D01*
X128617664Y-48306206D01*
X128502455Y-48392452D01*
X128502452Y-48392455D01*
X128416206Y-48507664D01*
X128416202Y-48507671D01*
X128365908Y-48642517D01*
X128359501Y-48702116D01*
X128359500Y-48702135D01*
X128359500Y-50497870D01*
X128359501Y-50497876D01*
X128365908Y-50557483D01*
X128416202Y-50692328D01*
X128416206Y-50692335D01*
X128502452Y-50807544D01*
X128502455Y-50807547D01*
X128617664Y-50893793D01*
X128617671Y-50893797D01*
X128749081Y-50942810D01*
X128805015Y-50984681D01*
X128829432Y-51050145D01*
X128814580Y-51118418D01*
X128793430Y-51146673D01*
X128671503Y-51268600D01*
X128535965Y-51462169D01*
X128535964Y-51462171D01*
X128436098Y-51676335D01*
X128436094Y-51676344D01*
X128374938Y-51904586D01*
X128374936Y-51904596D01*
X128354341Y-52139999D01*
X128354341Y-52140000D01*
X128374936Y-52375403D01*
X128374938Y-52375413D01*
X128436094Y-52603655D01*
X128436096Y-52603659D01*
X128436097Y-52603663D01*
X128485601Y-52709824D01*
X128535965Y-52817830D01*
X128535967Y-52817834D01*
X128671501Y-53011395D01*
X128671506Y-53011402D01*
X128838597Y-53178493D01*
X128838603Y-53178498D01*
X129024158Y-53308425D01*
X129067783Y-53363002D01*
X129074977Y-53432500D01*
X129043454Y-53494855D01*
X129024158Y-53511575D01*
X128838597Y-53641505D01*
X128671505Y-53808597D01*
X128535965Y-54002169D01*
X128535964Y-54002171D01*
X128436098Y-54216335D01*
X128436094Y-54216344D01*
X128374938Y-54444586D01*
X128374936Y-54444596D01*
X128354341Y-54679999D01*
X128354341Y-54680000D01*
X127795532Y-54680000D01*
X127831833Y-49561501D01*
X127849123Y-47123620D01*
X127869283Y-47056722D01*
X127922410Y-47011343D01*
X127973120Y-47000500D01*
X159725113Y-47000500D01*
X159792152Y-47020185D01*
G37*
%TD.AperFunction*%
%TA.AperFunction,Conductor*%
G36*
X92792152Y-63020185D02*
G01*
X92837907Y-63072989D01*
X92849110Y-63125379D01*
X92750877Y-76976379D01*
X92730717Y-77043278D01*
X92677590Y-77088657D01*
X92626880Y-77099500D01*
X60874887Y-77099500D01*
X60807848Y-77079815D01*
X60762093Y-77027011D01*
X60750890Y-76974621D01*
X60795532Y-70680000D01*
X61354341Y-70680000D01*
X61374936Y-70915403D01*
X61374938Y-70915413D01*
X61436094Y-71143655D01*
X61436096Y-71143659D01*
X61436097Y-71143663D01*
X61519155Y-71321781D01*
X61535965Y-71357830D01*
X61535967Y-71357834D01*
X61644281Y-71512521D01*
X61671505Y-71551401D01*
X61838599Y-71718495D01*
X61935384Y-71786265D01*
X62032165Y-71854032D01*
X62032167Y-71854033D01*
X62032170Y-71854035D01*
X62246337Y-71953903D01*
X62474592Y-72015063D01*
X62662918Y-72031539D01*
X62709999Y-72035659D01*
X62710000Y-72035659D01*
X62710001Y-72035659D01*
X62749234Y-72032226D01*
X62945408Y-72015063D01*
X63173663Y-71953903D01*
X63387830Y-71854035D01*
X63581401Y-71718495D01*
X63748495Y-71551401D01*
X63878730Y-71365405D01*
X63933307Y-71321781D01*
X64002805Y-71314587D01*
X64065160Y-71346110D01*
X64081879Y-71365405D01*
X64211890Y-71551078D01*
X64378917Y-71718105D01*
X64572421Y-71853600D01*
X64786507Y-71953429D01*
X64786516Y-71953433D01*
X65000000Y-72010634D01*
X65000000Y-71113012D01*
X65057007Y-71145925D01*
X65184174Y-71180000D01*
X65315826Y-71180000D01*
X65442993Y-71145925D01*
X65500000Y-71113012D01*
X65500000Y-72010633D01*
X65713483Y-71953433D01*
X65713492Y-71953429D01*
X65927578Y-71853600D01*
X66121082Y-71718105D01*
X66288105Y-71551082D01*
X66423600Y-71357578D01*
X66523429Y-71143492D01*
X66523432Y-71143486D01*
X66580636Y-70930000D01*
X65683012Y-70930000D01*
X65715925Y-70872993D01*
X65750000Y-70745826D01*
X65750000Y-70614174D01*
X65715925Y-70487007D01*
X65683012Y-70430000D01*
X66580636Y-70430000D01*
X66580635Y-70429999D01*
X66523427Y-70216497D01*
X66523361Y-70216316D01*
X66523355Y-70216230D01*
X66522029Y-70211280D01*
X66523024Y-70211013D01*
X66518935Y-70146587D01*
X66552910Y-70085534D01*
X66614500Y-70052541D01*
X66639886Y-70049915D01*
X72662944Y-70049915D01*
X72665957Y-70050108D01*
X72672313Y-70050093D01*
X72672319Y-70050095D01*
X72750734Y-70049915D01*
X72750857Y-70049915D01*
X72835435Y-70049915D01*
X72838439Y-70049714D01*
X73170275Y-70048953D01*
X73236528Y-70067958D01*
X73383750Y-70160464D01*
X73543120Y-70216230D01*
X73554017Y-70220043D01*
X73554022Y-70220044D01*
X73733268Y-70240240D01*
X73733272Y-70240240D01*
X73733276Y-70240240D01*
X73912521Y-70220044D01*
X73912524Y-70220043D01*
X73912527Y-70220043D01*
X74082794Y-70160464D01*
X74235534Y-70064491D01*
X74245328Y-70054697D01*
X74306650Y-70021210D01*
X74376342Y-70026192D01*
X74420693Y-70054694D01*
X74464518Y-70098519D01*
X74617258Y-70194492D01*
X74725387Y-70232328D01*
X74787525Y-70254071D01*
X74787530Y-70254072D01*
X74966776Y-70274268D01*
X74966780Y-70274268D01*
X74966784Y-70274268D01*
X75146029Y-70254072D01*
X75146032Y-70254071D01*
X75146035Y-70254071D01*
X75316302Y-70194492D01*
X75469042Y-70098519D01*
X75596596Y-69970965D01*
X75692569Y-69818225D01*
X75752148Y-69647958D01*
X75768147Y-69505965D01*
X75772345Y-69468706D01*
X75772345Y-69468699D01*
X75752149Y-69289453D01*
X75752148Y-69289448D01*
X75692568Y-69119179D01*
X75596595Y-68966440D01*
X75469042Y-68838887D01*
X75316301Y-68742913D01*
X75205613Y-68704182D01*
X75146035Y-68683335D01*
X75125242Y-68680992D01*
X75113510Y-68679670D01*
X75049097Y-68652602D01*
X75030248Y-68633509D01*
X73434512Y-66621752D01*
X73424301Y-66606738D01*
X73420407Y-66600000D01*
X86394341Y-66600000D01*
X86414936Y-66835403D01*
X86414938Y-66835413D01*
X86476094Y-67063655D01*
X86476096Y-67063659D01*
X86476097Y-67063663D01*
X86571661Y-67268599D01*
X86575965Y-67277830D01*
X86575967Y-67277834D01*
X86684281Y-67432521D01*
X86711501Y-67471396D01*
X86711506Y-67471402D01*
X86833430Y-67593326D01*
X86866915Y-67654649D01*
X86861931Y-67724341D01*
X86820059Y-67780274D01*
X86789083Y-67797189D01*
X86657669Y-67846203D01*
X86657664Y-67846206D01*
X86542455Y-67932452D01*
X86542452Y-67932455D01*
X86456206Y-68047664D01*
X86456202Y-68047671D01*
X86405908Y-68182517D01*
X86399501Y-68242116D01*
X86399501Y-68242123D01*
X86399500Y-68242135D01*
X86399500Y-70037870D01*
X86399501Y-70037876D01*
X86405908Y-70097483D01*
X86456202Y-70232328D01*
X86456206Y-70232335D01*
X86542452Y-70347544D01*
X86542455Y-70347547D01*
X86657664Y-70433793D01*
X86657671Y-70433797D01*
X86792517Y-70484091D01*
X86792516Y-70484091D01*
X86799444Y-70484835D01*
X86852127Y-70490500D01*
X88647872Y-70490499D01*
X88707483Y-70484091D01*
X88842331Y-70433796D01*
X88957546Y-70347546D01*
X89043796Y-70232331D01*
X89094091Y-70097483D01*
X89100500Y-70037873D01*
X89100499Y-68242128D01*
X89094091Y-68182517D01*
X89078233Y-68140000D01*
X89043797Y-68047671D01*
X89043793Y-68047664D01*
X88957547Y-67932455D01*
X88957544Y-67932452D01*
X88842335Y-67846206D01*
X88842328Y-67846202D01*
X88710917Y-67797189D01*
X88654983Y-67755318D01*
X88630566Y-67689853D01*
X88645418Y-67621580D01*
X88666563Y-67593332D01*
X88788495Y-67471401D01*
X88924035Y-67277830D01*
X89023903Y-67063663D01*
X89085063Y-66835408D01*
X89105659Y-66600000D01*
X89085063Y-66364592D01*
X89023903Y-66136337D01*
X88924035Y-65922171D01*
X88863284Y-65835408D01*
X88788494Y-65728597D01*
X88621402Y-65561506D01*
X88621395Y-65561501D01*
X88427834Y-65425967D01*
X88427830Y-65425965D01*
X88427828Y-65425964D01*
X88213663Y-65326097D01*
X88213659Y-65326096D01*
X88213655Y-65326094D01*
X87985413Y-65264938D01*
X87985403Y-65264936D01*
X87750001Y-65244341D01*
X87749999Y-65244341D01*
X87514596Y-65264936D01*
X87514586Y-65264938D01*
X87286344Y-65326094D01*
X87286335Y-65326098D01*
X87072171Y-65425964D01*
X87072169Y-65425965D01*
X86878597Y-65561505D01*
X86711505Y-65728597D01*
X86575965Y-65922169D01*
X86575964Y-65922171D01*
X86476098Y-66136335D01*
X86476094Y-66136344D01*
X86414938Y-66364586D01*
X86414936Y-66364596D01*
X86394341Y-66599999D01*
X86394341Y-66600000D01*
X73420407Y-66600000D01*
X73411367Y-66584355D01*
X73411364Y-66584352D01*
X73385001Y-66558009D01*
X73375500Y-66547354D01*
X73352325Y-66518138D01*
X73352322Y-66518135D01*
X73331560Y-66502728D01*
X73317807Y-66490867D01*
X73299519Y-66472593D01*
X73267225Y-66453965D01*
X73255297Y-66446136D01*
X73225354Y-66423916D01*
X73225353Y-66423915D01*
X73225351Y-66423914D01*
X73201303Y-66414403D01*
X73184951Y-66406506D01*
X73162558Y-66393589D01*
X73126539Y-66383952D01*
X73112991Y-66379477D01*
X73078325Y-66365767D01*
X73078320Y-66365765D01*
X73078317Y-66365764D01*
X73078315Y-66365764D01*
X73052623Y-66362801D01*
X73034790Y-66359406D01*
X73009816Y-66352725D01*
X73009815Y-66352725D01*
X72972544Y-66352739D01*
X72958293Y-66351923D01*
X72921247Y-66347651D01*
X72921244Y-66347651D01*
X72895662Y-66351438D01*
X72877551Y-66352775D01*
X66812216Y-66355098D01*
X66582645Y-66355098D01*
X66515606Y-66335413D01*
X66469851Y-66282609D01*
X66459907Y-66213451D01*
X66470263Y-66178693D01*
X66490015Y-66136335D01*
X66523903Y-66063663D01*
X66585063Y-65835408D01*
X66605659Y-65600000D01*
X66585063Y-65364592D01*
X66523903Y-65136337D01*
X66424035Y-64922171D01*
X66288495Y-64728599D01*
X66288494Y-64728597D01*
X66121402Y-64561506D01*
X66121395Y-64561501D01*
X65927834Y-64425967D01*
X65927830Y-64425965D01*
X65927828Y-64425964D01*
X65713663Y-64326097D01*
X65713659Y-64326096D01*
X65713655Y-64326094D01*
X65485413Y-64264938D01*
X65485403Y-64264936D01*
X65250001Y-64244341D01*
X65249999Y-64244341D01*
X65014596Y-64264936D01*
X65014586Y-64264938D01*
X64786344Y-64326094D01*
X64786335Y-64326098D01*
X64572171Y-64425964D01*
X64572169Y-64425965D01*
X64378600Y-64561503D01*
X64256673Y-64683430D01*
X64195350Y-64716914D01*
X64125658Y-64711930D01*
X64069725Y-64670058D01*
X64052810Y-64639081D01*
X64003797Y-64507671D01*
X64003793Y-64507664D01*
X63917547Y-64392455D01*
X63917544Y-64392452D01*
X63802335Y-64306206D01*
X63802328Y-64306202D01*
X63667482Y-64255908D01*
X63667483Y-64255908D01*
X63607883Y-64249501D01*
X63607881Y-64249500D01*
X63607873Y-64249500D01*
X63607864Y-64249500D01*
X61812129Y-64249500D01*
X61812123Y-64249501D01*
X61752516Y-64255908D01*
X61617671Y-64306202D01*
X61617664Y-64306206D01*
X61502455Y-64392452D01*
X61502452Y-64392455D01*
X61416206Y-64507664D01*
X61416202Y-64507671D01*
X61365908Y-64642517D01*
X61359501Y-64702116D01*
X61359500Y-64702135D01*
X61359500Y-66497870D01*
X61359501Y-66497876D01*
X61365908Y-66557483D01*
X61416202Y-66692328D01*
X61416206Y-66692335D01*
X61502452Y-66807544D01*
X61502455Y-66807547D01*
X61617664Y-66893793D01*
X61617671Y-66893797D01*
X61749081Y-66942810D01*
X61805015Y-66984681D01*
X61829432Y-67050145D01*
X61814580Y-67118418D01*
X61793430Y-67146673D01*
X61671503Y-67268600D01*
X61535965Y-67462169D01*
X61535964Y-67462171D01*
X61436098Y-67676335D01*
X61436094Y-67676344D01*
X61374938Y-67904586D01*
X61374936Y-67904596D01*
X61354341Y-68139999D01*
X61354341Y-68140000D01*
X61374936Y-68375403D01*
X61374938Y-68375413D01*
X61436094Y-68603655D01*
X61436096Y-68603659D01*
X61436097Y-68603663D01*
X61485601Y-68709824D01*
X61535965Y-68817830D01*
X61535967Y-68817834D01*
X61671501Y-69011395D01*
X61671506Y-69011402D01*
X61838597Y-69178493D01*
X61838603Y-69178498D01*
X62024158Y-69308425D01*
X62067783Y-69363002D01*
X62074977Y-69432500D01*
X62043454Y-69494855D01*
X62024158Y-69511575D01*
X61838597Y-69641505D01*
X61671505Y-69808597D01*
X61535965Y-70002169D01*
X61535964Y-70002171D01*
X61436098Y-70216335D01*
X61436094Y-70216344D01*
X61374938Y-70444586D01*
X61374936Y-70444596D01*
X61354341Y-70679999D01*
X61354341Y-70680000D01*
X60795532Y-70680000D01*
X60831833Y-65561501D01*
X60849123Y-63123620D01*
X60869283Y-63056722D01*
X60922410Y-63011343D01*
X60973120Y-63000500D01*
X92725113Y-63000500D01*
X92792152Y-63020185D01*
G37*
%TD.AperFunction*%
%TA.AperFunction,Conductor*%
G36*
X126292152Y-63020185D02*
G01*
X126337907Y-63072989D01*
X126349110Y-63125379D01*
X126250877Y-76976379D01*
X126230717Y-77043278D01*
X126177590Y-77088657D01*
X126126880Y-77099500D01*
X94374887Y-77099500D01*
X94307848Y-77079815D01*
X94262093Y-77027011D01*
X94250890Y-76974621D01*
X94295532Y-70680000D01*
X94854341Y-70680000D01*
X94874936Y-70915403D01*
X94874938Y-70915413D01*
X94936094Y-71143655D01*
X94936096Y-71143659D01*
X94936097Y-71143663D01*
X95019155Y-71321781D01*
X95035965Y-71357830D01*
X95035967Y-71357834D01*
X95144281Y-71512521D01*
X95171505Y-71551401D01*
X95338599Y-71718495D01*
X95435384Y-71786265D01*
X95532165Y-71854032D01*
X95532167Y-71854033D01*
X95532170Y-71854035D01*
X95746337Y-71953903D01*
X95974592Y-72015063D01*
X96162918Y-72031539D01*
X96209999Y-72035659D01*
X96210000Y-72035659D01*
X96210001Y-72035659D01*
X96249234Y-72032226D01*
X96445408Y-72015063D01*
X96673663Y-71953903D01*
X96887830Y-71854035D01*
X97081401Y-71718495D01*
X97248495Y-71551401D01*
X97378730Y-71365405D01*
X97433307Y-71321781D01*
X97502805Y-71314587D01*
X97565160Y-71346110D01*
X97581879Y-71365405D01*
X97711890Y-71551078D01*
X97878917Y-71718105D01*
X98072421Y-71853600D01*
X98286507Y-71953429D01*
X98286516Y-71953433D01*
X98500000Y-72010634D01*
X98500000Y-71113012D01*
X98557007Y-71145925D01*
X98684174Y-71180000D01*
X98815826Y-71180000D01*
X98942993Y-71145925D01*
X99000000Y-71113012D01*
X99000000Y-72010633D01*
X99213483Y-71953433D01*
X99213492Y-71953429D01*
X99427578Y-71853600D01*
X99621082Y-71718105D01*
X99788105Y-71551082D01*
X99923600Y-71357578D01*
X100023429Y-71143492D01*
X100023432Y-71143486D01*
X100080636Y-70930000D01*
X99183012Y-70930000D01*
X99215925Y-70872993D01*
X99250000Y-70745826D01*
X99250000Y-70614174D01*
X99215925Y-70487007D01*
X99183012Y-70430000D01*
X100080636Y-70430000D01*
X100080635Y-70429999D01*
X100023427Y-70216497D01*
X100023361Y-70216316D01*
X100023355Y-70216230D01*
X100022029Y-70211280D01*
X100023024Y-70211013D01*
X100018935Y-70146587D01*
X100052910Y-70085534D01*
X100114500Y-70052541D01*
X100139886Y-70049915D01*
X106162944Y-70049915D01*
X106165957Y-70050108D01*
X106172313Y-70050093D01*
X106172319Y-70050095D01*
X106250734Y-70049915D01*
X106250857Y-70049915D01*
X106335435Y-70049915D01*
X106338439Y-70049714D01*
X106670275Y-70048953D01*
X106736528Y-70067958D01*
X106883750Y-70160464D01*
X107043120Y-70216230D01*
X107054017Y-70220043D01*
X107054022Y-70220044D01*
X107233268Y-70240240D01*
X107233272Y-70240240D01*
X107233276Y-70240240D01*
X107412521Y-70220044D01*
X107412524Y-70220043D01*
X107412527Y-70220043D01*
X107582794Y-70160464D01*
X107735534Y-70064491D01*
X107745328Y-70054697D01*
X107806650Y-70021210D01*
X107876342Y-70026192D01*
X107920693Y-70054694D01*
X107964518Y-70098519D01*
X108117258Y-70194492D01*
X108225387Y-70232328D01*
X108287525Y-70254071D01*
X108287530Y-70254072D01*
X108466776Y-70274268D01*
X108466780Y-70274268D01*
X108466784Y-70274268D01*
X108646029Y-70254072D01*
X108646032Y-70254071D01*
X108646035Y-70254071D01*
X108816302Y-70194492D01*
X108969042Y-70098519D01*
X109096596Y-69970965D01*
X109192569Y-69818225D01*
X109252148Y-69647958D01*
X109268147Y-69505965D01*
X109272345Y-69468706D01*
X109272345Y-69468699D01*
X109252149Y-69289453D01*
X109252148Y-69289448D01*
X109192568Y-69119179D01*
X109096595Y-68966440D01*
X108969042Y-68838887D01*
X108816301Y-68742913D01*
X108705613Y-68704182D01*
X108646035Y-68683335D01*
X108625242Y-68680992D01*
X108613510Y-68679670D01*
X108549097Y-68652602D01*
X108530248Y-68633509D01*
X106934512Y-66621752D01*
X106924301Y-66606738D01*
X106920407Y-66600000D01*
X119894341Y-66600000D01*
X119914936Y-66835403D01*
X119914938Y-66835413D01*
X119976094Y-67063655D01*
X119976096Y-67063659D01*
X119976097Y-67063663D01*
X120071661Y-67268599D01*
X120075965Y-67277830D01*
X120075967Y-67277834D01*
X120184281Y-67432521D01*
X120211501Y-67471396D01*
X120211506Y-67471402D01*
X120333430Y-67593326D01*
X120366915Y-67654649D01*
X120361931Y-67724341D01*
X120320059Y-67780274D01*
X120289083Y-67797189D01*
X120157669Y-67846203D01*
X120157664Y-67846206D01*
X120042455Y-67932452D01*
X120042452Y-67932455D01*
X119956206Y-68047664D01*
X119956202Y-68047671D01*
X119905908Y-68182517D01*
X119899501Y-68242116D01*
X119899501Y-68242123D01*
X119899500Y-68242135D01*
X119899500Y-70037870D01*
X119899501Y-70037876D01*
X119905908Y-70097483D01*
X119956202Y-70232328D01*
X119956206Y-70232335D01*
X120042452Y-70347544D01*
X120042455Y-70347547D01*
X120157664Y-70433793D01*
X120157671Y-70433797D01*
X120292517Y-70484091D01*
X120292516Y-70484091D01*
X120299444Y-70484835D01*
X120352127Y-70490500D01*
X122147872Y-70490499D01*
X122207483Y-70484091D01*
X122342331Y-70433796D01*
X122457546Y-70347546D01*
X122543796Y-70232331D01*
X122594091Y-70097483D01*
X122600500Y-70037873D01*
X122600499Y-68242128D01*
X122594091Y-68182517D01*
X122578233Y-68140000D01*
X122543797Y-68047671D01*
X122543793Y-68047664D01*
X122457547Y-67932455D01*
X122457544Y-67932452D01*
X122342335Y-67846206D01*
X122342328Y-67846202D01*
X122210917Y-67797189D01*
X122154983Y-67755318D01*
X122130566Y-67689853D01*
X122145418Y-67621580D01*
X122166563Y-67593332D01*
X122288495Y-67471401D01*
X122424035Y-67277830D01*
X122523903Y-67063663D01*
X122585063Y-66835408D01*
X122605659Y-66600000D01*
X122585063Y-66364592D01*
X122523903Y-66136337D01*
X122424035Y-65922171D01*
X122363284Y-65835408D01*
X122288494Y-65728597D01*
X122121402Y-65561506D01*
X122121395Y-65561501D01*
X121927834Y-65425967D01*
X121927830Y-65425965D01*
X121927828Y-65425964D01*
X121713663Y-65326097D01*
X121713659Y-65326096D01*
X121713655Y-65326094D01*
X121485413Y-65264938D01*
X121485403Y-65264936D01*
X121250001Y-65244341D01*
X121249999Y-65244341D01*
X121014596Y-65264936D01*
X121014586Y-65264938D01*
X120786344Y-65326094D01*
X120786335Y-65326098D01*
X120572171Y-65425964D01*
X120572169Y-65425965D01*
X120378597Y-65561505D01*
X120211505Y-65728597D01*
X120075965Y-65922169D01*
X120075964Y-65922171D01*
X119976098Y-66136335D01*
X119976094Y-66136344D01*
X119914938Y-66364586D01*
X119914936Y-66364596D01*
X119894341Y-66599999D01*
X119894341Y-66600000D01*
X106920407Y-66600000D01*
X106911367Y-66584355D01*
X106911364Y-66584352D01*
X106885001Y-66558009D01*
X106875500Y-66547354D01*
X106852325Y-66518138D01*
X106852322Y-66518135D01*
X106831560Y-66502728D01*
X106817807Y-66490867D01*
X106799519Y-66472593D01*
X106767225Y-66453965D01*
X106755297Y-66446136D01*
X106725354Y-66423916D01*
X106725353Y-66423915D01*
X106725351Y-66423914D01*
X106701303Y-66414403D01*
X106684951Y-66406506D01*
X106662558Y-66393589D01*
X106626539Y-66383952D01*
X106612991Y-66379477D01*
X106578325Y-66365767D01*
X106578320Y-66365765D01*
X106578317Y-66365764D01*
X106578315Y-66365764D01*
X106552623Y-66362801D01*
X106534790Y-66359406D01*
X106509816Y-66352725D01*
X106509815Y-66352725D01*
X106472544Y-66352739D01*
X106458293Y-66351923D01*
X106421247Y-66347651D01*
X106421244Y-66347651D01*
X106395662Y-66351438D01*
X106377551Y-66352775D01*
X100312216Y-66355098D01*
X100082645Y-66355098D01*
X100015606Y-66335413D01*
X99969851Y-66282609D01*
X99959907Y-66213451D01*
X99970263Y-66178693D01*
X99990015Y-66136335D01*
X100023903Y-66063663D01*
X100085063Y-65835408D01*
X100105659Y-65600000D01*
X100085063Y-65364592D01*
X100023903Y-65136337D01*
X99924035Y-64922171D01*
X99788495Y-64728599D01*
X99788494Y-64728597D01*
X99621402Y-64561506D01*
X99621395Y-64561501D01*
X99427834Y-64425967D01*
X99427830Y-64425965D01*
X99427828Y-64425964D01*
X99213663Y-64326097D01*
X99213659Y-64326096D01*
X99213655Y-64326094D01*
X98985413Y-64264938D01*
X98985403Y-64264936D01*
X98750001Y-64244341D01*
X98749999Y-64244341D01*
X98514596Y-64264936D01*
X98514586Y-64264938D01*
X98286344Y-64326094D01*
X98286335Y-64326098D01*
X98072171Y-64425964D01*
X98072169Y-64425965D01*
X97878600Y-64561503D01*
X97756673Y-64683430D01*
X97695350Y-64716914D01*
X97625658Y-64711930D01*
X97569725Y-64670058D01*
X97552810Y-64639081D01*
X97503797Y-64507671D01*
X97503793Y-64507664D01*
X97417547Y-64392455D01*
X97417544Y-64392452D01*
X97302335Y-64306206D01*
X97302328Y-64306202D01*
X97167482Y-64255908D01*
X97167483Y-64255908D01*
X97107883Y-64249501D01*
X97107881Y-64249500D01*
X97107873Y-64249500D01*
X97107864Y-64249500D01*
X95312129Y-64249500D01*
X95312123Y-64249501D01*
X95252516Y-64255908D01*
X95117671Y-64306202D01*
X95117664Y-64306206D01*
X95002455Y-64392452D01*
X95002452Y-64392455D01*
X94916206Y-64507664D01*
X94916202Y-64507671D01*
X94865908Y-64642517D01*
X94859501Y-64702116D01*
X94859500Y-64702135D01*
X94859500Y-66497870D01*
X94859501Y-66497876D01*
X94865908Y-66557483D01*
X94916202Y-66692328D01*
X94916206Y-66692335D01*
X95002452Y-66807544D01*
X95002455Y-66807547D01*
X95117664Y-66893793D01*
X95117671Y-66893797D01*
X95249081Y-66942810D01*
X95305015Y-66984681D01*
X95329432Y-67050145D01*
X95314580Y-67118418D01*
X95293430Y-67146673D01*
X95171503Y-67268600D01*
X95035965Y-67462169D01*
X95035964Y-67462171D01*
X94936098Y-67676335D01*
X94936094Y-67676344D01*
X94874938Y-67904586D01*
X94874936Y-67904596D01*
X94854341Y-68139999D01*
X94854341Y-68140000D01*
X94874936Y-68375403D01*
X94874938Y-68375413D01*
X94936094Y-68603655D01*
X94936096Y-68603659D01*
X94936097Y-68603663D01*
X94985601Y-68709824D01*
X95035965Y-68817830D01*
X95035967Y-68817834D01*
X95171501Y-69011395D01*
X95171506Y-69011402D01*
X95338597Y-69178493D01*
X95338603Y-69178498D01*
X95524158Y-69308425D01*
X95567783Y-69363002D01*
X95574977Y-69432500D01*
X95543454Y-69494855D01*
X95524158Y-69511575D01*
X95338597Y-69641505D01*
X95171505Y-69808597D01*
X95035965Y-70002169D01*
X95035964Y-70002171D01*
X94936098Y-70216335D01*
X94936094Y-70216344D01*
X94874938Y-70444586D01*
X94874936Y-70444596D01*
X94854341Y-70679999D01*
X94854341Y-70680000D01*
X94295532Y-70680000D01*
X94331833Y-65561501D01*
X94349123Y-63123620D01*
X94369283Y-63056722D01*
X94422410Y-63011343D01*
X94473120Y-63000500D01*
X126225113Y-63000500D01*
X126292152Y-63020185D01*
G37*
%TD.AperFunction*%
%TA.AperFunction,Conductor*%
G36*
X159792152Y-63020185D02*
G01*
X159837907Y-63072989D01*
X159849110Y-63125379D01*
X159750877Y-76976379D01*
X159730717Y-77043278D01*
X159677590Y-77088657D01*
X159626880Y-77099500D01*
X127874887Y-77099500D01*
X127807848Y-77079815D01*
X127762093Y-77027011D01*
X127750890Y-76974621D01*
X127795532Y-70680000D01*
X128354341Y-70680000D01*
X128374936Y-70915403D01*
X128374938Y-70915413D01*
X128436094Y-71143655D01*
X128436096Y-71143659D01*
X128436097Y-71143663D01*
X128519155Y-71321781D01*
X128535965Y-71357830D01*
X128535967Y-71357834D01*
X128644281Y-71512521D01*
X128671505Y-71551401D01*
X128838599Y-71718495D01*
X128935384Y-71786265D01*
X129032165Y-71854032D01*
X129032167Y-71854033D01*
X129032170Y-71854035D01*
X129246337Y-71953903D01*
X129474592Y-72015063D01*
X129662918Y-72031539D01*
X129709999Y-72035659D01*
X129710000Y-72035659D01*
X129710001Y-72035659D01*
X129749234Y-72032226D01*
X129945408Y-72015063D01*
X130173663Y-71953903D01*
X130387830Y-71854035D01*
X130581401Y-71718495D01*
X130748495Y-71551401D01*
X130878730Y-71365405D01*
X130933307Y-71321781D01*
X131002805Y-71314587D01*
X131065160Y-71346110D01*
X131081879Y-71365405D01*
X131211890Y-71551078D01*
X131378917Y-71718105D01*
X131572421Y-71853600D01*
X131786507Y-71953429D01*
X131786516Y-71953433D01*
X132000000Y-72010634D01*
X132000000Y-71113012D01*
X132057007Y-71145925D01*
X132184174Y-71180000D01*
X132315826Y-71180000D01*
X132442993Y-71145925D01*
X132500000Y-71113012D01*
X132500000Y-72010633D01*
X132713483Y-71953433D01*
X132713492Y-71953429D01*
X132927578Y-71853600D01*
X133121082Y-71718105D01*
X133288105Y-71551082D01*
X133423600Y-71357578D01*
X133523429Y-71143492D01*
X133523432Y-71143486D01*
X133580636Y-70930000D01*
X132683012Y-70930000D01*
X132715925Y-70872993D01*
X132750000Y-70745826D01*
X132750000Y-70614174D01*
X132715925Y-70487007D01*
X132683012Y-70430000D01*
X133580636Y-70430000D01*
X133580635Y-70429999D01*
X133523427Y-70216497D01*
X133523361Y-70216316D01*
X133523355Y-70216230D01*
X133522029Y-70211280D01*
X133523024Y-70211013D01*
X133518935Y-70146587D01*
X133552910Y-70085534D01*
X133614500Y-70052541D01*
X133639886Y-70049915D01*
X139662944Y-70049915D01*
X139665957Y-70050108D01*
X139672313Y-70050093D01*
X139672319Y-70050095D01*
X139750734Y-70049915D01*
X139750857Y-70049915D01*
X139835435Y-70049915D01*
X139838439Y-70049714D01*
X140170275Y-70048953D01*
X140236528Y-70067958D01*
X140383750Y-70160464D01*
X140543120Y-70216230D01*
X140554017Y-70220043D01*
X140554022Y-70220044D01*
X140733268Y-70240240D01*
X140733272Y-70240240D01*
X140733276Y-70240240D01*
X140912521Y-70220044D01*
X140912524Y-70220043D01*
X140912527Y-70220043D01*
X141082794Y-70160464D01*
X141235534Y-70064491D01*
X141245328Y-70054697D01*
X141306650Y-70021210D01*
X141376342Y-70026192D01*
X141420693Y-70054694D01*
X141464518Y-70098519D01*
X141617258Y-70194492D01*
X141725387Y-70232328D01*
X141787525Y-70254071D01*
X141787530Y-70254072D01*
X141966776Y-70274268D01*
X141966780Y-70274268D01*
X141966784Y-70274268D01*
X142146029Y-70254072D01*
X142146032Y-70254071D01*
X142146035Y-70254071D01*
X142316302Y-70194492D01*
X142469042Y-70098519D01*
X142596596Y-69970965D01*
X142692569Y-69818225D01*
X142752148Y-69647958D01*
X142768147Y-69505965D01*
X142772345Y-69468706D01*
X142772345Y-69468699D01*
X142752149Y-69289453D01*
X142752148Y-69289448D01*
X142692568Y-69119179D01*
X142596595Y-68966440D01*
X142469042Y-68838887D01*
X142316301Y-68742913D01*
X142205613Y-68704182D01*
X142146035Y-68683335D01*
X142125242Y-68680992D01*
X142113510Y-68679670D01*
X142049097Y-68652602D01*
X142030248Y-68633509D01*
X140434512Y-66621752D01*
X140424301Y-66606738D01*
X140420407Y-66600000D01*
X153394341Y-66600000D01*
X153414936Y-66835403D01*
X153414938Y-66835413D01*
X153476094Y-67063655D01*
X153476096Y-67063659D01*
X153476097Y-67063663D01*
X153571661Y-67268599D01*
X153575965Y-67277830D01*
X153575967Y-67277834D01*
X153684281Y-67432521D01*
X153711501Y-67471396D01*
X153711506Y-67471402D01*
X153833430Y-67593326D01*
X153866915Y-67654649D01*
X153861931Y-67724341D01*
X153820059Y-67780274D01*
X153789083Y-67797189D01*
X153657669Y-67846203D01*
X153657664Y-67846206D01*
X153542455Y-67932452D01*
X153542452Y-67932455D01*
X153456206Y-68047664D01*
X153456202Y-68047671D01*
X153405908Y-68182517D01*
X153399501Y-68242116D01*
X153399501Y-68242123D01*
X153399500Y-68242135D01*
X153399500Y-70037870D01*
X153399501Y-70037876D01*
X153405908Y-70097483D01*
X153456202Y-70232328D01*
X153456206Y-70232335D01*
X153542452Y-70347544D01*
X153542455Y-70347547D01*
X153657664Y-70433793D01*
X153657671Y-70433797D01*
X153792517Y-70484091D01*
X153792516Y-70484091D01*
X153799444Y-70484835D01*
X153852127Y-70490500D01*
X155647872Y-70490499D01*
X155707483Y-70484091D01*
X155842331Y-70433796D01*
X155957546Y-70347546D01*
X156043796Y-70232331D01*
X156094091Y-70097483D01*
X156100500Y-70037873D01*
X156100499Y-68242128D01*
X156094091Y-68182517D01*
X156078233Y-68140000D01*
X156043797Y-68047671D01*
X156043793Y-68047664D01*
X155957547Y-67932455D01*
X155957544Y-67932452D01*
X155842335Y-67846206D01*
X155842328Y-67846202D01*
X155710917Y-67797189D01*
X155654983Y-67755318D01*
X155630566Y-67689853D01*
X155645418Y-67621580D01*
X155666563Y-67593332D01*
X155788495Y-67471401D01*
X155924035Y-67277830D01*
X156023903Y-67063663D01*
X156085063Y-66835408D01*
X156105659Y-66600000D01*
X156085063Y-66364592D01*
X156023903Y-66136337D01*
X155924035Y-65922171D01*
X155863284Y-65835408D01*
X155788494Y-65728597D01*
X155621402Y-65561506D01*
X155621395Y-65561501D01*
X155427834Y-65425967D01*
X155427830Y-65425965D01*
X155427828Y-65425964D01*
X155213663Y-65326097D01*
X155213659Y-65326096D01*
X155213655Y-65326094D01*
X154985413Y-65264938D01*
X154985403Y-65264936D01*
X154750001Y-65244341D01*
X154749999Y-65244341D01*
X154514596Y-65264936D01*
X154514586Y-65264938D01*
X154286344Y-65326094D01*
X154286335Y-65326098D01*
X154072171Y-65425964D01*
X154072169Y-65425965D01*
X153878597Y-65561505D01*
X153711505Y-65728597D01*
X153575965Y-65922169D01*
X153575964Y-65922171D01*
X153476098Y-66136335D01*
X153476094Y-66136344D01*
X153414938Y-66364586D01*
X153414936Y-66364596D01*
X153394341Y-66599999D01*
X153394341Y-66600000D01*
X140420407Y-66600000D01*
X140411367Y-66584355D01*
X140411364Y-66584352D01*
X140385001Y-66558009D01*
X140375500Y-66547354D01*
X140352325Y-66518138D01*
X140352322Y-66518135D01*
X140331560Y-66502728D01*
X140317807Y-66490867D01*
X140299519Y-66472593D01*
X140267225Y-66453965D01*
X140255297Y-66446136D01*
X140225354Y-66423916D01*
X140225353Y-66423915D01*
X140225351Y-66423914D01*
X140201303Y-66414403D01*
X140184951Y-66406506D01*
X140162558Y-66393589D01*
X140126539Y-66383952D01*
X140112991Y-66379477D01*
X140078325Y-66365767D01*
X140078320Y-66365765D01*
X140078317Y-66365764D01*
X140078315Y-66365764D01*
X140052623Y-66362801D01*
X140034790Y-66359406D01*
X140009816Y-66352725D01*
X140009815Y-66352725D01*
X139972544Y-66352739D01*
X139958293Y-66351923D01*
X139921247Y-66347651D01*
X139921244Y-66347651D01*
X139895662Y-66351438D01*
X139877551Y-66352775D01*
X133812216Y-66355098D01*
X133582645Y-66355098D01*
X133515606Y-66335413D01*
X133469851Y-66282609D01*
X133459907Y-66213451D01*
X133470263Y-66178693D01*
X133490015Y-66136335D01*
X133523903Y-66063663D01*
X133585063Y-65835408D01*
X133605659Y-65600000D01*
X133585063Y-65364592D01*
X133523903Y-65136337D01*
X133424035Y-64922171D01*
X133288495Y-64728599D01*
X133288494Y-64728597D01*
X133121402Y-64561506D01*
X133121395Y-64561501D01*
X132927834Y-64425967D01*
X132927830Y-64425965D01*
X132927828Y-64425964D01*
X132713663Y-64326097D01*
X132713659Y-64326096D01*
X132713655Y-64326094D01*
X132485413Y-64264938D01*
X132485403Y-64264936D01*
X132250001Y-64244341D01*
X132249999Y-64244341D01*
X132014596Y-64264936D01*
X132014586Y-64264938D01*
X131786344Y-64326094D01*
X131786335Y-64326098D01*
X131572171Y-64425964D01*
X131572169Y-64425965D01*
X131378600Y-64561503D01*
X131256673Y-64683430D01*
X131195350Y-64716914D01*
X131125658Y-64711930D01*
X131069725Y-64670058D01*
X131052810Y-64639081D01*
X131003797Y-64507671D01*
X131003793Y-64507664D01*
X130917547Y-64392455D01*
X130917544Y-64392452D01*
X130802335Y-64306206D01*
X130802328Y-64306202D01*
X130667482Y-64255908D01*
X130667483Y-64255908D01*
X130607883Y-64249501D01*
X130607881Y-64249500D01*
X130607873Y-64249500D01*
X130607864Y-64249500D01*
X128812129Y-64249500D01*
X128812123Y-64249501D01*
X128752516Y-64255908D01*
X128617671Y-64306202D01*
X128617664Y-64306206D01*
X128502455Y-64392452D01*
X128502452Y-64392455D01*
X128416206Y-64507664D01*
X128416202Y-64507671D01*
X128365908Y-64642517D01*
X128359501Y-64702116D01*
X128359500Y-64702135D01*
X128359500Y-66497870D01*
X128359501Y-66497876D01*
X128365908Y-66557483D01*
X128416202Y-66692328D01*
X128416206Y-66692335D01*
X128502452Y-66807544D01*
X128502455Y-66807547D01*
X128617664Y-66893793D01*
X128617671Y-66893797D01*
X128749081Y-66942810D01*
X128805015Y-66984681D01*
X128829432Y-67050145D01*
X128814580Y-67118418D01*
X128793430Y-67146673D01*
X128671503Y-67268600D01*
X128535965Y-67462169D01*
X128535964Y-67462171D01*
X128436098Y-67676335D01*
X128436094Y-67676344D01*
X128374938Y-67904586D01*
X128374936Y-67904596D01*
X128354341Y-68139999D01*
X128354341Y-68140000D01*
X128374936Y-68375403D01*
X128374938Y-68375413D01*
X128436094Y-68603655D01*
X128436096Y-68603659D01*
X128436097Y-68603663D01*
X128485601Y-68709824D01*
X128535965Y-68817830D01*
X128535967Y-68817834D01*
X128671501Y-69011395D01*
X128671506Y-69011402D01*
X128838597Y-69178493D01*
X128838603Y-69178498D01*
X129024158Y-69308425D01*
X129067783Y-69363002D01*
X129074977Y-69432500D01*
X129043454Y-69494855D01*
X129024158Y-69511575D01*
X128838597Y-69641505D01*
X128671505Y-69808597D01*
X128535965Y-70002169D01*
X128535964Y-70002171D01*
X128436098Y-70216335D01*
X128436094Y-70216344D01*
X128374938Y-70444586D01*
X128374936Y-70444596D01*
X128354341Y-70679999D01*
X128354341Y-70680000D01*
X127795532Y-70680000D01*
X127831833Y-65561501D01*
X127849123Y-63123620D01*
X127869283Y-63056722D01*
X127922410Y-63011343D01*
X127973120Y-63000500D01*
X159725113Y-63000500D01*
X159792152Y-63020185D01*
G37*
%TD.AperFunction*%
%TA.AperFunction,Conductor*%
G36*
X92792152Y-79020185D02*
G01*
X92837907Y-79072989D01*
X92849110Y-79125379D01*
X92750877Y-92976379D01*
X92730717Y-93043278D01*
X92677590Y-93088657D01*
X92626880Y-93099500D01*
X60874887Y-93099500D01*
X60807848Y-93079815D01*
X60762093Y-93027011D01*
X60750890Y-92974621D01*
X60795532Y-86680000D01*
X61354341Y-86680000D01*
X61374936Y-86915403D01*
X61374938Y-86915413D01*
X61436094Y-87143655D01*
X61436096Y-87143659D01*
X61436097Y-87143663D01*
X61519155Y-87321781D01*
X61535965Y-87357830D01*
X61535967Y-87357834D01*
X61644281Y-87512521D01*
X61671505Y-87551401D01*
X61838599Y-87718495D01*
X61935384Y-87786265D01*
X62032165Y-87854032D01*
X62032167Y-87854033D01*
X62032170Y-87854035D01*
X62246337Y-87953903D01*
X62474592Y-88015063D01*
X62662918Y-88031539D01*
X62709999Y-88035659D01*
X62710000Y-88035659D01*
X62710001Y-88035659D01*
X62749234Y-88032226D01*
X62945408Y-88015063D01*
X63173663Y-87953903D01*
X63387830Y-87854035D01*
X63581401Y-87718495D01*
X63748495Y-87551401D01*
X63878730Y-87365405D01*
X63933307Y-87321781D01*
X64002805Y-87314587D01*
X64065160Y-87346110D01*
X64081879Y-87365405D01*
X64211890Y-87551078D01*
X64378917Y-87718105D01*
X64572421Y-87853600D01*
X64786507Y-87953429D01*
X64786516Y-87953433D01*
X65000000Y-88010634D01*
X65000000Y-87113012D01*
X65057007Y-87145925D01*
X65184174Y-87180000D01*
X65315826Y-87180000D01*
X65442993Y-87145925D01*
X65500000Y-87113012D01*
X65500000Y-88010633D01*
X65713483Y-87953433D01*
X65713492Y-87953429D01*
X65927578Y-87853600D01*
X66121082Y-87718105D01*
X66288105Y-87551082D01*
X66423600Y-87357578D01*
X66523429Y-87143492D01*
X66523432Y-87143486D01*
X66580636Y-86930000D01*
X65683012Y-86930000D01*
X65715925Y-86872993D01*
X65750000Y-86745826D01*
X65750000Y-86614174D01*
X65715925Y-86487007D01*
X65683012Y-86430000D01*
X66580636Y-86430000D01*
X66580635Y-86429999D01*
X66523427Y-86216497D01*
X66523361Y-86216316D01*
X66523355Y-86216230D01*
X66522029Y-86211280D01*
X66523024Y-86211013D01*
X66518935Y-86146587D01*
X66552910Y-86085534D01*
X66614500Y-86052541D01*
X66639886Y-86049915D01*
X72662944Y-86049915D01*
X72665957Y-86050108D01*
X72672313Y-86050093D01*
X72672319Y-86050095D01*
X72750734Y-86049915D01*
X72750857Y-86049915D01*
X72835435Y-86049915D01*
X72838439Y-86049714D01*
X73170275Y-86048953D01*
X73236528Y-86067958D01*
X73383750Y-86160464D01*
X73543120Y-86216230D01*
X73554017Y-86220043D01*
X73554022Y-86220044D01*
X73733268Y-86240240D01*
X73733272Y-86240240D01*
X73733276Y-86240240D01*
X73912521Y-86220044D01*
X73912524Y-86220043D01*
X73912527Y-86220043D01*
X74082794Y-86160464D01*
X74235534Y-86064491D01*
X74245328Y-86054697D01*
X74306650Y-86021210D01*
X74376342Y-86026192D01*
X74420693Y-86054694D01*
X74464518Y-86098519D01*
X74617258Y-86194492D01*
X74725387Y-86232328D01*
X74787525Y-86254071D01*
X74787530Y-86254072D01*
X74966776Y-86274268D01*
X74966780Y-86274268D01*
X74966784Y-86274268D01*
X75146029Y-86254072D01*
X75146032Y-86254071D01*
X75146035Y-86254071D01*
X75316302Y-86194492D01*
X75469042Y-86098519D01*
X75596596Y-85970965D01*
X75692569Y-85818225D01*
X75752148Y-85647958D01*
X75768147Y-85505965D01*
X75772345Y-85468706D01*
X75772345Y-85468699D01*
X75752149Y-85289453D01*
X75752148Y-85289448D01*
X75692568Y-85119179D01*
X75596595Y-84966440D01*
X75469042Y-84838887D01*
X75316301Y-84742913D01*
X75205613Y-84704182D01*
X75146035Y-84683335D01*
X75125242Y-84680992D01*
X75113510Y-84679670D01*
X75049097Y-84652602D01*
X75030248Y-84633509D01*
X73434512Y-82621752D01*
X73424301Y-82606738D01*
X73420407Y-82600000D01*
X86394341Y-82600000D01*
X86414936Y-82835403D01*
X86414938Y-82835413D01*
X86476094Y-83063655D01*
X86476096Y-83063659D01*
X86476097Y-83063663D01*
X86571661Y-83268599D01*
X86575965Y-83277830D01*
X86575967Y-83277834D01*
X86684281Y-83432521D01*
X86711501Y-83471396D01*
X86711506Y-83471402D01*
X86833430Y-83593326D01*
X86866915Y-83654649D01*
X86861931Y-83724341D01*
X86820059Y-83780274D01*
X86789083Y-83797189D01*
X86657669Y-83846203D01*
X86657664Y-83846206D01*
X86542455Y-83932452D01*
X86542452Y-83932455D01*
X86456206Y-84047664D01*
X86456202Y-84047671D01*
X86405908Y-84182517D01*
X86399501Y-84242116D01*
X86399501Y-84242123D01*
X86399500Y-84242135D01*
X86399500Y-86037870D01*
X86399501Y-86037876D01*
X86405908Y-86097483D01*
X86456202Y-86232328D01*
X86456206Y-86232335D01*
X86542452Y-86347544D01*
X86542455Y-86347547D01*
X86657664Y-86433793D01*
X86657671Y-86433797D01*
X86792517Y-86484091D01*
X86792516Y-86484091D01*
X86799444Y-86484835D01*
X86852127Y-86490500D01*
X88647872Y-86490499D01*
X88707483Y-86484091D01*
X88842331Y-86433796D01*
X88957546Y-86347546D01*
X89043796Y-86232331D01*
X89094091Y-86097483D01*
X89100500Y-86037873D01*
X89100499Y-84242128D01*
X89094091Y-84182517D01*
X89078233Y-84140000D01*
X89043797Y-84047671D01*
X89043793Y-84047664D01*
X88957547Y-83932455D01*
X88957544Y-83932452D01*
X88842335Y-83846206D01*
X88842328Y-83846202D01*
X88710917Y-83797189D01*
X88654983Y-83755318D01*
X88630566Y-83689853D01*
X88645418Y-83621580D01*
X88666563Y-83593332D01*
X88788495Y-83471401D01*
X88924035Y-83277830D01*
X89023903Y-83063663D01*
X89085063Y-82835408D01*
X89105659Y-82600000D01*
X89085063Y-82364592D01*
X89023903Y-82136337D01*
X88924035Y-81922171D01*
X88863284Y-81835408D01*
X88788494Y-81728597D01*
X88621402Y-81561506D01*
X88621395Y-81561501D01*
X88427834Y-81425967D01*
X88427830Y-81425965D01*
X88427828Y-81425964D01*
X88213663Y-81326097D01*
X88213659Y-81326096D01*
X88213655Y-81326094D01*
X87985413Y-81264938D01*
X87985403Y-81264936D01*
X87750001Y-81244341D01*
X87749999Y-81244341D01*
X87514596Y-81264936D01*
X87514586Y-81264938D01*
X87286344Y-81326094D01*
X87286335Y-81326098D01*
X87072171Y-81425964D01*
X87072169Y-81425965D01*
X86878597Y-81561505D01*
X86711505Y-81728597D01*
X86575965Y-81922169D01*
X86575964Y-81922171D01*
X86476098Y-82136335D01*
X86476094Y-82136344D01*
X86414938Y-82364586D01*
X86414936Y-82364596D01*
X86394341Y-82599999D01*
X86394341Y-82600000D01*
X73420407Y-82600000D01*
X73411367Y-82584355D01*
X73411364Y-82584352D01*
X73385001Y-82558009D01*
X73375500Y-82547354D01*
X73352325Y-82518138D01*
X73352322Y-82518135D01*
X73331560Y-82502728D01*
X73317807Y-82490867D01*
X73299519Y-82472593D01*
X73267225Y-82453965D01*
X73255297Y-82446136D01*
X73225354Y-82423916D01*
X73225353Y-82423915D01*
X73225351Y-82423914D01*
X73201303Y-82414403D01*
X73184951Y-82406506D01*
X73162558Y-82393589D01*
X73126539Y-82383952D01*
X73112991Y-82379477D01*
X73078325Y-82365767D01*
X73078320Y-82365765D01*
X73078317Y-82365764D01*
X73078315Y-82365764D01*
X73052623Y-82362801D01*
X73034790Y-82359406D01*
X73009816Y-82352725D01*
X73009815Y-82352725D01*
X72972544Y-82352739D01*
X72958293Y-82351923D01*
X72921247Y-82347651D01*
X72921244Y-82347651D01*
X72895662Y-82351438D01*
X72877551Y-82352775D01*
X66812216Y-82355098D01*
X66582645Y-82355098D01*
X66515606Y-82335413D01*
X66469851Y-82282609D01*
X66459907Y-82213451D01*
X66470263Y-82178693D01*
X66490015Y-82136335D01*
X66523903Y-82063663D01*
X66585063Y-81835408D01*
X66605659Y-81600000D01*
X66585063Y-81364592D01*
X66523903Y-81136337D01*
X66424035Y-80922171D01*
X66288495Y-80728599D01*
X66288494Y-80728597D01*
X66121402Y-80561506D01*
X66121395Y-80561501D01*
X65927834Y-80425967D01*
X65927830Y-80425965D01*
X65927828Y-80425964D01*
X65713663Y-80326097D01*
X65713659Y-80326096D01*
X65713655Y-80326094D01*
X65485413Y-80264938D01*
X65485403Y-80264936D01*
X65250001Y-80244341D01*
X65249999Y-80244341D01*
X65014596Y-80264936D01*
X65014586Y-80264938D01*
X64786344Y-80326094D01*
X64786335Y-80326098D01*
X64572171Y-80425964D01*
X64572169Y-80425965D01*
X64378600Y-80561503D01*
X64256673Y-80683430D01*
X64195350Y-80716914D01*
X64125658Y-80711930D01*
X64069725Y-80670058D01*
X64052810Y-80639081D01*
X64003797Y-80507671D01*
X64003793Y-80507664D01*
X63917547Y-80392455D01*
X63917544Y-80392452D01*
X63802335Y-80306206D01*
X63802328Y-80306202D01*
X63667482Y-80255908D01*
X63667483Y-80255908D01*
X63607883Y-80249501D01*
X63607881Y-80249500D01*
X63607873Y-80249500D01*
X63607864Y-80249500D01*
X61812129Y-80249500D01*
X61812123Y-80249501D01*
X61752516Y-80255908D01*
X61617671Y-80306202D01*
X61617664Y-80306206D01*
X61502455Y-80392452D01*
X61502452Y-80392455D01*
X61416206Y-80507664D01*
X61416202Y-80507671D01*
X61365908Y-80642517D01*
X61359501Y-80702116D01*
X61359500Y-80702135D01*
X61359500Y-82497870D01*
X61359501Y-82497876D01*
X61365908Y-82557483D01*
X61416202Y-82692328D01*
X61416206Y-82692335D01*
X61502452Y-82807544D01*
X61502455Y-82807547D01*
X61617664Y-82893793D01*
X61617671Y-82893797D01*
X61749081Y-82942810D01*
X61805015Y-82984681D01*
X61829432Y-83050145D01*
X61814580Y-83118418D01*
X61793430Y-83146673D01*
X61671503Y-83268600D01*
X61535965Y-83462169D01*
X61535964Y-83462171D01*
X61436098Y-83676335D01*
X61436094Y-83676344D01*
X61374938Y-83904586D01*
X61374936Y-83904596D01*
X61354341Y-84139999D01*
X61354341Y-84140000D01*
X61374936Y-84375403D01*
X61374938Y-84375413D01*
X61436094Y-84603655D01*
X61436096Y-84603659D01*
X61436097Y-84603663D01*
X61485601Y-84709824D01*
X61535965Y-84817830D01*
X61535967Y-84817834D01*
X61671501Y-85011395D01*
X61671506Y-85011402D01*
X61838597Y-85178493D01*
X61838603Y-85178498D01*
X62024158Y-85308425D01*
X62067783Y-85363002D01*
X62074977Y-85432500D01*
X62043454Y-85494855D01*
X62024158Y-85511575D01*
X61838597Y-85641505D01*
X61671505Y-85808597D01*
X61535965Y-86002169D01*
X61535964Y-86002171D01*
X61436098Y-86216335D01*
X61436094Y-86216344D01*
X61374938Y-86444586D01*
X61374936Y-86444596D01*
X61354341Y-86679999D01*
X61354341Y-86680000D01*
X60795532Y-86680000D01*
X60831833Y-81561501D01*
X60849123Y-79123620D01*
X60869283Y-79056722D01*
X60922410Y-79011343D01*
X60973120Y-79000500D01*
X92725113Y-79000500D01*
X92792152Y-79020185D01*
G37*
%TD.AperFunction*%
%TA.AperFunction,Conductor*%
G36*
X126292152Y-79020185D02*
G01*
X126337907Y-79072989D01*
X126349110Y-79125379D01*
X126250877Y-92976379D01*
X126230717Y-93043278D01*
X126177590Y-93088657D01*
X126126880Y-93099500D01*
X94374887Y-93099500D01*
X94307848Y-93079815D01*
X94262093Y-93027011D01*
X94250890Y-92974621D01*
X94295532Y-86680000D01*
X94854341Y-86680000D01*
X94874936Y-86915403D01*
X94874938Y-86915413D01*
X94936094Y-87143655D01*
X94936096Y-87143659D01*
X94936097Y-87143663D01*
X95019155Y-87321781D01*
X95035965Y-87357830D01*
X95035967Y-87357834D01*
X95144281Y-87512521D01*
X95171505Y-87551401D01*
X95338599Y-87718495D01*
X95435384Y-87786265D01*
X95532165Y-87854032D01*
X95532167Y-87854033D01*
X95532170Y-87854035D01*
X95746337Y-87953903D01*
X95974592Y-88015063D01*
X96162918Y-88031539D01*
X96209999Y-88035659D01*
X96210000Y-88035659D01*
X96210001Y-88035659D01*
X96249234Y-88032226D01*
X96445408Y-88015063D01*
X96673663Y-87953903D01*
X96887830Y-87854035D01*
X97081401Y-87718495D01*
X97248495Y-87551401D01*
X97378730Y-87365405D01*
X97433307Y-87321781D01*
X97502805Y-87314587D01*
X97565160Y-87346110D01*
X97581879Y-87365405D01*
X97711890Y-87551078D01*
X97878917Y-87718105D01*
X98072421Y-87853600D01*
X98286507Y-87953429D01*
X98286516Y-87953433D01*
X98500000Y-88010634D01*
X98500000Y-87113012D01*
X98557007Y-87145925D01*
X98684174Y-87180000D01*
X98815826Y-87180000D01*
X98942993Y-87145925D01*
X99000000Y-87113012D01*
X99000000Y-88010633D01*
X99213483Y-87953433D01*
X99213492Y-87953429D01*
X99427578Y-87853600D01*
X99621082Y-87718105D01*
X99788105Y-87551082D01*
X99923600Y-87357578D01*
X100023429Y-87143492D01*
X100023432Y-87143486D01*
X100080636Y-86930000D01*
X99183012Y-86930000D01*
X99215925Y-86872993D01*
X99250000Y-86745826D01*
X99250000Y-86614174D01*
X99215925Y-86487007D01*
X99183012Y-86430000D01*
X100080636Y-86430000D01*
X100080635Y-86429999D01*
X100023427Y-86216497D01*
X100023361Y-86216316D01*
X100023355Y-86216230D01*
X100022029Y-86211280D01*
X100023024Y-86211013D01*
X100018935Y-86146587D01*
X100052910Y-86085534D01*
X100114500Y-86052541D01*
X100139886Y-86049915D01*
X106162944Y-86049915D01*
X106165957Y-86050108D01*
X106172313Y-86050093D01*
X106172319Y-86050095D01*
X106250734Y-86049915D01*
X106250857Y-86049915D01*
X106335435Y-86049915D01*
X106338439Y-86049714D01*
X106670275Y-86048953D01*
X106736528Y-86067958D01*
X106883750Y-86160464D01*
X107043120Y-86216230D01*
X107054017Y-86220043D01*
X107054022Y-86220044D01*
X107233268Y-86240240D01*
X107233272Y-86240240D01*
X107233276Y-86240240D01*
X107412521Y-86220044D01*
X107412524Y-86220043D01*
X107412527Y-86220043D01*
X107582794Y-86160464D01*
X107735534Y-86064491D01*
X107745328Y-86054697D01*
X107806650Y-86021210D01*
X107876342Y-86026192D01*
X107920693Y-86054694D01*
X107964518Y-86098519D01*
X108117258Y-86194492D01*
X108225387Y-86232328D01*
X108287525Y-86254071D01*
X108287530Y-86254072D01*
X108466776Y-86274268D01*
X108466780Y-86274268D01*
X108466784Y-86274268D01*
X108646029Y-86254072D01*
X108646032Y-86254071D01*
X108646035Y-86254071D01*
X108816302Y-86194492D01*
X108969042Y-86098519D01*
X109096596Y-85970965D01*
X109192569Y-85818225D01*
X109252148Y-85647958D01*
X109268147Y-85505965D01*
X109272345Y-85468706D01*
X109272345Y-85468699D01*
X109252149Y-85289453D01*
X109252148Y-85289448D01*
X109192568Y-85119179D01*
X109096595Y-84966440D01*
X108969042Y-84838887D01*
X108816301Y-84742913D01*
X108705613Y-84704182D01*
X108646035Y-84683335D01*
X108625242Y-84680992D01*
X108613510Y-84679670D01*
X108549097Y-84652602D01*
X108530248Y-84633509D01*
X106934512Y-82621752D01*
X106924301Y-82606738D01*
X106920407Y-82600000D01*
X119894341Y-82600000D01*
X119914936Y-82835403D01*
X119914938Y-82835413D01*
X119976094Y-83063655D01*
X119976096Y-83063659D01*
X119976097Y-83063663D01*
X120071661Y-83268599D01*
X120075965Y-83277830D01*
X120075967Y-83277834D01*
X120184281Y-83432521D01*
X120211501Y-83471396D01*
X120211506Y-83471402D01*
X120333430Y-83593326D01*
X120366915Y-83654649D01*
X120361931Y-83724341D01*
X120320059Y-83780274D01*
X120289083Y-83797189D01*
X120157669Y-83846203D01*
X120157664Y-83846206D01*
X120042455Y-83932452D01*
X120042452Y-83932455D01*
X119956206Y-84047664D01*
X119956202Y-84047671D01*
X119905908Y-84182517D01*
X119899501Y-84242116D01*
X119899501Y-84242123D01*
X119899500Y-84242135D01*
X119899500Y-86037870D01*
X119899501Y-86037876D01*
X119905908Y-86097483D01*
X119956202Y-86232328D01*
X119956206Y-86232335D01*
X120042452Y-86347544D01*
X120042455Y-86347547D01*
X120157664Y-86433793D01*
X120157671Y-86433797D01*
X120292517Y-86484091D01*
X120292516Y-86484091D01*
X120299444Y-86484835D01*
X120352127Y-86490500D01*
X122147872Y-86490499D01*
X122207483Y-86484091D01*
X122342331Y-86433796D01*
X122457546Y-86347546D01*
X122543796Y-86232331D01*
X122594091Y-86097483D01*
X122600500Y-86037873D01*
X122600499Y-84242128D01*
X122594091Y-84182517D01*
X122578233Y-84140000D01*
X122543797Y-84047671D01*
X122543793Y-84047664D01*
X122457547Y-83932455D01*
X122457544Y-83932452D01*
X122342335Y-83846206D01*
X122342328Y-83846202D01*
X122210917Y-83797189D01*
X122154983Y-83755318D01*
X122130566Y-83689853D01*
X122145418Y-83621580D01*
X122166563Y-83593332D01*
X122288495Y-83471401D01*
X122424035Y-83277830D01*
X122523903Y-83063663D01*
X122585063Y-82835408D01*
X122605659Y-82600000D01*
X122585063Y-82364592D01*
X122523903Y-82136337D01*
X122424035Y-81922171D01*
X122363284Y-81835408D01*
X122288494Y-81728597D01*
X122121402Y-81561506D01*
X122121395Y-81561501D01*
X121927834Y-81425967D01*
X121927830Y-81425965D01*
X121927828Y-81425964D01*
X121713663Y-81326097D01*
X121713659Y-81326096D01*
X121713655Y-81326094D01*
X121485413Y-81264938D01*
X121485403Y-81264936D01*
X121250001Y-81244341D01*
X121249999Y-81244341D01*
X121014596Y-81264936D01*
X121014586Y-81264938D01*
X120786344Y-81326094D01*
X120786335Y-81326098D01*
X120572171Y-81425964D01*
X120572169Y-81425965D01*
X120378597Y-81561505D01*
X120211505Y-81728597D01*
X120075965Y-81922169D01*
X120075964Y-81922171D01*
X119976098Y-82136335D01*
X119976094Y-82136344D01*
X119914938Y-82364586D01*
X119914936Y-82364596D01*
X119894341Y-82599999D01*
X119894341Y-82600000D01*
X106920407Y-82600000D01*
X106911367Y-82584355D01*
X106911364Y-82584352D01*
X106885001Y-82558009D01*
X106875500Y-82547354D01*
X106852325Y-82518138D01*
X106852322Y-82518135D01*
X106831560Y-82502728D01*
X106817807Y-82490867D01*
X106799519Y-82472593D01*
X106767225Y-82453965D01*
X106755297Y-82446136D01*
X106725354Y-82423916D01*
X106725353Y-82423915D01*
X106725351Y-82423914D01*
X106701303Y-82414403D01*
X106684951Y-82406506D01*
X106662558Y-82393589D01*
X106626539Y-82383952D01*
X106612991Y-82379477D01*
X106578325Y-82365767D01*
X106578320Y-82365765D01*
X106578317Y-82365764D01*
X106578315Y-82365764D01*
X106552623Y-82362801D01*
X106534790Y-82359406D01*
X106509816Y-82352725D01*
X106509815Y-82352725D01*
X106472544Y-82352739D01*
X106458293Y-82351923D01*
X106421247Y-82347651D01*
X106421244Y-82347651D01*
X106395662Y-82351438D01*
X106377551Y-82352775D01*
X100312216Y-82355098D01*
X100082645Y-82355098D01*
X100015606Y-82335413D01*
X99969851Y-82282609D01*
X99959907Y-82213451D01*
X99970263Y-82178693D01*
X99990015Y-82136335D01*
X100023903Y-82063663D01*
X100085063Y-81835408D01*
X100105659Y-81600000D01*
X100085063Y-81364592D01*
X100023903Y-81136337D01*
X99924035Y-80922171D01*
X99788495Y-80728599D01*
X99788494Y-80728597D01*
X99621402Y-80561506D01*
X99621395Y-80561501D01*
X99427834Y-80425967D01*
X99427830Y-80425965D01*
X99427828Y-80425964D01*
X99213663Y-80326097D01*
X99213659Y-80326096D01*
X99213655Y-80326094D01*
X98985413Y-80264938D01*
X98985403Y-80264936D01*
X98750001Y-80244341D01*
X98749999Y-80244341D01*
X98514596Y-80264936D01*
X98514586Y-80264938D01*
X98286344Y-80326094D01*
X98286335Y-80326098D01*
X98072171Y-80425964D01*
X98072169Y-80425965D01*
X97878600Y-80561503D01*
X97756673Y-80683430D01*
X97695350Y-80716914D01*
X97625658Y-80711930D01*
X97569725Y-80670058D01*
X97552810Y-80639081D01*
X97503797Y-80507671D01*
X97503793Y-80507664D01*
X97417547Y-80392455D01*
X97417544Y-80392452D01*
X97302335Y-80306206D01*
X97302328Y-80306202D01*
X97167482Y-80255908D01*
X97167483Y-80255908D01*
X97107883Y-80249501D01*
X97107881Y-80249500D01*
X97107873Y-80249500D01*
X97107864Y-80249500D01*
X95312129Y-80249500D01*
X95312123Y-80249501D01*
X95252516Y-80255908D01*
X95117671Y-80306202D01*
X95117664Y-80306206D01*
X95002455Y-80392452D01*
X95002452Y-80392455D01*
X94916206Y-80507664D01*
X94916202Y-80507671D01*
X94865908Y-80642517D01*
X94859501Y-80702116D01*
X94859500Y-80702135D01*
X94859500Y-82497870D01*
X94859501Y-82497876D01*
X94865908Y-82557483D01*
X94916202Y-82692328D01*
X94916206Y-82692335D01*
X95002452Y-82807544D01*
X95002455Y-82807547D01*
X95117664Y-82893793D01*
X95117671Y-82893797D01*
X95249081Y-82942810D01*
X95305015Y-82984681D01*
X95329432Y-83050145D01*
X95314580Y-83118418D01*
X95293430Y-83146673D01*
X95171503Y-83268600D01*
X95035965Y-83462169D01*
X95035964Y-83462171D01*
X94936098Y-83676335D01*
X94936094Y-83676344D01*
X94874938Y-83904586D01*
X94874936Y-83904596D01*
X94854341Y-84139999D01*
X94854341Y-84140000D01*
X94874936Y-84375403D01*
X94874938Y-84375413D01*
X94936094Y-84603655D01*
X94936096Y-84603659D01*
X94936097Y-84603663D01*
X94985601Y-84709824D01*
X95035965Y-84817830D01*
X95035967Y-84817834D01*
X95171501Y-85011395D01*
X95171506Y-85011402D01*
X95338597Y-85178493D01*
X95338603Y-85178498D01*
X95524158Y-85308425D01*
X95567783Y-85363002D01*
X95574977Y-85432500D01*
X95543454Y-85494855D01*
X95524158Y-85511575D01*
X95338597Y-85641505D01*
X95171505Y-85808597D01*
X95035965Y-86002169D01*
X95035964Y-86002171D01*
X94936098Y-86216335D01*
X94936094Y-86216344D01*
X94874938Y-86444586D01*
X94874936Y-86444596D01*
X94854341Y-86679999D01*
X94854341Y-86680000D01*
X94295532Y-86680000D01*
X94331833Y-81561501D01*
X94349123Y-79123620D01*
X94369283Y-79056722D01*
X94422410Y-79011343D01*
X94473120Y-79000500D01*
X126225113Y-79000500D01*
X126292152Y-79020185D01*
G37*
%TD.AperFunction*%
%TA.AperFunction,Conductor*%
G36*
X159792152Y-79020185D02*
G01*
X159837907Y-79072989D01*
X159849110Y-79125379D01*
X159750877Y-92976379D01*
X159730717Y-93043278D01*
X159677590Y-93088657D01*
X159626880Y-93099500D01*
X127874887Y-93099500D01*
X127807848Y-93079815D01*
X127762093Y-93027011D01*
X127750890Y-92974621D01*
X127795532Y-86680000D01*
X128354341Y-86680000D01*
X128374936Y-86915403D01*
X128374938Y-86915413D01*
X128436094Y-87143655D01*
X128436096Y-87143659D01*
X128436097Y-87143663D01*
X128519155Y-87321781D01*
X128535965Y-87357830D01*
X128535967Y-87357834D01*
X128644281Y-87512521D01*
X128671505Y-87551401D01*
X128838599Y-87718495D01*
X128935384Y-87786265D01*
X129032165Y-87854032D01*
X129032167Y-87854033D01*
X129032170Y-87854035D01*
X129246337Y-87953903D01*
X129474592Y-88015063D01*
X129662918Y-88031539D01*
X129709999Y-88035659D01*
X129710000Y-88035659D01*
X129710001Y-88035659D01*
X129749234Y-88032226D01*
X129945408Y-88015063D01*
X130173663Y-87953903D01*
X130387830Y-87854035D01*
X130581401Y-87718495D01*
X130748495Y-87551401D01*
X130878730Y-87365405D01*
X130933307Y-87321781D01*
X131002805Y-87314587D01*
X131065160Y-87346110D01*
X131081879Y-87365405D01*
X131211890Y-87551078D01*
X131378917Y-87718105D01*
X131572421Y-87853600D01*
X131786507Y-87953429D01*
X131786516Y-87953433D01*
X132000000Y-88010634D01*
X132000000Y-87113012D01*
X132057007Y-87145925D01*
X132184174Y-87180000D01*
X132315826Y-87180000D01*
X132442993Y-87145925D01*
X132500000Y-87113012D01*
X132500000Y-88010633D01*
X132713483Y-87953433D01*
X132713492Y-87953429D01*
X132927578Y-87853600D01*
X133121082Y-87718105D01*
X133288105Y-87551082D01*
X133423600Y-87357578D01*
X133523429Y-87143492D01*
X133523432Y-87143486D01*
X133580636Y-86930000D01*
X132683012Y-86930000D01*
X132715925Y-86872993D01*
X132750000Y-86745826D01*
X132750000Y-86614174D01*
X132715925Y-86487007D01*
X132683012Y-86430000D01*
X133580636Y-86430000D01*
X133580635Y-86429999D01*
X133523427Y-86216497D01*
X133523361Y-86216316D01*
X133523355Y-86216230D01*
X133522029Y-86211280D01*
X133523024Y-86211013D01*
X133518935Y-86146587D01*
X133552910Y-86085534D01*
X133614500Y-86052541D01*
X133639886Y-86049915D01*
X139662944Y-86049915D01*
X139665957Y-86050108D01*
X139672313Y-86050093D01*
X139672319Y-86050095D01*
X139750734Y-86049915D01*
X139750857Y-86049915D01*
X139835435Y-86049915D01*
X139838439Y-86049714D01*
X140170275Y-86048953D01*
X140236528Y-86067958D01*
X140383750Y-86160464D01*
X140543120Y-86216230D01*
X140554017Y-86220043D01*
X140554022Y-86220044D01*
X140733268Y-86240240D01*
X140733272Y-86240240D01*
X140733276Y-86240240D01*
X140912521Y-86220044D01*
X140912524Y-86220043D01*
X140912527Y-86220043D01*
X141082794Y-86160464D01*
X141235534Y-86064491D01*
X141245328Y-86054697D01*
X141306650Y-86021210D01*
X141376342Y-86026192D01*
X141420693Y-86054694D01*
X141464518Y-86098519D01*
X141617258Y-86194492D01*
X141725387Y-86232328D01*
X141787525Y-86254071D01*
X141787530Y-86254072D01*
X141966776Y-86274268D01*
X141966780Y-86274268D01*
X141966784Y-86274268D01*
X142146029Y-86254072D01*
X142146032Y-86254071D01*
X142146035Y-86254071D01*
X142316302Y-86194492D01*
X142469042Y-86098519D01*
X142596596Y-85970965D01*
X142692569Y-85818225D01*
X142752148Y-85647958D01*
X142768147Y-85505965D01*
X142772345Y-85468706D01*
X142772345Y-85468699D01*
X142752149Y-85289453D01*
X142752148Y-85289448D01*
X142692568Y-85119179D01*
X142596595Y-84966440D01*
X142469042Y-84838887D01*
X142316301Y-84742913D01*
X142205613Y-84704182D01*
X142146035Y-84683335D01*
X142125242Y-84680992D01*
X142113510Y-84679670D01*
X142049097Y-84652602D01*
X142030248Y-84633509D01*
X140434512Y-82621752D01*
X140424301Y-82606738D01*
X140420407Y-82600000D01*
X153394341Y-82600000D01*
X153414936Y-82835403D01*
X153414938Y-82835413D01*
X153476094Y-83063655D01*
X153476096Y-83063659D01*
X153476097Y-83063663D01*
X153571661Y-83268599D01*
X153575965Y-83277830D01*
X153575967Y-83277834D01*
X153684281Y-83432521D01*
X153711501Y-83471396D01*
X153711506Y-83471402D01*
X153833430Y-83593326D01*
X153866915Y-83654649D01*
X153861931Y-83724341D01*
X153820059Y-83780274D01*
X153789083Y-83797189D01*
X153657669Y-83846203D01*
X153657664Y-83846206D01*
X153542455Y-83932452D01*
X153542452Y-83932455D01*
X153456206Y-84047664D01*
X153456202Y-84047671D01*
X153405908Y-84182517D01*
X153399501Y-84242116D01*
X153399501Y-84242123D01*
X153399500Y-84242135D01*
X153399500Y-86037870D01*
X153399501Y-86037876D01*
X153405908Y-86097483D01*
X153456202Y-86232328D01*
X153456206Y-86232335D01*
X153542452Y-86347544D01*
X153542455Y-86347547D01*
X153657664Y-86433793D01*
X153657671Y-86433797D01*
X153792517Y-86484091D01*
X153792516Y-86484091D01*
X153799444Y-86484835D01*
X153852127Y-86490500D01*
X155647872Y-86490499D01*
X155707483Y-86484091D01*
X155842331Y-86433796D01*
X155957546Y-86347546D01*
X156043796Y-86232331D01*
X156094091Y-86097483D01*
X156100500Y-86037873D01*
X156100499Y-84242128D01*
X156094091Y-84182517D01*
X156078233Y-84140000D01*
X156043797Y-84047671D01*
X156043793Y-84047664D01*
X155957547Y-83932455D01*
X155957544Y-83932452D01*
X155842335Y-83846206D01*
X155842328Y-83846202D01*
X155710917Y-83797189D01*
X155654983Y-83755318D01*
X155630566Y-83689853D01*
X155645418Y-83621580D01*
X155666563Y-83593332D01*
X155788495Y-83471401D01*
X155924035Y-83277830D01*
X156023903Y-83063663D01*
X156085063Y-82835408D01*
X156105659Y-82600000D01*
X156085063Y-82364592D01*
X156023903Y-82136337D01*
X155924035Y-81922171D01*
X155863284Y-81835408D01*
X155788494Y-81728597D01*
X155621402Y-81561506D01*
X155621395Y-81561501D01*
X155427834Y-81425967D01*
X155427830Y-81425965D01*
X155427828Y-81425964D01*
X155213663Y-81326097D01*
X155213659Y-81326096D01*
X155213655Y-81326094D01*
X154985413Y-81264938D01*
X154985403Y-81264936D01*
X154750001Y-81244341D01*
X154749999Y-81244341D01*
X154514596Y-81264936D01*
X154514586Y-81264938D01*
X154286344Y-81326094D01*
X154286335Y-81326098D01*
X154072171Y-81425964D01*
X154072169Y-81425965D01*
X153878597Y-81561505D01*
X153711505Y-81728597D01*
X153575965Y-81922169D01*
X153575964Y-81922171D01*
X153476098Y-82136335D01*
X153476094Y-82136344D01*
X153414938Y-82364586D01*
X153414936Y-82364596D01*
X153394341Y-82599999D01*
X153394341Y-82600000D01*
X140420407Y-82600000D01*
X140411367Y-82584355D01*
X140411364Y-82584352D01*
X140385001Y-82558009D01*
X140375500Y-82547354D01*
X140352325Y-82518138D01*
X140352322Y-82518135D01*
X140331560Y-82502728D01*
X140317807Y-82490867D01*
X140299519Y-82472593D01*
X140267225Y-82453965D01*
X140255297Y-82446136D01*
X140225354Y-82423916D01*
X140225353Y-82423915D01*
X140225351Y-82423914D01*
X140201303Y-82414403D01*
X140184951Y-82406506D01*
X140162558Y-82393589D01*
X140126539Y-82383952D01*
X140112991Y-82379477D01*
X140078325Y-82365767D01*
X140078320Y-82365765D01*
X140078317Y-82365764D01*
X140078315Y-82365764D01*
X140052623Y-82362801D01*
X140034790Y-82359406D01*
X140009816Y-82352725D01*
X140009815Y-82352725D01*
X139972544Y-82352739D01*
X139958293Y-82351923D01*
X139921247Y-82347651D01*
X139921244Y-82347651D01*
X139895662Y-82351438D01*
X139877551Y-82352775D01*
X133812216Y-82355098D01*
X133582645Y-82355098D01*
X133515606Y-82335413D01*
X133469851Y-82282609D01*
X133459907Y-82213451D01*
X133470263Y-82178693D01*
X133490015Y-82136335D01*
X133523903Y-82063663D01*
X133585063Y-81835408D01*
X133605659Y-81600000D01*
X133585063Y-81364592D01*
X133523903Y-81136337D01*
X133424035Y-80922171D01*
X133288495Y-80728599D01*
X133288494Y-80728597D01*
X133121402Y-80561506D01*
X133121395Y-80561501D01*
X132927834Y-80425967D01*
X132927830Y-80425965D01*
X132927828Y-80425964D01*
X132713663Y-80326097D01*
X132713659Y-80326096D01*
X132713655Y-80326094D01*
X132485413Y-80264938D01*
X132485403Y-80264936D01*
X132250001Y-80244341D01*
X132249999Y-80244341D01*
X132014596Y-80264936D01*
X132014586Y-80264938D01*
X131786344Y-80326094D01*
X131786335Y-80326098D01*
X131572171Y-80425964D01*
X131572169Y-80425965D01*
X131378600Y-80561503D01*
X131256673Y-80683430D01*
X131195350Y-80716914D01*
X131125658Y-80711930D01*
X131069725Y-80670058D01*
X131052810Y-80639081D01*
X131003797Y-80507671D01*
X131003793Y-80507664D01*
X130917547Y-80392455D01*
X130917544Y-80392452D01*
X130802335Y-80306206D01*
X130802328Y-80306202D01*
X130667482Y-80255908D01*
X130667483Y-80255908D01*
X130607883Y-80249501D01*
X130607881Y-80249500D01*
X130607873Y-80249500D01*
X130607864Y-80249500D01*
X128812129Y-80249500D01*
X128812123Y-80249501D01*
X128752516Y-80255908D01*
X128617671Y-80306202D01*
X128617664Y-80306206D01*
X128502455Y-80392452D01*
X128502452Y-80392455D01*
X128416206Y-80507664D01*
X128416202Y-80507671D01*
X128365908Y-80642517D01*
X128359501Y-80702116D01*
X128359500Y-80702135D01*
X128359500Y-82497870D01*
X128359501Y-82497876D01*
X128365908Y-82557483D01*
X128416202Y-82692328D01*
X128416206Y-82692335D01*
X128502452Y-82807544D01*
X128502455Y-82807547D01*
X128617664Y-82893793D01*
X128617671Y-82893797D01*
X128749081Y-82942810D01*
X128805015Y-82984681D01*
X128829432Y-83050145D01*
X128814580Y-83118418D01*
X128793430Y-83146673D01*
X128671503Y-83268600D01*
X128535965Y-83462169D01*
X128535964Y-83462171D01*
X128436098Y-83676335D01*
X128436094Y-83676344D01*
X128374938Y-83904586D01*
X128374936Y-83904596D01*
X128354341Y-84139999D01*
X128354341Y-84140000D01*
X128374936Y-84375403D01*
X128374938Y-84375413D01*
X128436094Y-84603655D01*
X128436096Y-84603659D01*
X128436097Y-84603663D01*
X128485601Y-84709824D01*
X128535965Y-84817830D01*
X128535967Y-84817834D01*
X128671501Y-85011395D01*
X128671506Y-85011402D01*
X128838597Y-85178493D01*
X128838603Y-85178498D01*
X129024158Y-85308425D01*
X129067783Y-85363002D01*
X129074977Y-85432500D01*
X129043454Y-85494855D01*
X129024158Y-85511575D01*
X128838597Y-85641505D01*
X128671505Y-85808597D01*
X128535965Y-86002169D01*
X128535964Y-86002171D01*
X128436098Y-86216335D01*
X128436094Y-86216344D01*
X128374938Y-86444586D01*
X128374936Y-86444596D01*
X128354341Y-86679999D01*
X128354341Y-86680000D01*
X127795532Y-86680000D01*
X127831833Y-81561501D01*
X127849123Y-79123620D01*
X127869283Y-79056722D01*
X127922410Y-79011343D01*
X127973120Y-79000500D01*
X159725113Y-79000500D01*
X159792152Y-79020185D01*
G37*
%TD.AperFunction*%
%TA.AperFunction,Conductor*%
G36*
X92792152Y-95020185D02*
G01*
X92837907Y-95072989D01*
X92849110Y-95125379D01*
X92750877Y-108976379D01*
X92730717Y-109043278D01*
X92677590Y-109088657D01*
X92626880Y-109099500D01*
X60874887Y-109099500D01*
X60807848Y-109079815D01*
X60762093Y-109027011D01*
X60750890Y-108974621D01*
X60795532Y-102680000D01*
X61354341Y-102680000D01*
X61374936Y-102915403D01*
X61374938Y-102915413D01*
X61436094Y-103143655D01*
X61436096Y-103143659D01*
X61436097Y-103143663D01*
X61519155Y-103321781D01*
X61535965Y-103357830D01*
X61535967Y-103357834D01*
X61644281Y-103512521D01*
X61671505Y-103551401D01*
X61838599Y-103718495D01*
X61935384Y-103786265D01*
X62032165Y-103854032D01*
X62032167Y-103854033D01*
X62032170Y-103854035D01*
X62246337Y-103953903D01*
X62474592Y-104015063D01*
X62662918Y-104031539D01*
X62709999Y-104035659D01*
X62710000Y-104035659D01*
X62710001Y-104035659D01*
X62749234Y-104032226D01*
X62945408Y-104015063D01*
X63173663Y-103953903D01*
X63387830Y-103854035D01*
X63581401Y-103718495D01*
X63748495Y-103551401D01*
X63878730Y-103365405D01*
X63933307Y-103321781D01*
X64002805Y-103314587D01*
X64065160Y-103346110D01*
X64081879Y-103365405D01*
X64211890Y-103551078D01*
X64378917Y-103718105D01*
X64572421Y-103853600D01*
X64786507Y-103953429D01*
X64786516Y-103953433D01*
X65000000Y-104010634D01*
X65000000Y-103113012D01*
X65057007Y-103145925D01*
X65184174Y-103180000D01*
X65315826Y-103180000D01*
X65442993Y-103145925D01*
X65500000Y-103113012D01*
X65500000Y-104010633D01*
X65713483Y-103953433D01*
X65713492Y-103953429D01*
X65927578Y-103853600D01*
X66121082Y-103718105D01*
X66288105Y-103551082D01*
X66423600Y-103357578D01*
X66523429Y-103143492D01*
X66523432Y-103143486D01*
X66580636Y-102930000D01*
X65683012Y-102930000D01*
X65715925Y-102872993D01*
X65750000Y-102745826D01*
X65750000Y-102614174D01*
X65715925Y-102487007D01*
X65683012Y-102430000D01*
X66580636Y-102430000D01*
X66580635Y-102429999D01*
X66523427Y-102216497D01*
X66523361Y-102216316D01*
X66523355Y-102216230D01*
X66522029Y-102211280D01*
X66523024Y-102211013D01*
X66518935Y-102146587D01*
X66552910Y-102085534D01*
X66614500Y-102052541D01*
X66639886Y-102049915D01*
X72662944Y-102049915D01*
X72665957Y-102050108D01*
X72672313Y-102050093D01*
X72672319Y-102050095D01*
X72750734Y-102049915D01*
X72750857Y-102049915D01*
X72835435Y-102049915D01*
X72838439Y-102049714D01*
X73170275Y-102048953D01*
X73236528Y-102067958D01*
X73383750Y-102160464D01*
X73543120Y-102216230D01*
X73554017Y-102220043D01*
X73554022Y-102220044D01*
X73733268Y-102240240D01*
X73733272Y-102240240D01*
X73733276Y-102240240D01*
X73912521Y-102220044D01*
X73912524Y-102220043D01*
X73912527Y-102220043D01*
X74082794Y-102160464D01*
X74235534Y-102064491D01*
X74245328Y-102054697D01*
X74306650Y-102021210D01*
X74376342Y-102026192D01*
X74420693Y-102054694D01*
X74464518Y-102098519D01*
X74617258Y-102194492D01*
X74725387Y-102232328D01*
X74787525Y-102254071D01*
X74787530Y-102254072D01*
X74966776Y-102274268D01*
X74966780Y-102274268D01*
X74966784Y-102274268D01*
X75146029Y-102254072D01*
X75146032Y-102254071D01*
X75146035Y-102254071D01*
X75316302Y-102194492D01*
X75469042Y-102098519D01*
X75596596Y-101970965D01*
X75692569Y-101818225D01*
X75752148Y-101647958D01*
X75768147Y-101505965D01*
X75772345Y-101468706D01*
X75772345Y-101468699D01*
X75752149Y-101289453D01*
X75752148Y-101289448D01*
X75692568Y-101119179D01*
X75596595Y-100966440D01*
X75469042Y-100838887D01*
X75316301Y-100742913D01*
X75205613Y-100704182D01*
X75146035Y-100683335D01*
X75125242Y-100680992D01*
X75113510Y-100679670D01*
X75049097Y-100652602D01*
X75030248Y-100633509D01*
X73434512Y-98621752D01*
X73424301Y-98606738D01*
X73420407Y-98600000D01*
X86394341Y-98600000D01*
X86414936Y-98835403D01*
X86414938Y-98835413D01*
X86476094Y-99063655D01*
X86476096Y-99063659D01*
X86476097Y-99063663D01*
X86571661Y-99268599D01*
X86575965Y-99277830D01*
X86575967Y-99277834D01*
X86684281Y-99432521D01*
X86711501Y-99471396D01*
X86711506Y-99471402D01*
X86833430Y-99593326D01*
X86866915Y-99654649D01*
X86861931Y-99724341D01*
X86820059Y-99780274D01*
X86789083Y-99797189D01*
X86657669Y-99846203D01*
X86657664Y-99846206D01*
X86542455Y-99932452D01*
X86542452Y-99932455D01*
X86456206Y-100047664D01*
X86456202Y-100047671D01*
X86405908Y-100182517D01*
X86399501Y-100242116D01*
X86399501Y-100242123D01*
X86399500Y-100242135D01*
X86399500Y-102037870D01*
X86399501Y-102037876D01*
X86405908Y-102097483D01*
X86456202Y-102232328D01*
X86456206Y-102232335D01*
X86542452Y-102347544D01*
X86542455Y-102347547D01*
X86657664Y-102433793D01*
X86657671Y-102433797D01*
X86792517Y-102484091D01*
X86792516Y-102484091D01*
X86799444Y-102484835D01*
X86852127Y-102490500D01*
X88647872Y-102490499D01*
X88707483Y-102484091D01*
X88842331Y-102433796D01*
X88957546Y-102347546D01*
X89043796Y-102232331D01*
X89094091Y-102097483D01*
X89100500Y-102037873D01*
X89100499Y-100242128D01*
X89094091Y-100182517D01*
X89078233Y-100140000D01*
X89043797Y-100047671D01*
X89043793Y-100047664D01*
X88957547Y-99932455D01*
X88957544Y-99932452D01*
X88842335Y-99846206D01*
X88842328Y-99846202D01*
X88710917Y-99797189D01*
X88654983Y-99755318D01*
X88630566Y-99689853D01*
X88645418Y-99621580D01*
X88666563Y-99593332D01*
X88788495Y-99471401D01*
X88924035Y-99277830D01*
X89023903Y-99063663D01*
X89085063Y-98835408D01*
X89105659Y-98600000D01*
X89085063Y-98364592D01*
X89023903Y-98136337D01*
X88924035Y-97922171D01*
X88863284Y-97835408D01*
X88788494Y-97728597D01*
X88621402Y-97561506D01*
X88621395Y-97561501D01*
X88427834Y-97425967D01*
X88427830Y-97425965D01*
X88427828Y-97425964D01*
X88213663Y-97326097D01*
X88213659Y-97326096D01*
X88213655Y-97326094D01*
X87985413Y-97264938D01*
X87985403Y-97264936D01*
X87750001Y-97244341D01*
X87749999Y-97244341D01*
X87514596Y-97264936D01*
X87514586Y-97264938D01*
X87286344Y-97326094D01*
X87286335Y-97326098D01*
X87072171Y-97425964D01*
X87072169Y-97425965D01*
X86878597Y-97561505D01*
X86711505Y-97728597D01*
X86575965Y-97922169D01*
X86575964Y-97922171D01*
X86476098Y-98136335D01*
X86476094Y-98136344D01*
X86414938Y-98364586D01*
X86414936Y-98364596D01*
X86394341Y-98599999D01*
X86394341Y-98600000D01*
X73420407Y-98600000D01*
X73411367Y-98584355D01*
X73411364Y-98584352D01*
X73385001Y-98558009D01*
X73375500Y-98547354D01*
X73352325Y-98518138D01*
X73352322Y-98518135D01*
X73331560Y-98502728D01*
X73317807Y-98490867D01*
X73299519Y-98472593D01*
X73267225Y-98453965D01*
X73255297Y-98446136D01*
X73225354Y-98423916D01*
X73225353Y-98423915D01*
X73225351Y-98423914D01*
X73201303Y-98414403D01*
X73184951Y-98406506D01*
X73162558Y-98393589D01*
X73126539Y-98383952D01*
X73112991Y-98379477D01*
X73078325Y-98365767D01*
X73078320Y-98365765D01*
X73078317Y-98365764D01*
X73078315Y-98365764D01*
X73052623Y-98362801D01*
X73034790Y-98359406D01*
X73009816Y-98352725D01*
X73009815Y-98352725D01*
X72972544Y-98352739D01*
X72958293Y-98351923D01*
X72921247Y-98347651D01*
X72921244Y-98347651D01*
X72895662Y-98351438D01*
X72877551Y-98352775D01*
X66812216Y-98355098D01*
X66582645Y-98355098D01*
X66515606Y-98335413D01*
X66469851Y-98282609D01*
X66459907Y-98213451D01*
X66470263Y-98178693D01*
X66490015Y-98136335D01*
X66523903Y-98063663D01*
X66585063Y-97835408D01*
X66605659Y-97600000D01*
X66585063Y-97364592D01*
X66523903Y-97136337D01*
X66424035Y-96922171D01*
X66288495Y-96728599D01*
X66288494Y-96728597D01*
X66121402Y-96561506D01*
X66121395Y-96561501D01*
X65927834Y-96425967D01*
X65927830Y-96425965D01*
X65927828Y-96425964D01*
X65713663Y-96326097D01*
X65713659Y-96326096D01*
X65713655Y-96326094D01*
X65485413Y-96264938D01*
X65485403Y-96264936D01*
X65250001Y-96244341D01*
X65249999Y-96244341D01*
X65014596Y-96264936D01*
X65014586Y-96264938D01*
X64786344Y-96326094D01*
X64786335Y-96326098D01*
X64572171Y-96425964D01*
X64572169Y-96425965D01*
X64378600Y-96561503D01*
X64256673Y-96683430D01*
X64195350Y-96716914D01*
X64125658Y-96711930D01*
X64069725Y-96670058D01*
X64052810Y-96639081D01*
X64003797Y-96507671D01*
X64003793Y-96507664D01*
X63917547Y-96392455D01*
X63917544Y-96392452D01*
X63802335Y-96306206D01*
X63802328Y-96306202D01*
X63667482Y-96255908D01*
X63667483Y-96255908D01*
X63607883Y-96249501D01*
X63607881Y-96249500D01*
X63607873Y-96249500D01*
X63607864Y-96249500D01*
X61812129Y-96249500D01*
X61812123Y-96249501D01*
X61752516Y-96255908D01*
X61617671Y-96306202D01*
X61617664Y-96306206D01*
X61502455Y-96392452D01*
X61502452Y-96392455D01*
X61416206Y-96507664D01*
X61416202Y-96507671D01*
X61365908Y-96642517D01*
X61359501Y-96702116D01*
X61359500Y-96702135D01*
X61359500Y-98497870D01*
X61359501Y-98497876D01*
X61365908Y-98557483D01*
X61416202Y-98692328D01*
X61416206Y-98692335D01*
X61502452Y-98807544D01*
X61502455Y-98807547D01*
X61617664Y-98893793D01*
X61617671Y-98893797D01*
X61749081Y-98942810D01*
X61805015Y-98984681D01*
X61829432Y-99050145D01*
X61814580Y-99118418D01*
X61793430Y-99146673D01*
X61671503Y-99268600D01*
X61535965Y-99462169D01*
X61535964Y-99462171D01*
X61436098Y-99676335D01*
X61436094Y-99676344D01*
X61374938Y-99904586D01*
X61374936Y-99904596D01*
X61354341Y-100139999D01*
X61354341Y-100140000D01*
X61374936Y-100375403D01*
X61374938Y-100375413D01*
X61436094Y-100603655D01*
X61436096Y-100603659D01*
X61436097Y-100603663D01*
X61485601Y-100709824D01*
X61535965Y-100817830D01*
X61535967Y-100817834D01*
X61671501Y-101011395D01*
X61671506Y-101011402D01*
X61838597Y-101178493D01*
X61838603Y-101178498D01*
X62024158Y-101308425D01*
X62067783Y-101363002D01*
X62074977Y-101432500D01*
X62043454Y-101494855D01*
X62024158Y-101511575D01*
X61838597Y-101641505D01*
X61671505Y-101808597D01*
X61535965Y-102002169D01*
X61535964Y-102002171D01*
X61436098Y-102216335D01*
X61436094Y-102216344D01*
X61374938Y-102444586D01*
X61374936Y-102444596D01*
X61354341Y-102679999D01*
X61354341Y-102680000D01*
X60795532Y-102680000D01*
X60831833Y-97561501D01*
X60849123Y-95123620D01*
X60869283Y-95056722D01*
X60922410Y-95011343D01*
X60973120Y-95000500D01*
X92725113Y-95000500D01*
X92792152Y-95020185D01*
G37*
%TD.AperFunction*%
%TA.AperFunction,Conductor*%
G36*
X126292152Y-95020185D02*
G01*
X126337907Y-95072989D01*
X126349110Y-95125379D01*
X126250877Y-108976379D01*
X126230717Y-109043278D01*
X126177590Y-109088657D01*
X126126880Y-109099500D01*
X94374887Y-109099500D01*
X94307848Y-109079815D01*
X94262093Y-109027011D01*
X94250890Y-108974621D01*
X94295532Y-102680000D01*
X94854341Y-102680000D01*
X94874936Y-102915403D01*
X94874938Y-102915413D01*
X94936094Y-103143655D01*
X94936096Y-103143659D01*
X94936097Y-103143663D01*
X95019155Y-103321781D01*
X95035965Y-103357830D01*
X95035967Y-103357834D01*
X95144281Y-103512521D01*
X95171505Y-103551401D01*
X95338599Y-103718495D01*
X95435384Y-103786265D01*
X95532165Y-103854032D01*
X95532167Y-103854033D01*
X95532170Y-103854035D01*
X95746337Y-103953903D01*
X95974592Y-104015063D01*
X96162918Y-104031539D01*
X96209999Y-104035659D01*
X96210000Y-104035659D01*
X96210001Y-104035659D01*
X96249234Y-104032226D01*
X96445408Y-104015063D01*
X96673663Y-103953903D01*
X96887830Y-103854035D01*
X97081401Y-103718495D01*
X97248495Y-103551401D01*
X97378730Y-103365405D01*
X97433307Y-103321781D01*
X97502805Y-103314587D01*
X97565160Y-103346110D01*
X97581879Y-103365405D01*
X97711890Y-103551078D01*
X97878917Y-103718105D01*
X98072421Y-103853600D01*
X98286507Y-103953429D01*
X98286516Y-103953433D01*
X98500000Y-104010634D01*
X98500000Y-103113012D01*
X98557007Y-103145925D01*
X98684174Y-103180000D01*
X98815826Y-103180000D01*
X98942993Y-103145925D01*
X99000000Y-103113012D01*
X99000000Y-104010633D01*
X99213483Y-103953433D01*
X99213492Y-103953429D01*
X99427578Y-103853600D01*
X99621082Y-103718105D01*
X99788105Y-103551082D01*
X99923600Y-103357578D01*
X100023429Y-103143492D01*
X100023432Y-103143486D01*
X100080636Y-102930000D01*
X99183012Y-102930000D01*
X99215925Y-102872993D01*
X99250000Y-102745826D01*
X99250000Y-102614174D01*
X99215925Y-102487007D01*
X99183012Y-102430000D01*
X100080636Y-102430000D01*
X100080635Y-102429999D01*
X100023427Y-102216497D01*
X100023361Y-102216316D01*
X100023355Y-102216230D01*
X100022029Y-102211280D01*
X100023024Y-102211013D01*
X100018935Y-102146587D01*
X100052910Y-102085534D01*
X100114500Y-102052541D01*
X100139886Y-102049915D01*
X106162944Y-102049915D01*
X106165957Y-102050108D01*
X106172313Y-102050093D01*
X106172319Y-102050095D01*
X106250734Y-102049915D01*
X106250857Y-102049915D01*
X106335435Y-102049915D01*
X106338439Y-102049714D01*
X106670275Y-102048953D01*
X106736528Y-102067958D01*
X106883750Y-102160464D01*
X107043120Y-102216230D01*
X107054017Y-102220043D01*
X107054022Y-102220044D01*
X107233268Y-102240240D01*
X107233272Y-102240240D01*
X107233276Y-102240240D01*
X107412521Y-102220044D01*
X107412524Y-102220043D01*
X107412527Y-102220043D01*
X107582794Y-102160464D01*
X107735534Y-102064491D01*
X107745328Y-102054697D01*
X107806650Y-102021210D01*
X107876342Y-102026192D01*
X107920693Y-102054694D01*
X107964518Y-102098519D01*
X108117258Y-102194492D01*
X108225387Y-102232328D01*
X108287525Y-102254071D01*
X108287530Y-102254072D01*
X108466776Y-102274268D01*
X108466780Y-102274268D01*
X108466784Y-102274268D01*
X108646029Y-102254072D01*
X108646032Y-102254071D01*
X108646035Y-102254071D01*
X108816302Y-102194492D01*
X108969042Y-102098519D01*
X109096596Y-101970965D01*
X109192569Y-101818225D01*
X109252148Y-101647958D01*
X109268147Y-101505965D01*
X109272345Y-101468706D01*
X109272345Y-101468699D01*
X109252149Y-101289453D01*
X109252148Y-101289448D01*
X109192568Y-101119179D01*
X109096595Y-100966440D01*
X108969042Y-100838887D01*
X108816301Y-100742913D01*
X108705613Y-100704182D01*
X108646035Y-100683335D01*
X108625242Y-100680992D01*
X108613510Y-100679670D01*
X108549097Y-100652602D01*
X108530248Y-100633509D01*
X106934512Y-98621752D01*
X106924301Y-98606738D01*
X106920407Y-98600000D01*
X119894341Y-98600000D01*
X119914936Y-98835403D01*
X119914938Y-98835413D01*
X119976094Y-99063655D01*
X119976096Y-99063659D01*
X119976097Y-99063663D01*
X120071661Y-99268599D01*
X120075965Y-99277830D01*
X120075967Y-99277834D01*
X120184281Y-99432521D01*
X120211501Y-99471396D01*
X120211506Y-99471402D01*
X120333430Y-99593326D01*
X120366915Y-99654649D01*
X120361931Y-99724341D01*
X120320059Y-99780274D01*
X120289083Y-99797189D01*
X120157669Y-99846203D01*
X120157664Y-99846206D01*
X120042455Y-99932452D01*
X120042452Y-99932455D01*
X119956206Y-100047664D01*
X119956202Y-100047671D01*
X119905908Y-100182517D01*
X119899501Y-100242116D01*
X119899501Y-100242123D01*
X119899500Y-100242135D01*
X119899500Y-102037870D01*
X119899501Y-102037876D01*
X119905908Y-102097483D01*
X119956202Y-102232328D01*
X119956206Y-102232335D01*
X120042452Y-102347544D01*
X120042455Y-102347547D01*
X120157664Y-102433793D01*
X120157671Y-102433797D01*
X120292517Y-102484091D01*
X120292516Y-102484091D01*
X120299444Y-102484835D01*
X120352127Y-102490500D01*
X122147872Y-102490499D01*
X122207483Y-102484091D01*
X122342331Y-102433796D01*
X122457546Y-102347546D01*
X122543796Y-102232331D01*
X122594091Y-102097483D01*
X122600500Y-102037873D01*
X122600499Y-100242128D01*
X122594091Y-100182517D01*
X122578233Y-100140000D01*
X122543797Y-100047671D01*
X122543793Y-100047664D01*
X122457547Y-99932455D01*
X122457544Y-99932452D01*
X122342335Y-99846206D01*
X122342328Y-99846202D01*
X122210917Y-99797189D01*
X122154983Y-99755318D01*
X122130566Y-99689853D01*
X122145418Y-99621580D01*
X122166563Y-99593332D01*
X122288495Y-99471401D01*
X122424035Y-99277830D01*
X122523903Y-99063663D01*
X122585063Y-98835408D01*
X122605659Y-98600000D01*
X122585063Y-98364592D01*
X122523903Y-98136337D01*
X122424035Y-97922171D01*
X122363284Y-97835408D01*
X122288494Y-97728597D01*
X122121402Y-97561506D01*
X122121395Y-97561501D01*
X121927834Y-97425967D01*
X121927830Y-97425965D01*
X121927828Y-97425964D01*
X121713663Y-97326097D01*
X121713659Y-97326096D01*
X121713655Y-97326094D01*
X121485413Y-97264938D01*
X121485403Y-97264936D01*
X121250001Y-97244341D01*
X121249999Y-97244341D01*
X121014596Y-97264936D01*
X121014586Y-97264938D01*
X120786344Y-97326094D01*
X120786335Y-97326098D01*
X120572171Y-97425964D01*
X120572169Y-97425965D01*
X120378597Y-97561505D01*
X120211505Y-97728597D01*
X120075965Y-97922169D01*
X120075964Y-97922171D01*
X119976098Y-98136335D01*
X119976094Y-98136344D01*
X119914938Y-98364586D01*
X119914936Y-98364596D01*
X119894341Y-98599999D01*
X119894341Y-98600000D01*
X106920407Y-98600000D01*
X106911367Y-98584355D01*
X106911364Y-98584352D01*
X106885001Y-98558009D01*
X106875500Y-98547354D01*
X106852325Y-98518138D01*
X106852322Y-98518135D01*
X106831560Y-98502728D01*
X106817807Y-98490867D01*
X106799519Y-98472593D01*
X106767225Y-98453965D01*
X106755297Y-98446136D01*
X106725354Y-98423916D01*
X106725353Y-98423915D01*
X106725351Y-98423914D01*
X106701303Y-98414403D01*
X106684951Y-98406506D01*
X106662558Y-98393589D01*
X106626539Y-98383952D01*
X106612991Y-98379477D01*
X106578325Y-98365767D01*
X106578320Y-98365765D01*
X106578317Y-98365764D01*
X106578315Y-98365764D01*
X106552623Y-98362801D01*
X106534790Y-98359406D01*
X106509816Y-98352725D01*
X106509815Y-98352725D01*
X106472544Y-98352739D01*
X106458293Y-98351923D01*
X106421247Y-98347651D01*
X106421244Y-98347651D01*
X106395662Y-98351438D01*
X106377551Y-98352775D01*
X100312216Y-98355098D01*
X100082645Y-98355098D01*
X100015606Y-98335413D01*
X99969851Y-98282609D01*
X99959907Y-98213451D01*
X99970263Y-98178693D01*
X99990015Y-98136335D01*
X100023903Y-98063663D01*
X100085063Y-97835408D01*
X100105659Y-97600000D01*
X100085063Y-97364592D01*
X100023903Y-97136337D01*
X99924035Y-96922171D01*
X99788495Y-96728599D01*
X99788494Y-96728597D01*
X99621402Y-96561506D01*
X99621395Y-96561501D01*
X99427834Y-96425967D01*
X99427830Y-96425965D01*
X99427828Y-96425964D01*
X99213663Y-96326097D01*
X99213659Y-96326096D01*
X99213655Y-96326094D01*
X98985413Y-96264938D01*
X98985403Y-96264936D01*
X98750001Y-96244341D01*
X98749999Y-96244341D01*
X98514596Y-96264936D01*
X98514586Y-96264938D01*
X98286344Y-96326094D01*
X98286335Y-96326098D01*
X98072171Y-96425964D01*
X98072169Y-96425965D01*
X97878600Y-96561503D01*
X97756673Y-96683430D01*
X97695350Y-96716914D01*
X97625658Y-96711930D01*
X97569725Y-96670058D01*
X97552810Y-96639081D01*
X97503797Y-96507671D01*
X97503793Y-96507664D01*
X97417547Y-96392455D01*
X97417544Y-96392452D01*
X97302335Y-96306206D01*
X97302328Y-96306202D01*
X97167482Y-96255908D01*
X97167483Y-96255908D01*
X97107883Y-96249501D01*
X97107881Y-96249500D01*
X97107873Y-96249500D01*
X97107864Y-96249500D01*
X95312129Y-96249500D01*
X95312123Y-96249501D01*
X95252516Y-96255908D01*
X95117671Y-96306202D01*
X95117664Y-96306206D01*
X95002455Y-96392452D01*
X95002452Y-96392455D01*
X94916206Y-96507664D01*
X94916202Y-96507671D01*
X94865908Y-96642517D01*
X94859501Y-96702116D01*
X94859500Y-96702135D01*
X94859500Y-98497870D01*
X94859501Y-98497876D01*
X94865908Y-98557483D01*
X94916202Y-98692328D01*
X94916206Y-98692335D01*
X95002452Y-98807544D01*
X95002455Y-98807547D01*
X95117664Y-98893793D01*
X95117671Y-98893797D01*
X95249081Y-98942810D01*
X95305015Y-98984681D01*
X95329432Y-99050145D01*
X95314580Y-99118418D01*
X95293430Y-99146673D01*
X95171503Y-99268600D01*
X95035965Y-99462169D01*
X95035964Y-99462171D01*
X94936098Y-99676335D01*
X94936094Y-99676344D01*
X94874938Y-99904586D01*
X94874936Y-99904596D01*
X94854341Y-100139999D01*
X94854341Y-100140000D01*
X94874936Y-100375403D01*
X94874938Y-100375413D01*
X94936094Y-100603655D01*
X94936096Y-100603659D01*
X94936097Y-100603663D01*
X94985601Y-100709824D01*
X95035965Y-100817830D01*
X95035967Y-100817834D01*
X95171501Y-101011395D01*
X95171506Y-101011402D01*
X95338597Y-101178493D01*
X95338603Y-101178498D01*
X95524158Y-101308425D01*
X95567783Y-101363002D01*
X95574977Y-101432500D01*
X95543454Y-101494855D01*
X95524158Y-101511575D01*
X95338597Y-101641505D01*
X95171505Y-101808597D01*
X95035965Y-102002169D01*
X95035964Y-102002171D01*
X94936098Y-102216335D01*
X94936094Y-102216344D01*
X94874938Y-102444586D01*
X94874936Y-102444596D01*
X94854341Y-102679999D01*
X94854341Y-102680000D01*
X94295532Y-102680000D01*
X94331833Y-97561501D01*
X94349123Y-95123620D01*
X94369283Y-95056722D01*
X94422410Y-95011343D01*
X94473120Y-95000500D01*
X126225113Y-95000500D01*
X126292152Y-95020185D01*
G37*
%TD.AperFunction*%
%TA.AperFunction,Conductor*%
G36*
X159792152Y-95020185D02*
G01*
X159837907Y-95072989D01*
X159849110Y-95125379D01*
X159750877Y-108976379D01*
X159730717Y-109043278D01*
X159677590Y-109088657D01*
X159626880Y-109099500D01*
X127874887Y-109099500D01*
X127807848Y-109079815D01*
X127762093Y-109027011D01*
X127750890Y-108974621D01*
X127795532Y-102680000D01*
X128354341Y-102680000D01*
X128374936Y-102915403D01*
X128374938Y-102915413D01*
X128436094Y-103143655D01*
X128436096Y-103143659D01*
X128436097Y-103143663D01*
X128519155Y-103321781D01*
X128535965Y-103357830D01*
X128535967Y-103357834D01*
X128644281Y-103512521D01*
X128671505Y-103551401D01*
X128838599Y-103718495D01*
X128935384Y-103786265D01*
X129032165Y-103854032D01*
X129032167Y-103854033D01*
X129032170Y-103854035D01*
X129246337Y-103953903D01*
X129474592Y-104015063D01*
X129662918Y-104031539D01*
X129709999Y-104035659D01*
X129710000Y-104035659D01*
X129710001Y-104035659D01*
X129749234Y-104032226D01*
X129945408Y-104015063D01*
X130173663Y-103953903D01*
X130387830Y-103854035D01*
X130581401Y-103718495D01*
X130748495Y-103551401D01*
X130878730Y-103365405D01*
X130933307Y-103321781D01*
X131002805Y-103314587D01*
X131065160Y-103346110D01*
X131081879Y-103365405D01*
X131211890Y-103551078D01*
X131378917Y-103718105D01*
X131572421Y-103853600D01*
X131786507Y-103953429D01*
X131786516Y-103953433D01*
X132000000Y-104010634D01*
X132000000Y-103113012D01*
X132057007Y-103145925D01*
X132184174Y-103180000D01*
X132315826Y-103180000D01*
X132442993Y-103145925D01*
X132500000Y-103113012D01*
X132500000Y-104010633D01*
X132713483Y-103953433D01*
X132713492Y-103953429D01*
X132927578Y-103853600D01*
X133121082Y-103718105D01*
X133288105Y-103551082D01*
X133423600Y-103357578D01*
X133523429Y-103143492D01*
X133523432Y-103143486D01*
X133580636Y-102930000D01*
X132683012Y-102930000D01*
X132715925Y-102872993D01*
X132750000Y-102745826D01*
X132750000Y-102614174D01*
X132715925Y-102487007D01*
X132683012Y-102430000D01*
X133580636Y-102430000D01*
X133580635Y-102429999D01*
X133523427Y-102216497D01*
X133523361Y-102216316D01*
X133523355Y-102216230D01*
X133522029Y-102211280D01*
X133523024Y-102211013D01*
X133518935Y-102146587D01*
X133552910Y-102085534D01*
X133614500Y-102052541D01*
X133639886Y-102049915D01*
X139662944Y-102049915D01*
X139665957Y-102050108D01*
X139672313Y-102050093D01*
X139672319Y-102050095D01*
X139750734Y-102049915D01*
X139750857Y-102049915D01*
X139835435Y-102049915D01*
X139838439Y-102049714D01*
X140170275Y-102048953D01*
X140236528Y-102067958D01*
X140383750Y-102160464D01*
X140543120Y-102216230D01*
X140554017Y-102220043D01*
X140554022Y-102220044D01*
X140733268Y-102240240D01*
X140733272Y-102240240D01*
X140733276Y-102240240D01*
X140912521Y-102220044D01*
X140912524Y-102220043D01*
X140912527Y-102220043D01*
X141082794Y-102160464D01*
X141235534Y-102064491D01*
X141245328Y-102054697D01*
X141306650Y-102021210D01*
X141376342Y-102026192D01*
X141420693Y-102054694D01*
X141464518Y-102098519D01*
X141617258Y-102194492D01*
X141725387Y-102232328D01*
X141787525Y-102254071D01*
X141787530Y-102254072D01*
X141966776Y-102274268D01*
X141966780Y-102274268D01*
X141966784Y-102274268D01*
X142146029Y-102254072D01*
X142146032Y-102254071D01*
X142146035Y-102254071D01*
X142316302Y-102194492D01*
X142469042Y-102098519D01*
X142596596Y-101970965D01*
X142692569Y-101818225D01*
X142752148Y-101647958D01*
X142768147Y-101505965D01*
X142772345Y-101468706D01*
X142772345Y-101468699D01*
X142752149Y-101289453D01*
X142752148Y-101289448D01*
X142692568Y-101119179D01*
X142596595Y-100966440D01*
X142469042Y-100838887D01*
X142316301Y-100742913D01*
X142205613Y-100704182D01*
X142146035Y-100683335D01*
X142125242Y-100680992D01*
X142113510Y-100679670D01*
X142049097Y-100652602D01*
X142030248Y-100633509D01*
X140434512Y-98621752D01*
X140424301Y-98606738D01*
X140420407Y-98600000D01*
X153394341Y-98600000D01*
X153414936Y-98835403D01*
X153414938Y-98835413D01*
X153476094Y-99063655D01*
X153476096Y-99063659D01*
X153476097Y-99063663D01*
X153571661Y-99268599D01*
X153575965Y-99277830D01*
X153575967Y-99277834D01*
X153684281Y-99432521D01*
X153711501Y-99471396D01*
X153711506Y-99471402D01*
X153833430Y-99593326D01*
X153866915Y-99654649D01*
X153861931Y-99724341D01*
X153820059Y-99780274D01*
X153789083Y-99797189D01*
X153657669Y-99846203D01*
X153657664Y-99846206D01*
X153542455Y-99932452D01*
X153542452Y-99932455D01*
X153456206Y-100047664D01*
X153456202Y-100047671D01*
X153405908Y-100182517D01*
X153399501Y-100242116D01*
X153399501Y-100242123D01*
X153399500Y-100242135D01*
X153399500Y-102037870D01*
X153399501Y-102037876D01*
X153405908Y-102097483D01*
X153456202Y-102232328D01*
X153456206Y-102232335D01*
X153542452Y-102347544D01*
X153542455Y-102347547D01*
X153657664Y-102433793D01*
X153657671Y-102433797D01*
X153792517Y-102484091D01*
X153792516Y-102484091D01*
X153799444Y-102484835D01*
X153852127Y-102490500D01*
X155647872Y-102490499D01*
X155707483Y-102484091D01*
X155842331Y-102433796D01*
X155957546Y-102347546D01*
X156043796Y-102232331D01*
X156094091Y-102097483D01*
X156100500Y-102037873D01*
X156100499Y-100242128D01*
X156094091Y-100182517D01*
X156078233Y-100140000D01*
X156043797Y-100047671D01*
X156043793Y-100047664D01*
X155957547Y-99932455D01*
X155957544Y-99932452D01*
X155842335Y-99846206D01*
X155842328Y-99846202D01*
X155710917Y-99797189D01*
X155654983Y-99755318D01*
X155630566Y-99689853D01*
X155645418Y-99621580D01*
X155666563Y-99593332D01*
X155788495Y-99471401D01*
X155924035Y-99277830D01*
X156023903Y-99063663D01*
X156085063Y-98835408D01*
X156105659Y-98600000D01*
X156085063Y-98364592D01*
X156023903Y-98136337D01*
X155924035Y-97922171D01*
X155863284Y-97835408D01*
X155788494Y-97728597D01*
X155621402Y-97561506D01*
X155621395Y-97561501D01*
X155427834Y-97425967D01*
X155427830Y-97425965D01*
X155427828Y-97425964D01*
X155213663Y-97326097D01*
X155213659Y-97326096D01*
X155213655Y-97326094D01*
X154985413Y-97264938D01*
X154985403Y-97264936D01*
X154750001Y-97244341D01*
X154749999Y-97244341D01*
X154514596Y-97264936D01*
X154514586Y-97264938D01*
X154286344Y-97326094D01*
X154286335Y-97326098D01*
X154072171Y-97425964D01*
X154072169Y-97425965D01*
X153878597Y-97561505D01*
X153711505Y-97728597D01*
X153575965Y-97922169D01*
X153575964Y-97922171D01*
X153476098Y-98136335D01*
X153476094Y-98136344D01*
X153414938Y-98364586D01*
X153414936Y-98364596D01*
X153394341Y-98599999D01*
X153394341Y-98600000D01*
X140420407Y-98600000D01*
X140411367Y-98584355D01*
X140411364Y-98584352D01*
X140385001Y-98558009D01*
X140375500Y-98547354D01*
X140352325Y-98518138D01*
X140352322Y-98518135D01*
X140331560Y-98502728D01*
X140317807Y-98490867D01*
X140299519Y-98472593D01*
X140267225Y-98453965D01*
X140255297Y-98446136D01*
X140225354Y-98423916D01*
X140225353Y-98423915D01*
X140225351Y-98423914D01*
X140201303Y-98414403D01*
X140184951Y-98406506D01*
X140162558Y-98393589D01*
X140126539Y-98383952D01*
X140112991Y-98379477D01*
X140078325Y-98365767D01*
X140078320Y-98365765D01*
X140078317Y-98365764D01*
X140078315Y-98365764D01*
X140052623Y-98362801D01*
X140034790Y-98359406D01*
X140009816Y-98352725D01*
X140009815Y-98352725D01*
X139972544Y-98352739D01*
X139958293Y-98351923D01*
X139921247Y-98347651D01*
X139921244Y-98347651D01*
X139895662Y-98351438D01*
X139877551Y-98352775D01*
X133812216Y-98355098D01*
X133582645Y-98355098D01*
X133515606Y-98335413D01*
X133469851Y-98282609D01*
X133459907Y-98213451D01*
X133470263Y-98178693D01*
X133490015Y-98136335D01*
X133523903Y-98063663D01*
X133585063Y-97835408D01*
X133605659Y-97600000D01*
X133585063Y-97364592D01*
X133523903Y-97136337D01*
X133424035Y-96922171D01*
X133288495Y-96728599D01*
X133288494Y-96728597D01*
X133121402Y-96561506D01*
X133121395Y-96561501D01*
X132927834Y-96425967D01*
X132927830Y-96425965D01*
X132927828Y-96425964D01*
X132713663Y-96326097D01*
X132713659Y-96326096D01*
X132713655Y-96326094D01*
X132485413Y-96264938D01*
X132485403Y-96264936D01*
X132250001Y-96244341D01*
X132249999Y-96244341D01*
X132014596Y-96264936D01*
X132014586Y-96264938D01*
X131786344Y-96326094D01*
X131786335Y-96326098D01*
X131572171Y-96425964D01*
X131572169Y-96425965D01*
X131378600Y-96561503D01*
X131256673Y-96683430D01*
X131195350Y-96716914D01*
X131125658Y-96711930D01*
X131069725Y-96670058D01*
X131052810Y-96639081D01*
X131003797Y-96507671D01*
X131003793Y-96507664D01*
X130917547Y-96392455D01*
X130917544Y-96392452D01*
X130802335Y-96306206D01*
X130802328Y-96306202D01*
X130667482Y-96255908D01*
X130667483Y-96255908D01*
X130607883Y-96249501D01*
X130607881Y-96249500D01*
X130607873Y-96249500D01*
X130607864Y-96249500D01*
X128812129Y-96249500D01*
X128812123Y-96249501D01*
X128752516Y-96255908D01*
X128617671Y-96306202D01*
X128617664Y-96306206D01*
X128502455Y-96392452D01*
X128502452Y-96392455D01*
X128416206Y-96507664D01*
X128416202Y-96507671D01*
X128365908Y-96642517D01*
X128359501Y-96702116D01*
X128359500Y-96702135D01*
X128359500Y-98497870D01*
X128359501Y-98497876D01*
X128365908Y-98557483D01*
X128416202Y-98692328D01*
X128416206Y-98692335D01*
X128502452Y-98807544D01*
X128502455Y-98807547D01*
X128617664Y-98893793D01*
X128617671Y-98893797D01*
X128749081Y-98942810D01*
X128805015Y-98984681D01*
X128829432Y-99050145D01*
X128814580Y-99118418D01*
X128793430Y-99146673D01*
X128671503Y-99268600D01*
X128535965Y-99462169D01*
X128535964Y-99462171D01*
X128436098Y-99676335D01*
X128436094Y-99676344D01*
X128374938Y-99904586D01*
X128374936Y-99904596D01*
X128354341Y-100139999D01*
X128354341Y-100140000D01*
X128374936Y-100375403D01*
X128374938Y-100375413D01*
X128436094Y-100603655D01*
X128436096Y-100603659D01*
X128436097Y-100603663D01*
X128485601Y-100709824D01*
X128535965Y-100817830D01*
X128535967Y-100817834D01*
X128671501Y-101011395D01*
X128671506Y-101011402D01*
X128838597Y-101178493D01*
X128838603Y-101178498D01*
X129024158Y-101308425D01*
X129067783Y-101363002D01*
X129074977Y-101432500D01*
X129043454Y-101494855D01*
X129024158Y-101511575D01*
X128838597Y-101641505D01*
X128671505Y-101808597D01*
X128535965Y-102002169D01*
X128535964Y-102002171D01*
X128436098Y-102216335D01*
X128436094Y-102216344D01*
X128374938Y-102444586D01*
X128374936Y-102444596D01*
X128354341Y-102679999D01*
X128354341Y-102680000D01*
X127795532Y-102680000D01*
X127831833Y-97561501D01*
X127849123Y-95123620D01*
X127869283Y-95056722D01*
X127922410Y-95011343D01*
X127973120Y-95000500D01*
X159725113Y-95000500D01*
X159792152Y-95020185D01*
G37*
%TD.AperFunction*%
%TA.AperFunction,Conductor*%
G36*
X92792152Y-111020185D02*
G01*
X92837907Y-111072989D01*
X92849110Y-111125379D01*
X92750877Y-124976379D01*
X92730717Y-125043278D01*
X92677590Y-125088657D01*
X92626880Y-125099500D01*
X60874887Y-125099500D01*
X60807848Y-125079815D01*
X60762093Y-125027011D01*
X60750890Y-124974621D01*
X60795532Y-118680000D01*
X61354341Y-118680000D01*
X61374936Y-118915403D01*
X61374938Y-118915413D01*
X61436094Y-119143655D01*
X61436096Y-119143659D01*
X61436097Y-119143663D01*
X61519155Y-119321781D01*
X61535965Y-119357830D01*
X61535967Y-119357834D01*
X61644281Y-119512521D01*
X61671505Y-119551401D01*
X61838599Y-119718495D01*
X61935384Y-119786265D01*
X62032165Y-119854032D01*
X62032167Y-119854033D01*
X62032170Y-119854035D01*
X62246337Y-119953903D01*
X62474592Y-120015063D01*
X62662918Y-120031539D01*
X62709999Y-120035659D01*
X62710000Y-120035659D01*
X62710001Y-120035659D01*
X62749234Y-120032226D01*
X62945408Y-120015063D01*
X63173663Y-119953903D01*
X63387830Y-119854035D01*
X63581401Y-119718495D01*
X63748495Y-119551401D01*
X63878730Y-119365405D01*
X63933307Y-119321781D01*
X64002805Y-119314587D01*
X64065160Y-119346110D01*
X64081879Y-119365405D01*
X64211890Y-119551078D01*
X64378917Y-119718105D01*
X64572421Y-119853600D01*
X64786507Y-119953429D01*
X64786516Y-119953433D01*
X65000000Y-120010634D01*
X65000000Y-119113012D01*
X65057007Y-119145925D01*
X65184174Y-119180000D01*
X65315826Y-119180000D01*
X65442993Y-119145925D01*
X65500000Y-119113012D01*
X65500000Y-120010633D01*
X65713483Y-119953433D01*
X65713492Y-119953429D01*
X65927578Y-119853600D01*
X66121082Y-119718105D01*
X66288105Y-119551082D01*
X66423600Y-119357578D01*
X66523429Y-119143492D01*
X66523432Y-119143486D01*
X66580636Y-118930000D01*
X65683012Y-118930000D01*
X65715925Y-118872993D01*
X65750000Y-118745826D01*
X65750000Y-118614174D01*
X65715925Y-118487007D01*
X65683012Y-118430000D01*
X66580636Y-118430000D01*
X66580635Y-118429999D01*
X66523427Y-118216497D01*
X66523361Y-118216316D01*
X66523355Y-118216230D01*
X66522029Y-118211280D01*
X66523024Y-118211013D01*
X66518935Y-118146587D01*
X66552910Y-118085534D01*
X66614500Y-118052541D01*
X66639886Y-118049915D01*
X72662944Y-118049915D01*
X72665957Y-118050108D01*
X72672313Y-118050093D01*
X72672319Y-118050095D01*
X72750734Y-118049915D01*
X72750857Y-118049915D01*
X72835435Y-118049915D01*
X72838439Y-118049714D01*
X73170275Y-118048953D01*
X73236528Y-118067958D01*
X73383750Y-118160464D01*
X73543120Y-118216230D01*
X73554017Y-118220043D01*
X73554022Y-118220044D01*
X73733268Y-118240240D01*
X73733272Y-118240240D01*
X73733276Y-118240240D01*
X73912521Y-118220044D01*
X73912524Y-118220043D01*
X73912527Y-118220043D01*
X74082794Y-118160464D01*
X74235534Y-118064491D01*
X74245328Y-118054697D01*
X74306650Y-118021210D01*
X74376342Y-118026192D01*
X74420693Y-118054694D01*
X74464518Y-118098519D01*
X74617258Y-118194492D01*
X74725387Y-118232328D01*
X74787525Y-118254071D01*
X74787530Y-118254072D01*
X74966776Y-118274268D01*
X74966780Y-118274268D01*
X74966784Y-118274268D01*
X75146029Y-118254072D01*
X75146032Y-118254071D01*
X75146035Y-118254071D01*
X75316302Y-118194492D01*
X75469042Y-118098519D01*
X75596596Y-117970965D01*
X75692569Y-117818225D01*
X75752148Y-117647958D01*
X75768147Y-117505965D01*
X75772345Y-117468706D01*
X75772345Y-117468699D01*
X75752149Y-117289453D01*
X75752148Y-117289448D01*
X75692568Y-117119179D01*
X75596595Y-116966440D01*
X75469042Y-116838887D01*
X75316301Y-116742913D01*
X75205613Y-116704182D01*
X75146035Y-116683335D01*
X75125242Y-116680992D01*
X75113510Y-116679670D01*
X75049097Y-116652602D01*
X75030248Y-116633509D01*
X73434512Y-114621752D01*
X73424301Y-114606738D01*
X73420407Y-114600000D01*
X86394341Y-114600000D01*
X86414936Y-114835403D01*
X86414938Y-114835413D01*
X86476094Y-115063655D01*
X86476096Y-115063659D01*
X86476097Y-115063663D01*
X86571661Y-115268599D01*
X86575965Y-115277830D01*
X86575967Y-115277834D01*
X86684281Y-115432521D01*
X86711501Y-115471396D01*
X86711506Y-115471402D01*
X86833430Y-115593326D01*
X86866915Y-115654649D01*
X86861931Y-115724341D01*
X86820059Y-115780274D01*
X86789083Y-115797189D01*
X86657669Y-115846203D01*
X86657664Y-115846206D01*
X86542455Y-115932452D01*
X86542452Y-115932455D01*
X86456206Y-116047664D01*
X86456202Y-116047671D01*
X86405908Y-116182517D01*
X86399501Y-116242116D01*
X86399501Y-116242123D01*
X86399500Y-116242135D01*
X86399500Y-118037870D01*
X86399501Y-118037876D01*
X86405908Y-118097483D01*
X86456202Y-118232328D01*
X86456206Y-118232335D01*
X86542452Y-118347544D01*
X86542455Y-118347547D01*
X86657664Y-118433793D01*
X86657671Y-118433797D01*
X86792517Y-118484091D01*
X86792516Y-118484091D01*
X86799444Y-118484835D01*
X86852127Y-118490500D01*
X88647872Y-118490499D01*
X88707483Y-118484091D01*
X88842331Y-118433796D01*
X88957546Y-118347546D01*
X89043796Y-118232331D01*
X89094091Y-118097483D01*
X89100500Y-118037873D01*
X89100499Y-116242128D01*
X89094091Y-116182517D01*
X89078233Y-116140000D01*
X89043797Y-116047671D01*
X89043793Y-116047664D01*
X88957547Y-115932455D01*
X88957544Y-115932452D01*
X88842335Y-115846206D01*
X88842328Y-115846202D01*
X88710917Y-115797189D01*
X88654983Y-115755318D01*
X88630566Y-115689853D01*
X88645418Y-115621580D01*
X88666563Y-115593332D01*
X88788495Y-115471401D01*
X88924035Y-115277830D01*
X89023903Y-115063663D01*
X89085063Y-114835408D01*
X89105659Y-114600000D01*
X89085063Y-114364592D01*
X89023903Y-114136337D01*
X88924035Y-113922171D01*
X88863284Y-113835408D01*
X88788494Y-113728597D01*
X88621402Y-113561506D01*
X88621395Y-113561501D01*
X88427834Y-113425967D01*
X88427830Y-113425965D01*
X88427828Y-113425964D01*
X88213663Y-113326097D01*
X88213659Y-113326096D01*
X88213655Y-113326094D01*
X87985413Y-113264938D01*
X87985403Y-113264936D01*
X87750001Y-113244341D01*
X87749999Y-113244341D01*
X87514596Y-113264936D01*
X87514586Y-113264938D01*
X87286344Y-113326094D01*
X87286335Y-113326098D01*
X87072171Y-113425964D01*
X87072169Y-113425965D01*
X86878597Y-113561505D01*
X86711505Y-113728597D01*
X86575965Y-113922169D01*
X86575964Y-113922171D01*
X86476098Y-114136335D01*
X86476094Y-114136344D01*
X86414938Y-114364586D01*
X86414936Y-114364596D01*
X86394341Y-114599999D01*
X86394341Y-114600000D01*
X73420407Y-114600000D01*
X73411367Y-114584355D01*
X73411364Y-114584352D01*
X73385001Y-114558009D01*
X73375500Y-114547354D01*
X73352325Y-114518138D01*
X73352322Y-114518135D01*
X73331560Y-114502728D01*
X73317807Y-114490867D01*
X73299519Y-114472593D01*
X73267225Y-114453965D01*
X73255297Y-114446136D01*
X73225354Y-114423916D01*
X73225353Y-114423915D01*
X73225351Y-114423914D01*
X73201303Y-114414403D01*
X73184951Y-114406506D01*
X73162558Y-114393589D01*
X73126539Y-114383952D01*
X73112991Y-114379477D01*
X73078325Y-114365767D01*
X73078320Y-114365765D01*
X73078317Y-114365764D01*
X73078315Y-114365764D01*
X73052623Y-114362801D01*
X73034790Y-114359406D01*
X73009816Y-114352725D01*
X73009815Y-114352725D01*
X72972544Y-114352739D01*
X72958293Y-114351923D01*
X72921247Y-114347651D01*
X72921244Y-114347651D01*
X72895662Y-114351438D01*
X72877551Y-114352775D01*
X66812216Y-114355098D01*
X66582645Y-114355098D01*
X66515606Y-114335413D01*
X66469851Y-114282609D01*
X66459907Y-114213451D01*
X66470263Y-114178693D01*
X66490015Y-114136335D01*
X66523903Y-114063663D01*
X66585063Y-113835408D01*
X66605659Y-113600000D01*
X66585063Y-113364592D01*
X66523903Y-113136337D01*
X66424035Y-112922171D01*
X66288495Y-112728599D01*
X66288494Y-112728597D01*
X66121402Y-112561506D01*
X66121395Y-112561501D01*
X65927834Y-112425967D01*
X65927830Y-112425965D01*
X65927828Y-112425964D01*
X65713663Y-112326097D01*
X65713659Y-112326096D01*
X65713655Y-112326094D01*
X65485413Y-112264938D01*
X65485403Y-112264936D01*
X65250001Y-112244341D01*
X65249999Y-112244341D01*
X65014596Y-112264936D01*
X65014586Y-112264938D01*
X64786344Y-112326094D01*
X64786335Y-112326098D01*
X64572171Y-112425964D01*
X64572169Y-112425965D01*
X64378600Y-112561503D01*
X64256673Y-112683430D01*
X64195350Y-112716914D01*
X64125658Y-112711930D01*
X64069725Y-112670058D01*
X64052810Y-112639081D01*
X64003797Y-112507671D01*
X64003793Y-112507664D01*
X63917547Y-112392455D01*
X63917544Y-112392452D01*
X63802335Y-112306206D01*
X63802328Y-112306202D01*
X63667482Y-112255908D01*
X63667483Y-112255908D01*
X63607883Y-112249501D01*
X63607881Y-112249500D01*
X63607873Y-112249500D01*
X63607864Y-112249500D01*
X61812129Y-112249500D01*
X61812123Y-112249501D01*
X61752516Y-112255908D01*
X61617671Y-112306202D01*
X61617664Y-112306206D01*
X61502455Y-112392452D01*
X61502452Y-112392455D01*
X61416206Y-112507664D01*
X61416202Y-112507671D01*
X61365908Y-112642517D01*
X61359501Y-112702116D01*
X61359500Y-112702135D01*
X61359500Y-114497870D01*
X61359501Y-114497876D01*
X61365908Y-114557483D01*
X61416202Y-114692328D01*
X61416206Y-114692335D01*
X61502452Y-114807544D01*
X61502455Y-114807547D01*
X61617664Y-114893793D01*
X61617671Y-114893797D01*
X61749081Y-114942810D01*
X61805015Y-114984681D01*
X61829432Y-115050145D01*
X61814580Y-115118418D01*
X61793430Y-115146673D01*
X61671503Y-115268600D01*
X61535965Y-115462169D01*
X61535964Y-115462171D01*
X61436098Y-115676335D01*
X61436094Y-115676344D01*
X61374938Y-115904586D01*
X61374936Y-115904596D01*
X61354341Y-116139999D01*
X61354341Y-116140000D01*
X61374936Y-116375403D01*
X61374938Y-116375413D01*
X61436094Y-116603655D01*
X61436096Y-116603659D01*
X61436097Y-116603663D01*
X61485601Y-116709824D01*
X61535965Y-116817830D01*
X61535967Y-116817834D01*
X61671501Y-117011395D01*
X61671506Y-117011402D01*
X61838597Y-117178493D01*
X61838603Y-117178498D01*
X62024158Y-117308425D01*
X62067783Y-117363002D01*
X62074977Y-117432500D01*
X62043454Y-117494855D01*
X62024158Y-117511575D01*
X61838597Y-117641505D01*
X61671505Y-117808597D01*
X61535965Y-118002169D01*
X61535964Y-118002171D01*
X61436098Y-118216335D01*
X61436094Y-118216344D01*
X61374938Y-118444586D01*
X61374936Y-118444596D01*
X61354341Y-118679999D01*
X61354341Y-118680000D01*
X60795532Y-118680000D01*
X60831833Y-113561501D01*
X60849123Y-111123620D01*
X60869283Y-111056722D01*
X60922410Y-111011343D01*
X60973120Y-111000500D01*
X92725113Y-111000500D01*
X92792152Y-111020185D01*
G37*
%TD.AperFunction*%
%TA.AperFunction,Conductor*%
G36*
X126292152Y-111020185D02*
G01*
X126337907Y-111072989D01*
X126349110Y-111125379D01*
X126250877Y-124976379D01*
X126230717Y-125043278D01*
X126177590Y-125088657D01*
X126126880Y-125099500D01*
X94374887Y-125099500D01*
X94307848Y-125079815D01*
X94262093Y-125027011D01*
X94250890Y-124974621D01*
X94295532Y-118680000D01*
X94854341Y-118680000D01*
X94874936Y-118915403D01*
X94874938Y-118915413D01*
X94936094Y-119143655D01*
X94936096Y-119143659D01*
X94936097Y-119143663D01*
X95019155Y-119321781D01*
X95035965Y-119357830D01*
X95035967Y-119357834D01*
X95144281Y-119512521D01*
X95171505Y-119551401D01*
X95338599Y-119718495D01*
X95435384Y-119786265D01*
X95532165Y-119854032D01*
X95532167Y-119854033D01*
X95532170Y-119854035D01*
X95746337Y-119953903D01*
X95974592Y-120015063D01*
X96162918Y-120031539D01*
X96209999Y-120035659D01*
X96210000Y-120035659D01*
X96210001Y-120035659D01*
X96249234Y-120032226D01*
X96445408Y-120015063D01*
X96673663Y-119953903D01*
X96887830Y-119854035D01*
X97081401Y-119718495D01*
X97248495Y-119551401D01*
X97378730Y-119365405D01*
X97433307Y-119321781D01*
X97502805Y-119314587D01*
X97565160Y-119346110D01*
X97581879Y-119365405D01*
X97711890Y-119551078D01*
X97878917Y-119718105D01*
X98072421Y-119853600D01*
X98286507Y-119953429D01*
X98286516Y-119953433D01*
X98500000Y-120010634D01*
X98500000Y-119113012D01*
X98557007Y-119145925D01*
X98684174Y-119180000D01*
X98815826Y-119180000D01*
X98942993Y-119145925D01*
X99000000Y-119113012D01*
X99000000Y-120010633D01*
X99213483Y-119953433D01*
X99213492Y-119953429D01*
X99427578Y-119853600D01*
X99621082Y-119718105D01*
X99788105Y-119551082D01*
X99923600Y-119357578D01*
X100023429Y-119143492D01*
X100023432Y-119143486D01*
X100080636Y-118930000D01*
X99183012Y-118930000D01*
X99215925Y-118872993D01*
X99250000Y-118745826D01*
X99250000Y-118614174D01*
X99215925Y-118487007D01*
X99183012Y-118430000D01*
X100080636Y-118430000D01*
X100080635Y-118429999D01*
X100023427Y-118216497D01*
X100023361Y-118216316D01*
X100023355Y-118216230D01*
X100022029Y-118211280D01*
X100023024Y-118211013D01*
X100018935Y-118146587D01*
X100052910Y-118085534D01*
X100114500Y-118052541D01*
X100139886Y-118049915D01*
X106162944Y-118049915D01*
X106165957Y-118050108D01*
X106172313Y-118050093D01*
X106172319Y-118050095D01*
X106250734Y-118049915D01*
X106250857Y-118049915D01*
X106335435Y-118049915D01*
X106338439Y-118049714D01*
X106670275Y-118048953D01*
X106736528Y-118067958D01*
X106883750Y-118160464D01*
X107043120Y-118216230D01*
X107054017Y-118220043D01*
X107054022Y-118220044D01*
X107233268Y-118240240D01*
X107233272Y-118240240D01*
X107233276Y-118240240D01*
X107412521Y-118220044D01*
X107412524Y-118220043D01*
X107412527Y-118220043D01*
X107582794Y-118160464D01*
X107735534Y-118064491D01*
X107745328Y-118054697D01*
X107806650Y-118021210D01*
X107876342Y-118026192D01*
X107920693Y-118054694D01*
X107964518Y-118098519D01*
X108117258Y-118194492D01*
X108225387Y-118232328D01*
X108287525Y-118254071D01*
X108287530Y-118254072D01*
X108466776Y-118274268D01*
X108466780Y-118274268D01*
X108466784Y-118274268D01*
X108646029Y-118254072D01*
X108646032Y-118254071D01*
X108646035Y-118254071D01*
X108816302Y-118194492D01*
X108969042Y-118098519D01*
X109096596Y-117970965D01*
X109192569Y-117818225D01*
X109252148Y-117647958D01*
X109268147Y-117505965D01*
X109272345Y-117468706D01*
X109272345Y-117468699D01*
X109252149Y-117289453D01*
X109252148Y-117289448D01*
X109192568Y-117119179D01*
X109096595Y-116966440D01*
X108969042Y-116838887D01*
X108816301Y-116742913D01*
X108705613Y-116704182D01*
X108646035Y-116683335D01*
X108625242Y-116680992D01*
X108613510Y-116679670D01*
X108549097Y-116652602D01*
X108530248Y-116633509D01*
X106934512Y-114621752D01*
X106924301Y-114606738D01*
X106920407Y-114600000D01*
X119894341Y-114600000D01*
X119914936Y-114835403D01*
X119914938Y-114835413D01*
X119976094Y-115063655D01*
X119976096Y-115063659D01*
X119976097Y-115063663D01*
X120071661Y-115268599D01*
X120075965Y-115277830D01*
X120075967Y-115277834D01*
X120184281Y-115432521D01*
X120211501Y-115471396D01*
X120211506Y-115471402D01*
X120333430Y-115593326D01*
X120366915Y-115654649D01*
X120361931Y-115724341D01*
X120320059Y-115780274D01*
X120289083Y-115797189D01*
X120157669Y-115846203D01*
X120157664Y-115846206D01*
X120042455Y-115932452D01*
X120042452Y-115932455D01*
X119956206Y-116047664D01*
X119956202Y-116047671D01*
X119905908Y-116182517D01*
X119899501Y-116242116D01*
X119899501Y-116242123D01*
X119899500Y-116242135D01*
X119899500Y-118037870D01*
X119899501Y-118037876D01*
X119905908Y-118097483D01*
X119956202Y-118232328D01*
X119956206Y-118232335D01*
X120042452Y-118347544D01*
X120042455Y-118347547D01*
X120157664Y-118433793D01*
X120157671Y-118433797D01*
X120292517Y-118484091D01*
X120292516Y-118484091D01*
X120299444Y-118484835D01*
X120352127Y-118490500D01*
X122147872Y-118490499D01*
X122207483Y-118484091D01*
X122342331Y-118433796D01*
X122457546Y-118347546D01*
X122543796Y-118232331D01*
X122594091Y-118097483D01*
X122600500Y-118037873D01*
X122600499Y-116242128D01*
X122594091Y-116182517D01*
X122578233Y-116140000D01*
X122543797Y-116047671D01*
X122543793Y-116047664D01*
X122457547Y-115932455D01*
X122457544Y-115932452D01*
X122342335Y-115846206D01*
X122342328Y-115846202D01*
X122210917Y-115797189D01*
X122154983Y-115755318D01*
X122130566Y-115689853D01*
X122145418Y-115621580D01*
X122166563Y-115593332D01*
X122288495Y-115471401D01*
X122424035Y-115277830D01*
X122523903Y-115063663D01*
X122585063Y-114835408D01*
X122605659Y-114600000D01*
X122585063Y-114364592D01*
X122523903Y-114136337D01*
X122424035Y-113922171D01*
X122363284Y-113835408D01*
X122288494Y-113728597D01*
X122121402Y-113561506D01*
X122121395Y-113561501D01*
X121927834Y-113425967D01*
X121927830Y-113425965D01*
X121927828Y-113425964D01*
X121713663Y-113326097D01*
X121713659Y-113326096D01*
X121713655Y-113326094D01*
X121485413Y-113264938D01*
X121485403Y-113264936D01*
X121250001Y-113244341D01*
X121249999Y-113244341D01*
X121014596Y-113264936D01*
X121014586Y-113264938D01*
X120786344Y-113326094D01*
X120786335Y-113326098D01*
X120572171Y-113425964D01*
X120572169Y-113425965D01*
X120378597Y-113561505D01*
X120211505Y-113728597D01*
X120075965Y-113922169D01*
X120075964Y-113922171D01*
X119976098Y-114136335D01*
X119976094Y-114136344D01*
X119914938Y-114364586D01*
X119914936Y-114364596D01*
X119894341Y-114599999D01*
X119894341Y-114600000D01*
X106920407Y-114600000D01*
X106911367Y-114584355D01*
X106911364Y-114584352D01*
X106885001Y-114558009D01*
X106875500Y-114547354D01*
X106852325Y-114518138D01*
X106852322Y-114518135D01*
X106831560Y-114502728D01*
X106817807Y-114490867D01*
X106799519Y-114472593D01*
X106767225Y-114453965D01*
X106755297Y-114446136D01*
X106725354Y-114423916D01*
X106725353Y-114423915D01*
X106725351Y-114423914D01*
X106701303Y-114414403D01*
X106684951Y-114406506D01*
X106662558Y-114393589D01*
X106626539Y-114383952D01*
X106612991Y-114379477D01*
X106578325Y-114365767D01*
X106578320Y-114365765D01*
X106578317Y-114365764D01*
X106578315Y-114365764D01*
X106552623Y-114362801D01*
X106534790Y-114359406D01*
X106509816Y-114352725D01*
X106509815Y-114352725D01*
X106472544Y-114352739D01*
X106458293Y-114351923D01*
X106421247Y-114347651D01*
X106421244Y-114347651D01*
X106395662Y-114351438D01*
X106377551Y-114352775D01*
X100312216Y-114355098D01*
X100082645Y-114355098D01*
X100015606Y-114335413D01*
X99969851Y-114282609D01*
X99959907Y-114213451D01*
X99970263Y-114178693D01*
X99990015Y-114136335D01*
X100023903Y-114063663D01*
X100085063Y-113835408D01*
X100105659Y-113600000D01*
X100085063Y-113364592D01*
X100023903Y-113136337D01*
X99924035Y-112922171D01*
X99788495Y-112728599D01*
X99788494Y-112728597D01*
X99621402Y-112561506D01*
X99621395Y-112561501D01*
X99427834Y-112425967D01*
X99427830Y-112425965D01*
X99427828Y-112425964D01*
X99213663Y-112326097D01*
X99213659Y-112326096D01*
X99213655Y-112326094D01*
X98985413Y-112264938D01*
X98985403Y-112264936D01*
X98750001Y-112244341D01*
X98749999Y-112244341D01*
X98514596Y-112264936D01*
X98514586Y-112264938D01*
X98286344Y-112326094D01*
X98286335Y-112326098D01*
X98072171Y-112425964D01*
X98072169Y-112425965D01*
X97878600Y-112561503D01*
X97756673Y-112683430D01*
X97695350Y-112716914D01*
X97625658Y-112711930D01*
X97569725Y-112670058D01*
X97552810Y-112639081D01*
X97503797Y-112507671D01*
X97503793Y-112507664D01*
X97417547Y-112392455D01*
X97417544Y-112392452D01*
X97302335Y-112306206D01*
X97302328Y-112306202D01*
X97167482Y-112255908D01*
X97167483Y-112255908D01*
X97107883Y-112249501D01*
X97107881Y-112249500D01*
X97107873Y-112249500D01*
X97107864Y-112249500D01*
X95312129Y-112249500D01*
X95312123Y-112249501D01*
X95252516Y-112255908D01*
X95117671Y-112306202D01*
X95117664Y-112306206D01*
X95002455Y-112392452D01*
X95002452Y-112392455D01*
X94916206Y-112507664D01*
X94916202Y-112507671D01*
X94865908Y-112642517D01*
X94859501Y-112702116D01*
X94859500Y-112702135D01*
X94859500Y-114497870D01*
X94859501Y-114497876D01*
X94865908Y-114557483D01*
X94916202Y-114692328D01*
X94916206Y-114692335D01*
X95002452Y-114807544D01*
X95002455Y-114807547D01*
X95117664Y-114893793D01*
X95117671Y-114893797D01*
X95249081Y-114942810D01*
X95305015Y-114984681D01*
X95329432Y-115050145D01*
X95314580Y-115118418D01*
X95293430Y-115146673D01*
X95171503Y-115268600D01*
X95035965Y-115462169D01*
X95035964Y-115462171D01*
X94936098Y-115676335D01*
X94936094Y-115676344D01*
X94874938Y-115904586D01*
X94874936Y-115904596D01*
X94854341Y-116139999D01*
X94854341Y-116140000D01*
X94874936Y-116375403D01*
X94874938Y-116375413D01*
X94936094Y-116603655D01*
X94936096Y-116603659D01*
X94936097Y-116603663D01*
X94985601Y-116709824D01*
X95035965Y-116817830D01*
X95035967Y-116817834D01*
X95171501Y-117011395D01*
X95171506Y-117011402D01*
X95338597Y-117178493D01*
X95338603Y-117178498D01*
X95524158Y-117308425D01*
X95567783Y-117363002D01*
X95574977Y-117432500D01*
X95543454Y-117494855D01*
X95524158Y-117511575D01*
X95338597Y-117641505D01*
X95171505Y-117808597D01*
X95035965Y-118002169D01*
X95035964Y-118002171D01*
X94936098Y-118216335D01*
X94936094Y-118216344D01*
X94874938Y-118444586D01*
X94874936Y-118444596D01*
X94854341Y-118679999D01*
X94854341Y-118680000D01*
X94295532Y-118680000D01*
X94331833Y-113561501D01*
X94349123Y-111123620D01*
X94369283Y-111056722D01*
X94422410Y-111011343D01*
X94473120Y-111000500D01*
X126225113Y-111000500D01*
X126292152Y-111020185D01*
G37*
%TD.AperFunction*%
%TA.AperFunction,Conductor*%
G36*
X159792152Y-111020185D02*
G01*
X159837907Y-111072989D01*
X159849110Y-111125379D01*
X159750877Y-124976379D01*
X159730717Y-125043278D01*
X159677590Y-125088657D01*
X159626880Y-125099500D01*
X127874887Y-125099500D01*
X127807848Y-125079815D01*
X127762093Y-125027011D01*
X127750890Y-124974621D01*
X127795532Y-118680000D01*
X128354341Y-118680000D01*
X128374936Y-118915403D01*
X128374938Y-118915413D01*
X128436094Y-119143655D01*
X128436096Y-119143659D01*
X128436097Y-119143663D01*
X128519155Y-119321781D01*
X128535965Y-119357830D01*
X128535967Y-119357834D01*
X128644281Y-119512521D01*
X128671505Y-119551401D01*
X128838599Y-119718495D01*
X128935384Y-119786265D01*
X129032165Y-119854032D01*
X129032167Y-119854033D01*
X129032170Y-119854035D01*
X129246337Y-119953903D01*
X129474592Y-120015063D01*
X129662918Y-120031539D01*
X129709999Y-120035659D01*
X129710000Y-120035659D01*
X129710001Y-120035659D01*
X129749234Y-120032226D01*
X129945408Y-120015063D01*
X130173663Y-119953903D01*
X130387830Y-119854035D01*
X130581401Y-119718495D01*
X130748495Y-119551401D01*
X130878730Y-119365405D01*
X130933307Y-119321781D01*
X131002805Y-119314587D01*
X131065160Y-119346110D01*
X131081879Y-119365405D01*
X131211890Y-119551078D01*
X131378917Y-119718105D01*
X131572421Y-119853600D01*
X131786507Y-119953429D01*
X131786516Y-119953433D01*
X132000000Y-120010634D01*
X132000000Y-119113012D01*
X132057007Y-119145925D01*
X132184174Y-119180000D01*
X132315826Y-119180000D01*
X132442993Y-119145925D01*
X132500000Y-119113012D01*
X132500000Y-120010633D01*
X132713483Y-119953433D01*
X132713492Y-119953429D01*
X132927578Y-119853600D01*
X133121082Y-119718105D01*
X133288105Y-119551082D01*
X133423600Y-119357578D01*
X133523429Y-119143492D01*
X133523432Y-119143486D01*
X133580636Y-118930000D01*
X132683012Y-118930000D01*
X132715925Y-118872993D01*
X132750000Y-118745826D01*
X132750000Y-118614174D01*
X132715925Y-118487007D01*
X132683012Y-118430000D01*
X133580636Y-118430000D01*
X133580635Y-118429999D01*
X133523427Y-118216497D01*
X133523361Y-118216316D01*
X133523355Y-118216230D01*
X133522029Y-118211280D01*
X133523024Y-118211013D01*
X133518935Y-118146587D01*
X133552910Y-118085534D01*
X133614500Y-118052541D01*
X133639886Y-118049915D01*
X139662944Y-118049915D01*
X139665957Y-118050108D01*
X139672313Y-118050093D01*
X139672319Y-118050095D01*
X139750734Y-118049915D01*
X139750857Y-118049915D01*
X139835435Y-118049915D01*
X139838439Y-118049714D01*
X140170275Y-118048953D01*
X140236528Y-118067958D01*
X140383750Y-118160464D01*
X140543120Y-118216230D01*
X140554017Y-118220043D01*
X140554022Y-118220044D01*
X140733268Y-118240240D01*
X140733272Y-118240240D01*
X140733276Y-118240240D01*
X140912521Y-118220044D01*
X140912524Y-118220043D01*
X140912527Y-118220043D01*
X141082794Y-118160464D01*
X141235534Y-118064491D01*
X141245328Y-118054697D01*
X141306650Y-118021210D01*
X141376342Y-118026192D01*
X141420693Y-118054694D01*
X141464518Y-118098519D01*
X141617258Y-118194492D01*
X141725387Y-118232328D01*
X141787525Y-118254071D01*
X141787530Y-118254072D01*
X141966776Y-118274268D01*
X141966780Y-118274268D01*
X141966784Y-118274268D01*
X142146029Y-118254072D01*
X142146032Y-118254071D01*
X142146035Y-118254071D01*
X142316302Y-118194492D01*
X142469042Y-118098519D01*
X142596596Y-117970965D01*
X142692569Y-117818225D01*
X142752148Y-117647958D01*
X142768147Y-117505965D01*
X142772345Y-117468706D01*
X142772345Y-117468699D01*
X142752149Y-117289453D01*
X142752148Y-117289448D01*
X142692568Y-117119179D01*
X142596595Y-116966440D01*
X142469042Y-116838887D01*
X142316301Y-116742913D01*
X142205613Y-116704182D01*
X142146035Y-116683335D01*
X142125242Y-116680992D01*
X142113510Y-116679670D01*
X142049097Y-116652602D01*
X142030248Y-116633509D01*
X140434512Y-114621752D01*
X140424301Y-114606738D01*
X140420407Y-114600000D01*
X153394341Y-114600000D01*
X153414936Y-114835403D01*
X153414938Y-114835413D01*
X153476094Y-115063655D01*
X153476096Y-115063659D01*
X153476097Y-115063663D01*
X153571661Y-115268599D01*
X153575965Y-115277830D01*
X153575967Y-115277834D01*
X153684281Y-115432521D01*
X153711501Y-115471396D01*
X153711506Y-115471402D01*
X153833430Y-115593326D01*
X153866915Y-115654649D01*
X153861931Y-115724341D01*
X153820059Y-115780274D01*
X153789083Y-115797189D01*
X153657669Y-115846203D01*
X153657664Y-115846206D01*
X153542455Y-115932452D01*
X153542452Y-115932455D01*
X153456206Y-116047664D01*
X153456202Y-116047671D01*
X153405908Y-116182517D01*
X153399501Y-116242116D01*
X153399501Y-116242123D01*
X153399500Y-116242135D01*
X153399500Y-118037870D01*
X153399501Y-118037876D01*
X153405908Y-118097483D01*
X153456202Y-118232328D01*
X153456206Y-118232335D01*
X153542452Y-118347544D01*
X153542455Y-118347547D01*
X153657664Y-118433793D01*
X153657671Y-118433797D01*
X153792517Y-118484091D01*
X153792516Y-118484091D01*
X153799444Y-118484835D01*
X153852127Y-118490500D01*
X155647872Y-118490499D01*
X155707483Y-118484091D01*
X155842331Y-118433796D01*
X155957546Y-118347546D01*
X156043796Y-118232331D01*
X156094091Y-118097483D01*
X156100500Y-118037873D01*
X156100499Y-116242128D01*
X156094091Y-116182517D01*
X156078233Y-116140000D01*
X156043797Y-116047671D01*
X156043793Y-116047664D01*
X155957547Y-115932455D01*
X155957544Y-115932452D01*
X155842335Y-115846206D01*
X155842328Y-115846202D01*
X155710917Y-115797189D01*
X155654983Y-115755318D01*
X155630566Y-115689853D01*
X155645418Y-115621580D01*
X155666563Y-115593332D01*
X155788495Y-115471401D01*
X155924035Y-115277830D01*
X156023903Y-115063663D01*
X156085063Y-114835408D01*
X156105659Y-114600000D01*
X156085063Y-114364592D01*
X156023903Y-114136337D01*
X155924035Y-113922171D01*
X155863284Y-113835408D01*
X155788494Y-113728597D01*
X155621402Y-113561506D01*
X155621395Y-113561501D01*
X155427834Y-113425967D01*
X155427830Y-113425965D01*
X155427828Y-113425964D01*
X155213663Y-113326097D01*
X155213659Y-113326096D01*
X155213655Y-113326094D01*
X154985413Y-113264938D01*
X154985403Y-113264936D01*
X154750001Y-113244341D01*
X154749999Y-113244341D01*
X154514596Y-113264936D01*
X154514586Y-113264938D01*
X154286344Y-113326094D01*
X154286335Y-113326098D01*
X154072171Y-113425964D01*
X154072169Y-113425965D01*
X153878597Y-113561505D01*
X153711505Y-113728597D01*
X153575965Y-113922169D01*
X153575964Y-113922171D01*
X153476098Y-114136335D01*
X153476094Y-114136344D01*
X153414938Y-114364586D01*
X153414936Y-114364596D01*
X153394341Y-114599999D01*
X153394341Y-114600000D01*
X140420407Y-114600000D01*
X140411367Y-114584355D01*
X140411364Y-114584352D01*
X140385001Y-114558009D01*
X140375500Y-114547354D01*
X140352325Y-114518138D01*
X140352322Y-114518135D01*
X140331560Y-114502728D01*
X140317807Y-114490867D01*
X140299519Y-114472593D01*
X140267225Y-114453965D01*
X140255297Y-114446136D01*
X140225354Y-114423916D01*
X140225353Y-114423915D01*
X140225351Y-114423914D01*
X140201303Y-114414403D01*
X140184951Y-114406506D01*
X140162558Y-114393589D01*
X140126539Y-114383952D01*
X140112991Y-114379477D01*
X140078325Y-114365767D01*
X140078320Y-114365765D01*
X140078317Y-114365764D01*
X140078315Y-114365764D01*
X140052623Y-114362801D01*
X140034790Y-114359406D01*
X140009816Y-114352725D01*
X140009815Y-114352725D01*
X139972544Y-114352739D01*
X139958293Y-114351923D01*
X139921247Y-114347651D01*
X139921244Y-114347651D01*
X139895662Y-114351438D01*
X139877551Y-114352775D01*
X133812216Y-114355098D01*
X133582645Y-114355098D01*
X133515606Y-114335413D01*
X133469851Y-114282609D01*
X133459907Y-114213451D01*
X133470263Y-114178693D01*
X133490015Y-114136335D01*
X133523903Y-114063663D01*
X133585063Y-113835408D01*
X133605659Y-113600000D01*
X133585063Y-113364592D01*
X133523903Y-113136337D01*
X133424035Y-112922171D01*
X133288495Y-112728599D01*
X133288494Y-112728597D01*
X133121402Y-112561506D01*
X133121395Y-112561501D01*
X132927834Y-112425967D01*
X132927830Y-112425965D01*
X132927828Y-112425964D01*
X132713663Y-112326097D01*
X132713659Y-112326096D01*
X132713655Y-112326094D01*
X132485413Y-112264938D01*
X132485403Y-112264936D01*
X132250001Y-112244341D01*
X132249999Y-112244341D01*
X132014596Y-112264936D01*
X132014586Y-112264938D01*
X131786344Y-112326094D01*
X131786335Y-112326098D01*
X131572171Y-112425964D01*
X131572169Y-112425965D01*
X131378600Y-112561503D01*
X131256673Y-112683430D01*
X131195350Y-112716914D01*
X131125658Y-112711930D01*
X131069725Y-112670058D01*
X131052810Y-112639081D01*
X131003797Y-112507671D01*
X131003793Y-112507664D01*
X130917547Y-112392455D01*
X130917544Y-112392452D01*
X130802335Y-112306206D01*
X130802328Y-112306202D01*
X130667482Y-112255908D01*
X130667483Y-112255908D01*
X130607883Y-112249501D01*
X130607881Y-112249500D01*
X130607873Y-112249500D01*
X130607864Y-112249500D01*
X128812129Y-112249500D01*
X128812123Y-112249501D01*
X128752516Y-112255908D01*
X128617671Y-112306202D01*
X128617664Y-112306206D01*
X128502455Y-112392452D01*
X128502452Y-112392455D01*
X128416206Y-112507664D01*
X128416202Y-112507671D01*
X128365908Y-112642517D01*
X128359501Y-112702116D01*
X128359500Y-112702135D01*
X128359500Y-114497870D01*
X128359501Y-114497876D01*
X128365908Y-114557483D01*
X128416202Y-114692328D01*
X128416206Y-114692335D01*
X128502452Y-114807544D01*
X128502455Y-114807547D01*
X128617664Y-114893793D01*
X128617671Y-114893797D01*
X128749081Y-114942810D01*
X128805015Y-114984681D01*
X128829432Y-115050145D01*
X128814580Y-115118418D01*
X128793430Y-115146673D01*
X128671503Y-115268600D01*
X128535965Y-115462169D01*
X128535964Y-115462171D01*
X128436098Y-115676335D01*
X128436094Y-115676344D01*
X128374938Y-115904586D01*
X128374936Y-115904596D01*
X128354341Y-116139999D01*
X128354341Y-116140000D01*
X128374936Y-116375403D01*
X128374938Y-116375413D01*
X128436094Y-116603655D01*
X128436096Y-116603659D01*
X128436097Y-116603663D01*
X128485601Y-116709824D01*
X128535965Y-116817830D01*
X128535967Y-116817834D01*
X128671501Y-117011395D01*
X128671506Y-117011402D01*
X128838597Y-117178493D01*
X128838603Y-117178498D01*
X129024158Y-117308425D01*
X129067783Y-117363002D01*
X129074977Y-117432500D01*
X129043454Y-117494855D01*
X129024158Y-117511575D01*
X128838597Y-117641505D01*
X128671505Y-117808597D01*
X128535965Y-118002169D01*
X128535964Y-118002171D01*
X128436098Y-118216335D01*
X128436094Y-118216344D01*
X128374938Y-118444586D01*
X128374936Y-118444596D01*
X128354341Y-118679999D01*
X128354341Y-118680000D01*
X127795532Y-118680000D01*
X127831833Y-113561501D01*
X127849123Y-111123620D01*
X127869283Y-111056722D01*
X127922410Y-111011343D01*
X127973120Y-111000500D01*
X159725113Y-111000500D01*
X159792152Y-111020185D01*
G37*
%TD.AperFunction*%
M02*
