M48
; DRILL file {KiCad 8.0.1} date 2024-04-28T15:40:53+0800
; FORMAT={-:-/ absolute / inch / decimal}
; #@! TF.CreationDate,2024-04-28T15:40:53+08:00
; #@! TF.GenerationSoftware,Kicad,Pcbnew,8.0.1
; #@! TF.FileFunction,MixedPlating,1,2
FMAT,2
INCH
; #@! TA.AperFunction,Plated,PTH,ViaDrill
T1C0.0118
; #@! TA.AperFunction,Plated,PTH,ComponentDrill
T2C0.0394
%
G90
G05
T1
X2.9029Y-1.4896
X2.9029Y-2.1195
X2.9029Y-2.7494
X2.9029Y-3.3793
X2.9029Y-4.0092
X2.9029Y-4.6392
X2.9514Y-1.4909
X2.9514Y-2.1208
X2.9514Y-2.7507
X2.9514Y-3.3807
X2.9514Y-4.0106
X2.9514Y-4.6405
X4.2218Y-1.4896
X4.2218Y-2.1195
X4.2218Y-2.7494
X4.2218Y-3.3793
X4.2218Y-4.0092
X4.2218Y-4.6392
X4.2703Y-1.4909
X4.2703Y-2.1208
X4.2703Y-2.7507
X4.2703Y-3.3807
X4.2703Y-4.0106
X4.2703Y-4.6405
X5.5407Y-1.4896
X5.5407Y-2.1195
X5.5407Y-2.7494
X5.5407Y-3.3793
X5.5407Y-4.0092
X5.5407Y-4.6392
X5.5892Y-1.4909
X5.5892Y-2.1208
X5.5892Y-2.7507
X5.5892Y-3.3807
X5.5892Y-4.0106
X5.5892Y-4.6405
T2
X2.4689Y-1.3386
X2.4689Y-1.4386
X2.4689Y-1.5386
X2.4689Y-1.9685
X2.4689Y-2.0685
X2.4689Y-2.1685
X2.4689Y-2.5984
X2.4689Y-2.6984
X2.4689Y-2.7984
X2.4689Y-3.2283
X2.4689Y-3.3283
X2.4689Y-3.4283
X2.4689Y-3.8583
X2.4689Y-3.9583
X2.4689Y-4.0583
X2.4689Y-4.4882
X2.4689Y-4.5882
X2.4689Y-4.6882
X2.5689Y-1.3386
X2.5689Y-1.4386
X2.5689Y-1.5386
X2.5689Y-1.9685
X2.5689Y-2.0685
X2.5689Y-2.1685
X2.5689Y-2.5984
X2.5689Y-2.6984
X2.5689Y-2.7984
X2.5689Y-3.2283
X2.5689Y-3.3283
X2.5689Y-3.4283
X2.5689Y-3.8583
X2.5689Y-3.9583
X2.5689Y-4.0583
X2.5689Y-4.4882
X2.5689Y-4.5882
X2.5689Y-4.6882
X3.4547Y-1.378
X3.4547Y-1.478
X3.4547Y-2.0079
X3.4547Y-2.1079
X3.4547Y-2.6378
X3.4547Y-2.7378
X3.4547Y-3.2677
X3.4547Y-3.3677
X3.4547Y-3.8976
X3.4547Y-3.9976
X3.4547Y-4.5276
X3.4547Y-4.6276
X3.7878Y-1.3386
X3.7878Y-1.4386
X3.7878Y-1.5386
X3.7878Y-1.9685
X3.7878Y-2.0685
X3.7878Y-2.1685
X3.7878Y-2.5984
X3.7878Y-2.6984
X3.7878Y-2.7984
X3.7878Y-3.2283
X3.7878Y-3.3283
X3.7878Y-3.4283
X3.7878Y-3.8583
X3.7878Y-3.9583
X3.7878Y-4.0583
X3.7878Y-4.4882
X3.7878Y-4.5882
X3.7878Y-4.6882
X3.8878Y-1.3386
X3.8878Y-1.4386
X3.8878Y-1.5386
X3.8878Y-1.9685
X3.8878Y-2.0685
X3.8878Y-2.1685
X3.8878Y-2.5984
X3.8878Y-2.6984
X3.8878Y-2.7984
X3.8878Y-3.2283
X3.8878Y-3.3283
X3.8878Y-3.4283
X3.8878Y-3.8583
X3.8878Y-3.9583
X3.8878Y-4.0583
X3.8878Y-4.4882
X3.8878Y-4.5882
X3.8878Y-4.6882
X4.7736Y-1.378
X4.7736Y-1.478
X4.7736Y-2.0079
X4.7736Y-2.1079
X4.7736Y-2.6378
X4.7736Y-2.7378
X4.7736Y-3.2677
X4.7736Y-3.3677
X4.7736Y-3.8976
X4.7736Y-3.9976
X4.7736Y-4.5276
X4.7736Y-4.6276
X5.1067Y-1.3386
X5.1067Y-1.4386
X5.1067Y-1.5386
X5.1067Y-1.9685
X5.1067Y-2.0685
X5.1067Y-2.1685
X5.1067Y-2.5984
X5.1067Y-2.6984
X5.1067Y-2.7984
X5.1067Y-3.2283
X5.1067Y-3.3283
X5.1067Y-3.4283
X5.1067Y-3.8583
X5.1067Y-3.9583
X5.1067Y-4.0583
X5.1067Y-4.4882
X5.1067Y-4.5882
X5.1067Y-4.6882
X5.2067Y-1.3386
X5.2067Y-1.4386
X5.2067Y-1.5386
X5.2067Y-1.9685
X5.2067Y-2.0685
X5.2067Y-2.1685
X5.2067Y-2.5984
X5.2067Y-2.6984
X5.2067Y-2.7984
X5.2067Y-3.2283
X5.2067Y-3.3283
X5.2067Y-3.4283
X5.2067Y-3.8583
X5.2067Y-3.9583
X5.2067Y-4.0583
X5.2067Y-4.4882
X5.2067Y-4.5882
X5.2067Y-4.6882
X6.0925Y-1.378
X6.0925Y-1.478
X6.0925Y-2.0079
X6.0925Y-2.1079
X6.0925Y-2.6378
X6.0925Y-2.7378
X6.0925Y-3.2677
X6.0925Y-3.3677
X6.0925Y-3.8976
X6.0925Y-3.9976
X6.0925Y-4.5276
X6.0925Y-4.6276
M30
