%TF.GenerationSoftware,KiCad,Pcbnew,8.0.1*%
%TF.CreationDate,2024-04-28T15:44:22+08:00*%
%TF.ProjectId,at4pi5,61743470-6935-42e6-9b69-6361645f7063,rev?*%
%TF.SameCoordinates,Original*%
%TF.FileFunction,Copper,L1,Top*%
%TF.FilePolarity,Positive*%
%FSLAX46Y46*%
G04 Gerber Fmt 4.6, Leading zero omitted, Abs format (unit mm)*
G04 Created by KiCad (PCBNEW 8.0.1) date 2024-04-28 15:44:22*
%MOMM*%
%LPD*%
G01*
G04 APERTURE LIST*
G04 Aperture macros list*
%AMRoundRect*
0 Rectangle with rounded corners*
0 $1 Rounding radius*
0 $2 $3 $4 $5 $6 $7 $8 $9 X,Y pos of 4 corners*
0 Add a 4 corners polygon primitive as box body*
4,1,4,$2,$3,$4,$5,$6,$7,$8,$9,$2,$3,0*
0 Add four circle primitives for the rounded corners*
1,1,$1+$1,$2,$3*
1,1,$1+$1,$4,$5*
1,1,$1+$1,$6,$7*
1,1,$1+$1,$8,$9*
0 Add four rect primitives between the rounded corners*
20,1,$1+$1,$2,$3,$4,$5,0*
20,1,$1+$1,$4,$5,$6,$7,0*
20,1,$1+$1,$6,$7,$8,$9,0*
20,1,$1+$1,$8,$9,$2,$3,0*%
G04 Aperture macros list end*
%TA.AperFunction,Conductor*%
%ADD10C,0.200000*%
%TD*%
%TA.AperFunction,SMDPad,CuDef*%
%ADD11RoundRect,0.150000X-0.825000X-0.150000X0.825000X-0.150000X0.825000X0.150000X-0.825000X0.150000X0*%
%TD*%
%TA.AperFunction,ComponentPad*%
%ADD12R,1.700000X1.700000*%
%TD*%
%TA.AperFunction,ComponentPad*%
%ADD13O,1.700000X1.700000*%
%TD*%
%TA.AperFunction,SMDPad,CuDef*%
%ADD14RoundRect,0.100000X-0.100000X0.217500X-0.100000X-0.217500X0.100000X-0.217500X0.100000X0.217500X0*%
%TD*%
%TA.AperFunction,ViaPad*%
%ADD15C,0.600000*%
%TD*%
G04 APERTURE END LIST*
D10*
%TO.N,GND*%
X156000000Y-102000000D02*
X152000000Y-102000000D01*
%TO.N,SDA*%
X161225287Y-100864449D02*
X163041522Y-100864449D01*
%TO.N,SCL*%
X163000000Y-99500000D02*
X172000000Y-99500000D01*
%TO.N,GND*%
X158000000Y-101000000D02*
X156000000Y-102000000D01*
%TO.N,+3.3V*%
X148960000Y-97000000D02*
X150500000Y-95500000D01*
X150500000Y-95500000D02*
X161000000Y-95500000D01*
X161000000Y-95500000D02*
X163000000Y-97000000D01*
%TO.N,SDA*%
X163000000Y-101000000D02*
X173500000Y-101000000D01*
%TO.N,SCL*%
X159991779Y-100804901D02*
X161000000Y-99500000D01*
%TO.N,GND*%
X155000000Y-98000000D02*
X155000000Y-102000000D01*
%TO.N,SDA*%
X173500000Y-101000000D02*
X174000000Y-100540000D01*
%TO.N,SCL*%
X172000000Y-99500000D02*
X174000000Y-98000000D01*
X163000000Y-99500000D02*
X161000000Y-99500000D01*
%TO.N,+3.3V*%
X155000000Y-95500000D02*
X155000000Y-97000000D01*
%TD*%
D11*
%TO.P,U1,1,NC1*%
%TO.N,unconnected-(U1-NC1-Pad1)*%
X158025000Y-97095000D03*
%TO.P,U1,2,AUTH*%
%TO.N,unconnected-(U1-AUTH-Pad2)*%
X158025000Y-98365000D03*
%TO.P,U1,3,NC3*%
%TO.N,unconnected-(U1-NC3-Pad3)*%
X158025000Y-99635000D03*
%TO.P,U1,4,GND*%
%TO.N,GND*%
X158025000Y-100905000D03*
%TO.P,U1,5,SDA*%
%TO.N,SDA*%
X162975000Y-100905000D03*
%TO.P,U1,6,SCL*%
%TO.N,SCL*%
X162975000Y-99635000D03*
%TO.P,U1,7,NC7*%
%TO.N,unconnected-(U1-NC7-Pad7)*%
X162975000Y-98365000D03*
%TO.P,U1,8,VCC*%
%TO.N,+3.3V*%
X162975000Y-97095000D03*
%TD*%
D12*
%TO.P,J1,1,Pin_1*%
%TO.N,+3.3V*%
X148960000Y-97000000D03*
D13*
%TO.P,J1,2,Pin_2*%
%TO.N,unconnected-(J1-Pin_2-Pad2)*%
X151500000Y-97000000D03*
%TO.P,J1,3,Pin_3*%
%TO.N,SDA*%
X148960000Y-99540000D03*
%TO.P,J1,4,Pin_4*%
%TO.N,unconnected-(J1-Pin_4-Pad4)*%
X151500000Y-99540000D03*
%TO.P,J1,5,Pin_5*%
%TO.N,SCL*%
X148960000Y-102080000D03*
%TO.P,J1,6,Pin_6*%
%TO.N,GND*%
X151500000Y-102080000D03*
%TD*%
D12*
%TO.P,J2,1,Pin_1*%
%TO.N,SDA*%
X174000000Y-100540000D03*
D13*
%TO.P,J2,2,Pin_2*%
%TO.N,SCL*%
X174000000Y-98000000D03*
%TD*%
D14*
%TO.P,C1,1*%
%TO.N,+3.3V*%
X155000000Y-97092500D03*
%TO.P,C1,2*%
%TO.N,GND*%
X155000000Y-97907500D03*
%TD*%
D15*
%TO.N,SCL*%
X159983272Y-100834675D03*
%TO.N,SDA*%
X161216780Y-100868703D03*
%TD*%
%TA.AperFunction,Conductor*%
%TO.N,GND*%
G36*
X178943039Y-94020185D02*
G01*
X178988794Y-94072989D01*
X179000000Y-94124500D01*
X179000000Y-107975500D01*
X178980315Y-108042539D01*
X178927511Y-108088294D01*
X178876000Y-108099500D01*
X147124000Y-108099500D01*
X147056961Y-108079815D01*
X147011206Y-108027011D01*
X147000000Y-107975500D01*
X147000000Y-101680000D01*
X147604341Y-101680000D01*
X147624936Y-101915403D01*
X147624938Y-101915413D01*
X147686094Y-102143655D01*
X147686096Y-102143659D01*
X147686097Y-102143663D01*
X147769155Y-102321781D01*
X147785965Y-102357830D01*
X147785967Y-102357834D01*
X147894281Y-102512521D01*
X147921505Y-102551401D01*
X148088599Y-102718495D01*
X148185384Y-102786265D01*
X148282165Y-102854032D01*
X148282167Y-102854033D01*
X148282170Y-102854035D01*
X148496337Y-102953903D01*
X148724592Y-103015063D01*
X148912918Y-103031539D01*
X148959999Y-103035659D01*
X148960000Y-103035659D01*
X148960001Y-103035659D01*
X148999234Y-103032226D01*
X149195408Y-103015063D01*
X149423663Y-102953903D01*
X149637830Y-102854035D01*
X149831401Y-102718495D01*
X149998495Y-102551401D01*
X150128730Y-102365405D01*
X150183307Y-102321781D01*
X150252805Y-102314587D01*
X150315160Y-102346110D01*
X150331879Y-102365405D01*
X150461890Y-102551078D01*
X150628917Y-102718105D01*
X150822421Y-102853600D01*
X151036507Y-102953429D01*
X151036516Y-102953433D01*
X151250000Y-103010634D01*
X151250000Y-102113012D01*
X151307007Y-102145925D01*
X151434174Y-102180000D01*
X151565826Y-102180000D01*
X151692993Y-102145925D01*
X151750000Y-102113012D01*
X151750000Y-103010633D01*
X151963483Y-102953433D01*
X151963492Y-102953429D01*
X152177578Y-102853600D01*
X152371082Y-102718105D01*
X152538105Y-102551082D01*
X152673600Y-102357578D01*
X152773429Y-102143492D01*
X152773432Y-102143486D01*
X152830636Y-101930000D01*
X151933012Y-101930000D01*
X151965925Y-101872993D01*
X152000000Y-101745826D01*
X152000000Y-101614174D01*
X151965925Y-101487007D01*
X151933012Y-101430000D01*
X152830636Y-101430000D01*
X152830635Y-101429999D01*
X152773432Y-101216513D01*
X152773429Y-101216507D01*
X152673600Y-101002422D01*
X152673599Y-101002420D01*
X152538113Y-100808926D01*
X152538108Y-100808920D01*
X152484189Y-100755001D01*
X156552704Y-100755001D01*
X156552899Y-100757486D01*
X156598718Y-100915198D01*
X156682314Y-101056552D01*
X156682321Y-101056561D01*
X156798438Y-101172678D01*
X156798447Y-101172685D01*
X156939803Y-101256282D01*
X156939806Y-101256283D01*
X157097504Y-101302099D01*
X157097510Y-101302100D01*
X157134350Y-101304999D01*
X157134366Y-101305000D01*
X157775000Y-101305000D01*
X157775000Y-100755000D01*
X156552705Y-100755000D01*
X156552704Y-100755001D01*
X152484189Y-100755001D01*
X152371078Y-100641890D01*
X152185405Y-100511879D01*
X152141780Y-100457302D01*
X152134588Y-100387804D01*
X152166110Y-100325449D01*
X152185406Y-100308730D01*
X152185842Y-100308425D01*
X152371401Y-100178495D01*
X152538495Y-100011401D01*
X152674035Y-99817830D01*
X152773903Y-99603663D01*
X152835063Y-99375408D01*
X152855659Y-99140000D01*
X152835063Y-98904592D01*
X152775725Y-98683137D01*
X152773905Y-98676344D01*
X152773904Y-98676343D01*
X152773903Y-98676337D01*
X152674035Y-98462171D01*
X152668425Y-98454158D01*
X152538494Y-98268597D01*
X152371402Y-98101506D01*
X152371396Y-98101501D01*
X152185842Y-97971575D01*
X152142217Y-97916998D01*
X152135023Y-97847500D01*
X152166546Y-97785145D01*
X152185842Y-97768425D01*
X152265808Y-97712432D01*
X152371401Y-97638495D01*
X152538495Y-97471401D01*
X152674035Y-97277830D01*
X152773903Y-97063663D01*
X152835063Y-96835408D01*
X152855659Y-96600000D01*
X152835063Y-96364592D01*
X152781615Y-96165119D01*
X152773905Y-96136344D01*
X152773904Y-96136343D01*
X152773903Y-96136337D01*
X152674035Y-95922171D01*
X152655445Y-95895622D01*
X152633119Y-95829418D01*
X152650129Y-95761650D01*
X152701077Y-95713837D01*
X152757021Y-95700500D01*
X154275500Y-95700500D01*
X154342539Y-95720185D01*
X154388294Y-95772989D01*
X154399500Y-95824500D01*
X154399500Y-96098742D01*
X154379815Y-96165781D01*
X154376073Y-96171103D01*
X154375465Y-96172156D01*
X154314956Y-96318237D01*
X154314955Y-96318239D01*
X154299500Y-96435638D01*
X154299500Y-96949363D01*
X154314954Y-97066756D01*
X154315525Y-97068886D01*
X154315525Y-97071091D01*
X154316016Y-97074821D01*
X154315525Y-97074885D01*
X154315526Y-97125184D01*
X154316505Y-97125313D01*
X154315526Y-97132741D01*
X154315527Y-97133060D01*
X154315444Y-97133368D01*
X154300000Y-97250669D01*
X154300000Y-97307500D01*
X154389574Y-97307500D01*
X154456613Y-97327185D01*
X154464878Y-97333845D01*
X154465271Y-97333334D01*
X154471716Y-97338279D01*
X154471718Y-97338282D01*
X154597159Y-97434536D01*
X154597160Y-97434536D01*
X154597161Y-97434537D01*
X154680215Y-97468939D01*
X154734619Y-97512780D01*
X154756684Y-97579074D01*
X154739405Y-97646773D01*
X154688268Y-97694384D01*
X154632763Y-97707500D01*
X154300001Y-97707500D01*
X154300001Y-97764324D01*
X154315442Y-97881628D01*
X154315444Y-97881633D01*
X154375899Y-98027585D01*
X154472075Y-98152924D01*
X154597414Y-98249100D01*
X154743366Y-98309555D01*
X154743372Y-98309557D01*
X154799998Y-98317011D01*
X154800000Y-98317010D01*
X154800000Y-97695295D01*
X154781195Y-97660857D01*
X154786179Y-97591165D01*
X154828051Y-97535232D01*
X154893515Y-97510815D01*
X154902337Y-97510499D01*
X155097638Y-97510499D01*
X155164677Y-97530184D01*
X155210432Y-97582988D01*
X155220376Y-97652146D01*
X155200000Y-97696763D01*
X155200000Y-98317010D01*
X155200001Y-98317011D01*
X155256627Y-98309557D01*
X155256633Y-98309555D01*
X155402585Y-98249100D01*
X155527924Y-98152924D01*
X155624100Y-98027586D01*
X155684554Y-97881634D01*
X155684555Y-97881630D01*
X155699999Y-97764330D01*
X155700000Y-97764316D01*
X155700000Y-97707500D01*
X155367237Y-97707500D01*
X155300198Y-97687815D01*
X155254443Y-97635011D01*
X155244499Y-97565853D01*
X155273524Y-97502297D01*
X155319785Y-97468939D01*
X155327032Y-97465936D01*
X155402841Y-97434536D01*
X155528282Y-97338282D01*
X155528283Y-97338279D01*
X155534729Y-97333334D01*
X155536860Y-97336111D01*
X155584068Y-97310334D01*
X155610426Y-97307500D01*
X155699999Y-97307500D01*
X155699999Y-97250677D01*
X155684555Y-97133371D01*
X155684475Y-97133069D01*
X155684475Y-97132756D01*
X155683495Y-97125312D01*
X155684475Y-97125182D01*
X155684475Y-97074884D01*
X155683983Y-97074820D01*
X155684475Y-97071075D01*
X155684476Y-97068879D01*
X155685040Y-97066771D01*
X155685044Y-97066762D01*
X155700500Y-96949361D01*
X155700499Y-96435640D01*
X155700499Y-96435638D01*
X155700499Y-96435636D01*
X155685046Y-96318246D01*
X155685044Y-96318239D01*
X155685044Y-96318238D01*
X155624536Y-96172159D01*
X155624534Y-96172156D01*
X155620472Y-96165119D01*
X155622213Y-96164113D01*
X155600930Y-96109057D01*
X155600500Y-96098742D01*
X155600500Y-95824500D01*
X155620185Y-95757461D01*
X155672989Y-95711706D01*
X155724500Y-95700500D01*
X156903903Y-95700500D01*
X156970942Y-95720185D01*
X157016697Y-95772989D01*
X157026641Y-95842147D01*
X156997616Y-95905703D01*
X156946164Y-95938768D01*
X156946765Y-95940156D01*
X156939603Y-95943255D01*
X156798137Y-96026917D01*
X156798129Y-96026923D01*
X156681923Y-96143129D01*
X156681917Y-96143137D01*
X156598255Y-96284603D01*
X156598254Y-96284606D01*
X156552402Y-96442426D01*
X156552401Y-96442432D01*
X156549500Y-96479298D01*
X156549500Y-96910701D01*
X156552401Y-96947567D01*
X156552402Y-96947573D01*
X156598254Y-97105393D01*
X156598255Y-97105396D01*
X156598256Y-97105398D01*
X156614615Y-97133060D01*
X156681917Y-97246862D01*
X156686702Y-97253031D01*
X156684256Y-97254927D01*
X156710857Y-97303642D01*
X156705873Y-97373334D01*
X156685069Y-97405703D01*
X156686702Y-97406969D01*
X156681917Y-97413137D01*
X156598255Y-97554603D01*
X156598254Y-97554606D01*
X156552402Y-97712426D01*
X156552401Y-97712432D01*
X156549500Y-97749298D01*
X156549500Y-98180701D01*
X156552401Y-98217567D01*
X156552402Y-98217573D01*
X156598254Y-98375393D01*
X156598255Y-98375396D01*
X156681917Y-98516862D01*
X156686702Y-98523031D01*
X156684256Y-98524927D01*
X156710857Y-98573642D01*
X156705873Y-98643334D01*
X156685069Y-98675703D01*
X156686702Y-98676969D01*
X156681917Y-98683137D01*
X156598255Y-98824603D01*
X156598254Y-98824606D01*
X156552402Y-98982426D01*
X156552401Y-98982432D01*
X156549500Y-99019298D01*
X156549500Y-99450701D01*
X156552401Y-99487567D01*
X156552402Y-99487573D01*
X156598254Y-99645393D01*
X156598255Y-99645396D01*
X156598256Y-99645398D01*
X156630843Y-99700499D01*
X156679357Y-99782534D01*
X156681918Y-99786864D01*
X156686702Y-99793031D01*
X156684369Y-99794840D01*
X156711210Y-99843995D01*
X156706226Y-99913687D01*
X156685470Y-99946021D01*
X156687097Y-99947283D01*
X156682313Y-99953449D01*
X156598718Y-100094801D01*
X156552899Y-100252513D01*
X156552704Y-100254998D01*
X156552705Y-100255000D01*
X158151000Y-100255000D01*
X158218039Y-100274685D01*
X158263794Y-100327489D01*
X158275000Y-100379000D01*
X158275000Y-101305000D01*
X158915634Y-101305000D01*
X158915649Y-101304999D01*
X158952489Y-101302100D01*
X158952495Y-101302099D01*
X159110193Y-101256283D01*
X159110196Y-101256282D01*
X159251552Y-101172685D01*
X159251557Y-101172681D01*
X159336616Y-101087622D01*
X159397939Y-101054137D01*
X159467631Y-101059121D01*
X159490266Y-101070307D01*
X159633750Y-101160464D01*
X159793420Y-101216335D01*
X159804017Y-101220043D01*
X159804022Y-101220044D01*
X159983268Y-101240240D01*
X159983272Y-101240240D01*
X159983276Y-101240240D01*
X160162521Y-101220044D01*
X160162524Y-101220043D01*
X160162527Y-101220043D01*
X160332794Y-101160464D01*
X160485534Y-101064491D01*
X160495328Y-101054697D01*
X160556650Y-101021210D01*
X160626342Y-101026192D01*
X160670693Y-101054694D01*
X160714518Y-101098519D01*
X160742441Y-101116064D01*
X160833182Y-101173081D01*
X160867258Y-101194492D01*
X160975387Y-101232328D01*
X161037525Y-101254071D01*
X161037530Y-101254072D01*
X161216776Y-101274268D01*
X161216780Y-101274268D01*
X161216784Y-101274268D01*
X161396029Y-101254072D01*
X161396032Y-101254071D01*
X161396035Y-101254071D01*
X161566302Y-101194492D01*
X161608569Y-101167933D01*
X161675803Y-101148933D01*
X161742639Y-101169300D01*
X161746945Y-101172377D01*
X161748134Y-101173080D01*
X161748135Y-101173081D01*
X161889602Y-101256744D01*
X161931224Y-101268836D01*
X162047426Y-101302597D01*
X162047429Y-101302597D01*
X162047431Y-101302598D01*
X162084306Y-101305500D01*
X162084314Y-101305500D01*
X163865686Y-101305500D01*
X163865694Y-101305500D01*
X163902569Y-101302598D01*
X163902571Y-101302597D01*
X163902573Y-101302597D01*
X163944191Y-101290505D01*
X164060398Y-101256744D01*
X164126303Y-101217767D01*
X164189424Y-101200500D01*
X172620306Y-101200500D01*
X172687345Y-101220185D01*
X172719571Y-101250187D01*
X172792454Y-101347546D01*
X172826447Y-101372993D01*
X172907664Y-101433793D01*
X172907671Y-101433797D01*
X173042517Y-101484091D01*
X173042516Y-101484091D01*
X173049444Y-101484835D01*
X173102127Y-101490500D01*
X174897872Y-101490499D01*
X174957483Y-101484091D01*
X175092331Y-101433796D01*
X175207546Y-101347546D01*
X175293796Y-101232331D01*
X175344091Y-101097483D01*
X175350500Y-101037873D01*
X175350499Y-99242128D01*
X175344091Y-99182517D01*
X175328233Y-99140000D01*
X175293797Y-99047671D01*
X175293793Y-99047664D01*
X175207547Y-98932455D01*
X175207544Y-98932452D01*
X175092335Y-98846206D01*
X175092328Y-98846202D01*
X174960917Y-98797189D01*
X174904983Y-98755318D01*
X174880566Y-98689853D01*
X174895418Y-98621580D01*
X174916563Y-98593332D01*
X175038495Y-98471401D01*
X175174035Y-98277830D01*
X175273903Y-98063663D01*
X175335063Y-97835408D01*
X175355659Y-97600000D01*
X175335063Y-97364592D01*
X175273903Y-97136337D01*
X175174035Y-96922171D01*
X175165994Y-96910686D01*
X175038494Y-96728597D01*
X174871402Y-96561506D01*
X174871395Y-96561501D01*
X174677834Y-96425967D01*
X174677830Y-96425965D01*
X174677828Y-96425964D01*
X174463663Y-96326097D01*
X174463659Y-96326096D01*
X174463655Y-96326094D01*
X174235413Y-96264938D01*
X174235403Y-96264936D01*
X174000001Y-96244341D01*
X173999999Y-96244341D01*
X173764596Y-96264936D01*
X173764586Y-96264938D01*
X173536344Y-96326094D01*
X173536335Y-96326098D01*
X173322171Y-96425964D01*
X173322169Y-96425965D01*
X173128597Y-96561505D01*
X172961505Y-96728597D01*
X172825965Y-96922169D01*
X172825964Y-96922171D01*
X172740525Y-97105396D01*
X172727482Y-97133368D01*
X172726098Y-97136335D01*
X172726094Y-97136344D01*
X172664938Y-97364586D01*
X172664936Y-97364596D01*
X172644341Y-97599999D01*
X172644341Y-97600001D01*
X172660183Y-97781075D01*
X172646416Y-97849575D01*
X172611055Y-97891082D01*
X172011293Y-98340905D01*
X171837299Y-98471401D01*
X171832900Y-98474700D01*
X171767458Y-98499176D01*
X171758500Y-98499500D01*
X164530842Y-98499500D01*
X164463803Y-98479815D01*
X164418048Y-98427011D01*
X164408104Y-98357853D01*
X164411766Y-98340905D01*
X164447597Y-98217573D01*
X164447598Y-98217567D01*
X164450499Y-98180701D01*
X164450500Y-98180694D01*
X164450500Y-97749306D01*
X164447598Y-97712431D01*
X164446165Y-97707500D01*
X164401745Y-97554606D01*
X164401744Y-97554603D01*
X164401744Y-97554602D01*
X164318081Y-97413135D01*
X164318078Y-97413132D01*
X164313298Y-97406969D01*
X164315750Y-97405066D01*
X164289155Y-97356421D01*
X164294104Y-97286726D01*
X164314940Y-97254304D01*
X164313298Y-97253031D01*
X164318075Y-97246870D01*
X164318081Y-97246865D01*
X164401744Y-97105398D01*
X164447077Y-96949363D01*
X164447597Y-96947573D01*
X164447598Y-96947567D01*
X164450500Y-96910694D01*
X164450500Y-96479306D01*
X164447598Y-96442431D01*
X164445624Y-96435638D01*
X164401745Y-96284606D01*
X164401744Y-96284603D01*
X164401744Y-96284602D01*
X164318081Y-96143135D01*
X164318079Y-96143133D01*
X164318076Y-96143129D01*
X164201870Y-96026923D01*
X164201862Y-96026917D01*
X164060396Y-95943255D01*
X164060393Y-95943254D01*
X163902573Y-95897402D01*
X163902567Y-95897401D01*
X163865701Y-95894500D01*
X163865694Y-95894500D01*
X163101500Y-95894500D01*
X163034461Y-95874815D01*
X163027100Y-95869700D01*
X162966833Y-95824500D01*
X162153269Y-95214327D01*
X161401492Y-94650494D01*
X161388211Y-94638975D01*
X161368717Y-94619481D01*
X161368716Y-94619480D01*
X161337903Y-94601690D01*
X161325502Y-94593502D01*
X161297057Y-94572168D01*
X161297047Y-94572162D01*
X161271467Y-94561894D01*
X161255663Y-94554209D01*
X161231784Y-94540423D01*
X161197422Y-94531215D01*
X161183331Y-94526518D01*
X161150318Y-94513267D01*
X161122940Y-94509968D01*
X161105687Y-94506635D01*
X161079057Y-94499500D01*
X161043495Y-94499500D01*
X161028662Y-94498610D01*
X161027840Y-94498511D01*
X160993339Y-94494354D01*
X160966039Y-94498254D01*
X160948504Y-94499500D01*
X150504819Y-94499500D01*
X150503188Y-94499489D01*
X150428852Y-94498510D01*
X150427754Y-94498641D01*
X150427230Y-94498671D01*
X150425715Y-94498871D01*
X150424160Y-94499065D01*
X150422578Y-94499252D01*
X150422046Y-94499354D01*
X150420954Y-94499497D01*
X150349180Y-94518728D01*
X150347606Y-94519138D01*
X150275594Y-94537422D01*
X150274530Y-94537847D01*
X150274034Y-94538012D01*
X150272685Y-94538571D01*
X150271172Y-94539186D01*
X150269750Y-94539753D01*
X150269257Y-94539992D01*
X150268212Y-94540424D01*
X150203823Y-94577599D01*
X150202407Y-94578404D01*
X150137632Y-94614674D01*
X150136722Y-94615354D01*
X150136281Y-94615644D01*
X150135083Y-94616564D01*
X150133807Y-94617530D01*
X150132588Y-94618439D01*
X150132188Y-94618786D01*
X150131287Y-94619476D01*
X150078737Y-94672026D01*
X150077577Y-94673170D01*
X149521989Y-95214327D01*
X149460231Y-95247003D01*
X149435469Y-95249500D01*
X148062129Y-95249500D01*
X148062123Y-95249501D01*
X148002516Y-95255908D01*
X147867671Y-95306202D01*
X147867664Y-95306206D01*
X147752455Y-95392452D01*
X147752452Y-95392455D01*
X147666206Y-95507664D01*
X147666202Y-95507671D01*
X147615908Y-95642517D01*
X147609501Y-95702116D01*
X147609500Y-95702135D01*
X147609500Y-97497870D01*
X147609501Y-97497876D01*
X147615908Y-97557483D01*
X147666202Y-97692328D01*
X147666206Y-97692335D01*
X147752452Y-97807544D01*
X147752455Y-97807547D01*
X147867664Y-97893793D01*
X147867671Y-97893797D01*
X147999081Y-97942810D01*
X148055015Y-97984681D01*
X148079432Y-98050145D01*
X148064580Y-98118418D01*
X148043430Y-98146673D01*
X147921503Y-98268600D01*
X147785965Y-98462169D01*
X147785964Y-98462171D01*
X147686098Y-98676335D01*
X147686094Y-98676344D01*
X147624938Y-98904586D01*
X147624936Y-98904596D01*
X147604341Y-99139999D01*
X147604341Y-99140000D01*
X147624936Y-99375403D01*
X147624938Y-99375413D01*
X147686094Y-99603655D01*
X147686096Y-99603659D01*
X147686097Y-99603663D01*
X147751031Y-99742914D01*
X147785965Y-99817830D01*
X147785967Y-99817834D01*
X147894281Y-99972521D01*
X147921501Y-100011396D01*
X147921506Y-100011402D01*
X148088597Y-100178493D01*
X148088603Y-100178498D01*
X148274158Y-100308425D01*
X148317783Y-100363002D01*
X148324977Y-100432500D01*
X148293454Y-100494855D01*
X148274158Y-100511575D01*
X148088597Y-100641505D01*
X147921505Y-100808597D01*
X147785965Y-101002169D01*
X147785964Y-101002171D01*
X147686098Y-101216335D01*
X147686094Y-101216344D01*
X147624938Y-101444586D01*
X147624936Y-101444596D01*
X147604341Y-101679999D01*
X147604341Y-101680000D01*
X147000000Y-101680000D01*
X147000000Y-94124500D01*
X147019685Y-94057461D01*
X147072489Y-94011706D01*
X147124000Y-94000500D01*
X178876000Y-94000500D01*
X178943039Y-94020185D01*
G37*
%TD.AperFunction*%
%TD*%
M02*
