%TF.GenerationSoftware,KiCad,Pcbnew,8.0.1*%
%TF.CreationDate,2024-04-28T15:44:22+08:00*%
%TF.ProjectId,at4pi5,61743470-6935-42e6-9b69-6361645f7063,rev?*%
%TF.SameCoordinates,Original*%
%TF.FileFunction,Legend,Top*%
%TF.FilePolarity,Positive*%
%FSLAX46Y46*%
G04 Gerber Fmt 4.6, Leading zero omitted, Abs format (unit mm)*
G04 Created by KiCad (PCBNEW 8.0.1) date 2024-04-28 15:44:22*
%MOMM*%
%LPD*%
G01*
G04 APERTURE LIST*
%ADD10C,0.150000*%
%ADD11C,0.120000*%
G04 APERTURE END LIST*
D10*
X159238095Y-96954819D02*
X159238095Y-97764342D01*
X159238095Y-97764342D02*
X159285714Y-97859580D01*
X159285714Y-97859580D02*
X159333333Y-97907200D01*
X159333333Y-97907200D02*
X159428571Y-97954819D01*
X159428571Y-97954819D02*
X159619047Y-97954819D01*
X159619047Y-97954819D02*
X159714285Y-97907200D01*
X159714285Y-97907200D02*
X159761904Y-97859580D01*
X159761904Y-97859580D02*
X159809523Y-97764342D01*
X159809523Y-97764342D02*
X159809523Y-96954819D01*
X160809523Y-97954819D02*
X160238095Y-97954819D01*
X160523809Y-97954819D02*
X160523809Y-96954819D01*
X160523809Y-96954819D02*
X160428571Y-97097676D01*
X160428571Y-97097676D02*
X160333333Y-97192914D01*
X160333333Y-97192914D02*
X160238095Y-97240533D01*
X150166666Y-104454819D02*
X150166666Y-105169104D01*
X150166666Y-105169104D02*
X150119047Y-105311961D01*
X150119047Y-105311961D02*
X150023809Y-105407200D01*
X150023809Y-105407200D02*
X149880952Y-105454819D01*
X149880952Y-105454819D02*
X149785714Y-105454819D01*
X151166666Y-105454819D02*
X150595238Y-105454819D01*
X150880952Y-105454819D02*
X150880952Y-104454819D01*
X150880952Y-104454819D02*
X150785714Y-104597676D01*
X150785714Y-104597676D02*
X150690476Y-104692914D01*
X150690476Y-104692914D02*
X150595238Y-104740533D01*
X173666666Y-102324819D02*
X173666666Y-103039104D01*
X173666666Y-103039104D02*
X173619047Y-103181961D01*
X173619047Y-103181961D02*
X173523809Y-103277200D01*
X173523809Y-103277200D02*
X173380952Y-103324819D01*
X173380952Y-103324819D02*
X173285714Y-103324819D01*
X174095238Y-102420057D02*
X174142857Y-102372438D01*
X174142857Y-102372438D02*
X174238095Y-102324819D01*
X174238095Y-102324819D02*
X174476190Y-102324819D01*
X174476190Y-102324819D02*
X174571428Y-102372438D01*
X174571428Y-102372438D02*
X174619047Y-102420057D01*
X174619047Y-102420057D02*
X174666666Y-102515295D01*
X174666666Y-102515295D02*
X174666666Y-102610533D01*
X174666666Y-102610533D02*
X174619047Y-102753390D01*
X174619047Y-102753390D02*
X174047619Y-103324819D01*
X174047619Y-103324819D02*
X174666666Y-103324819D01*
X156409580Y-97666666D02*
X156457200Y-97714285D01*
X156457200Y-97714285D02*
X156504819Y-97857142D01*
X156504819Y-97857142D02*
X156504819Y-97952380D01*
X156504819Y-97952380D02*
X156457200Y-98095237D01*
X156457200Y-98095237D02*
X156361961Y-98190475D01*
X156361961Y-98190475D02*
X156266723Y-98238094D01*
X156266723Y-98238094D02*
X156076247Y-98285713D01*
X156076247Y-98285713D02*
X155933390Y-98285713D01*
X155933390Y-98285713D02*
X155742914Y-98238094D01*
X155742914Y-98238094D02*
X155647676Y-98190475D01*
X155647676Y-98190475D02*
X155552438Y-98095237D01*
X155552438Y-98095237D02*
X155504819Y-97952380D01*
X155504819Y-97952380D02*
X155504819Y-97857142D01*
X155504819Y-97857142D02*
X155552438Y-97714285D01*
X155552438Y-97714285D02*
X155600057Y-97666666D01*
X156504819Y-96714285D02*
X156504819Y-97285713D01*
X156504819Y-96999999D02*
X155504819Y-96999999D01*
X155504819Y-96999999D02*
X155647676Y-97095237D01*
X155647676Y-97095237D02*
X155742914Y-97190475D01*
X155742914Y-97190475D02*
X155790533Y-97285713D01*
D11*
%TO.C,U1*%
X160500000Y-96440000D02*
X158550000Y-96440000D01*
X160500000Y-96440000D02*
X162450000Y-96440000D01*
X160500000Y-101560000D02*
X158550000Y-101560000D01*
X160500000Y-101560000D02*
X162450000Y-101560000D01*
X157800000Y-96535000D02*
X157560000Y-96205000D01*
X158040000Y-96205000D01*
X157800000Y-96535000D01*
G36*
X157800000Y-96535000D02*
G01*
X157560000Y-96205000D01*
X158040000Y-96205000D01*
X157800000Y-96535000D01*
G37*
%TO.C,J1*%
X147630000Y-95670000D02*
X148960000Y-95670000D01*
X147630000Y-97000000D02*
X147630000Y-95670000D01*
X147630000Y-98270000D02*
X147630000Y-103410000D01*
X147630000Y-98270000D02*
X150230000Y-98270000D01*
X147630000Y-103410000D02*
X152830000Y-103410000D01*
X150230000Y-95670000D02*
X152830000Y-95670000D01*
X150230000Y-98270000D02*
X150230000Y-95670000D01*
X152830000Y-95670000D02*
X152830000Y-103410000D01*
%TO.C,J2*%
X172670000Y-99270000D02*
X172670000Y-96670000D01*
X175330000Y-96670000D02*
X172670000Y-96670000D01*
X175330000Y-99270000D02*
X172670000Y-99270000D01*
X175330000Y-99270000D02*
X175330000Y-96670000D01*
X175330000Y-100540000D02*
X175330000Y-101870000D01*
X175330000Y-101870000D02*
X174000000Y-101870000D01*
%TD*%
M02*
