%TF.GenerationSoftware,KiCad,Pcbnew,8.0.1*%
%TF.CreationDate,2024-04-28T15:44:31+08:00*%
%TF.ProjectId,at4pi5,61743470-6935-42e6-9b69-6361645f7063,rev?*%
%TF.SameCoordinates,Original*%
%TF.FileFunction,Drillmap*%
%TF.FilePolarity,Positive*%
%FSLAX45Y45*%
G04 Gerber Fmt 4.5, Leading zero omitted, Abs format (unit mm)*
G04 Created by KiCad (PCBNEW 8.0.1) date 2024-04-28 15:44:31*
%MOMM*%
%LPD*%
G01*
G04 APERTURE LIST*
%ADD10C,0.050000*%
%ADD11C,0.200000*%
%ADD12C,0.100000*%
G04 APERTURE END LIST*
D10*
X14625000Y-9300000D02*
X17975000Y-9300000D01*
X17975000Y-10900000D01*
X14625000Y-10900000D01*
X14625000Y-9300000D01*
D11*
D12*
X15983327Y-10068468D02*
X16013327Y-10098468D01*
X16013327Y-10068468D02*
X15983327Y-10098468D01*
X16106678Y-10071870D02*
X16136678Y-10101870D01*
X16136678Y-10071870D02*
X16106678Y-10101870D01*
X14946000Y-9700000D02*
G75*
G02*
X14846000Y-9700000I-50000J0D01*
G01*
X14846000Y-9700000D02*
G75*
G02*
X14946000Y-9700000I50000J0D01*
G01*
X14946000Y-9954000D02*
G75*
G02*
X14846000Y-9954000I-50000J0D01*
G01*
X14846000Y-9954000D02*
G75*
G02*
X14946000Y-9954000I50000J0D01*
G01*
X14946000Y-10208000D02*
G75*
G02*
X14846000Y-10208000I-50000J0D01*
G01*
X14846000Y-10208000D02*
G75*
G02*
X14946000Y-10208000I50000J0D01*
G01*
X15200000Y-9700000D02*
G75*
G02*
X15100000Y-9700000I-50000J0D01*
G01*
X15100000Y-9700000D02*
G75*
G02*
X15200000Y-9700000I50000J0D01*
G01*
X15200000Y-9954000D02*
G75*
G02*
X15100000Y-9954000I-50000J0D01*
G01*
X15100000Y-9954000D02*
G75*
G02*
X15200000Y-9954000I50000J0D01*
G01*
X15200000Y-10208000D02*
G75*
G02*
X15100000Y-10208000I-50000J0D01*
G01*
X15100000Y-10208000D02*
G75*
G02*
X15200000Y-10208000I50000J0D01*
G01*
X17450000Y-9800000D02*
G75*
G02*
X17350000Y-9800000I-50000J0D01*
G01*
X17350000Y-9800000D02*
G75*
G02*
X17450000Y-9800000I50000J0D01*
G01*
X17450000Y-10054000D02*
G75*
G02*
X17350000Y-10054000I-50000J0D01*
G01*
X17350000Y-10054000D02*
G75*
G02*
X17450000Y-10054000I50000J0D01*
G01*
D11*
X14883277Y-11213984D02*
X14883277Y-11013984D01*
X14883277Y-11013984D02*
X14930896Y-11013984D01*
X14930896Y-11013984D02*
X14959467Y-11023508D01*
X14959467Y-11023508D02*
X14978515Y-11042555D01*
X14978515Y-11042555D02*
X14988039Y-11061603D01*
X14988039Y-11061603D02*
X14997562Y-11099698D01*
X14997562Y-11099698D02*
X14997562Y-11128270D01*
X14997562Y-11128270D02*
X14988039Y-11166365D01*
X14988039Y-11166365D02*
X14978515Y-11185412D01*
X14978515Y-11185412D02*
X14959467Y-11204460D01*
X14959467Y-11204460D02*
X14930896Y-11213984D01*
X14930896Y-11213984D02*
X14883277Y-11213984D01*
X15083277Y-11213984D02*
X15083277Y-11080650D01*
X15083277Y-11118746D02*
X15092801Y-11099698D01*
X15092801Y-11099698D02*
X15102324Y-11090174D01*
X15102324Y-11090174D02*
X15121372Y-11080650D01*
X15121372Y-11080650D02*
X15140420Y-11080650D01*
X15207086Y-11213984D02*
X15207086Y-11080650D01*
X15207086Y-11013984D02*
X15197562Y-11023508D01*
X15197562Y-11023508D02*
X15207086Y-11033031D01*
X15207086Y-11033031D02*
X15216610Y-11023508D01*
X15216610Y-11023508D02*
X15207086Y-11013984D01*
X15207086Y-11013984D02*
X15207086Y-11033031D01*
X15330896Y-11213984D02*
X15311848Y-11204460D01*
X15311848Y-11204460D02*
X15302324Y-11185412D01*
X15302324Y-11185412D02*
X15302324Y-11013984D01*
X15435658Y-11213984D02*
X15416610Y-11204460D01*
X15416610Y-11204460D02*
X15407086Y-11185412D01*
X15407086Y-11185412D02*
X15407086Y-11013984D01*
X15664229Y-11213984D02*
X15664229Y-11013984D01*
X15664229Y-11013984D02*
X15730896Y-11156841D01*
X15730896Y-11156841D02*
X15797562Y-11013984D01*
X15797562Y-11013984D02*
X15797562Y-11213984D01*
X15978515Y-11213984D02*
X15978515Y-11109222D01*
X15978515Y-11109222D02*
X15968991Y-11090174D01*
X15968991Y-11090174D02*
X15949943Y-11080650D01*
X15949943Y-11080650D02*
X15911848Y-11080650D01*
X15911848Y-11080650D02*
X15892801Y-11090174D01*
X15978515Y-11204460D02*
X15959467Y-11213984D01*
X15959467Y-11213984D02*
X15911848Y-11213984D01*
X15911848Y-11213984D02*
X15892801Y-11204460D01*
X15892801Y-11204460D02*
X15883277Y-11185412D01*
X15883277Y-11185412D02*
X15883277Y-11166365D01*
X15883277Y-11166365D02*
X15892801Y-11147317D01*
X15892801Y-11147317D02*
X15911848Y-11137793D01*
X15911848Y-11137793D02*
X15959467Y-11137793D01*
X15959467Y-11137793D02*
X15978515Y-11128270D01*
X16073753Y-11080650D02*
X16073753Y-11280650D01*
X16073753Y-11090174D02*
X16092801Y-11080650D01*
X16092801Y-11080650D02*
X16130896Y-11080650D01*
X16130896Y-11080650D02*
X16149943Y-11090174D01*
X16149943Y-11090174D02*
X16159467Y-11099698D01*
X16159467Y-11099698D02*
X16168991Y-11118746D01*
X16168991Y-11118746D02*
X16168991Y-11175889D01*
X16168991Y-11175889D02*
X16159467Y-11194936D01*
X16159467Y-11194936D02*
X16149943Y-11204460D01*
X16149943Y-11204460D02*
X16130896Y-11213984D01*
X16130896Y-11213984D02*
X16092801Y-11213984D01*
X16092801Y-11213984D02*
X16073753Y-11204460D01*
X16254705Y-11194936D02*
X16264229Y-11204460D01*
X16264229Y-11204460D02*
X16254705Y-11213984D01*
X16254705Y-11213984D02*
X16245182Y-11204460D01*
X16245182Y-11204460D02*
X16254705Y-11194936D01*
X16254705Y-11194936D02*
X16254705Y-11213984D01*
X16254705Y-11090174D02*
X16264229Y-11099698D01*
X16264229Y-11099698D02*
X16254705Y-11109222D01*
X16254705Y-11109222D02*
X16245182Y-11099698D01*
X16245182Y-11099698D02*
X16254705Y-11090174D01*
X16254705Y-11090174D02*
X16254705Y-11109222D01*
D12*
X14592500Y-11527500D02*
X14622500Y-11557500D01*
X14622500Y-11527500D02*
X14592500Y-11557500D01*
D11*
X14921372Y-11433984D02*
X14940420Y-11433984D01*
X14940420Y-11433984D02*
X14959467Y-11443508D01*
X14959467Y-11443508D02*
X14968991Y-11453031D01*
X14968991Y-11453031D02*
X14978515Y-11472079D01*
X14978515Y-11472079D02*
X14988039Y-11510174D01*
X14988039Y-11510174D02*
X14988039Y-11557793D01*
X14988039Y-11557793D02*
X14978515Y-11595888D01*
X14978515Y-11595888D02*
X14968991Y-11614936D01*
X14968991Y-11614936D02*
X14959467Y-11624460D01*
X14959467Y-11624460D02*
X14940420Y-11633984D01*
X14940420Y-11633984D02*
X14921372Y-11633984D01*
X14921372Y-11633984D02*
X14902324Y-11624460D01*
X14902324Y-11624460D02*
X14892801Y-11614936D01*
X14892801Y-11614936D02*
X14883277Y-11595888D01*
X14883277Y-11595888D02*
X14873753Y-11557793D01*
X14873753Y-11557793D02*
X14873753Y-11510174D01*
X14873753Y-11510174D02*
X14883277Y-11472079D01*
X14883277Y-11472079D02*
X14892801Y-11453031D01*
X14892801Y-11453031D02*
X14902324Y-11443508D01*
X14902324Y-11443508D02*
X14921372Y-11433984D01*
X15073753Y-11614936D02*
X15083277Y-11624460D01*
X15083277Y-11624460D02*
X15073753Y-11633984D01*
X15073753Y-11633984D02*
X15064229Y-11624460D01*
X15064229Y-11624460D02*
X15073753Y-11614936D01*
X15073753Y-11614936D02*
X15073753Y-11633984D01*
X15149943Y-11433984D02*
X15273753Y-11433984D01*
X15273753Y-11433984D02*
X15207086Y-11510174D01*
X15207086Y-11510174D02*
X15235658Y-11510174D01*
X15235658Y-11510174D02*
X15254705Y-11519698D01*
X15254705Y-11519698D02*
X15264229Y-11529222D01*
X15264229Y-11529222D02*
X15273753Y-11548269D01*
X15273753Y-11548269D02*
X15273753Y-11595888D01*
X15273753Y-11595888D02*
X15264229Y-11614936D01*
X15264229Y-11614936D02*
X15254705Y-11624460D01*
X15254705Y-11624460D02*
X15235658Y-11633984D01*
X15235658Y-11633984D02*
X15178515Y-11633984D01*
X15178515Y-11633984D02*
X15159467Y-11624460D01*
X15159467Y-11624460D02*
X15149943Y-11614936D01*
X15397562Y-11433984D02*
X15416610Y-11433984D01*
X15416610Y-11433984D02*
X15435658Y-11443508D01*
X15435658Y-11443508D02*
X15445182Y-11453031D01*
X15445182Y-11453031D02*
X15454705Y-11472079D01*
X15454705Y-11472079D02*
X15464229Y-11510174D01*
X15464229Y-11510174D02*
X15464229Y-11557793D01*
X15464229Y-11557793D02*
X15454705Y-11595888D01*
X15454705Y-11595888D02*
X15445182Y-11614936D01*
X15445182Y-11614936D02*
X15435658Y-11624460D01*
X15435658Y-11624460D02*
X15416610Y-11633984D01*
X15416610Y-11633984D02*
X15397562Y-11633984D01*
X15397562Y-11633984D02*
X15378515Y-11624460D01*
X15378515Y-11624460D02*
X15368991Y-11614936D01*
X15368991Y-11614936D02*
X15359467Y-11595888D01*
X15359467Y-11595888D02*
X15349943Y-11557793D01*
X15349943Y-11557793D02*
X15349943Y-11510174D01*
X15349943Y-11510174D02*
X15359467Y-11472079D01*
X15359467Y-11472079D02*
X15368991Y-11453031D01*
X15368991Y-11453031D02*
X15378515Y-11443508D01*
X15378515Y-11443508D02*
X15397562Y-11433984D01*
X15588039Y-11433984D02*
X15607086Y-11433984D01*
X15607086Y-11433984D02*
X15626134Y-11443508D01*
X15626134Y-11443508D02*
X15635658Y-11453031D01*
X15635658Y-11453031D02*
X15645182Y-11472079D01*
X15645182Y-11472079D02*
X15654705Y-11510174D01*
X15654705Y-11510174D02*
X15654705Y-11557793D01*
X15654705Y-11557793D02*
X15645182Y-11595888D01*
X15645182Y-11595888D02*
X15635658Y-11614936D01*
X15635658Y-11614936D02*
X15626134Y-11624460D01*
X15626134Y-11624460D02*
X15607086Y-11633984D01*
X15607086Y-11633984D02*
X15588039Y-11633984D01*
X15588039Y-11633984D02*
X15568991Y-11624460D01*
X15568991Y-11624460D02*
X15559467Y-11614936D01*
X15559467Y-11614936D02*
X15549943Y-11595888D01*
X15549943Y-11595888D02*
X15540420Y-11557793D01*
X15540420Y-11557793D02*
X15540420Y-11510174D01*
X15540420Y-11510174D02*
X15549943Y-11472079D01*
X15549943Y-11472079D02*
X15559467Y-11453031D01*
X15559467Y-11453031D02*
X15568991Y-11443508D01*
X15568991Y-11443508D02*
X15588039Y-11433984D01*
X15740420Y-11633984D02*
X15740420Y-11500650D01*
X15740420Y-11519698D02*
X15749943Y-11510174D01*
X15749943Y-11510174D02*
X15768991Y-11500650D01*
X15768991Y-11500650D02*
X15797563Y-11500650D01*
X15797563Y-11500650D02*
X15816610Y-11510174D01*
X15816610Y-11510174D02*
X15826134Y-11529222D01*
X15826134Y-11529222D02*
X15826134Y-11633984D01*
X15826134Y-11529222D02*
X15835658Y-11510174D01*
X15835658Y-11510174D02*
X15854705Y-11500650D01*
X15854705Y-11500650D02*
X15883277Y-11500650D01*
X15883277Y-11500650D02*
X15902324Y-11510174D01*
X15902324Y-11510174D02*
X15911848Y-11529222D01*
X15911848Y-11529222D02*
X15911848Y-11633984D01*
X16007086Y-11633984D02*
X16007086Y-11500650D01*
X16007086Y-11519698D02*
X16016610Y-11510174D01*
X16016610Y-11510174D02*
X16035658Y-11500650D01*
X16035658Y-11500650D02*
X16064229Y-11500650D01*
X16064229Y-11500650D02*
X16083277Y-11510174D01*
X16083277Y-11510174D02*
X16092801Y-11529222D01*
X16092801Y-11529222D02*
X16092801Y-11633984D01*
X16092801Y-11529222D02*
X16102324Y-11510174D01*
X16102324Y-11510174D02*
X16121372Y-11500650D01*
X16121372Y-11500650D02*
X16149943Y-11500650D01*
X16149943Y-11500650D02*
X16168991Y-11510174D01*
X16168991Y-11510174D02*
X16178515Y-11529222D01*
X16178515Y-11529222D02*
X16178515Y-11633984D01*
X16568991Y-11424460D02*
X16397563Y-11681603D01*
X16826134Y-11433984D02*
X16845182Y-11433984D01*
X16845182Y-11433984D02*
X16864229Y-11443508D01*
X16864229Y-11443508D02*
X16873753Y-11453031D01*
X16873753Y-11453031D02*
X16883277Y-11472079D01*
X16883277Y-11472079D02*
X16892801Y-11510174D01*
X16892801Y-11510174D02*
X16892801Y-11557793D01*
X16892801Y-11557793D02*
X16883277Y-11595888D01*
X16883277Y-11595888D02*
X16873753Y-11614936D01*
X16873753Y-11614936D02*
X16864229Y-11624460D01*
X16864229Y-11624460D02*
X16845182Y-11633984D01*
X16845182Y-11633984D02*
X16826134Y-11633984D01*
X16826134Y-11633984D02*
X16807087Y-11624460D01*
X16807087Y-11624460D02*
X16797563Y-11614936D01*
X16797563Y-11614936D02*
X16788039Y-11595888D01*
X16788039Y-11595888D02*
X16778515Y-11557793D01*
X16778515Y-11557793D02*
X16778515Y-11510174D01*
X16778515Y-11510174D02*
X16788039Y-11472079D01*
X16788039Y-11472079D02*
X16797563Y-11453031D01*
X16797563Y-11453031D02*
X16807087Y-11443508D01*
X16807087Y-11443508D02*
X16826134Y-11433984D01*
X16978515Y-11614936D02*
X16988039Y-11624460D01*
X16988039Y-11624460D02*
X16978515Y-11633984D01*
X16978515Y-11633984D02*
X16968991Y-11624460D01*
X16968991Y-11624460D02*
X16978515Y-11614936D01*
X16978515Y-11614936D02*
X16978515Y-11633984D01*
X17111848Y-11433984D02*
X17130896Y-11433984D01*
X17130896Y-11433984D02*
X17149944Y-11443508D01*
X17149944Y-11443508D02*
X17159468Y-11453031D01*
X17159468Y-11453031D02*
X17168991Y-11472079D01*
X17168991Y-11472079D02*
X17178515Y-11510174D01*
X17178515Y-11510174D02*
X17178515Y-11557793D01*
X17178515Y-11557793D02*
X17168991Y-11595888D01*
X17168991Y-11595888D02*
X17159468Y-11614936D01*
X17159468Y-11614936D02*
X17149944Y-11624460D01*
X17149944Y-11624460D02*
X17130896Y-11633984D01*
X17130896Y-11633984D02*
X17111848Y-11633984D01*
X17111848Y-11633984D02*
X17092801Y-11624460D01*
X17092801Y-11624460D02*
X17083277Y-11614936D01*
X17083277Y-11614936D02*
X17073753Y-11595888D01*
X17073753Y-11595888D02*
X17064229Y-11557793D01*
X17064229Y-11557793D02*
X17064229Y-11510174D01*
X17064229Y-11510174D02*
X17073753Y-11472079D01*
X17073753Y-11472079D02*
X17083277Y-11453031D01*
X17083277Y-11453031D02*
X17092801Y-11443508D01*
X17092801Y-11443508D02*
X17111848Y-11433984D01*
X17368991Y-11633984D02*
X17254706Y-11633984D01*
X17311848Y-11633984D02*
X17311848Y-11433984D01*
X17311848Y-11433984D02*
X17292801Y-11462555D01*
X17292801Y-11462555D02*
X17273753Y-11481603D01*
X17273753Y-11481603D02*
X17254706Y-11491127D01*
X17559468Y-11633984D02*
X17445182Y-11633984D01*
X17502325Y-11633984D02*
X17502325Y-11433984D01*
X17502325Y-11433984D02*
X17483277Y-11462555D01*
X17483277Y-11462555D02*
X17464229Y-11481603D01*
X17464229Y-11481603D02*
X17445182Y-11491127D01*
X17673753Y-11519698D02*
X17654706Y-11510174D01*
X17654706Y-11510174D02*
X17645182Y-11500650D01*
X17645182Y-11500650D02*
X17635658Y-11481603D01*
X17635658Y-11481603D02*
X17635658Y-11472079D01*
X17635658Y-11472079D02*
X17645182Y-11453031D01*
X17645182Y-11453031D02*
X17654706Y-11443508D01*
X17654706Y-11443508D02*
X17673753Y-11433984D01*
X17673753Y-11433984D02*
X17711849Y-11433984D01*
X17711849Y-11433984D02*
X17730896Y-11443508D01*
X17730896Y-11443508D02*
X17740420Y-11453031D01*
X17740420Y-11453031D02*
X17749944Y-11472079D01*
X17749944Y-11472079D02*
X17749944Y-11481603D01*
X17749944Y-11481603D02*
X17740420Y-11500650D01*
X17740420Y-11500650D02*
X17730896Y-11510174D01*
X17730896Y-11510174D02*
X17711849Y-11519698D01*
X17711849Y-11519698D02*
X17673753Y-11519698D01*
X17673753Y-11519698D02*
X17654706Y-11529222D01*
X17654706Y-11529222D02*
X17645182Y-11538746D01*
X17645182Y-11538746D02*
X17635658Y-11557793D01*
X17635658Y-11557793D02*
X17635658Y-11595888D01*
X17635658Y-11595888D02*
X17645182Y-11614936D01*
X17645182Y-11614936D02*
X17654706Y-11624460D01*
X17654706Y-11624460D02*
X17673753Y-11633984D01*
X17673753Y-11633984D02*
X17711849Y-11633984D01*
X17711849Y-11633984D02*
X17730896Y-11624460D01*
X17730896Y-11624460D02*
X17740420Y-11614936D01*
X17740420Y-11614936D02*
X17749944Y-11595888D01*
X17749944Y-11595888D02*
X17749944Y-11557793D01*
X17749944Y-11557793D02*
X17740420Y-11538746D01*
X17740420Y-11538746D02*
X17730896Y-11529222D01*
X17730896Y-11529222D02*
X17711849Y-11519698D01*
X17826134Y-11433984D02*
X17826134Y-11472079D01*
X17902325Y-11433984D02*
X17902325Y-11472079D01*
X18197563Y-11710174D02*
X18188039Y-11700650D01*
X18188039Y-11700650D02*
X18168991Y-11672079D01*
X18168991Y-11672079D02*
X18159468Y-11653031D01*
X18159468Y-11653031D02*
X18149944Y-11624460D01*
X18149944Y-11624460D02*
X18140420Y-11576841D01*
X18140420Y-11576841D02*
X18140420Y-11538746D01*
X18140420Y-11538746D02*
X18149944Y-11491127D01*
X18149944Y-11491127D02*
X18159468Y-11462555D01*
X18159468Y-11462555D02*
X18168991Y-11443508D01*
X18168991Y-11443508D02*
X18188039Y-11414936D01*
X18188039Y-11414936D02*
X18197563Y-11405412D01*
X18264230Y-11453031D02*
X18273753Y-11443508D01*
X18273753Y-11443508D02*
X18292801Y-11433984D01*
X18292801Y-11433984D02*
X18340420Y-11433984D01*
X18340420Y-11433984D02*
X18359468Y-11443508D01*
X18359468Y-11443508D02*
X18368991Y-11453031D01*
X18368991Y-11453031D02*
X18378515Y-11472079D01*
X18378515Y-11472079D02*
X18378515Y-11491127D01*
X18378515Y-11491127D02*
X18368991Y-11519698D01*
X18368991Y-11519698D02*
X18254706Y-11633984D01*
X18254706Y-11633984D02*
X18378515Y-11633984D01*
X18616611Y-11633984D02*
X18616611Y-11433984D01*
X18702325Y-11633984D02*
X18702325Y-11529222D01*
X18702325Y-11529222D02*
X18692801Y-11510174D01*
X18692801Y-11510174D02*
X18673753Y-11500650D01*
X18673753Y-11500650D02*
X18645182Y-11500650D01*
X18645182Y-11500650D02*
X18626134Y-11510174D01*
X18626134Y-11510174D02*
X18616611Y-11519698D01*
X18826134Y-11633984D02*
X18807087Y-11624460D01*
X18807087Y-11624460D02*
X18797563Y-11614936D01*
X18797563Y-11614936D02*
X18788039Y-11595888D01*
X18788039Y-11595888D02*
X18788039Y-11538746D01*
X18788039Y-11538746D02*
X18797563Y-11519698D01*
X18797563Y-11519698D02*
X18807087Y-11510174D01*
X18807087Y-11510174D02*
X18826134Y-11500650D01*
X18826134Y-11500650D02*
X18854706Y-11500650D01*
X18854706Y-11500650D02*
X18873753Y-11510174D01*
X18873753Y-11510174D02*
X18883277Y-11519698D01*
X18883277Y-11519698D02*
X18892801Y-11538746D01*
X18892801Y-11538746D02*
X18892801Y-11595888D01*
X18892801Y-11595888D02*
X18883277Y-11614936D01*
X18883277Y-11614936D02*
X18873753Y-11624460D01*
X18873753Y-11624460D02*
X18854706Y-11633984D01*
X18854706Y-11633984D02*
X18826134Y-11633984D01*
X19007087Y-11633984D02*
X18988039Y-11624460D01*
X18988039Y-11624460D02*
X18978515Y-11605412D01*
X18978515Y-11605412D02*
X18978515Y-11433984D01*
X19159468Y-11624460D02*
X19140420Y-11633984D01*
X19140420Y-11633984D02*
X19102325Y-11633984D01*
X19102325Y-11633984D02*
X19083277Y-11624460D01*
X19083277Y-11624460D02*
X19073753Y-11605412D01*
X19073753Y-11605412D02*
X19073753Y-11529222D01*
X19073753Y-11529222D02*
X19083277Y-11510174D01*
X19083277Y-11510174D02*
X19102325Y-11500650D01*
X19102325Y-11500650D02*
X19140420Y-11500650D01*
X19140420Y-11500650D02*
X19159468Y-11510174D01*
X19159468Y-11510174D02*
X19168992Y-11529222D01*
X19168992Y-11529222D02*
X19168992Y-11548269D01*
X19168992Y-11548269D02*
X19073753Y-11567317D01*
X19245182Y-11624460D02*
X19264230Y-11633984D01*
X19264230Y-11633984D02*
X19302325Y-11633984D01*
X19302325Y-11633984D02*
X19321373Y-11624460D01*
X19321373Y-11624460D02*
X19330896Y-11605412D01*
X19330896Y-11605412D02*
X19330896Y-11595888D01*
X19330896Y-11595888D02*
X19321373Y-11576841D01*
X19321373Y-11576841D02*
X19302325Y-11567317D01*
X19302325Y-11567317D02*
X19273753Y-11567317D01*
X19273753Y-11567317D02*
X19254706Y-11557793D01*
X19254706Y-11557793D02*
X19245182Y-11538746D01*
X19245182Y-11538746D02*
X19245182Y-11529222D01*
X19245182Y-11529222D02*
X19254706Y-11510174D01*
X19254706Y-11510174D02*
X19273753Y-11500650D01*
X19273753Y-11500650D02*
X19302325Y-11500650D01*
X19302325Y-11500650D02*
X19321373Y-11510174D01*
X19397563Y-11710174D02*
X19407087Y-11700650D01*
X19407087Y-11700650D02*
X19426134Y-11672079D01*
X19426134Y-11672079D02*
X19435658Y-11653031D01*
X19435658Y-11653031D02*
X19445182Y-11624460D01*
X19445182Y-11624460D02*
X19454706Y-11576841D01*
X19454706Y-11576841D02*
X19454706Y-11538746D01*
X19454706Y-11538746D02*
X19445182Y-11491127D01*
X19445182Y-11491127D02*
X19435658Y-11462555D01*
X19435658Y-11462555D02*
X19426134Y-11443508D01*
X19426134Y-11443508D02*
X19407087Y-11414936D01*
X19407087Y-11414936D02*
X19397563Y-11405412D01*
D12*
X14622500Y-11806500D02*
G75*
G02*
X14522500Y-11806500I-50000J0D01*
G01*
X14522500Y-11806500D02*
G75*
G02*
X14622500Y-11806500I50000J0D01*
G01*
D11*
X14988039Y-11897984D02*
X14873753Y-11897984D01*
X14930896Y-11897984D02*
X14930896Y-11697984D01*
X14930896Y-11697984D02*
X14911848Y-11726555D01*
X14911848Y-11726555D02*
X14892801Y-11745603D01*
X14892801Y-11745603D02*
X14873753Y-11755127D01*
X15073753Y-11878936D02*
X15083277Y-11888460D01*
X15083277Y-11888460D02*
X15073753Y-11897984D01*
X15073753Y-11897984D02*
X15064229Y-11888460D01*
X15064229Y-11888460D02*
X15073753Y-11878936D01*
X15073753Y-11878936D02*
X15073753Y-11897984D01*
X15207086Y-11697984D02*
X15226134Y-11697984D01*
X15226134Y-11697984D02*
X15245182Y-11707508D01*
X15245182Y-11707508D02*
X15254705Y-11717031D01*
X15254705Y-11717031D02*
X15264229Y-11736079D01*
X15264229Y-11736079D02*
X15273753Y-11774174D01*
X15273753Y-11774174D02*
X15273753Y-11821793D01*
X15273753Y-11821793D02*
X15264229Y-11859888D01*
X15264229Y-11859888D02*
X15254705Y-11878936D01*
X15254705Y-11878936D02*
X15245182Y-11888460D01*
X15245182Y-11888460D02*
X15226134Y-11897984D01*
X15226134Y-11897984D02*
X15207086Y-11897984D01*
X15207086Y-11897984D02*
X15188039Y-11888460D01*
X15188039Y-11888460D02*
X15178515Y-11878936D01*
X15178515Y-11878936D02*
X15168991Y-11859888D01*
X15168991Y-11859888D02*
X15159467Y-11821793D01*
X15159467Y-11821793D02*
X15159467Y-11774174D01*
X15159467Y-11774174D02*
X15168991Y-11736079D01*
X15168991Y-11736079D02*
X15178515Y-11717031D01*
X15178515Y-11717031D02*
X15188039Y-11707508D01*
X15188039Y-11707508D02*
X15207086Y-11697984D01*
X15397562Y-11697984D02*
X15416610Y-11697984D01*
X15416610Y-11697984D02*
X15435658Y-11707508D01*
X15435658Y-11707508D02*
X15445182Y-11717031D01*
X15445182Y-11717031D02*
X15454705Y-11736079D01*
X15454705Y-11736079D02*
X15464229Y-11774174D01*
X15464229Y-11774174D02*
X15464229Y-11821793D01*
X15464229Y-11821793D02*
X15454705Y-11859888D01*
X15454705Y-11859888D02*
X15445182Y-11878936D01*
X15445182Y-11878936D02*
X15435658Y-11888460D01*
X15435658Y-11888460D02*
X15416610Y-11897984D01*
X15416610Y-11897984D02*
X15397562Y-11897984D01*
X15397562Y-11897984D02*
X15378515Y-11888460D01*
X15378515Y-11888460D02*
X15368991Y-11878936D01*
X15368991Y-11878936D02*
X15359467Y-11859888D01*
X15359467Y-11859888D02*
X15349943Y-11821793D01*
X15349943Y-11821793D02*
X15349943Y-11774174D01*
X15349943Y-11774174D02*
X15359467Y-11736079D01*
X15359467Y-11736079D02*
X15368991Y-11717031D01*
X15368991Y-11717031D02*
X15378515Y-11707508D01*
X15378515Y-11707508D02*
X15397562Y-11697984D01*
X15588039Y-11697984D02*
X15607086Y-11697984D01*
X15607086Y-11697984D02*
X15626134Y-11707508D01*
X15626134Y-11707508D02*
X15635658Y-11717031D01*
X15635658Y-11717031D02*
X15645182Y-11736079D01*
X15645182Y-11736079D02*
X15654705Y-11774174D01*
X15654705Y-11774174D02*
X15654705Y-11821793D01*
X15654705Y-11821793D02*
X15645182Y-11859888D01*
X15645182Y-11859888D02*
X15635658Y-11878936D01*
X15635658Y-11878936D02*
X15626134Y-11888460D01*
X15626134Y-11888460D02*
X15607086Y-11897984D01*
X15607086Y-11897984D02*
X15588039Y-11897984D01*
X15588039Y-11897984D02*
X15568991Y-11888460D01*
X15568991Y-11888460D02*
X15559467Y-11878936D01*
X15559467Y-11878936D02*
X15549943Y-11859888D01*
X15549943Y-11859888D02*
X15540420Y-11821793D01*
X15540420Y-11821793D02*
X15540420Y-11774174D01*
X15540420Y-11774174D02*
X15549943Y-11736079D01*
X15549943Y-11736079D02*
X15559467Y-11717031D01*
X15559467Y-11717031D02*
X15568991Y-11707508D01*
X15568991Y-11707508D02*
X15588039Y-11697984D01*
X15740420Y-11897984D02*
X15740420Y-11764650D01*
X15740420Y-11783698D02*
X15749943Y-11774174D01*
X15749943Y-11774174D02*
X15768991Y-11764650D01*
X15768991Y-11764650D02*
X15797563Y-11764650D01*
X15797563Y-11764650D02*
X15816610Y-11774174D01*
X15816610Y-11774174D02*
X15826134Y-11793222D01*
X15826134Y-11793222D02*
X15826134Y-11897984D01*
X15826134Y-11793222D02*
X15835658Y-11774174D01*
X15835658Y-11774174D02*
X15854705Y-11764650D01*
X15854705Y-11764650D02*
X15883277Y-11764650D01*
X15883277Y-11764650D02*
X15902324Y-11774174D01*
X15902324Y-11774174D02*
X15911848Y-11793222D01*
X15911848Y-11793222D02*
X15911848Y-11897984D01*
X16007086Y-11897984D02*
X16007086Y-11764650D01*
X16007086Y-11783698D02*
X16016610Y-11774174D01*
X16016610Y-11774174D02*
X16035658Y-11764650D01*
X16035658Y-11764650D02*
X16064229Y-11764650D01*
X16064229Y-11764650D02*
X16083277Y-11774174D01*
X16083277Y-11774174D02*
X16092801Y-11793222D01*
X16092801Y-11793222D02*
X16092801Y-11897984D01*
X16092801Y-11793222D02*
X16102324Y-11774174D01*
X16102324Y-11774174D02*
X16121372Y-11764650D01*
X16121372Y-11764650D02*
X16149943Y-11764650D01*
X16149943Y-11764650D02*
X16168991Y-11774174D01*
X16168991Y-11774174D02*
X16178515Y-11793222D01*
X16178515Y-11793222D02*
X16178515Y-11897984D01*
X16568991Y-11688460D02*
X16397563Y-11945603D01*
X16826134Y-11697984D02*
X16845182Y-11697984D01*
X16845182Y-11697984D02*
X16864229Y-11707508D01*
X16864229Y-11707508D02*
X16873753Y-11717031D01*
X16873753Y-11717031D02*
X16883277Y-11736079D01*
X16883277Y-11736079D02*
X16892801Y-11774174D01*
X16892801Y-11774174D02*
X16892801Y-11821793D01*
X16892801Y-11821793D02*
X16883277Y-11859888D01*
X16883277Y-11859888D02*
X16873753Y-11878936D01*
X16873753Y-11878936D02*
X16864229Y-11888460D01*
X16864229Y-11888460D02*
X16845182Y-11897984D01*
X16845182Y-11897984D02*
X16826134Y-11897984D01*
X16826134Y-11897984D02*
X16807087Y-11888460D01*
X16807087Y-11888460D02*
X16797563Y-11878936D01*
X16797563Y-11878936D02*
X16788039Y-11859888D01*
X16788039Y-11859888D02*
X16778515Y-11821793D01*
X16778515Y-11821793D02*
X16778515Y-11774174D01*
X16778515Y-11774174D02*
X16788039Y-11736079D01*
X16788039Y-11736079D02*
X16797563Y-11717031D01*
X16797563Y-11717031D02*
X16807087Y-11707508D01*
X16807087Y-11707508D02*
X16826134Y-11697984D01*
X16978515Y-11878936D02*
X16988039Y-11888460D01*
X16988039Y-11888460D02*
X16978515Y-11897984D01*
X16978515Y-11897984D02*
X16968991Y-11888460D01*
X16968991Y-11888460D02*
X16978515Y-11878936D01*
X16978515Y-11878936D02*
X16978515Y-11897984D01*
X17111848Y-11697984D02*
X17130896Y-11697984D01*
X17130896Y-11697984D02*
X17149944Y-11707508D01*
X17149944Y-11707508D02*
X17159468Y-11717031D01*
X17159468Y-11717031D02*
X17168991Y-11736079D01*
X17168991Y-11736079D02*
X17178515Y-11774174D01*
X17178515Y-11774174D02*
X17178515Y-11821793D01*
X17178515Y-11821793D02*
X17168991Y-11859888D01*
X17168991Y-11859888D02*
X17159468Y-11878936D01*
X17159468Y-11878936D02*
X17149944Y-11888460D01*
X17149944Y-11888460D02*
X17130896Y-11897984D01*
X17130896Y-11897984D02*
X17111848Y-11897984D01*
X17111848Y-11897984D02*
X17092801Y-11888460D01*
X17092801Y-11888460D02*
X17083277Y-11878936D01*
X17083277Y-11878936D02*
X17073753Y-11859888D01*
X17073753Y-11859888D02*
X17064229Y-11821793D01*
X17064229Y-11821793D02*
X17064229Y-11774174D01*
X17064229Y-11774174D02*
X17073753Y-11736079D01*
X17073753Y-11736079D02*
X17083277Y-11717031D01*
X17083277Y-11717031D02*
X17092801Y-11707508D01*
X17092801Y-11707508D02*
X17111848Y-11697984D01*
X17245182Y-11697984D02*
X17368991Y-11697984D01*
X17368991Y-11697984D02*
X17302325Y-11774174D01*
X17302325Y-11774174D02*
X17330896Y-11774174D01*
X17330896Y-11774174D02*
X17349944Y-11783698D01*
X17349944Y-11783698D02*
X17359468Y-11793222D01*
X17359468Y-11793222D02*
X17368991Y-11812269D01*
X17368991Y-11812269D02*
X17368991Y-11859888D01*
X17368991Y-11859888D02*
X17359468Y-11878936D01*
X17359468Y-11878936D02*
X17349944Y-11888460D01*
X17349944Y-11888460D02*
X17330896Y-11897984D01*
X17330896Y-11897984D02*
X17273753Y-11897984D01*
X17273753Y-11897984D02*
X17254706Y-11888460D01*
X17254706Y-11888460D02*
X17245182Y-11878936D01*
X17464229Y-11897984D02*
X17502325Y-11897984D01*
X17502325Y-11897984D02*
X17521372Y-11888460D01*
X17521372Y-11888460D02*
X17530896Y-11878936D01*
X17530896Y-11878936D02*
X17549944Y-11850365D01*
X17549944Y-11850365D02*
X17559468Y-11812269D01*
X17559468Y-11812269D02*
X17559468Y-11736079D01*
X17559468Y-11736079D02*
X17549944Y-11717031D01*
X17549944Y-11717031D02*
X17540420Y-11707508D01*
X17540420Y-11707508D02*
X17521372Y-11697984D01*
X17521372Y-11697984D02*
X17483277Y-11697984D01*
X17483277Y-11697984D02*
X17464229Y-11707508D01*
X17464229Y-11707508D02*
X17454706Y-11717031D01*
X17454706Y-11717031D02*
X17445182Y-11736079D01*
X17445182Y-11736079D02*
X17445182Y-11783698D01*
X17445182Y-11783698D02*
X17454706Y-11802746D01*
X17454706Y-11802746D02*
X17464229Y-11812269D01*
X17464229Y-11812269D02*
X17483277Y-11821793D01*
X17483277Y-11821793D02*
X17521372Y-11821793D01*
X17521372Y-11821793D02*
X17540420Y-11812269D01*
X17540420Y-11812269D02*
X17549944Y-11802746D01*
X17549944Y-11802746D02*
X17559468Y-11783698D01*
X17730896Y-11764650D02*
X17730896Y-11897984D01*
X17683277Y-11688460D02*
X17635658Y-11831317D01*
X17635658Y-11831317D02*
X17759468Y-11831317D01*
X17826134Y-11697984D02*
X17826134Y-11736079D01*
X17902325Y-11697984D02*
X17902325Y-11736079D01*
X18197563Y-11974174D02*
X18188039Y-11964650D01*
X18188039Y-11964650D02*
X18168991Y-11936079D01*
X18168991Y-11936079D02*
X18159468Y-11917031D01*
X18159468Y-11917031D02*
X18149944Y-11888460D01*
X18149944Y-11888460D02*
X18140420Y-11840841D01*
X18140420Y-11840841D02*
X18140420Y-11802746D01*
X18140420Y-11802746D02*
X18149944Y-11755127D01*
X18149944Y-11755127D02*
X18159468Y-11726555D01*
X18159468Y-11726555D02*
X18168991Y-11707508D01*
X18168991Y-11707508D02*
X18188039Y-11678936D01*
X18188039Y-11678936D02*
X18197563Y-11669412D01*
X18302325Y-11783698D02*
X18283277Y-11774174D01*
X18283277Y-11774174D02*
X18273753Y-11764650D01*
X18273753Y-11764650D02*
X18264230Y-11745603D01*
X18264230Y-11745603D02*
X18264230Y-11736079D01*
X18264230Y-11736079D02*
X18273753Y-11717031D01*
X18273753Y-11717031D02*
X18283277Y-11707508D01*
X18283277Y-11707508D02*
X18302325Y-11697984D01*
X18302325Y-11697984D02*
X18340420Y-11697984D01*
X18340420Y-11697984D02*
X18359468Y-11707508D01*
X18359468Y-11707508D02*
X18368991Y-11717031D01*
X18368991Y-11717031D02*
X18378515Y-11736079D01*
X18378515Y-11736079D02*
X18378515Y-11745603D01*
X18378515Y-11745603D02*
X18368991Y-11764650D01*
X18368991Y-11764650D02*
X18359468Y-11774174D01*
X18359468Y-11774174D02*
X18340420Y-11783698D01*
X18340420Y-11783698D02*
X18302325Y-11783698D01*
X18302325Y-11783698D02*
X18283277Y-11793222D01*
X18283277Y-11793222D02*
X18273753Y-11802746D01*
X18273753Y-11802746D02*
X18264230Y-11821793D01*
X18264230Y-11821793D02*
X18264230Y-11859888D01*
X18264230Y-11859888D02*
X18273753Y-11878936D01*
X18273753Y-11878936D02*
X18283277Y-11888460D01*
X18283277Y-11888460D02*
X18302325Y-11897984D01*
X18302325Y-11897984D02*
X18340420Y-11897984D01*
X18340420Y-11897984D02*
X18359468Y-11888460D01*
X18359468Y-11888460D02*
X18368991Y-11878936D01*
X18368991Y-11878936D02*
X18378515Y-11859888D01*
X18378515Y-11859888D02*
X18378515Y-11821793D01*
X18378515Y-11821793D02*
X18368991Y-11802746D01*
X18368991Y-11802746D02*
X18359468Y-11793222D01*
X18359468Y-11793222D02*
X18340420Y-11783698D01*
X18616611Y-11897984D02*
X18616611Y-11697984D01*
X18702325Y-11897984D02*
X18702325Y-11793222D01*
X18702325Y-11793222D02*
X18692801Y-11774174D01*
X18692801Y-11774174D02*
X18673753Y-11764650D01*
X18673753Y-11764650D02*
X18645182Y-11764650D01*
X18645182Y-11764650D02*
X18626134Y-11774174D01*
X18626134Y-11774174D02*
X18616611Y-11783698D01*
X18826134Y-11897984D02*
X18807087Y-11888460D01*
X18807087Y-11888460D02*
X18797563Y-11878936D01*
X18797563Y-11878936D02*
X18788039Y-11859888D01*
X18788039Y-11859888D02*
X18788039Y-11802746D01*
X18788039Y-11802746D02*
X18797563Y-11783698D01*
X18797563Y-11783698D02*
X18807087Y-11774174D01*
X18807087Y-11774174D02*
X18826134Y-11764650D01*
X18826134Y-11764650D02*
X18854706Y-11764650D01*
X18854706Y-11764650D02*
X18873753Y-11774174D01*
X18873753Y-11774174D02*
X18883277Y-11783698D01*
X18883277Y-11783698D02*
X18892801Y-11802746D01*
X18892801Y-11802746D02*
X18892801Y-11859888D01*
X18892801Y-11859888D02*
X18883277Y-11878936D01*
X18883277Y-11878936D02*
X18873753Y-11888460D01*
X18873753Y-11888460D02*
X18854706Y-11897984D01*
X18854706Y-11897984D02*
X18826134Y-11897984D01*
X19007087Y-11897984D02*
X18988039Y-11888460D01*
X18988039Y-11888460D02*
X18978515Y-11869412D01*
X18978515Y-11869412D02*
X18978515Y-11697984D01*
X19159468Y-11888460D02*
X19140420Y-11897984D01*
X19140420Y-11897984D02*
X19102325Y-11897984D01*
X19102325Y-11897984D02*
X19083277Y-11888460D01*
X19083277Y-11888460D02*
X19073753Y-11869412D01*
X19073753Y-11869412D02*
X19073753Y-11793222D01*
X19073753Y-11793222D02*
X19083277Y-11774174D01*
X19083277Y-11774174D02*
X19102325Y-11764650D01*
X19102325Y-11764650D02*
X19140420Y-11764650D01*
X19140420Y-11764650D02*
X19159468Y-11774174D01*
X19159468Y-11774174D02*
X19168992Y-11793222D01*
X19168992Y-11793222D02*
X19168992Y-11812269D01*
X19168992Y-11812269D02*
X19073753Y-11831317D01*
X19245182Y-11888460D02*
X19264230Y-11897984D01*
X19264230Y-11897984D02*
X19302325Y-11897984D01*
X19302325Y-11897984D02*
X19321373Y-11888460D01*
X19321373Y-11888460D02*
X19330896Y-11869412D01*
X19330896Y-11869412D02*
X19330896Y-11859888D01*
X19330896Y-11859888D02*
X19321373Y-11840841D01*
X19321373Y-11840841D02*
X19302325Y-11831317D01*
X19302325Y-11831317D02*
X19273753Y-11831317D01*
X19273753Y-11831317D02*
X19254706Y-11821793D01*
X19254706Y-11821793D02*
X19245182Y-11802746D01*
X19245182Y-11802746D02*
X19245182Y-11793222D01*
X19245182Y-11793222D02*
X19254706Y-11774174D01*
X19254706Y-11774174D02*
X19273753Y-11764650D01*
X19273753Y-11764650D02*
X19302325Y-11764650D01*
X19302325Y-11764650D02*
X19321373Y-11774174D01*
X19397563Y-11974174D02*
X19407087Y-11964650D01*
X19407087Y-11964650D02*
X19426134Y-11936079D01*
X19426134Y-11936079D02*
X19435658Y-11917031D01*
X19435658Y-11917031D02*
X19445182Y-11888460D01*
X19445182Y-11888460D02*
X19454706Y-11840841D01*
X19454706Y-11840841D02*
X19454706Y-11802746D01*
X19454706Y-11802746D02*
X19445182Y-11755127D01*
X19445182Y-11755127D02*
X19435658Y-11726555D01*
X19435658Y-11726555D02*
X19426134Y-11707508D01*
X19426134Y-11707508D02*
X19407087Y-11678936D01*
X19407087Y-11678936D02*
X19397563Y-11669412D01*
M02*
